<?xml version="1.0" standalone="no"?>
<!DOCTYPE svg PUBLIC "-//W3C//DTD SVG 1.1//EN" "http://www.w3.org/Graphics/SVG/1.1/DTD/svg11.dtd" >
<svg xmlns="http://www.w3.org/2000/svg" xmlns:xlink="http://www.w3.org/1999/xlink" version="1.1">
<metadata>
Created by FontForge 20170910 at Thu Apr 12 07:00:44 2018
 By Jimmy Wärting
Copyright (c) 2017, Ceo Haekal (Graphicfresh - Sameeh Media)
</metadata>
<defs>
<font id="Luna-Medium" horiz-adv-x="810" >
  <font-face 
    font-family="Luna"
    font-weight="500"
    font-stretch="normal"
    units-per-em="1000"
    panose-1="2 0 6 3 0 0 0 0 0 0"
    ascent="800"
    descent="-200"
    x-height="770"
    cap-height="770"
    bbox="-80.2646 -157.103 1030 1047.06"
    underline-thickness="50"
    underline-position="-100"
    stemh="90"
    stemv="90"
    unicode-range="U+0020-20AC"
  />
<missing-glyph horiz-adv-x="500" 
d="M50 0v533h400v-533h-400zM100 50h300v433h-300v-433z" />
    <glyph glyph-name=".notdef" horiz-adv-x="500" 
d="M50 0v533h400v-533h-400zM100 50h300v433h-300v-433z" />
    <glyph glyph-name="space" unicode=" " horiz-adv-x="500" 
 />
    <glyph glyph-name="exclam" unicode="!" horiz-adv-x="260" 
d="M129.687 765.071c-25.083 -0.378906 -44.6865 -20.4561 -44.6865 -45.0713l-0.000976562 -560.07c0 -24.8496 20.1514 -45.001 45.001 -45.001c24.8457 0 45 20.1621 45 45.0713l0.000976562 560.07c0 25.0977 -20.5967 45.001 -45.3145 45.001zM130 60
c-27.6094 0 -50 -22.3906 -50 -50s22.3906 -50 50 -50s50 22.3906 50 50s-22.3906 50 -50 50z" />
    <glyph glyph-name="quotedbl" unicode="&#x22;" horiz-adv-x="399" 
d="M124.688 770.001c-25.083 -0.378906 -44.6865 -20.457 -44.6865 -45.0713l-0.000976562 -120.07c0 -24.8496 20.1514 -45.001 45.001 -45.001c24.8457 0 45 20.1631 45 45.0713l0.000976562 120.07c0 25.0977 -20.5967 45.001 -45.3145 45.001zM273.688 770.001
c-25.083 -0.378906 -44.6865 -20.457 -44.6865 -45.0713l-0.000976562 -120.07c0 -24.8496 20.1514 -45.001 45.001 -45.001c24.8457 0 45 20.1631 45 45.0713l0.000976562 120.07c0 25.0977 -20.5967 45.001 -45.3145 45.001z" />
    <glyph glyph-name="numbersign" unicode="#" 
d="M605.352 770.227c-22.0693 -1.09961 -41.5586 -17.2617 -44.7148 -38.0234l-25.4131 -152.481l-1.60645 -9.63477h-188.759l24.6006 147.601c1.08887 6.5332 0.751953 3.64941 0.492188 12.7754c-0.509766 16.4756 -20.7754 38.3164 -44.5996 39.7637
c-22.0693 -1.09961 -41.5586 -17.2617 -44.7148 -38.0234l-27.0195 -162.116l-88.6162 0.000976562c-24.8496 0 -45.001 -20.1514 -45.001 -45.001c0 -24.8447 20.1631 -45 45.0713 -45h73.5469l-38.335 -230l-75.2822 0.000976562
c-24.8496 0 -45.001 -20.1514 -45.001 -45.001c0 -24.8447 20.1631 -45 45.0713 -45h60.2129l-6.4375 -38.625l-18.1631 -108.979c-0.771484 -4.62988 -0.630859 -8.24023 -0.618164 -8.67188c0.776367 -25.0283 20.5654 -43.8115 44.9912 -43.8115
c22.3125 0 41.2568 16.4707 44.46 38.0381l26.0645 156.383l0.944336 5.66602h188.759l-24.6006 -147.604c-0.771484 -4.62988 -0.630859 -8.24023 -0.618164 -8.67188c0.776367 -25.0283 20.5654 -43.8115 44.9912 -43.8115c22.3125 0 41.2568 16.4707 44.46 38.0381
l20.7109 124.265l6.29785 37.7842h88.6172c24.8496 0 45 20.1504 45 45c0 24.8398 -20.1562 45 -45.0713 45h-73.5449l38.333 230h75.2832c24.8496 0 45 20.1504 45 45c0 24.8398 -20.1562 45 -45.0713 45h-60.2129l8.25391 49.5225l16.3467 98.0781
c1.08887 6.5332 0.751953 3.64941 0.492188 12.7754c-0.509766 16.4756 -20.7754 38.3164 -44.5996 39.7637zM329.859 480.087h188.759l-38.335 -230h-188.757z" />
    <glyph glyph-name="dollar" unicode="$" horiz-adv-x="730" 
d="M364.687 855.021c-25.083 -0.378906 -44.6865 -20.4561 -44.6865 -45.0713v-44.2422c-47.0732 -8.8916 -86.6299 -28.4346 -120.61 -55.6191c-44.2441 -35.3945 -79.3896 -86.2949 -79.3896 -145.139c0 -83.3584 35.9424 -141.956 88.209 -177.987
c34.2881 -23.6367 74.8916 -38.1416 111.791 -48.8682v-283.705c-12.6729 2.50391 -22.8076 5.3584 -34.0742 9.40527c-21.5742 7.74902 -41.4072 18.5391 -58.2979 31.6758c-17.5576 13.6572 -31.5566 29.459 -41.3154 46.8584
c-10.5078 18.7334 -16.3115 39.3701 -16.3115 62.6914c0 24.8496 -20.1514 45.001 -45.001 45.001c-24.8457 0 -45 -20.1621 -45 -45.0713c0 -41.3672 11.5742 -79.4785 31.0664 -112.063c15.9648 -26.6885 37.082 -49.6182 61.3057 -68.457
c24.6826 -19.1992 52.7549 -34.2383 82.4355 -44.9775c21.0469 -7.61426 44.1338 -13.1387 65.1924 -16.2441l-0.000976562 -33.3281c0 -24.8496 20.1514 -45.001 45.001 -45.001c24.8457 0 45 20.1621 45 45.0713v33.1992c48.5791 6.73145 94.21 22.0264 136.529 48.7539
c55.9375 35.3301 103.471 93.7197 103.471 173.047c0 79.7988 -37.5371 134.922 -89.7959 167.782c-45.8262 28.8135 -100.995 42.626 -150.204 54.8682v265.706c9.06738 -2.65234 14.1934 -4.57227 21.6416 -7.78711c15.4912 -6.68652 29.9268 -15.4512 42.748 -25.708
c30.5352 -24.4287 45.6094 -54 45.6094 -74.9316c0 -24.8496 20.1514 -45.001 45.001 -45.001c24.8457 0 45 20.1621 45 45.0713c0 58.8389 -35.1504 109.749 -79.3896 145.139c-18.9932 15.1953 -40.4531 28.0537 -63.4229 37.9551
c-18.1807 7.83789 -38.6025 13.9717 -57.1875 17.5664l0.000976562 44.4102c0 25.0977 -20.5967 45.001 -45.3145 45.001zM320 673.084v-240.681c-25.6553 8.72461 -43.8369 17.0273 -60.709 28.6582c-30.958 21.3418 -49.291 46.4756 -49.291 103.888
c0 20.7637 15.1006 50.4531 45.6104 74.8613c18.4043 14.7227 41.9189 26.624 64.3896 33.2734zM410 314.677c43.333 -11.4043 77.0664 -22.2705 102.296 -38.1348c31.1475 -19.585 47.7041 -40.4609 47.7041 -91.5928c0 -40.9375 -22.165 -72.0928 -61.5293 -96.9531
c-25.3291 -15.998 -58.3672 -27.6045 -88.4707 -33.5146v260.195z" />
    <glyph glyph-name="percent" unicode="%" horiz-adv-x="811" 
d="M688.167 761.938c-14.8398 0.68457 -29.1191 -6.10742 -37.7285 -17.499l-560.903 -711.88c-15.9463 -20.498 -10.0244 -46.0859 4.05957 -59.8125c15.4355 -15.043 47.4717 -20.5225 66.8262 4.35742l560.877 711.844c5.70312 7.12109 9.00293 15.7891 9.68262 24.459
c1.85059 23.5654 -15.625 47.2842 -42.8135 48.5312zM246.054 721.93c-91.0742 0 -165 -73.9268 -165 -165s73.9258 -165 165 -165s165 73.9268 165 165s-73.9248 165 -165 165zM246.054 631.93c41.5049 0 75 -33.4951 75 -75c0 -41.5059 -33.4941 -75 -75 -75
c-41.5049 0 -75 33.4951 -75 75c0 41.5059 33.4951 75 75 75zM566.054 321.93c-91.0742 0 -165 -73.9268 -165 -165s73.9258 -165 165 -165s165 73.9268 165 165s-73.9248 165 -165 165zM566.054 231.93c41.5049 0 75 -33.4951 75 -75c0 -41.5059 -33.4941 -75 -75 -75
c-41.5049 0 -75 33.4951 -75 75c0 41.5059 33.4951 75 75 75z" />
    <glyph glyph-name="ampersand" unicode="&#x26;" 
d="M405 770c-55.2119 0 -108.176 -10.71 -147.77 -46.7021c-40.0645 -36.4219 -57.2305 -91.3086 -57.2305 -158.298c0 -49.6016 23.5723 -99.5762 54.249 -148.922c-30.6299 -12.0234 -59.8203 -25.9756 -86.6025 -45.0479
c-50 -35.6055 -87.6465 -90.2646 -87.6465 -166.03c0 -75.6738 38.0361 -137.451 85.3662 -178.867c47.0449 -41.1631 105.657 -66.1328 159.634 -66.1328c111.098 0 195.884 33.0898 255.102 85.6807c27.6807 -27.4209 51.5029 -50.9238 72.7871 -72.208
c8.07715 -8.41699 19.9697 -13.5449 32.1826 -13.5449c11.9277 0 22.875 4.70312 30.9062 12.292c8.63867 8.16406 14.0947 19.8525 14.0947 32.709c0 12.2129 -5.12793 24.1055 -13.5449 32.1826c-22.1543 22.1543 -52.8984 52.502 -79.1348 78.5078
c7.7793 13.0488 13.0664 23.5146 18.6777 36.208c24.1846 54.6973 33.9307 114.47 33.9307 173.243c0 24.8496 -20.1514 45.001 -45.001 45.001c-24.8457 0 -45 -20.1621 -45 -45.0713c0 -51.1729 -10.209 -102.229 -29.1719 -142.858
c-45.0195 45.5566 -87.3271 89.7559 -128.288 136.328c-14.6836 16.6953 -30.4238 35.3379 -43.5371 51.4277c43.4365 13.9219 83.2402 27.6826 120.139 49.4854c49.0508 28.9854 90.8584 75.9111 90.8584 145.617c0 75.915 -27.9932 131.496 -71.5215 164.577
c-42.3398 32.1768 -92.6895 40.4229 -133.479 40.4229zM405 680c28.9082 0 59.1113 -6.94629 79.0215 -22.0771c19.4561 -14.7871 35.9785 -38.2979 35.9785 -92.9229c0 -31.2373 -12.2881 -47.833 -46.6416 -68.1328c-31.2812 -18.4844 -81.832 -34.8867 -131.39 -50.6152
c-4.0459 5.9834 -7.4375 11.1729 -11.1309 17.0947c-27.5303 44.1357 -40.8379 82.0537 -40.8379 101.653c0 53.2139 12.7383 78.0371 27.7695 91.7031c15.293 13.9033 42.4971 23.2969 87.2305 23.2969zM307.842 339.969c21.752 -28.168 42.9121 -53.416 67.1182 -80.9385
c45.0859 -51.2617 94.6445 -102.647 141.342 -149.733c-42.3467 -36.3408 -100.701 -59.2969 -191.302 -59.2969c-25.4775 0 -67.8047 15.375 -100.366 43.8652c-32.7256 28.6357 -54.6338 66.7773 -54.6338 111.135c0 44.9639 16.6934 69.1064 49.8535 92.7197
c21.7812 15.5107 55.624 30.4883 87.9883 42.249z" />
    <glyph glyph-name="quotesingle" unicode="'" horiz-adv-x="250" 
d="M124.687 770.001c-25.0889 -0.380859 -44.6865 -20.4619 -44.6865 -45.0713v-120.07c0 -24.8457 20.1475 -45.001 45 -45.001c24.8457 0 45 20.1631 45 45.0713l0.000976562 120.07c0 25.0977 -20.5977 45.001 -45.3145 45.001z" />
    <glyph glyph-name="parenleft" unicode="(" horiz-adv-x="370" 
d="M244.131 860.055c-14.3867 -0.581055 -26.5938 -7.06152 -34.4443 -17.1621c-89.9297 -112.411 -129.687 -291.86 -129.687 -467.893c0 -176.011 39.8047 -355.54 129.636 -467.829c8.19727 -10.6348 21.4932 -17.2412 35.4199 -17.2412
c24.8457 0 45.001 20.1475 45.001 45c0 10.4873 -3.78027 20.792 -10.1387 28.458c-69.1045 86.3789 -109.918 248.111 -109.918 411.612c0 163.534 40.7539 325.158 109.972 411.68c6.35059 7.72461 10.0723 17.9443 10.0723 28.375c0 25.6641 -21.5371 45 -45.9131 45z
" />
    <glyph glyph-name="parenright" unicode=")" horiz-adv-x="370" 
d="M125.926 860.055c14.3867 -0.581055 26.5938 -7.06152 34.4443 -17.1621c89.9297 -112.411 129.687 -291.86 129.687 -467.893c0 -176.011 -39.8047 -355.54 -129.636 -467.829c-8.19727 -10.6348 -21.4932 -17.2412 -35.4199 -17.2412
c-24.8457 0 -45.001 20.1475 -45.001 45c0 10.4873 3.78027 20.792 10.1387 28.458c69.1045 86.3789 109.918 248.111 109.918 411.612c0 163.534 -40.7539 325.158 -109.972 411.68c-6.35059 7.72461 -10.0723 17.9443 -10.0723 28.375c0 25.6641 21.5371 45 45.9131 45z
" />
    <glyph glyph-name="asterisk" unicode="*" horiz-adv-x="430" 
d="M214.752 782.001c-25.083 -0.378906 -44.6865 -20.4561 -44.6865 -45.0713v-42.7559l-26.4395 11.751c-5.19629 2.40625 -10.7256 3.79883 -17.8906 4.03516c-25.9053 0 -45.7354 -20.2207 -45.7354 -45.001c0 -18.0156 10.8496 -34.3418 27.0498 -41.2666
l29.8662 -13.2725l-33.3779 -33.3789c-8.41602 -8.07617 -13.5449 -19.9697 -13.5449 -32.1826c0 -11.9277 4.70312 -22.875 12.292 -30.9062c8.16406 -8.63867 19.8525 -14.0947 32.709 -14.0947c12.2129 0 24.1064 5.12891 32.1826 13.5449l47.8887 47.8887
l47.8887 -47.8887c8.07617 -8.41602 19.9697 -13.5449 32.1826 -13.5449c11.9277 0 22.875 4.70312 30.9062 12.292c8.63867 8.16406 14.0947 19.8525 14.0947 32.709c0 12.2129 -5.12891 24.1064 -13.5449 32.1826l-33.3779 33.3789l29.8789 13.2793
c16.1924 6.93555 27.0352 23.2422 27.0352 41.2588c0 24.1191 -18.7852 44.04 -44.1572 45.001c-7.81641 0 -13.8604 -1.45117 -19.4316 -4.01855l-26.4746 -11.7666l0.000976562 42.8262c0 25.0977 -20.5967 45.001 -45.3145 45.001z" />
    <glyph glyph-name="plus" unicode="+" horiz-adv-x="640" 
d="M275 566v-155h-155c-25.6787 0 -40 -21.6592 -40 -40v-10c0 -25.6787 21.6592 -40 40 -40h155v-155c0 -25.6787 21.6592 -40 40 -40h10c25.6787 0 40 21.6592 40 40v155h155c25.6787 0 40 21.6592 40 40v10c0 25.6787 -21.6592 40 -40 40h-155v155
c0 25.6787 -21.6592 40 -40 40h-10c-25.6787 0 -40 -21.6592 -40 -40z" />
    <glyph glyph-name="comma" unicode="," horiz-adv-x="250" 
d="M124.687 54.001c-25.0889 -0.380859 -44.6865 -20.4619 -44.6865 -45.0713v-120.07c0 -24.8457 20.1475 -45.001 45 -45.001c24.8457 0 45 20.1631 45 45.0713l0.000976562 120.07c0 25.0977 -20.5977 45.001 -45.3145 45.001z" />
    <glyph glyph-name="hyphen" unicode="-" horiz-adv-x="570" 
d="M125.036 405c-24.79 0 -45.0361 -20.0732 -45.0361 -45c0 -24.8457 20.1621 -45 45.0713 -45l320.07 -0.000976562c24.8496 0 45.001 20.1514 45.001 45.001c0 24.8457 -20.1621 45 -45.0713 45h-320.035z" />
    <glyph glyph-name="period" unicode="." horiz-adv-x="260" 
d="M130 60c-27.6094 0 -50 -22.3906 -50 -50s22.3906 -50 50 -50s50 22.3906 50 50s-22.3906 50 -50 50z" />
    <glyph glyph-name="slash" unicode="/" horiz-adv-x="530" 
d="M404.05 770.117c-19.4033 -0.859375 -34.9336 -12.5342 -41.0752 -29.0264l-279.81 -719.514c-2.08594 -5.18457 -3.16504 -10.6768 -3.16504 -16.5762c0 -24.8496 20.1514 -45.001 45.001 -45.001c18.7393 0 35.5322 11.6836 42.0352 28.9326l279.826 719.552
c2.08008 5.1416 3.18457 10.6807 3.18457 16.6318c0 25.7256 -21.6533 45.001 -45.9971 45.001z" />
    <glyph glyph-name="zero" unicode="0" 
d="M405 770c-93.6348 0 -176.166 -49.083 -233.513 -122.813c-57.4072 -73.8105 -91.4873 -173.418 -91.4873 -282.187s34.0811 -208.376 91.4893 -282.187c57.3457 -73.7314 139.875 -122.813 233.511 -122.813c93.6348 0 176.166 49.083 233.513 122.813
c57.4072 73.8105 91.4873 173.418 91.4873 282.187s-34.0811 208.376 -91.4893 282.187c-57.3457 73.7314 -139.875 122.813 -233.511 122.813zM405 680c61.0625 0 118.427 -31.4434 162.47 -88.0693c43.9033 -56.4492 72.5303 -136.922 72.5303 -226.931
s-28.627 -170.481 -72.5303 -226.931c-44.041 -56.624 -101.412 -88.0693 -162.47 -88.0693c-61.0625 0 -118.427 31.4434 -162.47 88.0693c-43.9033 56.4492 -72.5303 136.922 -72.5303 226.931s28.627 170.481 72.5303 226.931
c44.041 56.624 101.412 88.0693 162.47 88.0693z" />
    <glyph glyph-name="one" unicode="1" horiz-adv-x="650" 
d="M323.735 769.98c-3.1875 -0.0957031 -6.37695 -0.524414 -9.58789 -1.32422l-159.994 -39.9971c-25.1914 -6.29395 -36.3252 -30.085 -33.7051 -49.583c2.86719 -21.3359 24.5762 -45.4658 55.5283 -37.7324l104.085 26.0205v-617.364h-154.717
c-27.4199 0.387695 -44.2012 -22.3037 -45.2891 -42.5518c-1.13281 -21.1055 14.9766 -47.876 45.2891 -47.4482h399.438c24.6709 -0.345703 45.3506 19.874 45.3506 45s-20.6787 45.3457 -45.3506 45h-154.721v675c0 25.3828 -20.9912 45.7158 -46.3262 44.9805z" />
    <glyph glyph-name="two" unicode="2" horiz-adv-x="690" 
d="M365 770c-67.2002 0 -127.627 -16.6191 -172.804 -52.1162c-22.5889 -17.749 -40.7334 -40.0459 -53.124 -65.8691c-12.5498 -26.1504 -19.0732 -55.6396 -19.0732 -87.085c0 -24.8496 20.1514 -45.001 45.001 -45.001c24.8457 0 45 20.1621 45 45.0713
c0 18.9482 3.55469 34.418 9.75391 47.5664c6.29883 13.3604 15.4375 24.6406 28.0469 34.5488c24.7529 19.4473 64.4775 32.8848 117.199 32.8848c29.3398 0 52.79 -5.02441 71.7783 -13.1045c19.4678 -8.2832 34.5332 -19.8115 46.7158 -33.8682
c23.8945 -27.5713 36.5059 -66.7822 36.5059 -108.027c0 -26.1016 -5.29102 -48.918 -14.9453 -70.5c-9.65039 -21.5732 -23.8594 -42.0039 -42.0801 -62.0205c-36.3086 -39.8828 -88.3672 -76.5713 -142.739 -112.407
c-54.3613 -35.8291 -111.135 -70.8936 -156.893 -112.837c-15.3584 -14.0791 -29.6523 -29.1895 -42.0029 -45.7178c-24.4766 -32.7598 -41.3398 -71.6631 -41.3398 -116.518c0 -11.9277 4.70312 -22.875 12.292 -30.9062
c8.16406 -8.63867 19.8516 -14.0938 32.708 -14.0938l440.07 -0.000976562c24.8496 0 45.001 20.1514 45.001 45.001c0 24.8457 -20.1621 45 -45.0713 45h-383.097c3.40918 6.32812 6.7002 11.377 11.2148 17.4258c8.06934 10.8096 18.4551 21.9297 31.0391 33.4648
c36.6143 33.5625 90.1152 67.4629 145.607 104.037c55.5039 36.583 113.67 76.3369 159.761 126.968c22.999 25.2617 43.04 53.5703 57.4033 85.5547c14.5137 32.3184 23.0713 68.293 23.0713 107.55c0 58.6836 -17.4414 119.606 -58.4941 166.974
c-20.0781 23.167 -45.5645 42.4561 -75.9004 55.9854c-31.9678 14.2568 -69.0801 22.041 -110.605 22.041z" />
    <glyph glyph-name="three" unicode="3" horiz-adv-x="693" 
d="M372.042 765.509c-37.9756 -0.879883 -78.9424 -11.5947 -116.471 -31.8691c-42.749 -23.0928 -83.0479 -60.418 -102.615 -112.596c-1.95703 -5.01953 -2.97949 -10.3457 -2.97949 -16.1045c0 -24.8496 20.1514 -45.001 45.001 -45.001
c18.9902 0 35.9453 12.0068 42.248 29.5039c10.0498 26.7988 32.6084 49.6094 61.1211 65.0137c28.3223 15.2979 61.9111 22.2295 84.8652 20.9385c15.6396 -0.87793 30.6641 -4.43555 44.418 -10.1777c43.4717 -18.1494 72.3701 -56.7773 72.3701 -100.217
c0 -18.6777 -3.80566 -35.5234 -11.1729 -50.8105c-7.36719 -15.2891 -18.3848 -29.208 -33.8135 -41.5508c-11.5195 -9.21582 -25.6094 -17.502 -42.4736 -24.2793c-28.0898 -11.292 -63.8965 -18.3594 -107.54 -18.3594c-25.6787 0 -40 -21.6592 -40 -40v-10
c0 -25.6787 21.6592 -40 40 -40c59.4346 0 104.437 -10.6973 137.209 -26.4111c14.0576 -6.74023 25.8916 -14.4023 35.7881 -22.6074c16.4141 -13.6084 27.7227 -28.7148 35.084 -44.6299c7.46484 -16.1367 10.9033 -33.2422 10.6719 -50.7588
c-0.0517578 -3.97852 -0.298828 -7.96875 -0.742188 -11.9746c-3.56348 -32.2266 -19.8135 -64.7852 -48.3135 -89.7041c-29.4883 -25.7852 -72.3848 -43.9141 -129.697 -43.9141c-5.58008 0 -11.0146 0.185547 -16.3203 0.544922
c-23.8623 1.61133 -44.9775 6.67969 -63.5078 13.9805c-21.0957 8.3125 -38.8604 19.5537 -53.1992 31.9805c-30.0098 26.0088 -41.9717 57.7178 -41.9717 68.5645c0 24.8496 -20.1514 45.001 -45.001 45.001c-24.8457 0 -45 -20.1621 -45 -45.0713
c0 -48.3955 28.6523 -98.0488 73.0264 -136.506c4.25098 -3.68457 8.67871 -7.28027 13.2803 -10.7715c19.6787 -14.9297 42.541 -27.9561 68.3164 -37.8418c26.4434 -10.1416 55.9395 -16.958 88.04 -19.1309c7.31445 -0.495117 14.7617 -0.75 22.3369 -0.75
c77.4844 0 142.479 25.8262 189.098 66.6846c44.3652 38.8838 71.9131 91.0859 78.2598 146.095c0.827148 7.17285 1.29395 14.3887 1.38965 21.6279c0.385742 29.3672 -5.41602 58.9072 -17.6904 86.6182c-13.0176 29.3877 -33.29 56.5859 -60.6152 79.2412
c-12.7217 10.5469 -28.0049 20.5947 -42.8047 28.5527c6.43945 4.21484 12.5088 8.66992 18.5986 13.542c25.3496 20.2783 45.165 45.0674 58.5381 72.8184c13.373 27.75 20.2266 58.2969 20.2266 89.8203c0 84.9355 -55.4531 152.876 -127.327 183.062
c-23.2441 9.7627 -48.4111 15.7295 -74.4072 17.1914c-5.36719 0.301758 -10.7793 0.380859 -16.2236 0.254883z" />
    <glyph glyph-name="four" unicode="4" horiz-adv-x="730" 
d="M484.329 770.069c-14.5049 -0.425781 -27.1348 -7.08301 -35.3301 -17.998l-360.015 -480.019c-5.82031 -7.77051 -8.98438 -17.2822 -8.98438 -26.9814c0 -24.8398 20.1416 -45 44.999 -45h315l-0.000976562 -195.07c0 -24.8496 20.1514 -45.001 45.001 -45.001
c24.8457 0 45 20.1621 45 45.0713v125.534v69.4658l75.0703 -0.000976562c24.8496 0 45.001 20.1514 45.001 45.001c0 24.8447 -20.1631 45 -45.0713 45h-75v435.014c-0.00878906 25.4531 -21.1836 44.9844 -45.6699 44.9844zM439.999 590.071v-300h-225z" />
    <glyph glyph-name="five" unicode="5" horiz-adv-x="724" 
d="M165 770c-24.8496 0 -45 -20.1504 -45 -45v-280c0 -11.9277 4.70312 -22.875 12.292 -30.9062c8.16406 -8.63867 19.8516 -14.0938 32.708 -14.0938h152c4.00586 0 7.96289 -0.0488281 11.8447 -0.141602c4.2793 -0.104492 8.48242 -0.264648 12.6143 -0.478516
c34.9375 -1.8125 64.6797 -7.49902 89.7344 -15.8135c25.0625 -8.31738 45.4434 -19.2451 61.8965 -31.7041c3.89453 -2.94824 7.56543 -5.98047 11.0332 -9.0957c18.7021 -16.7939 31.6387 -35.9307 39.8086 -56.4668c7.59375 -19.0859 11.0537 -39.4766 10.5811 -60.2773
c-0.959961 -42.2012 -18.3584 -85.2559 -50.1973 -118.053c-33.2363 -34.2363 -82.2158 -57.9697 -147.315 -57.9697c-50.0918 0 -98.416 17.0811 -132.594 44.9004c-16.4043 13.3525 -29.4932 28.8525 -38.7119 46.1494c-10.0605 18.874 -15.6934 39.9824 -15.6934 64.0205
c0 24.8496 -20.1514 45.001 -45.001 45.001c-24.8457 0 -45 -20.1621 -45 -45.0713c0 -38.5586 9.50781 -74.3115 26.0176 -105.54c15.3262 -28.9873 36.5693 -54.0068 61.5762 -74.3604c51.749 -42.1201 119.592 -65.0996 189.406 -65.0996
c88.0811 0 160.735 33.5215 210.728 84.4795c48.1084 49.0361 75.2656 113.786 76.7598 179.498c0.757812 33.3281 -5.1377 66.9609 -18.249 98.624c-13.251 32 -33.876 61.8896 -61.9873 87.1328c-5.11426 4.5918 -10.4648 9.02344 -16.0469 13.2812
c-25.0059 19.0771 -54.6143 34.6309 -88.5576 45.9033c-33.6182 11.165 -71.4766 18.1445 -113.542 20.3359c-4.53613 0.236328 -9.12109 0.416992 -13.7578 0.541016c-5.05664 0.135742 -10.1729 0.204102 -15.3467 0.204102h-107v190l315.07 -0.000976562
c24.8496 0 45.001 20.1514 45.001 45.001c0 24.8457 -20.1621 45 -45.0713 45h-360z" />
    <glyph glyph-name="six" unicode="6" horiz-adv-x="730" 
d="M525.035 770c-6.02441 0 -11.9805 -0.0546875 -17.8691 -0.165039c-78.1816 -1.46289 -144.718 -12.6074 -200.834 -34.9102c-57.0762 -22.6836 -102.99 -57.1348 -137.332 -102.925c-2.4873 -3.31641 -4.91309 -6.6875 -7.27344 -10.1025
c-2.53027 -3.66211 -4.99023 -7.38477 -7.375 -11.1553c-2.38867 -3.77637 -4.70605 -7.61035 -6.9502 -11.4902c-2.09961 -3.62793 -4.13477 -7.30078 -6.11328 -11.0205c-47.4521 -89.2471 -61.2881 -204.233 -61.2881 -343.231c0 -157.343 127.657 -285 285 -285
s285 127.657 285 285s-127.657 285 -285 285c-65.2354 0 -124.754 -22.3662 -172.447 -58.3711c7.25586 27.7344 15.0869 48.5576 25.6924 69.5166c1.90625 3.76758 3.86914 7.43457 5.90039 11.0195c1.9043 3.3623 3.85742 6.63672 5.87207 9.84277
c1.74512 2.77832 3.52734 5.49023 5.3623 8.16113c1.83008 2.66602 3.69922 5.27148 5.62012 7.83105c24.0957 32.1279 55.2676 56.3848 98.8584 73.6592c42.6094 16.8857 97.4766 26.7832 167.679 28.1689c5.74121 0.114258 11.5859 0.170898 17.5332 0.170898
c24.8496 0 45.001 20.1514 45.001 45.001c0 24.9268 -20.2461 45 -45.0361 45zM365 440c107.769 0 195 -87.2314 195 -195s-87.2314 -195 -195 -195s-195 87.2314 -195 195s87.2314 195 195 195z" />
    <glyph glyph-name="seven" unicode="7" horiz-adv-x="690" 
d="M125.036 770.071c-24.7871 0 -45.0361 -20.0713 -45.0361 -45c0 -24.8457 20.1621 -45 45.0713 -45h389.439c-17.1279 -75.5693 -70.1514 -162.625 -128.31 -262.326c-70.1875 -120.322 -146.131 -257.625 -146.131 -412.744c0 -24.8496 20.1514 -45.001 45.001 -45.001
c24.8457 0 45 20.1621 45 45.0713c0 124.839 64.1299 247.772 133.87 367.326c68.6201 117.635 146.13 233.053 146.13 352.674c0 11.9277 -4.70312 22.875 -12.292 30.9062c-8.16406 8.63867 -19.8516 14.0938 -32.708 14.0938h-440.035z" />
    <glyph glyph-name="eight" unicode="8" horiz-adv-x="730" 
d="M365 770c-46.9697 0 -101.076 -11.1846 -146.156 -43.3818c-46.1055 -32.9336 -78.8438 -87.9688 -78.8438 -161.618c0 -65.0713 40.0361 -110.678 85.2568 -141.543c7.2334 -4.93652 16.7842 -10.8184 23.2051 -14.5439
c-31.0127 -14.9561 -59.8975 -31.7383 -86.6465 -54.0293c-46.9678 -39.1416 -81.8154 -95.2266 -81.8154 -169.884c0 -62.4502 26.001 -121.295 76.624 -162.425c50.2246 -40.8096 121.133 -62.5752 208.376 -62.5752c87.2461 0 158.148 21.7646 208.376 62.5752
c50.6201 41.1289 76.624 99.9727 76.624 162.425c0 71.0605 -36.001 124.362 -82.3096 161.851c-29.4062 23.8057 -64.4727 43.0176 -98.2119 59.1494c13.1426 6.72168 22.6816 12.1611 34.2295 19.5859c45.5859 29.3057 86.292 73.998 86.292 139.414
c0 76.7324 -40.4512 131.051 -87.5391 162.441c-46.3535 30.9033 -98.5918 42.5586 -137.461 42.5586zM365 680c20.5537 0 59.3516 -8.65039 87.5381 -27.4414c28.4199 -18.9473 47.4619 -43.7949 47.4619 -87.5586c0 -25.2607 -11.0928 -41.9395 -44.958 -63.71
c-23.6572 -15.208 -62.1133 -31.9209 -97.3916 -46.21c-33.0234 14.6338 -60.0625 27.9727 -81.6572 42.7129c-34.0781 23.2588 -45.9932 41.7715 -45.9932 67.207c0 46.9326 16.7314 70.9365 41.1562 88.3818c24.6963 17.6416 61.0713 26.6182 93.8438 26.6182z
M356.327 357.58c8.07422 -3.44336 13.2881 -5.65918 20.9463 -8.94141c51.873 -22.2314 101.102 -45.2803 133.788 -71.7412c32.9111 -26.6416 48.9385 -52.4336 48.9385 -91.8975c0 -37.8652 -13.7627 -68.5127 -43.376 -92.5752
c-29.7471 -24.1689 -78.8916 -42.4248 -151.624 -42.4248c-72.7305 0 -121.879 18.2578 -151.624 42.4248c-29.6152 24.0625 -43.376 54.709 -43.376 92.5752c0 45.8984 17.1797 73.8643 49.4326 100.741c32.2451 26.8711 80.8398 49.1562 132.449 70.0459
c1.39258 0.563477 3.36719 1.35938 4.44531 1.79297z" />
    <glyph glyph-name="nine" unicode="9" horiz-adv-x="730" 
d="M204.965 -40c6.02441 0 11.9805 0.0546875 17.8691 0.165039c78.1816 1.46289 144.718 12.6074 200.834 34.9102c57.0762 22.6836 102.99 57.1348 137.332 102.925c2.4873 3.31641 4.91309 6.6875 7.27344 10.1025c2.53027 3.66211 4.99023 7.38477 7.375 11.1553
c2.38867 3.77637 4.70605 7.61035 6.9502 11.4902c2.09961 3.62793 4.13477 7.30078 6.11328 11.0205c47.4521 89.2471 61.2881 204.233 61.2881 343.231c0 157.343 -127.657 285 -285 285s-285 -127.657 -285 -285s127.657 -285 285 -285
c65.2354 0 124.752 22.3652 172.447 58.3711c-7.25586 -27.7354 -15.0859 -48.5566 -25.6924 -69.5166c-1.90723 -3.76953 -3.86719 -7.43164 -5.90234 -11.0225c-1.90137 -3.35938 -3.85449 -6.63184 -5.87012 -9.83984
c-1.74512 -2.77832 -3.52734 -5.49023 -5.3623 -8.16113c-1.83008 -2.66602 -3.69922 -5.27148 -5.62012 -7.83105c-24.0957 -32.1279 -55.2676 -56.3848 -98.8584 -73.6592c-42.6094 -16.8857 -97.4766 -26.7832 -167.679 -28.1689
c-5.74121 -0.114258 -11.5859 -0.170898 -17.5332 -0.170898c-24.8496 0 -45.001 -20.1514 -45.001 -45.001c0 -24.9268 20.2461 -45 45.0361 -45zM365 290c-107.77 0 -195 87.2314 -195 195s87.2305 195 195 195c107.769 0 195 -87.2314 195 -195s-87.2314 -195 -195 -195z
" />
    <glyph glyph-name="colon" unicode=":" horiz-adv-x="260" 
d="M130 573c-27.6094 0 -50 -22.3906 -50 -50s22.3906 -50 50 -50s50 22.3906 50 50s-22.3906 50 -50 50zM130 263c-27.6094 0 -50 -22.3906 -50 -50s22.3906 -50 50 -50s50 22.3906 50 50s-22.3906 50 -50 50z" />
    <glyph glyph-name="semicolon" unicode=";" horiz-adv-x="260" 
d="M130 573.07c-27.6094 0 -50 -22.3906 -50 -50s22.3906 -50 50 -50s50 22.3906 50 50s-22.3906 50 -50 50zM129.763 263.071c-25.083 -0.378906 -44.6865 -20.457 -44.6865 -45.0713l-0.000976562 -120.07c0 -24.8496 20.1514 -45.001 45.001 -45.001
c24.8457 0 45 20.1631 45 45.0713l0.000976562 120.07c0 25.0977 -20.5967 45.001 -45.3145 45.001z" />
    <glyph glyph-name="less" unicode="&#x3c;" horiz-adv-x="490" 
d="M364.374 661.516c-12.5566 -0.37207 -23.6123 -5.42188 -31.3975 -13.4346l-239.814 -239.815c-8.38281 -8.39258 -13.1621 -19.9014 -13.1621 -31.8008c0 -11.8945 4.76953 -23.3994 13.1797 -31.8193l239.708 -239.708
c8.07617 -8.41602 19.9697 -13.5449 32.1826 -13.5449c11.9277 0 22.875 4.70312 30.9062 12.292c8.63867 8.16406 14.0947 19.8525 14.0947 32.709c0 12.2129 -5.12891 24.1064 -13.5449 32.1826l-207.889 207.889l207.978 207.979
c8.41699 8.17871 13.4336 19.9609 13.4336 32.0723c0 25.458 -21.1807 45 -45.6748 45z" />
    <glyph glyph-name="equal" unicode="=" horiz-adv-x="570" 
d="M125.036 563c-24.79 0 -45.0361 -20.0732 -45.0361 -45c0 -24.8457 20.1621 -45 45.0713 -45l320.07 -0.000976562c24.8496 0 45.001 20.1514 45.001 45.001c0 24.8457 -20.1621 45 -45.0713 45h-320.035zM125.036 243c-24.79 0 -45.0361 -20.0732 -45.0361 -45
c0 -24.8457 20.1621 -45 45.0713 -45l320.07 -0.000976562c24.8496 0 45.001 20.1514 45.001 45.001c0 24.8457 -20.1621 45 -45.0713 45h-320.035z" />
    <glyph glyph-name="greater" unicode="&#x3e;" horiz-adv-x="490" 
d="M125.697 52.4844c12.5566 0.37207 23.6123 5.42188 31.3975 13.4346l239.814 239.815c8.38281 8.39258 13.1621 19.9014 13.1621 31.8008c0 11.8945 -4.76953 23.3994 -13.1797 31.8193l-239.708 239.708c-8.07617 8.41602 -19.9697 13.5449 -32.1826 13.5449
c-11.9277 0 -22.875 -4.70312 -30.9062 -12.292c-8.63867 -8.16406 -14.0947 -19.8525 -14.0947 -32.709c0 -12.2129 5.12891 -24.1064 13.5449 -32.1826l207.889 -207.889l-207.978 -207.979c-8.41699 -8.17871 -13.4336 -19.9609 -13.4336 -32.0723
c0 -25.458 21.1807 -45 45.6748 -45z" />
    <glyph glyph-name="question" unicode="?" horiz-adv-x="690" 
d="M345.001 770c-3.94531 0 -7.85352 -0.0546875 -11.7139 -0.164062c-41.1875 -1.16309 -77.5693 -8.49219 -109.04 -20.8125c-32.458 -12.7051 -59.5693 -30.709 -81.0654 -52.2041c-44.2188 -44.2188 -63.1816 -100.825 -63.1816 -151.89
c0 -24.8496 20.1514 -45.001 45.001 -45.001c24.8457 0 45 20.1621 45 45.0713c0 29.0205 11.0752 62.4355 36.8193 88.1807c12.3789 12.3789 28.29 23.4023 49.2549 31.7598c22.8984 9.12695 51.9893 15.0596 88.9258 15.0596c36.543 0 65.4072 -5.80762 88.1914 -14.7695
c21.3291 -8.38965 37.4668 -19.5283 49.9893 -32.0498c25.748 -25.748 36.8193 -59.1543 36.8193 -88.1807c0 -26.8564 -3.03809 -47.2676 -7.70605 -63.1895c-4.60547 -15.7119 -10.6836 -27.1562 -17.958 -37.0752c-14.3945 -19.6309 -35.8555 -34.1807 -63.4941 -51.7695
c-27.1406 -17.2705 -61.0801 -38.1074 -87.7529 -74.4775c-13.4473 -18.3359 -24.3809 -40.0283 -31.7861 -65.4932c-7.40234 -25.4551 -11.3037 -54.5371 -11.3037 -88.0654c0 -24.8496 20.1514 -45.001 45.001 -45.001c24.8457 0 45 20.1621 45 45.0713
c0 26.4355 2.94531 46.6299 7.4873 62.4385c4.62695 16.0977 10.7881 27.751 18.1768 37.8262c14.3945 19.6309 35.8555 34.1807 63.4941 51.7695c27.1406 17.2705 61.0801 38.1074 87.7529 74.4775c12.707 17.3281 23.1758 37.6719 30.5332 61.3545
c8.20801 26.4238 12.5557 56.8359 12.5557 92.1338c0 50.9434 -18.9658 107.605 -63.1807 151.819c-21.2764 21.2764 -48.0596 39.1338 -80.083 51.8174c-34.6396 13.7188 -75.2578 21.3633 -121.736 21.3633zM345.001 60c-27.6094 0 -50 -22.3906 -50 -50
s22.3906 -50 50 -50s50 22.3906 50 50s-22.3906 50 -50 50z" />
    <glyph glyph-name="at" unicode="@" horiz-adv-x="1110" 
d="M665 844.064c-6.16113 0 -12.2988 -0.0800781 -18.417 -0.237305c-99.5645 -2.57227 -193.13 -25.9316 -274.541 -65.8594c-172.923 -84.8096 -292.042 -245.708 -292.042 -438.903c0 -6.39258 0.0693359 -12.7334 0.208008 -19.0244
c0.146484 -6.68457 0.373047 -13.3115 0.675781 -19.8799c0.303711 -6.56836 0.685547 -13.0791 1.14551 -19.5332c0.459961 -6.44824 0.99707 -12.8467 1.61426 -19.1797c0.616211 -6.33398 1.31055 -12.6094 2.08301 -18.8262
c12.9434 -104.117 47.9658 -191.912 105.267 -258.029c36.043 -41.5879 80.4521 -73.793 131.515 -95.6895c49.5078 -21.2295 105.084 -32.7637 165.399 -34.582c5.65625 -0.170898 11.3535 -0.255859 17.0928 -0.255859c78.3711 0 229.335 -4.24805 326.773 68.8311
c22.1699 16.1416 21.9766 44.3652 10.6982 61.2148c-11.7549 17.5605 -40.709 29.3174 -64.7002 10.7822c-60.9229 -45.6914 -192.254 -50.8281 -272.771 -50.8281c-53.2979 0 -99.6934 8.49219 -139.513 24.2881c-38.7812 15.3838 -71.5049 37.667 -98.8584 66.7422
c-2.58789 2.75098 -5.13086 5.56738 -7.62305 8.44238c-43.0957 49.7266 -72.6953 119.548 -83.9668 210.187c-0.671875 5.4082 -1.2793 10.8877 -1.81934 16.4385c-0.540039 5.54785 -1.01367 11.1758 -1.41992 16.8662
c-0.405273 5.69531 -0.743164 11.4648 -1.0127 17.3008c-0.25293 5.47266 -0.445312 11.0098 -0.576172 16.6064c-0.139648 5.97363 -0.210938 12.0166 -0.210938 18.1289c0 153.404 94.127 285.77 241.047 358.016c69.3604 34.1064 150.279 54.5303 237.77 56.7773
c5.37109 0.137695 10.7666 0.207031 16.1836 0.207031c49.4932 0 89.2275 -8.60254 121.8 -25.4258c32.7617 -16.9209 59.4619 -42.4746 82.1133 -80.2266c45.29 -75.4834 71.0869 -202.852 71.0869 -389.348c0 -29.3672 -9.05078 -46.8408 -20.333 -57.8506
c-11.5381 -11.2607 -27.5488 -17.1494 -44.667 -17.1494c-16.9307 0 -32.791 5.76855 -44.29 16.7852c-11.5098 11.0254 -20.71 28.5391 -20.71 58.2148v299.742c0.431641 33.6328 -30.3086 45.2842 -45.8682 45.252c-270.658 -0.234375 -419.401 -111.751 -459.62 -241.688
c-19.792 -63.9404 -12.0957 -130.117 20.1748 -181.588c32.5615 -51.9297 90.1348 -86.7188 160.313 -86.7188c103.584 0 189.685 26.9219 245.876 100.919c9.23438 -24.6924 21.1465 -42.1846 37.252 -57.8418c29.3086 -28.4932 68.1299 -43.0771 106.872 -43.0771
c38.748 0 77.5605 14.5811 106.872 43.0771c29.4697 28.6504 48.1279 70.7197 48.1279 121.923c0 193.338 -24.3018 336.3 -83.9131 435.652c-30.0303 50.0498 -69.4844 87.9805 -117.131 112.848c-47.8936 24.9971 -103.122 36.5 -163.956 36.5zM719.32 512.793
c-3.95215 -133.795 -23.9482 -211.356 -56.3193 -258.114c-34.2617 -49.4883 -84.6572 -70.6143 -178.001 -70.6143c-40.1602 0 -67.0488 17.3955 -84.0605 44.5293c-17.0928 27.2607 -23.1523 66.1279 -10.4512 107.164c23.4453 75.7441 114.719 165.111 328.832 177.035z
" />
    <glyph glyph-name="A" unicode="A" 
d="M405.015 770.05c-18.5625 0 -35.207 -11.3984 -41.9365 -28.6904l-279.908 -719.767c-2.09668 -5.23633 -3.16992 -10.6846 -3.16992 -16.5918c0 -24.8457 20.1475 -45.001 45 -45.001c18.7441 0 35.5342 11.6885 42.0342 28.9326l82.0762 211.055h311.817
l82.0771 -211.055c6.49902 -17.2402 23.2852 -28.9326 42.0332 -28.9326c24.8496 0 45.001 20.1514 45.001 45.001c0 5.89648 -1.0752 11.3672 -3.15625 16.5557l-279.924 719.805c-6.73145 17.3066 -23.3994 28.6885 -41.9443 28.6885zM405.02 600.895l120.86 -310.782
h-241.721z" />
    <glyph glyph-name="B" unicode="B" horiz-adv-x="685" 
d="M125 770c-24.8496 0 -45 -20.1504 -45 -45v-720c0 -11.9277 4.70312 -22.875 12.292 -30.9062c8.16406 -8.63867 19.8516 -14.0938 32.708 -14.0938h180c185.025 0 300 102.788 300 225c0 75.9033 -47.1396 145.72 -122.907 185.849
c61.4141 43.4717 92.9072 107.926 92.9072 174.151c0 117.818 -100.562 225 -270 225h-180zM170 680h135c130.836 0 180 -72.3955 180 -135c0 -62.6162 -49.1699 -135 -180 -135h-135v270zM170 320h135c155.166 0 210 -76.9736 210 -135c0 -58.0273 -54.834 -135 -210 -135
h-135v270z" />
    <glyph glyph-name="C" unicode="C" horiz-adv-x="850" 
d="M478.798 769.743c-106.881 -1.65723 -212.968 -45.5039 -290.985 -129.756c-8.55176 -9.23438 -16.5967 -18.7715 -24.1367 -28.5762c-4.95898 -6.4502 -9.69922 -13.0176 -14.2168 -19.6846c-2.35059 -3.46777 -4.6416 -6.96582 -6.87207 -10.4883
c-42.9141 -67.7715 -63.6953 -145.325 -62.541 -222.479c1.15332 -77.1533 24.2441 -154.048 69.167 -220.512c2.33496 -3.45312 4.72559 -6.87598 7.18066 -10.2754c4.7168 -6.53125 9.65039 -12.9512 14.8008 -19.251c7.82715 -9.57324 16.1553 -18.8672 24.9795 -27.8428
c21.208 -21.5703 44.5947 -40.5293 69.6592 -56.6553c3.49609 -2.24902 7.02441 -4.44336 10.5859 -6.58203c3.85742 -2.31738 7.74707 -4.56738 11.6816 -6.75586c3.62793 -2.01758 7.28027 -3.97559 10.9668 -5.88086c3.68457 -1.90332 7.40137 -3.75195 11.1367 -5.53906
c4.05176 -1.93848 8.1416 -3.81152 12.249 -5.61035c3.79883 -1.66504 7.62109 -3.26953 11.4688 -4.81738c43.5967 -17.5244 90.3047 -27.4893 138.118 -29.0166c63.1426 -2.01758 125.309 10.7852 181.746 36.6582c36.5273 16.7461 70.8623 39.127 101.109 66.1973
c9.5127 8.32617 15.1953 20.7891 15.1953 33.7148c0 24.8496 -20.1504 45 -45 45c-11.2197 0 -22.1797 -4.2998 -30.2148 -11.6504c-60.0156 -53.7109 -139.09 -82.5498 -219.962 -79.9648c-36.9043 1.17969 -72.9492 8.81641 -106.633 22.251
c-3.25879 1.2998 -6.5 2.65625 -9.71289 4.0625c-5.89453 2.58203 -11.6992 5.34082 -17.4326 8.28418c-3.12305 1.60156 -6.21484 3.25488 -9.28906 4.96484c-5.62695 3.12891 -11.1621 6.43457 -16.5977 9.91113c-19.7646 12.6406 -38.1963 27.5391 -54.8975 44.5283
c-6.69922 6.81348 -13.0195 13.8477 -18.9688 21.085c-4.19824 5.10742 -8.21289 10.3174 -12.0391 15.6152c-38.5771 53.4092 -58.418 116.233 -59.3623 179.427c-0.945312 63.1934 17.0078 126.583 53.9707 181.121c3.51562 5.1875 7.20117 10.293 11.0635 15.3145
c5.87402 7.64062 12.1514 15.083 18.833 22.2988c59.9727 64.7646 140.897 98.7578 223.033 100.89c74.4531 1.93262 149.962 -22.5488 210.785 -73.79c7.8125 -6.81445 18.4688 -10.8613 29.3203 -10.8613c12.8555 0 24.541 5.45312 32.707 14.0928
c7.58887 8.03027 12.2939 18.9775 12.2939 30.9072c0 13.5146 -6.22949 26.4756 -16.3418 34.6963c-76.9395 64.8184 -172.625 96.4316 -266.849 94.9697z" />
    <glyph glyph-name="D" unicode="D" horiz-adv-x="794" 
d="M125 770c-24.8496 0 -45 -20.1504 -45 -45v-720c0 -11.9277 4.70312 -22.875 12.292 -30.9062c8.16406 -8.63867 19.8516 -14.0938 32.708 -14.0938h177c133.896 0 239.003 50.1768 308.95 127.261c69.6602 76.7676 103.55 177.738 103.55 277.739
s-33.8896 200.972 -103.55 277.739c-69.9463 77.083 -175.054 127.261 -308.95 127.261h-177zM170 680h132c111.231 0 189.654 -39.7217 242.3 -97.7393c52.8193 -58.209 80.2002 -137.289 80.2002 -217.261s-27.3809 -159.052 -80.2002 -217.261
c-52.6465 -58.0186 -131.069 -97.7393 -242.3 -97.7393h-132v630z" />
    <glyph glyph-name="E" unicode="E" horiz-adv-x="610" 
d="M125 770c-24.8496 0 -45 -20.1504 -45 -45v-360.803v-359.197c0 -11.9277 4.70312 -22.875 12.292 -30.9062c8.16406 -8.63867 19.8516 -14.0938 32.708 -14.0938l360.07 -0.000976562c24.8496 0 45.001 20.1514 45.001 45.001c0 24.8457 -20.1621 45 -45.0713 45h-315
v270l275.07 -0.000976562c24.8496 0 45.001 20.1514 45.001 45.001c0 24.8457 -20.1621 45 -45.0713 45h-275v270l315.07 -0.000976562c24.8496 0 45.001 20.1514 45.001 45.001c0 24.8457 -20.1621 45 -45.0713 45h-360z" />
    <glyph glyph-name="F" unicode="F" horiz-adv-x="610" 
d="M125.001 770.071c-24.8496 0 -45 -20.1504 -45 -45v-360.803l-0.000976562 -359.268c0 -24.8496 20.1514 -45.001 45.001 -45.001c24.8457 0 45 20.1621 45 45.0713v315h275.07c24.8457 0 45.001 20.1475 45.001 45c0 24.8457 -20.1621 45 -45.0713 45h-275v270h315.07
c24.8457 0 45.001 20.1475 45.001 45c0 24.8457 -20.1621 45 -45.0713 45h-360z" />
    <glyph glyph-name="G" unicode="G" horiz-adv-x="970" 
d="M486.961 770.781c-2.77734 0 -5.80469 0 -8.85156 -0.0517578c-84.0059 -1.42285 -167.914 -28.9531 -238.594 -82.8242c-3.20898 -2.44629 -6.37109 -4.93066 -9.49219 -7.45996c-50.4316 -40.8633 -88.9727 -92.1523 -114.335 -148.735
c-46.7852 -104.377 -48.8857 -227.056 1.50781 -336.411c79.3838 -172.268 267.774 -266.38 453.19 -226.4c185.536 40.0059 318.288 204.872 319.62 393.536l0.0917969 2.83887c-0.113281 25.3701 -20.0645 45.8789 -45.3584 45.5254h-339.438
c-27.418 0.387695 -44.2012 -22.3057 -45.2871 -42.5508c-1.13477 -21.1064 14.9766 -47.877 45.2871 -47.4492h291.427c-19.25 -130.955 -115.46 -234.922 -245.312 -262.922c-144.267 -31.1074 -290.717 42.0527 -352.481 176.088
c-38.998 84.6279 -37.6279 179.094 -1.76855 259.829c19.623 44.1807 49.5361 84.1738 88.8672 116.198c2.63574 2.14551 5.32031 4.26172 8.03711 6.33398c117.354 89.4443 281.28 85.2588 393.618 -9.38281c20.6211 -18.0381 48.2178 -11.5322 62.1328 3.28809
c14.4893 15.4346 19.4023 46.4365 -4.14551 65.54c-74.0713 62.4023 -166.577 94.5459 -258.716 95.0098z" />
    <glyph glyph-name="H" unicode="H" horiz-adv-x="690" 
d="M124.688 770.143c-25.083 -0.378906 -44.6865 -20.4561 -44.6865 -45.0713v-360.803l-0.000976562 -359.268c0 -24.8496 20.1514 -45.001 45.001 -45.001c24.8457 0 45 20.1621 45 45.0713v315h350l-0.000976562 -315.07c0 -24.8496 20.1514 -45.001 45.001 -45.001
c24.8457 0 45 20.1621 45 45.0713v360.803l0.000976562 359.268c0 24.8232 -20.0059 45.001 -45.3145 45.001c-25.083 -0.378906 -44.6865 -20.4561 -44.6865 -45.0713v-315h-350l0.000976562 315.07c0 25.0977 -20.5967 45.001 -45.3145 45.001z" />
    <glyph glyph-name="I" unicode="I" horiz-adv-x="490" 
d="M85.0615 730v-10c0 -25.6787 21.6602 -40 40 -40h75v-630h-74.7168c-27.4199 0.387695 -44.2012 -22.3037 -45.2891 -42.5518c-1.13281 -21.1055 14.9766 -47.876 45.2891 -47.4482h239.438c24.6709 -0.345703 45.3506 19.874 45.3506 45s-20.6787 45.3457 -45.3506 45
h-74.7207v630h74.7207c24.6709 -0.345703 45.3506 19.874 45.3506 45s-20.6787 45.3457 -45.3506 45h-239.721c-25.6777 0 -40 -21.6592 -40 -40z" />
    <glyph glyph-name="J" unicode="J" horiz-adv-x="610" 
d="M484.597 767.534l-199.667 -0.0351562c-24.8496 0 -45.001 -20.1514 -45.001 -45.001c0 -24.8457 20.1621 -45 45.0713 -45h155v-515c0 -18.1348 -3.79785 -32.8779 -10.3047 -45.7246c-6.60742 -13.043 -16.2256 -24.3477 -28.7764 -34.2256
c-24.6562 -19.4053 -60.7646 -31.5566 -97.167 -32.5674c-36.4688 -1.0127 -71.4766 9.12012 -95.0811 27.2607c-11.873 9.125 -21.1133 19.875 -27.7393 33.2891c-6.72559 13.6182 -10.9307 30.3477 -10.9307 52.0381c0 24.8496 -20.1514 45.001 -45.001 45.001
c-24.8457 0 -45 -20.1621 -45 -45.0713c0 -34.6982 7.5332 -66.1123 21.123 -93.0713c12.9219 -25.6396 31.1709 -46.9971 52.7051 -63.5469c43.7656 -33.6338 99.0488 -47.3477 152.422 -45.8643c53.4287 1.48438 107.623 18.1953 150.331 51.8076
c21.5215 16.9395 39.9434 38.3486 52.9619 63.8271c13.0225 25.4883 20.457 54.8467 20.457 86.8477c0 186.895 0.0664062 371.74 0.0664062 559.997c0 11.875 -4.85156 23.5625 -13.708 32.3438c-9.08496 8.83887 -20.6963 12.6953 -31.7617 12.6953z" />
    <glyph glyph-name="K" unicode="K" horiz-adv-x="690" 
d="M124.688 770.143c-25.083 -0.378906 -44.6865 -20.4561 -44.6865 -45.0713l-0.000976562 -720.07c0 -24.8496 20.1514 -45.001 45.001 -45.001c24.8457 0 45 20.1621 45 45.0713v265.04l366.181 -299.602c7.66602 -6.54492 18.1846 -10.5059 28.9004 -10.5059
c24.8496 0 45.001 20.1514 45.001 45.001c0 13.8076 -6.51074 27.0068 -16.9082 35.1572l-401.193 328.249l324.636 324.639c8.41699 8.17871 13.4336 19.9609 13.4336 32.0723c0 11.7041 -4.50977 22.7197 -12.2598 30.915c-8.38281 8.8623 -19.9785 14.085 -33.415 14.085
c-12.5566 -0.37207 -23.6123 -5.42188 -31.3975 -13.4346l-282.978 -282.978l0.000976562 251.432c0 25.0977 -20.5967 45.001 -45.3145 45.001z" />
    <glyph glyph-name="L" unicode="L" horiz-adv-x="610" 
d="M124.687 770.071c-25.083 -0.378906 -44.6865 -20.4561 -44.6865 -45.0713v-720c0 -11.9277 4.70312 -22.875 12.292 -30.9062c8.16406 -8.63867 19.8516 -14.0938 32.708 -14.0938l360.07 -0.000976562c24.8496 0 45.001 20.1514 45.001 45.001
c0 24.8457 -20.1621 45 -45.0713 45h-315l0.000976562 675.07c0 25.0977 -20.5967 45.001 -45.3145 45.001z" />
    <glyph glyph-name="M" unicode="M" horiz-adv-x="890" 
d="M124.614 770.07c-25.1055 -0.444336 -44.6045 -20.4805 -44.6133 -44.999l-0.000976562 -720.07c0 -24.8496 20.1514 -45.001 45.001 -45.001c24.8457 0 45 20.1621 45 45.0713v571.375l237.563 -356.344c8.33203 -12.4932 22.4268 -20.0303 37.4365 -20.0303
c15.0068 0 29.1035 7.5332 37.4414 20.0381l237.559 356.336l-0.000976562 -571.445c0 -24.8496 20.1514 -45.001 45.001 -45.001c24.8457 0 45 20.1621 45 45.0713v720.014c-0.00878906 24.8408 -20.1543 44.9854 -45.001 44.9854
c-15.0156 0 -29.1074 -7.54102 -37.4404 -20.0381l-282.559 -423.836l-282.562 423.844c-8.50195 12.7461 -22.9316 20.0303 -37.8242 20.0303z" />
    <glyph glyph-name="N" unicode="N" horiz-adv-x="730" 
d="M604.615 770.069c-25.0215 -0.386719 -44.6143 -20.4463 -44.6143 -45.0703v-571.375l-397.584 596.377c-8.32422 12.4531 -22.3965 19.9961 -37.416 19.9961c-24.8408 0 -44.9912 -20.1338 -45 -44.998l-0.000976562 -720.071c0 -24.8525 20.1553 -45 45.001 -45
c24.8398 0 45 20.1562 45 45.0713v571.375l397.562 -596.342c8.33008 -12.4902 22.4229 -20.0322 37.4375 -20.0322c24.8447 0 44.9834 20.1289 45.001 44.999v720.07c0 25.2383 -20.7754 45 -45.3857 45z" />
    <glyph glyph-name="O" unicode="O" horiz-adv-x="970" 
d="M485 770c-223.615 0 -405 -181.385 -405 -405s181.385 -405 405 -405s405 181.385 405 405s-181.385 405 -405 405zM485 680c174.039 0 315 -140.961 315 -315s-140.961 -315 -315 -315s-315 140.961 -315 315s140.961 315 315 315z" />
    <glyph glyph-name="P" unicode="P" horiz-adv-x="640" 
d="M125.004 770.071c-24.8477 0 -45 -20.1494 -45 -45v-441.804v-277.916c-0.344727 -24.6729 19.876 -45.3516 45 -45.3516c25.123 0 45.3486 20.6768 45 45.3525v234.719h135c82.3887 0 148.454 33.5352 191.814 84.6367c42.9746 50.6494 63.1855 116.092 63.1855 180.363
c0 64.2725 -20.2109 129.714 -63.1855 180.364c-43.3574 51.0986 -109.421 84.6357 -191.814 84.6357h-180zM170.004 680.071h135c57.876 0 96.3623 -21.2471 123.188 -52.8643c26.9668 -31.7803 41.8125 -76.4902 41.8125 -122.136
c0 -45.6416 -14.8467 -90.3564 -41.8125 -122.137c-26.8311 -31.623 -65.3193 -52.8633 -123.188 -52.8633h-135v350z" />
    <glyph glyph-name="Q" unicode="Q" horiz-adv-x="970" 
d="M485 770c-223.615 0 -405 -181.385 -405 -405s181.385 -405 405 -405c79.3867 0 155.346 24.543 215.322 62.0078l110.806 -126.635c8.52148 -9.74316 20.9414 -15.374 33.8721 -15.374c24.8457 0 45.001 20.1475 45.001 45c0 10.8369 -3.97656 21.4658 -11.1338 29.6348
l-108.062 123.5c74.2197 74.0811 119.081 174.514 119.19 286.681c0 223.944 -181.378 405.186 -404.995 405.186zM485 680c174.039 0 315 -140.961 315 -315c0 -85.5732 -35.2539 -163.406 -88.6035 -218.975l-112.351 128.403
c-8.25098 9.69238 -20.6934 15.625 -34.8496 15.625c-25.335 -0.853516 -44.2441 -20.8135 -44.2441 -45.001c0 -11.0879 4.21387 -21.958 11.3701 -29.9033l108.823 -124.369c-47.5244 -26.959 -98.1348 -40.7803 -155.146 -40.7803c-174.039 0 -315 140.961 -315 315
s140.961 315 315 315z" />
    <glyph glyph-name="R" unicode="R" horiz-adv-x="685" 
d="M125.004 770.07c-24.8477 0 -45 -20.1494 -45 -45v-441.804v-277.916c-0.344727 -24.6807 19.8848 -45.3506 45 -45.3506s45.3486 20.6689 45 45.3516v234.719h130.17c46.0117 -4.04883 78.4746 -18.3838 107.117 -40.4609
c13.8711 -10.6924 26.4209 -23.2031 37.8867 -37.2168c38.2236 -46.7168 61.5352 -110.485 70.3809 -163.55c3.61426 -24.373 27.0186 -41.5713 51.8613 -37.4287c24.8379 4.1416 41.3916 27.9863 36.9141 52.2188c-10.8887 65.3262 -38.0107 142.818 -89.502 205.752
c-15.3643 18.7773 -33.1357 36.2363 -53.126 51.501c-4.48828 3.42676 -9.19531 6.77637 -13.9268 9.99609c19.9248 13.2637 34.8242 27.0732 49.0391 43.8252c42.9746 50.6494 63.1855 116.092 63.1855 180.363c0 64.2725 -20.2109 129.714 -63.1855 180.364
c-43.3574 51.0986 -109.421 84.6357 -191.814 84.6357h-180zM170.004 680.07h135c57.876 0 96.3623 -21.2471 123.188 -52.8643c26.9668 -31.7803 41.8125 -76.4902 41.8125 -122.136c0 -45.6416 -14.8467 -90.3564 -41.8125 -122.137
c-26.8311 -31.623 -65.3193 -52.8633 -123.188 -52.8633h-135v350z" />
    <glyph glyph-name="S" unicode="S" horiz-adv-x="730" 
d="M365 770c-61.7988 0 -120.823 -24.0312 -165.61 -59.8613c-44.2461 -35.3945 -79.3896 -86.2959 -79.3896 -145.139c0 -41.0293 8.47559 -76.5674 24.0215 -106.394c15.7148 -30.1465 38.2783 -53.7324 64.1875 -71.5938
c50.4629 -34.7881 111.004 -49.4512 165.876 -63.1689c55.2363 -13.8096 106.415 -27.2578 138.211 -47.251c16.0244 -10.0762 27.1299 -20.6631 34.8223 -33.999c7.79785 -13.5176 12.8818 -31.1172 12.8818 -57.5938c0 -21.0557 -5.72656 -38.4395 -16.0996 -54.3105
c-10.376 -15.877 -25.8496 -30.2773 -45.4297 -42.6426c-38.8428 -24.5322 -92.1973 -38.0469 -133.471 -38.0469c-50.1094 0 -101.052 17.2715 -137.372 45.5205c-18.0049 14.0049 -32.2598 30.2559 -42.0498 48.1846c-10.0381 18.3848 -15.5771 38.5859 -15.5771 61.3652
c0 24.8496 -20.1514 45.001 -45.001 45.001c-24.8457 0 -45 -20.1621 -45 -45.0713c0 -5.88379 0.232422 -11.7021 0.6875 -17.4521c2.55371 -32.2314 12.167 -62.0859 26.8867 -88.5146c16.2959 -29.2607 38.748 -54.293 64.7979 -74.5557
c53.5752 -41.668 122.87 -64.4775 192.628 -64.4775c58.4502 0 125.609 16.6357 181.529 51.9531c27.2305 17.1992 52.1963 39.4355 70.9346 67.1855c19.9775 29.5859 32.5361 65.4307 32.5361 105.861c0 39.3311 -8.90527 73.3906 -25.0557 101.663
c-16.1396 28.2529 -38.9834 49.9238 -64.7402 66.1191c-50.2979 31.626 -109.989 44.7998 -164.289 58.374c-54.6973 13.6758 -104.958 28.126 -136.624 49.9561c-15.9092 10.9678 -27.4297 22.8662 -35.6143 38.334c-8.29883 15.6865 -13.6768 36.1162 -13.6768 65.5537
c0 20.7637 15.0996 50.4521 45.6123 74.8613c30.0508 24.042 71.3906 40.1387 109.388 40.1387s79.3359 -16.0967 109.389 -40.1387c30.5352 -24.4287 45.6104 -54 45.6104 -74.9316c0 -24.8496 20.1514 -45.001 45.001 -45.001c24.8457 0 45 20.1621 45 45.0713
c0 58.8389 -35.1484 109.749 -79.3896 145.139c-44.79 35.832 -103.812 59.8613 -165.61 59.8613z" />
    <glyph glyph-name="T" unicode="T" horiz-adv-x="805" 
d="M80 730.071v-10c0 -25.6787 21.6592 -40 40 -40h235v-674.72c-0.345703 -24.6729 19.876 -45.3516 45 -45.3516s45.3457 20.6777 45 45.3516v674.72h234.72c24.6729 -0.345703 45.3516 19.876 45.3516 45s-20.6777 45.3457 -45.3516 45h-559.72
c-25.6787 0 -40 -21.6592 -40 -40z" />
    <glyph glyph-name="U" unicode="U" horiz-adv-x="730" 
d="M124.687 770.571c-25.083 -0.378906 -44.6865 -20.4561 -44.6865 -45.0713v-482c0 -46.7529 9.22656 -88.8701 25.7979 -125.34c15.6963 -34.5439 37.8975 -63.8438 64.4102 -87.2627c54.3262 -47.9863 125.095 -70.8975 194.792 -70.8975
c69.7002 0 140.465 22.9092 194.792 70.8975c26.5127 23.4189 48.7139 52.7188 64.4102 87.2627c16.5693 36.4688 25.7979 78.5869 25.7979 125.34l0.000976562 482.07c0 24.8496 -20.1514 45.001 -45.001 45.001c-24.8457 0 -45 -20.1621 -45 -45.0713v-482
c0 -33.7637 -6.15234 -61.8994 -16.4189 -85.5088c-10.4795 -24.0977 -25.3184 -43.6895 -43.373 -59.6387c-35.627 -31.4707 -84.9658 -48.3525 -135.208 -48.3525c-50.2412 0 -99.5811 16.8818 -135.208 48.3525c-17.8711 15.7861 -32.5947 35.1523 -43.0537 58.9092
c-10.4609 23.7607 -16.7383 52.126 -16.7383 86.2383l0.000976562 482.07c0 25.0977 -20.5967 45.001 -45.3145 45.001z" />
    <glyph glyph-name="V" unicode="V" 
d="M125.36 770.066c-25.3438 0 -45.3604 -20.1846 -45.3604 -45c0 -5.95117 1.10449 -11.4902 3.18457 -16.6318l279.901 -719.745c6.72754 -17.2998 23.3877 -28.6895 41.9404 -28.6895c18.5547 0 35.2109 11.3906 41.9414 28.6904l279.922 719.803
c2.08105 5.18848 3.15625 10.6592 3.15625 16.5557c0 24.8525 -20.1553 45 -45.001 45c-18.7461 0 -35.5273 -11.6865 -42.0332 -28.9268l-237.985 -611.966l-237.956 611.887c-6.41309 17.2178 -23.2402 28.7568 -41.71 29.0234z" />
    <glyph glyph-name="W" unicode="W" horiz-adv-x="970" 
d="M844.912 770.068c-23.0908 -0.0996094 -42.458 -17.7314 -44.6553 -40.377l-64.0352 -576.311l-211.597 392.968c-7.84082 14.5459 -23.0723 23.6494 -39.6133 23.6494c-16.5283 0 -31.7793 -9.09473 -39.6211 -23.665l-211.589 -392.952l-29.5879 266.287
l-34.4316 309.888c-2.03809 22.5811 -21.4531 40.5479 -44.7822 40.5479c-24.8584 0 -45 -20.1611 -45 -45.001c0 -2.99121 0.382812 -6.16113 0.382812 -6.16113l37.2549 -335.066l42.6514 -383.859c2.54102 -22.7988 21.8096 -40.0156 44.7236 -40.0156
c16.5293 0 31.7549 9.08301 39.6201 23.6631l240.379 446.418l240.393 -446.444c7.8457 -14.543 23.0762 -23.6367 39.6064 -23.6367c22.9238 0 42.1758 17.2139 44.7246 40.0283l80 719.999c0.351562 3.16895 0.288086 5.79102 0.288086 5.79102
c-0.776367 25.7764 -20.7734 44.25 -45.1113 44.25z" />
    <glyph glyph-name="X" unicode="X" 
d="M687.496 770.057c-14.8027 0 -29.8809 -6.71191 -38.1436 -17.6484l-244.308 -314.109l-244.31 314.113c-8.2793 10.9521 -21.6436 17.3184 -35.1729 17.6445c-25.6367 0 -45.5625 -20.1982 -45.5625 -45c0 -10.2207 3.57617 -20.2656 9.69922 -27.9092l258.335 -332.146
l-258.503 -332.362c-6.14062 -7.88965 -9.4873 -17.6748 -9.4873 -27.6387c0 -24.8525 20.1553 -45 45.001 -45c13.8398 0 27.0186 6.43555 35.5205 17.373l244.479 314.33l244.482 -314.335c8.49805 -10.9248 21.6631 -17.3682 35.5176 -17.3682
c24.8496 0 45.001 20.1514 45.001 45.001c0 10 -3.36426 19.7529 -9.48047 27.6279l-258.51 332.372l258.335 332.146c6.12305 7.64355 9.69922 17.6885 9.69922 27.9092c0 23.1309 -19.1875 42.5 -42.5938 45z" />
    <glyph glyph-name="Y" unicode="Y" 
d="M124.136 770.153c-25.3945 -0.981445 -44.1357 -20.8984 -44.1357 -45.001c0 -8.3125 2.33594 -16.4541 6.36719 -23.0771l273.681 -469.17l-0.000976562 -227.904c0 -24.8496 20.1514 -45.001 45.001 -45.001c24.8457 0 45 20.1621 45 45.0713v227.834l273.731 469.255
c4.03516 6.7041 6.30371 14.748 6.30371 22.9717c0 24.5811 -19.6641 44.668 -44.7412 45.001c-16.582 0 -31.5312 -8.85547 -39.3076 -22.6328l-240.986 -413.121l-240.942 413.045c-8.03125 14.374 -23.958 22.7295 -39.9697 22.7295z" />
    <glyph glyph-name="Z" unicode="Z" horiz-adv-x="730" 
d="M125.036 770c-24.79 0 -45.0361 -20.0732 -45.0361 -45c0 -24.8457 20.1621 -45 45.0713 -45h395.918l-193.089 -289.632l-240.288 -360.432c-4.9082 -7.37598 -7.54004 -16.0518 -7.54004 -24.9355c0 -24.8389 20.1318 -44.9922 44.999 -45.001l480.07 -0.000976562
c24.8496 0 45.001 20.1514 45.001 45.001c0 24.8457 -20.1621 45 -45.0713 45h-395.918l193.089 289.632l240.288 360.432c4.9082 7.37598 7.54004 16.0518 7.54004 24.9355c0 24.8389 -20.1318 44.9922 -44.999 45.001h-480.035z" />
    <glyph glyph-name="bracketleft" unicode="[" horiz-adv-x="370" 
d="M125 851c-24.8496 0 -45 -20.1504 -45 -45v-880c0 -11.9277 4.70312 -22.875 12.292 -30.9062c8.16406 -8.63867 19.8516 -14.0938 32.708 -14.0938l120.07 -0.000976562c24.8496 0 45.001 20.1514 45.001 45.001c0 24.8457 -20.1621 45 -45.0713 45h-75v790
l75.0703 -0.000976562c24.8496 0 45.001 20.1514 45.001 45.001c0 24.8457 -20.1621 45 -45.0713 45h-120z" />
    <glyph glyph-name="backslash" unicode="\" horiz-adv-x="530" 
d="M125.363 770.116c-25.3418 0 -45.3633 -20.1797 -45.3633 -45c0 -5.93457 1.10449 -11.5303 3.20605 -16.6826l279.802 -719.493c6.49707 -17.2559 23.3018 -28.9404 42.0381 -28.9404c24.8496 0 45.001 20.1514 45.001 45.001
c0 5.9043 -1.08008 11.3711 -3.13281 16.498l-279.847 719.605c-6.4209 17.2051 -23.2295 28.7432 -41.7041 29.0117z" />
    <glyph glyph-name="bracketright" unicode="]" horiz-adv-x="370" 
d="M245.071 851c24.8496 0 45 -20.1504 45 -45v-880c0 -11.9277 -4.70312 -22.875 -12.292 -30.9062c-8.16406 -8.63867 -19.8516 -14.0938 -32.708 -14.0938l-120.07 -0.000976562c-24.8496 0 -45.001 20.1514 -45.001 45.001c0 24.8457 20.1621 45 45.0713 45h75v790
l-75.0703 -0.000976562c-24.8496 0 -45.001 20.1514 -45.001 45.001c0 24.8457 20.1621 45 45.0713 45h120z" />
    <glyph glyph-name="asciicircum" unicode="^" horiz-adv-x="570" 
d="M285.019 770.004c-13.7295 0 -26.6631 -6.34082 -35.1006 -16.8896l-159.779 -199.723c-6.3584 -7.66602 -10.1387 -17.9707 -10.1387 -28.458c0 -24.8525 20.1553 -45 45.001 -45c13.9268 0 27.2227 6.60645 35.4199 17.2412l124.636 155.794l124.636 -155.794
c8.19727 -10.6348 21.4932 -17.2412 35.4199 -17.2412c24.8457 0 45.001 20.1475 45.001 45c0 10.4873 -3.78027 20.792 -10.1387 28.458l-159.781 199.726c-8.55762 10.6963 -21.5859 16.8867 -35.1748 16.8867z" />
    <glyph glyph-name="underscore" unicode="_" horiz-adv-x="690" 
d="M125.035 50c-24.793 0 -45.0352 -20.0771 -45.0352 -45c0 -24.8398 20.1562 -45 45.0713 -45h440.07c24.8496 0 45 20.1504 45 45c0 24.8398 -20.1562 45 -45.0703 45h-440.036z" />
    <glyph glyph-name="grave" unicode="`" horiz-adv-x="250" 
d="M124.688 770.001c-25.083 -0.378906 -44.6865 -20.457 -44.6865 -45.0713l-0.000976562 -120.07c0 -24.8496 20.1514 -45.001 45.001 -45.001c24.8457 0 45 20.1631 45 45.0713l0.000976562 120.07c0 25.0977 -20.5967 45.001 -45.3145 45.001z" />
    <glyph glyph-name="a" unicode="a" 
d="M405.015 770.05c-18.5625 0 -35.207 -11.3984 -41.9365 -28.6904l-279.908 -719.767c-2.09668 -5.23633 -3.16992 -10.6846 -3.16992 -16.5918c0 -24.8457 20.1475 -45.001 45 -45.001c18.7441 0 35.5342 11.6885 42.0342 28.9326l82.0762 211.055h311.817
l82.0771 -211.055c6.49902 -17.2402 23.2852 -28.9326 42.0332 -28.9326c24.8496 0 45.001 20.1514 45.001 45.001c0 5.89648 -1.0752 11.3672 -3.15625 16.5557l-279.924 719.805c-6.73145 17.3066 -23.3994 28.6885 -41.9443 28.6885zM405.02 600.895l120.86 -310.782
h-241.721z" />
    <glyph glyph-name="b" unicode="b" horiz-adv-x="685" 
d="M125 770c-24.8496 0 -45 -20.1504 -45 -45v-720c0 -11.9277 4.70312 -22.875 12.292 -30.9062c8.16406 -8.63867 19.8516 -14.0938 32.708 -14.0938h180c185.025 0 300 102.788 300 225c0 75.9033 -47.1396 145.72 -122.907 185.849
c61.4141 43.4717 92.9072 107.926 92.9072 174.151c0 117.818 -100.562 225 -270 225h-180zM170 680h135c130.836 0 180 -72.3955 180 -135c0 -62.6162 -49.1699 -135 -180 -135h-135v270zM170 320h135c155.166 0 210 -76.9736 210 -135c0 -58.0273 -54.834 -135 -210 -135
h-135v270z" />
    <glyph glyph-name="c" unicode="c" horiz-adv-x="850" 
d="M478.798 769.743c-106.881 -1.65723 -212.968 -45.5039 -290.985 -129.756c-8.55176 -9.23438 -16.5967 -18.7715 -24.1367 -28.5762c-4.95898 -6.4502 -9.69922 -13.0176 -14.2168 -19.6846c-2.35059 -3.46777 -4.6416 -6.96582 -6.87207 -10.4883
c-42.9141 -67.7715 -63.6953 -145.325 -62.541 -222.479c1.15332 -77.1533 24.2441 -154.048 69.167 -220.512c2.33496 -3.45312 4.72559 -6.87598 7.18066 -10.2754c4.7168 -6.53125 9.65039 -12.9512 14.8008 -19.251c7.82715 -9.57324 16.1553 -18.8672 24.9795 -27.8428
c21.208 -21.5703 44.5947 -40.5293 69.6592 -56.6553c3.49609 -2.24902 7.02441 -4.44336 10.5859 -6.58203c3.85742 -2.31738 7.74707 -4.56738 11.6816 -6.75586c3.62793 -2.01758 7.28027 -3.97559 10.9668 -5.88086c3.68457 -1.90332 7.40137 -3.75195 11.1367 -5.53906
c4.05176 -1.93848 8.1416 -3.81152 12.249 -5.61035c3.79883 -1.66504 7.62109 -3.26953 11.4688 -4.81738c43.5967 -17.5244 90.3047 -27.4893 138.118 -29.0166c63.1426 -2.01758 125.309 10.7852 181.746 36.6582c36.5273 16.7461 70.8623 39.127 101.109 66.1973
c9.5127 8.32617 15.1953 20.7891 15.1953 33.7148c0 24.8496 -20.1504 45 -45 45c-11.2197 0 -22.1797 -4.2998 -30.2148 -11.6504c-60.0156 -53.7109 -139.09 -82.5498 -219.962 -79.9648c-36.9043 1.17969 -72.9492 8.81641 -106.633 22.251
c-3.25879 1.2998 -6.5 2.65625 -9.71289 4.0625c-5.89453 2.58203 -11.6992 5.34082 -17.4326 8.28418c-3.12305 1.60156 -6.21484 3.25488 -9.28906 4.96484c-5.62695 3.12891 -11.1621 6.43457 -16.5977 9.91113c-19.7646 12.6406 -38.1963 27.5391 -54.8975 44.5283
c-6.69922 6.81348 -13.0195 13.8477 -18.9688 21.085c-4.19824 5.10742 -8.21289 10.3174 -12.0391 15.6152c-38.5771 53.4092 -58.418 116.233 -59.3623 179.427c-0.945312 63.1934 17.0078 126.583 53.9707 181.121c3.51562 5.1875 7.20117 10.293 11.0635 15.3145
c5.87402 7.64062 12.1514 15.083 18.833 22.2988c59.9727 64.7646 140.897 98.7578 223.033 100.89c74.4531 1.93262 149.962 -22.5488 210.785 -73.79c7.8125 -6.81445 18.4688 -10.8613 29.3203 -10.8613c12.8555 0 24.541 5.45312 32.707 14.0928
c7.58887 8.03027 12.2939 18.9775 12.2939 30.9072c0 13.5146 -6.22949 26.4756 -16.3418 34.6963c-76.9395 64.8184 -172.625 96.4316 -266.849 94.9697z" />
    <glyph glyph-name="d" unicode="d" horiz-adv-x="794" 
d="M125 770c-24.8496 0 -45 -20.1504 -45 -45v-720c0 -11.9277 4.70312 -22.875 12.292 -30.9062c8.16406 -8.63867 19.8516 -14.0938 32.708 -14.0938h177c133.896 0 239.003 50.1768 308.95 127.261c69.6602 76.7676 103.55 177.738 103.55 277.739
s-33.8896 200.972 -103.55 277.739c-69.9463 77.083 -175.054 127.261 -308.95 127.261h-177zM170 680h132c111.231 0 189.654 -39.7217 242.3 -97.7393c52.8193 -58.209 80.2002 -137.289 80.2002 -217.261s-27.3809 -159.052 -80.2002 -217.261
c-52.6465 -58.0186 -131.069 -97.7393 -242.3 -97.7393h-132v630z" />
    <glyph glyph-name="e" unicode="e" horiz-adv-x="610" 
d="M125 770c-24.8496 0 -45 -20.1504 -45 -45v-360.803v-359.197c0 -11.9277 4.70312 -22.875 12.292 -30.9062c8.16406 -8.63867 19.8516 -14.0938 32.708 -14.0938l360.07 -0.000976562c24.8496 0 45.001 20.1514 45.001 45.001c0 24.8457 -20.1621 45 -45.0713 45h-315
v270l275.07 -0.000976562c24.8496 0 45.001 20.1514 45.001 45.001c0 24.8457 -20.1621 45 -45.0713 45h-275v270l315.07 -0.000976562c24.8496 0 45.001 20.1514 45.001 45.001c0 24.8457 -20.1621 45 -45.0713 45h-360z" />
    <glyph glyph-name="f" unicode="f" horiz-adv-x="610" 
d="M125.001 770.071c-24.8496 0 -45 -20.1504 -45 -45v-360.803l-0.000976562 -359.268c0 -24.8496 20.1514 -45.001 45.001 -45.001c24.8457 0 45 20.1621 45 45.0713v315h275.07c24.8457 0 45.001 20.1475 45.001 45c0 24.8457 -20.1621 45 -45.0713 45h-275v270h315.07
c24.8457 0 45.001 20.1475 45.001 45c0 24.8457 -20.1621 45 -45.0713 45h-360z" />
    <glyph glyph-name="g" unicode="g" horiz-adv-x="970" 
d="M486.961 770.781c-2.77734 0 -5.80469 0 -8.85156 -0.0517578c-84.0059 -1.42285 -167.914 -28.9531 -238.594 -82.8242c-3.20898 -2.44629 -6.37109 -4.93066 -9.49219 -7.45996c-50.4316 -40.8633 -88.9727 -92.1523 -114.335 -148.735
c-46.7852 -104.377 -48.8857 -227.056 1.50781 -336.411c79.3838 -172.268 267.774 -266.38 453.19 -226.4c185.536 40.0059 318.288 204.872 319.62 393.536l0.0917969 2.83887c-0.113281 25.3701 -20.0645 45.8789 -45.3584 45.5254h-339.438
c-27.418 0.387695 -44.2012 -22.3057 -45.2871 -42.5508c-1.13477 -21.1064 14.9766 -47.877 45.2871 -47.4492h291.427c-19.25 -130.955 -115.46 -234.922 -245.312 -262.922c-144.267 -31.1074 -290.717 42.0527 -352.481 176.088
c-38.998 84.6279 -37.6279 179.094 -1.76855 259.829c19.623 44.1807 49.5361 84.1738 88.8672 116.198c2.63574 2.14551 5.32031 4.26172 8.03711 6.33398c117.354 89.4443 281.28 85.2588 393.618 -9.38281c20.6211 -18.0381 48.2178 -11.5322 62.1328 3.28809
c14.4893 15.4346 19.4023 46.4365 -4.14551 65.54c-74.0713 62.4023 -166.577 94.5459 -258.716 95.0098z" />
    <glyph glyph-name="h" unicode="h" horiz-adv-x="690" 
d="M124.688 770.143c-25.083 -0.378906 -44.6865 -20.4561 -44.6865 -45.0713v-360.803l-0.000976562 -359.268c0 -24.8496 20.1514 -45.001 45.001 -45.001c24.8457 0 45 20.1621 45 45.0713v315h350l-0.000976562 -315.07c0 -24.8496 20.1514 -45.001 45.001 -45.001
c24.8457 0 45 20.1621 45 45.0713v360.803l0.000976562 359.268c0 24.8232 -20.0059 45.001 -45.3145 45.001c-25.083 -0.378906 -44.6865 -20.4561 -44.6865 -45.0713v-315h-350l0.000976562 315.07c0 25.0977 -20.5967 45.001 -45.3145 45.001z" />
    <glyph glyph-name="i" unicode="i" horiz-adv-x="490" 
d="M85.0615 730v-10c0 -25.6787 21.6602 -40 40 -40h75v-630h-74.7168c-27.4199 0.387695 -44.2012 -22.3037 -45.2891 -42.5518c-1.13281 -21.1055 14.9766 -47.876 45.2891 -47.4482h239.438c24.6709 -0.345703 45.3506 19.874 45.3506 45s-20.6787 45.3457 -45.3506 45
h-74.7207v630h74.7207c24.6709 -0.345703 45.3506 19.874 45.3506 45s-20.6787 45.3457 -45.3506 45h-239.721c-25.6777 0 -40 -21.6592 -40 -40z" />
    <glyph glyph-name="j" unicode="j" horiz-adv-x="610" 
d="M484.597 767.534l-199.667 -0.0351562c-24.8496 0 -45.001 -20.1514 -45.001 -45.001c0 -24.8457 20.1621 -45 45.0713 -45h155v-515c0 -18.1348 -3.79785 -32.8779 -10.3047 -45.7246c-6.60742 -13.043 -16.2256 -24.3477 -28.7764 -34.2256
c-24.6562 -19.4053 -60.7646 -31.5566 -97.167 -32.5674c-36.4688 -1.0127 -71.4766 9.12012 -95.0811 27.2607c-11.873 9.125 -21.1133 19.875 -27.7393 33.2891c-6.72559 13.6182 -10.9307 30.3477 -10.9307 52.0381c0 24.8496 -20.1514 45.001 -45.001 45.001
c-24.8457 0 -45 -20.1621 -45 -45.0713c0 -34.6982 7.5332 -66.1123 21.123 -93.0713c12.9219 -25.6396 31.1709 -46.9971 52.7051 -63.5469c43.7656 -33.6338 99.0488 -47.3477 152.422 -45.8643c53.4287 1.48438 107.623 18.1953 150.331 51.8076
c21.5215 16.9395 39.9434 38.3486 52.9619 63.8271c13.0225 25.4883 20.457 54.8467 20.457 86.8477c0 186.895 0.0664062 371.74 0.0664062 559.997c0 11.875 -4.85156 23.5625 -13.708 32.3438c-9.08496 8.83887 -20.6963 12.6953 -31.7617 12.6953z" />
    <glyph glyph-name="k" unicode="k" horiz-adv-x="690" 
d="M124.688 770.143c-25.083 -0.378906 -44.6865 -20.4561 -44.6865 -45.0713l-0.000976562 -720.07c0 -24.8496 20.1514 -45.001 45.001 -45.001c24.8457 0 45 20.1621 45 45.0713v265.04l366.181 -299.602c7.66602 -6.54492 18.1846 -10.5059 28.9004 -10.5059
c24.8496 0 45.001 20.1514 45.001 45.001c0 13.8076 -6.51074 27.0068 -16.9082 35.1572l-401.193 328.249l324.636 324.639c8.41699 8.17871 13.4336 19.9609 13.4336 32.0723c0 11.7041 -4.50977 22.7197 -12.2598 30.915c-8.38281 8.8623 -19.9785 14.085 -33.415 14.085
c-12.5566 -0.37207 -23.6123 -5.42188 -31.3975 -13.4346l-282.978 -282.978l0.000976562 251.432c0 25.0977 -20.5967 45.001 -45.3145 45.001z" />
    <glyph glyph-name="l" unicode="l" horiz-adv-x="610" 
d="M124.687 770.071c-25.083 -0.378906 -44.6865 -20.4561 -44.6865 -45.0713v-720c0 -11.9277 4.70312 -22.875 12.292 -30.9062c8.16406 -8.63867 19.8516 -14.0938 32.708 -14.0938l360.07 -0.000976562c24.8496 0 45.001 20.1514 45.001 45.001
c0 24.8457 -20.1621 45 -45.0713 45h-315l0.000976562 675.07c0 25.0977 -20.5967 45.001 -45.3145 45.001z" />
    <glyph glyph-name="m" unicode="m" horiz-adv-x="890" 
d="M124.614 770.07c-25.1055 -0.444336 -44.6045 -20.4805 -44.6133 -44.999l-0.000976562 -720.07c0 -24.8496 20.1514 -45.001 45.001 -45.001c24.8457 0 45 20.1621 45 45.0713v571.375l237.563 -356.344c8.33203 -12.4932 22.4268 -20.0303 37.4365 -20.0303
c15.0068 0 29.1035 7.5332 37.4414 20.0381l237.559 356.336l-0.000976562 -571.445c0 -24.8496 20.1514 -45.001 45.001 -45.001c24.8457 0 45 20.1621 45 45.0713v720.014c-0.00878906 24.8408 -20.1543 44.9854 -45.001 44.9854
c-15.0156 0 -29.1074 -7.54102 -37.4404 -20.0381l-282.559 -423.836l-282.562 423.844c-8.50195 12.7461 -22.9316 20.0303 -37.8242 20.0303z" />
    <glyph glyph-name="n" unicode="n" horiz-adv-x="730" 
d="M604.615 770.069c-25.0215 -0.386719 -44.6143 -20.4463 -44.6143 -45.0703v-571.375l-397.584 596.377c-8.32422 12.4531 -22.3965 19.9961 -37.416 19.9961c-24.8408 0 -44.9912 -20.1338 -45 -44.998l-0.000976562 -720.071c0 -24.8525 20.1553 -45 45.001 -45
c24.8398 0 45 20.1562 45 45.0713v571.375l397.562 -596.342c8.33008 -12.4902 22.4229 -20.0322 37.4375 -20.0322c24.8447 0 44.9834 20.1289 45.001 44.999v720.07c0 25.2383 -20.7754 45 -45.3857 45z" />
    <glyph glyph-name="o" unicode="o" horiz-adv-x="970" 
d="M485 770c-223.615 0 -405 -181.385 -405 -405s181.385 -405 405 -405s405 181.385 405 405s-181.385 405 -405 405zM485 680c174.039 0 315 -140.961 315 -315s-140.961 -315 -315 -315s-315 140.961 -315 315s140.961 315 315 315z" />
    <glyph glyph-name="p" unicode="p" horiz-adv-x="640" 
d="M125.004 770.071c-24.8477 0 -45 -20.1494 -45 -45v-441.804v-277.916c-0.344727 -24.6729 19.876 -45.3516 45 -45.3516c25.123 0 45.3486 20.6768 45 45.3525v234.719h135c82.3887 0 148.454 33.5352 191.814 84.6367c42.9746 50.6494 63.1855 116.092 63.1855 180.363
c0 64.2725 -20.2109 129.714 -63.1855 180.364c-43.3574 51.0986 -109.421 84.6357 -191.814 84.6357h-180zM170.004 680.071h135c57.876 0 96.3623 -21.2471 123.188 -52.8643c26.9668 -31.7803 41.8125 -76.4902 41.8125 -122.136
c0 -45.6416 -14.8467 -90.3564 -41.8125 -122.137c-26.8311 -31.623 -65.3193 -52.8633 -123.188 -52.8633h-135v350z" />
    <glyph glyph-name="q" unicode="q" horiz-adv-x="970" 
d="M485 770c-223.615 0 -405 -181.385 -405 -405s181.385 -405 405 -405c79.3867 0 155.346 24.543 215.322 62.0078l110.806 -126.635c8.52148 -9.74316 20.9414 -15.374 33.8721 -15.374c24.8457 0 45.001 20.1475 45.001 45c0 10.8369 -3.97656 21.4658 -11.1338 29.6348
l-108.062 123.5c74.2197 74.0811 119.081 174.514 119.19 286.681c0 223.944 -181.378 405.186 -404.995 405.186zM485 680c174.039 0 315 -140.961 315 -315c0 -85.5732 -35.2539 -163.406 -88.6035 -218.975l-112.351 128.403
c-8.25098 9.69238 -20.6934 15.625 -34.8496 15.625c-25.335 -0.853516 -44.2441 -20.8135 -44.2441 -45.001c0 -11.0879 4.21387 -21.958 11.3701 -29.9033l108.823 -124.369c-47.5244 -26.959 -98.1348 -40.7803 -155.146 -40.7803c-174.039 0 -315 140.961 -315 315
s140.961 315 315 315z" />
    <glyph glyph-name="r" unicode="r" horiz-adv-x="685" 
d="M125.004 770.07c-24.8477 0 -45 -20.1494 -45 -45v-441.804v-277.916c-0.344727 -24.6807 19.8848 -45.3506 45 -45.3506s45.3486 20.6689 45 45.3516v234.719h130.17c46.0117 -4.04883 78.4746 -18.3838 107.117 -40.4609
c13.8711 -10.6924 26.4209 -23.2031 37.8867 -37.2168c38.2236 -46.7168 61.5352 -110.485 70.3809 -163.55c3.61426 -24.373 27.0186 -41.5713 51.8613 -37.4287c24.8379 4.1416 41.3916 27.9863 36.9141 52.2188c-10.8887 65.3262 -38.0107 142.818 -89.502 205.752
c-15.3643 18.7773 -33.1357 36.2363 -53.126 51.501c-4.48828 3.42676 -9.19531 6.77637 -13.9268 9.99609c19.9248 13.2637 34.8242 27.0732 49.0391 43.8252c42.9746 50.6494 63.1855 116.092 63.1855 180.363c0 64.2725 -20.2109 129.714 -63.1855 180.364
c-43.3574 51.0986 -109.421 84.6357 -191.814 84.6357h-180zM170.004 680.07h135c57.876 0 96.3623 -21.2471 123.188 -52.8643c26.9668 -31.7803 41.8125 -76.4902 41.8125 -122.136c0 -45.6416 -14.8467 -90.3564 -41.8125 -122.137
c-26.8311 -31.623 -65.3193 -52.8633 -123.188 -52.8633h-135v350z" />
    <glyph glyph-name="s" unicode="s" horiz-adv-x="730" 
d="M365 770c-61.7988 0 -120.823 -24.0312 -165.61 -59.8613c-44.2461 -35.3945 -79.3896 -86.2959 -79.3896 -145.139c0 -41.0293 8.47559 -76.5674 24.0215 -106.394c15.7148 -30.1465 38.2783 -53.7324 64.1875 -71.5938
c50.4629 -34.7881 111.004 -49.4512 165.876 -63.1689c55.2363 -13.8096 106.415 -27.2578 138.211 -47.251c16.0244 -10.0762 27.1299 -20.6631 34.8223 -33.999c7.79785 -13.5176 12.8818 -31.1172 12.8818 -57.5938c0 -21.0557 -5.72656 -38.4395 -16.0996 -54.3105
c-10.376 -15.877 -25.8496 -30.2773 -45.4297 -42.6426c-38.8428 -24.5322 -92.1973 -38.0469 -133.471 -38.0469c-50.1094 0 -101.052 17.2715 -137.372 45.5205c-18.0049 14.0049 -32.2598 30.2559 -42.0498 48.1846c-10.0381 18.3848 -15.5771 38.5859 -15.5771 61.3652
c0 24.8496 -20.1514 45.001 -45.001 45.001c-24.8457 0 -45 -20.1621 -45 -45.0713c0 -5.88379 0.232422 -11.7021 0.6875 -17.4521c2.55371 -32.2314 12.167 -62.0859 26.8867 -88.5146c16.2959 -29.2607 38.748 -54.293 64.7979 -74.5557
c53.5752 -41.668 122.87 -64.4775 192.628 -64.4775c58.4502 0 125.609 16.6357 181.529 51.9531c27.2305 17.1992 52.1963 39.4355 70.9346 67.1855c19.9775 29.5859 32.5361 65.4307 32.5361 105.861c0 39.3311 -8.90527 73.3906 -25.0557 101.663
c-16.1396 28.2529 -38.9834 49.9238 -64.7402 66.1191c-50.2979 31.626 -109.989 44.7998 -164.289 58.374c-54.6973 13.6758 -104.958 28.126 -136.624 49.9561c-15.9092 10.9678 -27.4297 22.8662 -35.6143 38.334c-8.29883 15.6865 -13.6768 36.1162 -13.6768 65.5537
c0 20.7637 15.0996 50.4521 45.6123 74.8613c30.0508 24.042 71.3906 40.1387 109.388 40.1387s79.3359 -16.0967 109.389 -40.1387c30.5352 -24.4287 45.6104 -54 45.6104 -74.9316c0 -24.8496 20.1514 -45.001 45.001 -45.001c24.8457 0 45 20.1621 45 45.0713
c0 58.8389 -35.1484 109.749 -79.3896 145.139c-44.79 35.832 -103.812 59.8613 -165.61 59.8613z" />
    <glyph glyph-name="t" unicode="t" horiz-adv-x="805" 
d="M80 730.071v-10c0 -25.6787 21.6592 -40 40 -40h235v-674.72c-0.345703 -24.6729 19.876 -45.3516 45 -45.3516s45.3457 20.6777 45 45.3516v674.72h234.72c24.6729 -0.345703 45.3516 19.876 45.3516 45s-20.6777 45.3457 -45.3516 45h-559.72
c-25.6787 0 -40 -21.6592 -40 -40z" />
    <glyph glyph-name="u" unicode="u" horiz-adv-x="730" 
d="M124.687 770.571c-25.083 -0.378906 -44.6865 -20.4561 -44.6865 -45.0713v-482c0 -46.7529 9.22656 -88.8701 25.7979 -125.34c15.6963 -34.5439 37.8975 -63.8438 64.4102 -87.2627c54.3262 -47.9863 125.095 -70.8975 194.792 -70.8975
c69.7002 0 140.465 22.9092 194.792 70.8975c26.5127 23.4189 48.7139 52.7188 64.4102 87.2627c16.5693 36.4688 25.7979 78.5869 25.7979 125.34l0.000976562 482.07c0 24.8496 -20.1514 45.001 -45.001 45.001c-24.8457 0 -45 -20.1621 -45 -45.0713v-482
c0 -33.7637 -6.15234 -61.8994 -16.4189 -85.5088c-10.4795 -24.0977 -25.3184 -43.6895 -43.373 -59.6387c-35.627 -31.4707 -84.9658 -48.3525 -135.208 -48.3525c-50.2412 0 -99.5811 16.8818 -135.208 48.3525c-17.8711 15.7861 -32.5947 35.1523 -43.0537 58.9092
c-10.4609 23.7607 -16.7383 52.126 -16.7383 86.2383l0.000976562 482.07c0 25.0977 -20.5967 45.001 -45.3145 45.001z" />
    <glyph glyph-name="v" unicode="v" 
d="M125.36 770.066c-25.3438 0 -45.3604 -20.1846 -45.3604 -45c0 -5.95117 1.10449 -11.4902 3.18457 -16.6318l279.901 -719.745c6.72754 -17.2998 23.3877 -28.6895 41.9404 -28.6895c18.5547 0 35.2109 11.3906 41.9414 28.6904l279.922 719.803
c2.08105 5.18848 3.15625 10.6592 3.15625 16.5557c0 24.8525 -20.1553 45 -45.001 45c-18.7461 0 -35.5273 -11.6865 -42.0332 -28.9268l-237.985 -611.966l-237.956 611.887c-6.41309 17.2178 -23.2402 28.7568 -41.71 29.0234z" />
    <glyph glyph-name="w" unicode="w" horiz-adv-x="970" 
d="M844.912 770.068c-23.0908 -0.0996094 -42.458 -17.7314 -44.6553 -40.377l-64.0352 -576.311l-211.597 392.968c-7.84082 14.5459 -23.0723 23.6494 -39.6133 23.6494c-16.5283 0 -31.7793 -9.09473 -39.6211 -23.665l-211.589 -392.952l-29.5879 266.287
l-34.4316 309.888c-2.03809 22.5811 -21.4531 40.5479 -44.7822 40.5479c-24.8584 0 -45 -20.1611 -45 -45.001c0 -2.99121 0.382812 -6.16113 0.382812 -6.16113l37.2549 -335.066l42.6514 -383.859c2.54102 -22.7988 21.8096 -40.0156 44.7236 -40.0156
c16.5293 0 31.7549 9.08301 39.6201 23.6631l240.379 446.418l240.393 -446.444c7.8457 -14.543 23.0762 -23.6367 39.6064 -23.6367c22.9238 0 42.1758 17.2139 44.7246 40.0283l80 719.999c0.351562 3.16895 0.288086 5.79102 0.288086 5.79102
c-0.776367 25.7764 -20.7734 44.25 -45.1113 44.25z" />
    <glyph glyph-name="x" unicode="x" 
d="M687.496 770.057c-14.8027 0 -29.8809 -6.71191 -38.1436 -17.6484l-244.308 -314.109l-244.31 314.113c-8.2793 10.9521 -21.6436 17.3184 -35.1729 17.6445c-25.6367 0 -45.5625 -20.1982 -45.5625 -45c0 -10.2207 3.57617 -20.2656 9.69922 -27.9092l258.335 -332.146
l-258.503 -332.362c-6.14062 -7.88965 -9.4873 -17.6748 -9.4873 -27.6387c0 -24.8525 20.1553 -45 45.001 -45c13.8398 0 27.0186 6.43555 35.5205 17.373l244.479 314.33l244.482 -314.335c8.49805 -10.9248 21.6631 -17.3682 35.5176 -17.3682
c24.8496 0 45.001 20.1514 45.001 45.001c0 10 -3.36426 19.7529 -9.48047 27.6279l-258.51 332.372l258.335 332.146c6.12305 7.64355 9.69922 17.6885 9.69922 27.9092c0 23.1309 -19.1875 42.5 -42.5938 45z" />
    <glyph glyph-name="y" unicode="y" 
d="M124.136 770.153c-25.3945 -0.981445 -44.1357 -20.8984 -44.1357 -45.001c0 -8.3125 2.33594 -16.4541 6.36719 -23.0771l273.681 -469.17l-0.000976562 -227.904c0 -24.8496 20.1514 -45.001 45.001 -45.001c24.8457 0 45 20.1621 45 45.0713v227.834l273.731 469.255
c4.03516 6.7041 6.30371 14.748 6.30371 22.9717c0 24.5811 -19.6641 44.668 -44.7412 45.001c-16.582 0 -31.5312 -8.85547 -39.3076 -22.6328l-240.986 -413.121l-240.942 413.045c-8.03125 14.374 -23.958 22.7295 -39.9697 22.7295z" />
    <glyph glyph-name="z" unicode="z" horiz-adv-x="730" 
d="M125.036 770c-24.79 0 -45.0361 -20.0732 -45.0361 -45c0 -24.8457 20.1621 -45 45.0713 -45h395.918l-193.089 -289.632l-240.288 -360.432c-4.9082 -7.37598 -7.54004 -16.0518 -7.54004 -24.9355c0 -24.8389 20.1318 -44.9922 44.999 -45.001l480.07 -0.000976562
c24.8496 0 45.001 20.1514 45.001 45.001c0 24.8457 -20.1621 45 -45.0713 45h-395.918l193.089 289.632l240.288 360.432c4.9082 7.37598 7.54004 16.0518 7.54004 24.9355c0 24.8389 -20.1318 44.9922 -44.999 45.001h-480.035z" />
    <glyph glyph-name="braceleft" unicode="{" horiz-adv-x="450" 
d="M321.384 853.872c-1.93164 -0.298828 -2.93066 -0.462891 -4.61621 -0.730469c-33.4707 -6.69238 -59.9102 -20.0703 -81.9102 -38.8496c-21.7725 -18.583 -37.8008 -41.6475 -49.3535 -66.2939c-22.7695 -48.5771 -30.1602 -103.425 -35.2803 -154.622
c-5.12402 -51.2441 -7.95703 -100.677 -15.4336 -134.859c-3.7002 -16.9072 -8.78613 -30.1074 -13.1055 -37.0176c-1.83105 -2.92969 -3.40723 -4.8418 -4.7041 -6.125c-2.15332 -2.13379 -3.13086 -2.75684 -6.21484 -3.78516
c-18.3838 -6.12988 -30.7656 -23.3291 -30.7656 -42.6895c0 -15.0049 7.53809 -29.1152 20.0381 -37.4424c8.33301 -5.55566 15.4033 -13.9297 21.751 -27.3838c5.10156 -10.8125 9.46094 -24.7354 12.9121 -41.2549c7.67578 -36.7383 10.3916 -84.666 15.5449 -133.631
c5.13672 -48.7852 12.584 -100.473 35.8906 -146.31c11.7871 -23.1797 28.0195 -44.5459 49.5615 -61.7002c21.7744 -17.3389 49.0439 -30.1182 80.0654 -36.3232c2.8877 -0.639648 5.8623 -0.976562 9.33789 -0.976562c24.8457 0 45.001 20.1475 45.001 45
c0 21.8359 -15.8086 40.499 -36.6826 44.2275c-18.3916 3.67773 -31.8672 10.1973 -41.96 18.2568c-10.0742 8.0459 -18.0264 18.3984 -25.0967 32.3066c-14.0225 27.5771 -21.7852 69.0928 -26.6094 114.94c-4.8252 45.8369 -7.17188 95.8018 -16.9551 142.619
c-4.34668 20.8018 -10.4326 41.4355 -19.5088 60.7617c-3.38281 7.20508 -8.48535 16.1406 -12.0986 21.8115c2.71387 3.55762 4.61133 6.47461 6.8125 9.99707c12.6582 20.252 19.7363 42.7598 24.7061 65.4824c9.96973 45.5713 12.2158 96.6357 17.0664 145.14
c4.8457 48.4639 12.6338 94.2617 27.2197 125.377c7.46387 15.9238 15.9385 27.7275 26.2344 36.46c10.0596 8.5332 22.6875 14.9346 40.3438 18.4648c20.9404 3.91113 36.4893 22.5 36.4893 44.1895c0 25.5537 -22.29 43.7168 -45.4805 45.1104
c-1.03418 0.0625 -2.39746 -0.0253906 -3.19922 -0.150391z" />
    <glyph glyph-name="bar" unicode="|" horiz-adv-x="250" 
d="M124.688 850.071c-25.083 -0.378906 -44.6865 -20.4561 -44.6865 -45.0713l-0.000976562 -880.07c0 -24.8496 20.1514 -45.001 45.001 -45.001c24.8457 0 45 20.1621 45 45.0713l0.000976562 880.07c0 25.0977 -20.5967 45.001 -45.3145 45.001z" />
    <glyph glyph-name="braceright" unicode="}" horiz-adv-x="450" 
d="M128.719 853.872c1.93164 -0.298828 2.93066 -0.462891 4.61621 -0.730469c33.4707 -6.69238 59.9102 -20.0703 81.9102 -38.8496c21.7725 -18.583 37.8008 -41.6475 49.3535 -66.2939c22.7695 -48.5771 30.1602 -103.425 35.2803 -154.622
c5.12402 -51.2441 7.95703 -100.677 15.4336 -134.859c3.7002 -16.9072 8.78613 -30.1074 13.1055 -37.0176c1.83105 -2.92969 3.40723 -4.8418 4.7041 -6.125c2.15332 -2.13379 3.13086 -2.75684 6.21484 -3.78516c18.3838 -6.12988 30.7656 -23.3291 30.7656 -42.6895
c0 -15.0049 -7.53809 -29.1152 -20.0381 -37.4424c-8.33301 -5.55566 -15.4033 -13.9297 -21.751 -27.3838c-5.10156 -10.8125 -9.46094 -24.7354 -12.9121 -41.2549c-7.67578 -36.7383 -10.3916 -84.666 -15.5449 -133.631
c-5.13672 -48.7852 -12.584 -100.473 -35.8906 -146.31c-11.7871 -23.1797 -28.0195 -44.5459 -49.5615 -61.7002c-21.7744 -17.3389 -49.0439 -30.1182 -80.0654 -36.3232c-2.8877 -0.639648 -5.8623 -0.976562 -9.33789 -0.976562c-24.8457 0 -45.001 20.1475 -45.001 45
c0 21.8359 15.8086 40.499 36.6826 44.2275c18.3916 3.67773 31.8672 10.1973 41.96 18.2568c10.0742 8.0459 18.0264 18.3984 25.0967 32.3066c14.0225 27.5771 21.7852 69.0928 26.6094 114.94c4.8252 45.8369 7.17188 95.8018 16.9551 142.619
c4.34668 20.8018 10.4326 41.4355 19.5088 60.7617c3.38281 7.20508 8.48535 16.1406 12.0986 21.8115c-2.71387 3.55762 -4.61133 6.47461 -6.8125 9.99707c-12.6582 20.252 -19.7363 42.7598 -24.7061 65.4824c-9.96973 45.5713 -12.2158 96.6357 -17.0664 145.14
c-4.8457 48.4639 -12.6338 94.2617 -27.2197 125.377c-7.46387 15.9238 -15.9385 27.7275 -26.2344 36.46c-10.0596 8.5332 -22.6875 14.9346 -40.3438 18.4648c-20.9404 3.91113 -36.4893 22.5 -36.4893 44.1895c0 25.5537 22.29 43.7168 45.4805 45.1104
c1.03418 0.0625 2.39746 -0.0253906 3.19922 -0.150391z" />
    <glyph glyph-name="asciitilde" unicode="~" horiz-adv-x="770" 
d="M644.484 454.262c-15.6182 -0.418945 -29.2236 -8.24902 -37.0361 -20.3271c-57.4824 -86.2246 -94.3506 -99.7314 -111.154 -99.7314c-18.2002 0 -45.8203 18.1865 -81.9648 49.167c-33.0723 28.3486 -77.6055 70.833 -140.535 70.833
c-65.2441 0 -124.147 -46.9727 -186.012 -139.767c-4.94824 -7.16797 -7.78223 -16.1816 -7.78223 -25.2988c0 -24.8525 20.1553 -45 45.001 -45c15.2783 0 29.624 7.8916 37.6592 20.3652c57.4424 86.1631 94.3389 99.7002 111.134 99.7002
c18.2002 0 45.8203 -18.1865 81.9648 -49.167c33.0723 -28.3486 77.6055 -70.833 140.535 -70.833c65.25 0 124.128 46.9414 186.037 139.806c4.93164 7.17969 7.75195 16.1426 7.75195 25.252c0 25.375 -21.0498 45.001 -45.5986 45.001z" />
    <glyph glyph-name="exclamdown" unicode="&#xa1;" horiz-adv-x="260" 
d="M129.687 -40c-25.083 0.378906 -44.6865 20.4561 -44.6865 45.0713l-0.000976562 560.07c0 24.8496 20.1514 45.001 45.001 45.001c24.8457 0 45 -20.1621 45 -45.0713l0.000976562 -560.07c0 -25.0977 -20.5967 -45.001 -45.3145 -45.001zM130 665.071
c-27.6094 0 -50 22.3906 -50 50s22.3906 50 50 50s50 -22.3906 50 -50s-22.3906 -50 -50 -50z" />
    <glyph glyph-name="cent" unicode="&#xa2;" horiz-adv-x="850" 
d="M439.104 854.819c-25.083 -0.378906 -44.6865 -20.4561 -44.6865 -45.0713v-50.1924c-77.9355 -17.9404 -149.294 -57.6758 -206.605 -119.568c-146.925 -158.663 -143.241 -404.908 8.36133 -559.107c54.8398 -55.7812 125.57 -93.7646 198.244 -110.766
l-0.000976562 -40.4365c0 -24.8486 20.1504 -45.001 45.001 -45.001c24.8447 0 45 20.1621 45 45.0713v30.0664c68.0801 -0.0859375 134.43 16.916 193.459 48.8906c6.64453 3.59863 13.2021 7.39258 19.6543 11.373c6.76172 4.16992 13.4092 8.54395 19.9365 13.1191
c6.22949 4.36816 12.3418 8.91406 18.334 13.6387c6.4834 5.11426 13.126 10.6992 19.0938 16.04c9.50293 8.31738 15.1963 20.7764 15.1963 33.7148c0 24.8525 -20.1553 45 -45.001 45c-11.2207 0 -22.1797 -4.30078 -30.2148 -11.6504
c-4.58203 -4.10156 -9.8418 -8.52441 -14.8574 -12.4805c-4.64453 -3.66309 -9.37988 -7.18359 -14.208 -10.5684c-4.82422 -3.38281 -9.73438 -6.62305 -14.7275 -9.7207c-49.8164 -30.9102 -109.028 -47.4561 -166.665 -47.3555v629.999
c30.5762 0.0654297 56.7939 -3.58984 85.1914 -11.4795c38.6201 -10.7305 75.5996 -28.9844 108.933 -55.002c2.99707 -2.33887 6.5127 -5.19434 9.12695 -7.39648c7.81543 -6.81445 18.4688 -10.8594 29.3193 -10.8594c12.8564 0 24.5439 5.45508 32.707 14.0938
c7.58984 8.03125 12.293 18.9785 12.293 30.9062c0 13.5146 -6.22949 26.4756 -16.3408 34.6953c-3.47363 2.92676 -7.80566 6.44336 -11.6992 9.48242c-42.1299 32.875 -89.1455 56.2266 -138.088 70.127c-36.4443 10.3486 -74.7617 15.418 -111.442 15.4102
l0.000976562 40.0264c0 25.0977 -20.5967 45.001 -45.3145 45.001zM394.418 666.48v-603.365c-52.4502 15.7979 -96.2764 42.4238 -134.066 80.8623c-117.984 120.005 -120.846 311.381 -6.50293 434.861c39.5781 42.7402 90.0303 72.2354 140.569 87.6416z" />
    <glyph glyph-name="sterling" unicode="&#xa3;" horiz-adv-x="690" 
d="M405.071 770c-3.24219 0 -6.46094 -0.0546875 -9.66211 -0.163086c-37.6074 -1.27637 -72.0605 -10.0254 -102.42 -24.25c-33.2666 -15.5869 -61.5176 -37.6504 -84.1621 -63.3135c-44.8145 -50.79 -68.7559 -115.661 -68.7559 -177.273v-95l-15.0703 0.000976562
c-24.8496 0 -45.001 -20.1514 -45.001 -45.001c0 -24.8457 20.1621 -45 45.0713 -45h15v-115c0 -41.6875 1.73633 -77.4951 -2.99707 -103.056c-2.18945 -11.8193 -5.28418 -21.3721 -9.92676 -29.9326c-5.66406 -10.4463 -13.7109 -20.0215 -28.25 -30.4062
c-11.7812 -8.4248 -18.8252 -22.1025 -18.8252 -36.6045c0 -24.8447 20.1377 -44.9922 44.999 -45.001l440.07 -0.000976562c24.8496 0 45.001 20.1514 45.001 45.001c0 24.8457 -20.1621 45 -45.0713 45h-349.305c4.73438 12.4033 7.58496 23.583 9.80176 35.5557
c7.66797 41.4121 4.50293 81.6611 4.50293 119.444v115l215.07 -0.000976562c24.8496 0 45.001 20.1514 45.001 45.001c0 24.8457 -20.1621 45 -45.0713 45h-215v95c0 38.2002 16.1807 83.6553 46.2432 117.727c15.0498 17.0566 33.1963 31.2764 54.4541 41.2979
c21.2656 10.0254 45.7559 15.9756 74.3027 15.9756c24.7412 0 43.2891 -3.92188 57.4023 -9.78711c14.5674 -6.05371 24.7686 -14.1113 33.0264 -24.0234c16.002 -19.1992 24.5703 -48.2598 24.5703 -81.2598c0 -24.8496 20.1514 -45.001 45.001 -45.001
c24.8457 0 45 20.1621 45 45.0713c0 47.0254 -11.5088 98.1035 -45.4287 138.808c-17.2158 20.6592 -39.708 37.5371 -66.8604 48.9717c-26.791 11.2822 -57.8311 17.2207 -92.7109 17.2207z" />
    <glyph glyph-name="Euro" unicode="&#x20ac;" horiz-adv-x="754" 
d="M432.295 764.784c-2.91797 0 -5.8252 0.00390625 -8.73828 -0.0410156c-105.569 -1.63672 -210.338 -44.9404 -287.394 -128.153c-36.9697 -39.9248 -65.0059 -87.3506 -82.1064 -134.042l-91.7344 0.000976562c-22.0918 0 -40.001 -17.9092 -40.001 -40.001
c0 -22.0938 17.8525 -40 40.0713 -40h71.4561c-5.26367 -36.8232 -5.40625 -71.2529 -1.22363 -106.219l-72.8887 0.000976562c-22.0918 0 -40.001 -17.9092 -40.001 -40.001c0 -22.0938 17.8525 -40 40.0713 -40h90.9961
c18.8975 -55.7686 50.0234 -107.604 93.6182 -151.946c72.0977 -73.333 169.675 -116.082 272.461 -119.366c102.73 -3.28223 203.033 33.2744 279.385 101.604c9.67773 8.47461 13.5068 16.8184 13.5068 29.9697c0 22.0938 -17.9062 40 -40 40
c-11.8447 0 -18.3662 -2.58789 -26.8594 -10.3574c-61.0234 -54.6113 -141.304 -83.8799 -223.478 -81.2539c-82.2314 2.62793 -160.288 36.8252 -217.968 95.4932c-28.0811 28.5625 -50.3779 62.5547 -64.9697 95.8584l263.38 -0.000976562
c22.0918 0 40.001 17.9092 40.001 40.001c0 22.0938 -17.8525 40 -40.0713 40h-286.477c-5.45312 35.9795 -4.71191 71.8574 1.52539 106.218l287.606 -0.000976562c22.0918 0 40.001 17.9092 40.001 40.001c0 22.0938 -17.8525 40 -40.0713 40h-261.665
c14.0156 29.2695 31.501 55.2441 54.1338 79.6855c116.153 125.435 310.416 137.295 440.741 27.5c8.29004 -7.23047 14.5801 -9.65723 26.0674 -9.65723c22.0938 0 40 17.9062 40 40c0 13.6055 -4.34961 22.5674 -14.5293 30.8438
c-73.6416 62.041 -164.663 93.3018 -254.847 93.8633z" />
    <glyph glyph-name="yen" unicode="&#xa5;" 
d="M124.136 770.153c-25.3945 -0.981445 -44.1357 -20.8984 -44.1357 -45.001c0 -8.3125 2.33594 -16.4541 6.36719 -23.0771l240.38 -412.082l-121.77 0.000976562c-24.8496 0 -45.001 -20.1514 -45.001 -45.001c0 -24.8457 20.1621 -45 45.0713 -45h155v-30
l-155.07 0.000976562c-24.8496 0 -45.001 -20.1514 -45.001 -45.001c0 -24.8457 20.1621 -45 45.0713 -45h155l-0.000976562 -74.9922c0 -24.8496 20.1514 -45.001 45.001 -45.001c24.8457 0 45 20.1621 45 45.0713v74.9219l155.07 -0.000976562
c24.8496 0 45.001 20.1514 45.001 45.001c0 24.8457 -20.1621 45 -45.0713 45h-155v30l155.07 -0.000976562c24.8496 0 45.001 20.1514 45.001 45.001c0 24.8457 -20.1621 45 -45.0713 45h-121.699l240.432 412.168c4.03027 6.69727 6.30273 14.7383 6.30273 22.9707
c0 24.5908 -19.6582 44.6689 -44.668 45c-16.6191 0 -31.6025 -8.85254 -39.3809 -22.6318l-240.986 -413.121l-240.942 413.045c-8.03125 14.374 -23.958 22.7295 -39.9697 22.7295z" />
    <glyph glyph-name="ordfeminine" unicode="&#xaa;" horiz-adv-x="459" 
d="M230.133 765.003c-17.6494 0 -29.3535 -7.69922 -36.4072 -22.7529l-110.003 -235.007c-3.2207 -6.88477 -3.72266 -9.10645 -3.72266 -16.7393c0 -21.8184 17.6826 -39.501 39.501 -39.501c16.5459 0 28.7627 7.77832 35.7754 22.7549l26.5859 56.7988h95.2773
l26.5879 -56.8037c7.00977 -14.9688 19.2275 -22.75 35.7734 -22.75c21.8184 0 39.501 17.6826 39.501 39.501c0 7.63574 -0.498047 9.84766 -3.72559 16.7461l-110.009 235.02c-6.85059 14.6113 -18.7861 22.1982 -35.1348 22.7334zM229.501 632.328l10.2402 -21.877
h-20.4805z" />
    <glyph glyph-name="uni00B9" unicode="&#xb9;" horiz-adv-x="329" 
d="M163.965 765.002c-8.77441 -0.266602 -10.0244 -0.647461 -17.0654 -4.16797l-79.7979 -39.8994c-14.3848 -6.96191 -22.0898 -19.0986 -22.0898 -35.457c0 -21.8184 17.6826 -39.501 39.501 -39.501c8.11328 0 11.0479 0.755859 17.9082 4.29199l22.6436 11.3213
v-136.588h-40.5635c-21.8076 0 -39.501 -17.6748 -39.501 -39.5s17.6426 -39.5 39.5645 -39.5h80.7285h79.335c21.8076 0 39.501 17.6748 39.501 39.5s-17.6426 39.5 -39.5645 39.5h-40.5v200.5c0 21.8223 -18.1201 39.5 -40.0996 39.5z" />
    <glyph glyph-name="ordmasculine" unicode="&#xba;" horiz-adv-x="381" 
d="M190.5 765c-85.0508 0 -145.5 -77.5527 -145.5 -162.5s60.4492 -162.5 145.5 -162.5s145.5 77.5527 145.5 162.5s-60.4492 162.5 -145.5 162.5zM190.5 686c31.917 0 66.5 -32.4414 66.5 -83.5c0 -51.0283 -34.6113 -83.5 -66.5 -83.5c-31.917 0 -66.5 32.4414 -66.5 83.5
c0 51.0283 34.6113 83.5 66.5 83.5z" />
    <glyph glyph-name="questiondown" unicode="&#xbf;" horiz-adv-x="690" 
d="M345 -40c3.94531 0 7.85352 0.0546875 11.7139 0.164062c41.1875 1.16309 77.5693 8.49219 109.04 20.8125c32.458 12.7051 59.5693 30.709 81.0654 52.2041c44.2188 44.2188 63.1816 100.825 63.1816 151.89c0 24.8496 -20.1514 45.001 -45.001 45.001
c-24.8457 0 -45 -20.1621 -45 -45.0713c0 -29.0205 -11.0752 -62.4355 -36.8193 -88.1807c-12.3789 -12.3789 -28.29 -23.4023 -49.2549 -31.7598c-22.8984 -9.12695 -51.9893 -15.0596 -88.9258 -15.0596c-36.543 0 -65.4072 5.80762 -88.1914 14.7695
c-21.3291 8.38965 -37.4668 19.5283 -49.9893 32.0498c-25.748 25.748 -36.8193 59.1543 -36.8193 88.1807c0 26.8574 3.03711 47.2656 7.70605 63.1904c4.60449 15.7109 10.6826 27.1523 17.958 37.0732c14.3955 19.6328 35.8545 34.1816 63.4961 51.7715
c27.1367 17.2695 61.0771 38.1035 87.7539 74.4785c13.4443 18.335 24.3779 40.0273 31.7822 65.4912c7.40234 25.4551 11.3047 54.5361 11.3047 88.0654c0 24.8496 -20.1514 45.001 -45.001 45.001c-24.8457 0 -45 -20.1621 -45 -45.0713
c0 -26.4365 -2.94434 -46.6299 -7.4873 -62.4385c-4.62695 -16.0986 -10.7871 -27.749 -18.1768 -37.8252c-14.3955 -19.6328 -35.8545 -34.1816 -63.4961 -51.7715c-27.1367 -17.2695 -61.0771 -38.1035 -87.7539 -74.4785
c-12.7041 -17.3262 -23.1729 -37.6709 -30.5293 -61.3525c-8.20801 -26.4229 -12.5566 -56.8359 -12.5566 -92.1338c0 -50.9434 18.9658 -107.605 63.1807 -151.819c21.2764 -21.2764 48.0596 -39.1338 80.083 -51.8174c34.6396 -13.7188 75.2578 -21.3633 121.736 -21.3633
zM345 670c27.6094 0 50 22.3906 50 50s-22.3906 50 -50 50s-50 -22.3906 -50 -50s22.3906 -50 50 -50z" />
    <glyph glyph-name="Agrave" unicode="&#xc0;" 
d="M325.629 1001.16c-24.8594 0 -44.9932 -20.166 -44.9932 -45c0 -12.1113 5.0166 -23.8936 13.4336 -32.0723l119.523 -119.525c8.07617 -8.39258 19.9365 -13.5244 32.1641 -13.5244c24.8525 0 45 20.1553 45 45.001c0 12.2021 -5.12012 24.0977 -13.5439 32.1816
l-119.497 119.496c-8.18164 8.43164 -19.9844 13.4434 -32.0869 13.4434zM405.015 770.05c-18.5625 0 -35.207 -11.3984 -41.9365 -28.6904l-279.908 -719.767c-2.09668 -5.23633 -3.16992 -10.6846 -3.16992 -16.5918c0 -24.8496 20.1514 -45.001 45.001 -45.001
c18.7363 0 35.541 11.6846 42.0381 28.9404l82.0713 211.047h311.817l82.0762 -211.055c6.50293 -17.249 23.2959 -28.9326 42.0352 -28.9326c24.8496 0 45.001 20.1514 45.001 45.001c0 5.89941 -1.0791 11.3916 -3.16504 16.5762l-279.915 719.783
c-6.73047 17.3057 -23.3965 28.6895 -41.9453 28.6895zM405.02 600.895l120.86 -310.782h-241.721z" />
    <glyph glyph-name="Aacute" unicode="&#xc1;" 
d="M484.411 1001.16c24.8594 0 44.9932 -20.166 44.9932 -45c0 -12.1113 -5.0166 -23.8936 -13.4336 -32.0723l-119.523 -119.525c-8.07617 -8.39258 -19.9365 -13.5244 -32.1641 -13.5244c-24.8525 0 -45 20.1553 -45 45.001c0 12.2021 5.12012 24.0977 13.5439 32.1816
l119.497 119.496c8.18164 8.43164 19.9844 13.4434 32.0869 13.4434zM405.025 770.05c18.5625 0 35.207 -11.3984 41.9365 -28.6904l279.908 -719.767c2.09668 -5.23633 3.16992 -10.6846 3.16992 -16.5918c0 -24.8496 -20.1514 -45.001 -45.001 -45.001
c-18.7363 0 -35.541 11.6846 -42.0381 28.9404l-82.0713 211.047h-311.817l-82.0762 -211.055c-6.50293 -17.249 -23.2959 -28.9326 -42.0352 -28.9326c-24.8496 0 -45.001 20.1514 -45.001 45.001c0 5.89941 1.0791 11.3916 3.16504 16.5762l279.915 719.783
c6.73047 17.3057 23.3965 28.6895 41.9453 28.6895zM405.021 600.895l-120.86 -310.782h241.721z" />
    <glyph glyph-name="Acircumflex" unicode="&#xc2;" 
d="M404.712 998.256c-12.125 -0.180664 -23.3174 -4.97949 -31.5117 -13.1816l-119.716 -119.716c-8.40527 -8.07422 -13.5361 -19.9541 -13.5361 -32.1738c0 -11.9277 4.70312 -22.875 12.292 -30.9062c8.16406 -8.63867 19.8525 -14.0947 32.709 -14.0947
c12.2197 0 24.0996 5.13086 32.1738 13.5361l87.8965 87.8965l87.8965 -87.8965c8.07422 -8.40527 19.9541 -13.5361 32.1738 -13.5361c11.9277 0 22.875 4.70312 30.9062 12.292c8.63867 8.16406 14.0947 19.8525 14.0947 32.709
c0 12.2197 -5.13086 24.0996 -13.5361 32.1738l-119.719 119.719c-8.54199 8.54004 -20.2725 13.1787 -32.124 13.1787zM405.015 770.05c-18.5625 0 -35.207 -11.3984 -41.9365 -28.6904l-279.908 -719.767c-2.09668 -5.23633 -3.16992 -10.6846 -3.16992 -16.5918
c0 -24.8457 20.1475 -45.001 45 -45.001c18.7344 0 35.5391 11.6816 42.0381 28.9404l82.0723 211.047h311.817l82.0771 -211.055c6.49902 -17.2402 23.2852 -28.9326 42.0332 -28.9326c24.8496 0 45.001 20.1514 45.001 45.001c0 5.89648 -1.0752 11.3672 -3.15625 16.5557
l-279.924 719.805c-6.73145 17.3066 -23.3994 28.6885 -41.9443 28.6885zM405.02 600.895l120.86 -310.782h-241.721z" />
    <glyph glyph-name="Atilde" unicode="&#xc3;" 
d="M354.156 980.084c-26.9854 -0.426758 -51.5176 -13.1436 -72.7891 -33.3604c-11.5176 -10.9453 -22.6035 -24.4561 -33.3164 -40.0391c-5.18359 -7.41309 -8.05273 -16.4941 -8.05273 -25.6895c0 -24.8525 20.1553 -45 45.001 -45
c14.9268 0 28.9492 7.48145 37.168 19.6318c8.24316 11.9902 15.5469 20.4854 20.9932 25.6973c7.33301 7.01758 11.5176 8.5 12.043 8.66504c3.46777 -1.14941 12.7559 -6.25781 25.1406 -16.3477c14.2578 -11.6182 38.4902 -35.7998 75.2012 -40.1191
c4.8623 -0.571289 9.86133 -0.735352 14.9023 -0.442383c15.2891 0.881836 30.249 5.93066 43.8418 14.3916c17.5781 10.9414 32.9551 27.2471 47.1562 47.1289c5.44434 7.36133 8.62402 16.8564 8.62402 26.4941c0 24.8457 -20.1475 45.001 -45 45.001
c-14.7861 0 -28.7539 -7.41504 -36.8643 -19.1914c-9.69141 -13.5664 -18.5557 -21.208 -21.4795 -23.0283c-5.58984 2.67285 -16.0488 8.55176 -29.5312 19.5381c-15.8047 12.876 -43.1611 37.2979 -83.0381 36.6699zM405.016 770.05
c-18.5566 0 -35.2148 -11.4004 -41.9365 -28.6904l-215.061 -553.015l-64.8535 -166.766c-2.08887 -5.18945 -3.16504 -10.6855 -3.16504 -16.5791c0 -24.8525 20.1553 -45 45.001 -45c18.7393 0 35.5322 11.6836 42.0352 28.9326l64.4922 165.84l17.583 45.2148h311.817
l82.0723 -211.047c6.49707 -17.2559 23.3018 -28.9404 42.0381 -28.9404c24.8496 0 45.001 20.1514 45.001 45.001c0 5.9043 -1.08008 11.3711 -3.13281 16.498l-279.951 719.875c-6.73047 17.2861 -23.3848 28.6758 -41.9404 28.6758zM405.021 600.895l120.86 -310.782
h-241.721z" />
    <glyph glyph-name="Adieresis" unicode="&#xc4;" 
d="M315.02 924.005c-27.6064 0 -50 -22.3867 -50 -50c0 -27.6094 22.3906 -50 50 -50s50 22.3906 50 50c0 27.6133 -22.3936 50 -50 50zM495.02 924.005c-27.6064 0 -50 -22.3867 -50 -50c0 -27.6094 22.3906 -50 50 -50s50 22.3906 50 50c0 27.6133 -22.3936 50 -50 50z
M405.015 770.05c-18.5625 0 -35.207 -11.3984 -41.9365 -28.6904l-279.908 -719.767c-2.09668 -5.23633 -3.16992 -10.6846 -3.16992 -16.5918c0 -24.8457 20.1475 -45.001 45 -45.001c18.7441 0 35.5342 11.6885 42.0342 28.9326l82.0762 211.055h311.817l82.0771 -211.055
c6.49902 -17.2402 23.2852 -28.9326 42.0332 -28.9326c24.8496 0 45.001 20.1514 45.001 45.001c0 5.89648 -1.0752 11.3672 -3.15625 16.5557l-279.924 719.805c-6.73145 17.3066 -23.3994 28.6885 -41.9443 28.6885zM405.02 600.895l120.86 -310.782h-241.721z" />
    <glyph glyph-name="Aring" unicode="&#xc5;" 
d="M405.021 999.005c-57.9453 0 -105 -47.0527 -105 -105c0 -57.9443 47.0518 -105 105 -105c57.9424 0 105 47.0518 105 105c0 57.9443 -47.0527 105 -105 105zM405.021 909.005c8.40234 0 15 -6.59766 15 -15c0 -8.40332 -6.59668 -15 -15 -15
c-8.40527 0 -15 6.5957 -15 15s6.5957 15 15 15zM405.015 770.05c-18.5625 0 -35.207 -11.3984 -41.9365 -28.6904l-279.908 -719.769c-2.09668 -5.23828 -3.16992 -10.6846 -3.16992 -16.5908c0 -24.8525 20.1553 -45 45.001 -45c18.7363 0 35.541 11.6846 42.0381 28.9404
l82.0713 211.047h311.818l82.0723 -211.047c6.49707 -17.2559 23.3018 -28.9404 42.0381 -28.9404c24.8496 0 45.001 20.1514 45.001 45.001c0 5.9043 -1.08008 11.3711 -3.13281 16.498l-279.951 719.875c-6.73145 17.2891 -23.3877 28.6758 -41.9414 28.6758z
M405.021 600.895l120.86 -310.782h-241.721z" />
    <glyph glyph-name="AE" unicode="&#xc6;" horiz-adv-x="930" 
d="M484.634 770c-24.2773 -0.545898 -35.501 -17.3086 -38.2578 -21.8486c-0.53125 -0.876953 -0.814453 -1.40527 -1.18359 -2.14648l-360.452 -720.901c-3.13574 -6.28223 -4.74023 -13.0098 -4.74023 -20.1035c0 -24.8496 20.1514 -45.001 45.001 -45.001
c17.042 0 32.6377 9.64941 40.249 24.877l87.4766 174.95h187.274v-154.826c0 -11.9277 4.70312 -22.875 12.292 -30.9062c8.16406 -8.63867 19.8516 -14.0938 32.708 -14.0938l320.07 -0.000976562c24.8496 0 45.001 20.1514 45.001 45.001
c0 24.8457 -20.1621 45 -45.0713 45h-275v150.298c0.178711 2.10645 0.258789 2.72461 0.258789 4.70801c0 44.5586 -0.200195 79.0225 -0.249023 114.994l235.061 -0.000976562c24.8496 0 45.001 20.1514 45.001 45.001c0 24.8457 -20.1621 45 -45.0713 45h-235v270
l275.07 -0.000976562c24.8496 0 45.001 20.1514 45.001 45.001c0 24.8457 -20.1621 45 -45.0713 45h-320.367zM440.001 534.376v-170.179v-114.023h-142.101z" />
    <glyph glyph-name="Ccedilla" unicode="&#xc7;" horiz-adv-x="850" 
d="M487.551 769.785c-2.7334 0 -5.68066 0.00585938 -8.75293 -0.0419922c-106.881 -1.65723 -212.968 -45.5039 -290.985 -129.756c-8.55176 -9.23438 -16.5967 -18.7715 -24.1367 -28.5762c-4.95898 -6.4502 -9.69922 -13.0176 -14.2168 -19.6846
c-2.35059 -3.46777 -4.6416 -6.96582 -6.87207 -10.4883c-42.9141 -67.7715 -63.6953 -145.325 -62.541 -222.479c1.15332 -77.1533 24.2441 -154.048 69.167 -220.512c2.33496 -3.45312 4.72559 -6.87598 7.18066 -10.2754
c4.7168 -6.53125 9.65039 -12.9512 14.8008 -19.251c7.82715 -9.57324 16.1553 -18.8672 24.9795 -27.8428c21.208 -21.5703 44.5947 -40.5293 69.6592 -56.6553c3.49609 -2.24902 7.02441 -4.44336 10.5859 -6.58203c3.85742 -2.31738 7.74707 -4.56738 11.6816 -6.75586
c3.62793 -2.01758 7.28027 -3.97559 10.9668 -5.88086c3.68457 -1.90332 7.40137 -3.75195 11.1367 -5.53906c4.05176 -1.93848 8.1416 -3.81152 12.249 -5.61035c3.79883 -1.66504 7.62109 -3.26953 11.4688 -4.81738c43.5967 -17.5244 90.3047 -27.4893 138.12 -29.0166
c14.2676 -0.456055 30.3115 -0.00683594 43.1797 0.953125c-1.29688 -5.38184 -2.28223 -8.13574 -3.53223 -10.9736c-2.07031 -4.70215 -3.37305 -6.17773 -4.38477 -7.15625c-1.08008 -1.04395 -2.19141 -1.9668 -6.59277 -3.65723
c-14.4453 -5.5459 -64.5986 -4.50781 -136.288 -4.50781c-24.8496 0 -45.001 -20.1514 -45.001 -45.001c0 -24.8457 20.1621 -45 45.0713 -45c66.0557 0 119.889 -8.1709 168.481 10.4912c12.9189 4.95996 24.9912 12.2441 35.3887 21.9482
c10.7275 10.0117 19.4346 22.3975 25.6934 36.6104c3.88281 8.81641 6.79688 18.1465 9.01758 27.875c2.62402 11.4902 4.48633 26.2559 5.35352 37.4961l0.15625 0.0498047c53.8691 17.2588 103.831 45.71 146.311 83.7275
c9.50293 8.31738 15.1963 20.7764 15.1963 33.7148c0 24.8525 -20.1553 45 -45.001 45c-11.2197 0 -22.1797 -4.2998 -30.2148 -11.6504c-32.96 -29.4971 -72.0938 -51.7373 -113.794 -65.0986c-22.2842 -7.14062 -45.3877 -11.8066 -68.8877 -13.8477
c-12.3359 -1.07031 -24.7832 -1.41699 -37.2803 -1.01855c-36.9043 1.17969 -72.9492 8.81641 -106.633 22.251c-3.25879 1.2998 -6.5 2.65625 -9.71289 4.0625c-5.89453 2.58203 -11.6992 5.34082 -17.4326 8.28418c-3.12305 1.60156 -6.21484 3.25488 -9.28906 4.96484
c-5.62695 3.12891 -11.1621 6.43457 -16.5977 9.91113c-19.7646 12.6406 -38.1963 27.5391 -54.8975 44.5283c-6.69922 6.81348 -13.0195 13.8477 -18.9688 21.085c-4.19824 5.10742 -8.21289 10.3174 -12.0391 15.6152c-38.5771 53.4092 -58.418 116.233 -59.3623 179.427
c-0.945312 63.1934 17.0078 126.583 53.9707 181.121c3.51562 5.1875 7.20117 10.293 11.0635 15.3145c5.87402 7.64062 12.1514 15.083 18.833 22.2988c59.9727 64.7646 140.897 98.7578 223.033 100.89c74.4531 1.93262 149.96 -22.5469 210.787 -73.792
c7.81543 -6.81445 18.4688 -10.8594 29.3193 -10.8594c12.8564 0 24.5439 5.45508 32.707 14.0938c7.58984 8.03125 12.293 18.9785 12.293 30.9062c0 13.5146 -6.22949 26.4756 -16.3408 34.6963c-74.5127 62.7754 -166.76 94.4434 -258.097 95.0117z" />
    <glyph glyph-name="Egrave" unicode="&#xc8;" horiz-adv-x="610" 
d="M226.892 1047.06c-26.1738 0 -45.9346 -20.2305 -45.9346 -45c0 -9.95801 3.38965 -19.7402 9.20996 -27.2803l119.664 -159.55c8.22754 -11.2998 21.8594 -18.2832 36.2119 -18.2832c24.8496 0 45 20.1504 45 45c0 9.93262 -3.37695 19.7373 -9.21973 27.293
l-119.653 159.537c-8.26172 11.3477 -21.8555 17.7314 -35.2783 18.2832zM125 770c-24.8496 0 -45 -20.1504 -45 -45v-360.803v-359.197c0 -11.9277 4.70312 -22.875 12.292 -30.9062c8.16406 -8.63867 19.8516 -14.0938 32.708 -14.0938l360.07 -0.000976562
c24.8496 0 45.001 20.1514 45.001 45.001c0 24.8457 -20.1621 45 -45.0713 45h-315v270l275.07 -0.000976562c24.8496 0 45.001 20.1514 45.001 45.001c0 24.8457 -20.1621 45 -45.0713 45h-275v270l315.07 -0.000976562c24.8496 0 45.001 20.1514 45.001 45.001
c0 24.8457 -20.1621 45 -45.0713 45h-360z" />
    <glyph glyph-name="Eacute" unicode="&#xc9;" horiz-adv-x="610" 
d="M386.693 1045.06c-15.1973 0 -28.6523 -7.00586 -36.8633 -18.2832l-119.653 -159.537c-5.84277 -7.55566 -9.21973 -17.3604 -9.21973 -27.293c0 -24.8525 20.1553 -45 45.001 -45c14.3584 0 27.9844 6.98828 36.21 18.2812l119.665 159.552
c5.82031 7.54004 9.20996 17.3223 9.20996 27.2803c0 24.9209 -20.3408 44.3086 -44.3496 45zM125 770c-24.8496 0 -45 -20.1504 -45 -45v-360.803v-359.197c0 -11.9277 4.70312 -22.875 12.292 -30.9062c8.16406 -8.63867 19.8516 -14.0938 32.708 -14.0938
l360.07 -0.000976562c24.8496 0 45.001 20.1514 45.001 45.001c0 24.8457 -20.1621 45 -45.0713 45h-315v270l275.07 -0.000976562c24.8496 0 45.001 20.1514 45.001 45.001c0 24.8457 -20.1621 45 -45.0713 45h-275v270l315.07 -0.000976562
c24.8496 0 45.001 20.1514 45.001 45.001c0 24.8457 -20.1621 45 -45.0713 45h-360z" />
    <glyph glyph-name="Ecircumflex" unicode="&#xca;" horiz-adv-x="610" 
d="M305.692 1009c-12.125 -0.180664 -23.3174 -4.97949 -31.5117 -13.1816l-119.716 -119.716c-8.40527 -8.07422 -13.5361 -19.9541 -13.5361 -32.1738c0 -11.9277 4.70312 -22.875 12.292 -30.9062c8.16406 -8.63867 19.8525 -14.0947 32.709 -14.0947
c12.2197 0 24.0996 5.13086 32.1738 13.5361l87.8965 87.8965l87.8965 -87.8965c8.07715 -8.4082 19.958 -13.5361 32.1748 -13.5361c11.9297 0 22.876 4.7041 30.9082 12.2939c8.6377 8.16504 14.0918 19.8525 14.0918 32.707c0 12.2197 -5.13086 24.0996 -13.5361 32.1738
l-119.719 119.719c-8.54199 8.54004 -20.2725 13.1787 -32.124 13.1787zM125 770c-24.8496 0 -45 -20.1504 -45 -45v-360.803v-359.197c0 -11.9277 4.70312 -22.875 12.292 -30.9062c8.16406 -8.63867 19.8516 -14.0938 32.708 -14.0938l360.07 -0.000976562
c24.8496 0 45.001 20.1514 45.001 45.001c0 24.8457 -20.1621 45 -45.0713 45h-315v270l275.07 -0.000976562c24.8496 0 45.001 20.1514 45.001 45.001c0 24.8457 -20.1621 45 -45.0713 45h-275v270l315.07 -0.000976562c24.8496 0 45.001 20.1514 45.001 45.001
c0 24.8457 -20.1621 45 -45.0713 45h-360z" />
    <glyph glyph-name="Edieresis" unicode="&#xcb;" horiz-adv-x="610" 
d="M216 959c-27.6094 0 -50 -22.3906 -50 -50s22.3906 -50 50 -50s50 22.3906 50 50s-22.3906 50 -50 50zM396 959c-27.6094 0 -50 -22.3906 -50 -50s22.3906 -50 50 -50s50 22.3906 50 50s-22.3906 50 -50 50zM125 770c-24.8496 0 -45 -20.1504 -45 -45v-360.803v-359.197
c0 -11.9277 4.70312 -22.875 12.292 -30.9062c8.16406 -8.63867 19.8516 -14.0938 32.708 -14.0938l360.07 -0.000976562c24.8496 0 45.001 20.1514 45.001 45.001c0 24.8457 -20.1621 45 -45.0713 45h-315v270l275.07 -0.000976562c24.8496 0 45.001 20.1514 45.001 45.001
c0 24.8457 -20.1621 45 -45.0713 45h-275v270l315.07 -0.000976562c24.8496 0 45.001 20.1514 45.001 45.001c0 24.8457 -20.1621 45 -45.0713 45h-360z" />
    <glyph glyph-name="Igrave" unicode="&#xcc;" horiz-adv-x="490" 
d="M166.005 1003.05c-12.4414 0 -23.6846 -5.06055 -31.6523 -12.9883c-16.123 -16.043 -19.4092 -45.1279 0.0898438 -64.082l119.517 -119.516c18.9766 -19.7529 47.0713 -15.6357 62.2158 -2.04102c15.7607 14.1543 23.2842 44.6738 1.42383 65.6787l-119.516 119.516
c-8.20605 8.44238 -19.9111 13.4326 -32.0781 13.4326zM85.0615 730v-10c0 -25.6787 21.6592 -40 40 -40h75v-630h-74.7168c-27.4199 0.387695 -44.2012 -22.3037 -45.2891 -42.5518c-1.13281 -21.1055 14.9814 -47.876 45.2764 -47.4482
c79.2812 -0.0488281 160.213 0 239.45 0c24.6709 -0.345703 45.3506 19.874 45.3506 45s-20.6787 45.3457 -45.3506 45h-74.7207v630h74.7207c24.6709 -0.345703 45.3506 19.874 45.3506 45s-20.6787 45.3457 -45.3506 45h-239.721c-25.6777 0 -40 -21.6592 -40 -40z" />
    <glyph glyph-name="Iacute" unicode="&#xcd;" horiz-adv-x="490" 
d="M323.75 1044.06c-15.1963 0 -28.6523 -7.00586 -36.8623 -18.2832l-119.654 -159.537c-5.84277 -7.55566 -9.21973 -17.3604 -9.21973 -27.293c0 -24.8525 20.1553 -45 45.001 -45c14.3604 0 27.9854 6.98828 36.2109 18.2812l119.664 159.552
c5.82031 7.54004 9.20996 17.3223 9.20996 27.2803c0 24.9209 -20.3408 44.3086 -44.3496 45zM85.0615 730v-10c0 -25.6787 21.6592 -40 40 -40h75v-630h-74.7168c-27.4199 0.387695 -44.2012 -22.3037 -45.2891 -42.5518
c-1.13281 -21.1055 14.9814 -47.876 45.2764 -47.4482c79.2812 -0.0488281 160.213 0 239.45 0c24.6709 -0.345703 45.3506 19.874 45.3506 45s-20.6787 45.3457 -45.3506 45h-74.7207v630h74.7207c24.6709 -0.345703 45.3506 19.874 45.3506 45
s-20.6787 45.3457 -45.3506 45h-239.721c-25.6777 0 -40 -21.6592 -40 -40z" />
    <glyph glyph-name="Icircumflex" unicode="&#xce;" horiz-adv-x="491" 
d="M244.41 999.995c-11.6953 -0.175781 -22.8906 -4.90039 -31.1562 -13.1758l-119.718 -119.718c-19.749 -18.9756 -15.6348 -47.0752 -2.04004 -62.2129c14.1543 -15.7646 44.6777 -23.2861 65.6797 -1.42383l87.8975 87.8965l87.8975 -87.8965
c18.9766 -19.7529 47.0713 -15.6367 62.2168 -2.04004c15.7588 14.1533 23.2842 44.6729 1.42188 65.6777l-119.715 119.716c-8.60547 8.60645 -20.3271 13.3525 -32.4844 13.1768zM86.0732 730v-10c0 -25.6787 21.6602 -40 40 -40h75v-630h-74.7168
c-27.4189 0.387695 -44.2012 -22.3037 -45.2881 -42.5518c-1.13379 -21.1055 14.9756 -47.876 45.2871 -47.4482h239.438c24.6699 -0.345703 45.3506 19.874 45.3506 45s-20.6797 45.3457 -45.3506 45h-74.7207v630h74.7207c24.6699 -0.345703 45.3506 19.874 45.3506 45
s-20.6797 45.3457 -45.3506 45h-239.721c-25.6797 0 -40 -21.6611 -40 -40z" />
    <glyph glyph-name="Idieresis" unicode="&#xcf;" horiz-adv-x="490" 
d="M153.062 956c-27.6104 0 -50 -22.3896 -50 -50s22.3896 -50 50 -50s50 22.3896 50 50s-22.3896 50 -50 50zM333.062 956c-27.6104 0 -50 -22.3896 -50 -50s22.3896 -50 50 -50s50 22.3896 50 50s-22.3896 50 -50 50zM85.0615 730v-10c0 -25.6787 21.6602 -40 40 -40h75
v-630h-74.7168c-27.4199 0.387695 -44.2012 -22.3037 -45.2891 -42.5518c-1.13281 -21.1055 14.9766 -47.876 45.2891 -47.4482h239.438c24.6709 -0.345703 45.3506 19.874 45.3506 45s-20.6787 45.3457 -45.3506 45h-74.7207v630h74.7207
c24.6709 -0.345703 45.3506 19.874 45.3506 45s-20.6787 45.3457 -45.3506 45h-239.721c-25.6777 0 -40 -21.6592 -40 -40z" />
    <glyph glyph-name="Eth" unicode="&#xd0;" horiz-adv-x="915" 
d="M246.071 770c-24.8496 0 -45 -20.1504 -45 -45v-314l-76.0703 0.000976562c-24.8496 0 -45.001 -20.1514 -45.001 -45.001c0 -24.8457 20.1621 -45 45.0713 -45h76v-316c0 -11.9277 4.70312 -22.875 12.292 -30.9062c8.16406 -8.63867 19.8516 -14.0938 32.708 -14.0938
h177c133.896 0 239.003 50.1768 308.95 127.261c69.6602 76.7676 103.55 177.738 103.55 277.739s-33.8896 200.972 -103.55 277.739c-69.9463 77.083 -175.054 127.261 -308.95 127.261h-177zM291.071 680h132c111.231 0 189.654 -39.7217 242.3 -97.7393
c52.8193 -58.209 80.2002 -137.289 80.2002 -217.261s-27.3809 -159.052 -80.2002 -217.261c-52.6465 -58.0186 -131.069 -97.7393 -242.3 -97.7393h-132v271l188.07 -0.000976562c24.8496 0 45.001 20.1514 45.001 45.001c0 24.8457 -20.1621 45 -45.0713 45h-188v269z" />
    <glyph glyph-name="Ntilde" unicode="&#xd1;" horiz-adv-x="730" 
d="M314.196 995.005c-26.9854 -0.424805 -51.5166 -13.1416 -72.7881 -33.3604c-8.30664 -7.89355 -16.292 -17.0078 -24.1562 -27.3555c-3.05469 -4.01855 -6.24023 -8.43652 -9.1709 -12.6982c-5.17383 -7.40918 -8.04199 -16.4717 -8.04199 -25.6738
c0 -24.8496 20.1514 -45.001 45.001 -45.001c14.9258 0 28.958 7.4834 37.1709 19.6377c8.23438 11.9756 15.5479 20.4844 20.9893 25.6914c7.33496 7.01953 11.5176 8.50098 12.043 8.66602c3.47266 -1.15137 12.751 -6.25391 25.1436 -16.3516
c14.2559 -11.6143 38.4844 -35.7959 75.2051 -40.1162c4.85449 -0.570312 9.84277 -0.735352 14.8984 -0.442383c15.2871 0.882812 30.248 5.93164 43.8379 14.3916c17.5791 10.9424 32.958 27.25 47.1553 47.127c5.44434 7.35742 8.62695 16.8545 8.62695 26.4971
c0 24.8496 -20.1504 45 -45 45c-14.7812 0 -28.7412 -7.40625 -36.8623 -19.1855c-9.69727 -13.5781 -18.5596 -21.2148 -21.4785 -23.0322c-5.59277 2.67383 -16.0576 8.55469 -29.5322 19.5332c-15.8066 12.8799 -43.1631 37.3018 -83.041 36.6729zM604.687 770.069
c-25.0889 -0.380859 -44.6865 -20.4619 -44.6865 -45.0713v-571.375l-397.562 596.342c-8.33008 12.4902 -22.4229 20.0322 -37.4375 20.0322c-24.8447 0 -44.9834 -20.1289 -45.001 -44.999v-720.07c0 -24.8457 20.1475 -45.001 45 -45.001
c24.8457 0 45 20.1621 45 45.0713v571.375l397.584 -596.377c8.32422 -12.4531 22.3965 -19.9961 37.416 -19.9961c24.8408 0 44.9912 20.1338 45 44.998l0.000976562 720.07c0 25.0977 -20.5977 45.001 -45.3145 45.001z" />
    <glyph glyph-name="Ograve" unicode="&#xd2;" horiz-adv-x="970" 
d="M404.943 996.051c-24.8643 0 -44.9932 -20.1709 -44.9932 -45c0 -12.1113 5.0166 -23.8936 13.4336 -32.0723l119.513 -119.514c8.07422 -8.40527 19.9541 -13.5361 32.1738 -13.5361c24.8496 0 45.001 20.1514 45.001 45.001
c0 12.2197 -5.13086 24.0996 -13.5361 32.1738l-119.507 119.507c-8.18359 8.42871 -19.9805 13.4404 -32.085 13.4404zM485 770c-223.615 0 -405 -181.385 -405 -405s181.385 -405 405 -405s405 181.385 405 405s-181.385 405 -405 405zM485 680
c174.039 0 315 -140.961 315 -315s-140.961 -315 -315 -315s-315 140.961 -315 315s140.961 315 315 315z" />
    <glyph glyph-name="Oacute" unicode="&#xd3;" horiz-adv-x="970" 
d="M565.057 996.051c24.8643 0 44.9932 -20.1709 44.9932 -45c0 -12.1113 -5.0166 -23.8936 -13.4336 -32.0723l-119.513 -119.514c-8.07422 -8.40527 -19.9541 -13.5361 -32.1738 -13.5361c-24.8496 0 -45.001 20.1514 -45.001 45.001
c0 12.2197 5.13086 24.0996 13.5361 32.1738l119.507 119.507c8.18359 8.42871 19.9805 13.4404 32.085 13.4404zM485 770c223.615 0 405 -181.385 405 -405s-181.385 -405 -405 -405s-405 181.385 -405 405s181.385 405 405 405zM485 680
c-174.039 0 -315 -140.961 -315 -315s140.961 -315 315 -315s315 140.961 315 315s-140.961 315 -315 315z" />
    <glyph glyph-name="Ocircumflex" unicode="&#xd4;" horiz-adv-x="970" 
d="M484.692 1003c-12.125 -0.180664 -23.3174 -4.97949 -31.5117 -13.1816l-119.716 -119.716c-8.40527 -8.07422 -13.5361 -19.9541 -13.5361 -32.1738c0 -11.9277 4.70312 -22.875 12.292 -30.9062c8.16406 -8.63867 19.8525 -14.0947 32.709 -14.0947
c12.2197 0 24.0996 5.13086 32.1738 13.5361l87.8965 87.8965l87.8965 -87.8965c8.07422 -8.40527 19.9541 -13.5361 32.1738 -13.5361c11.9277 0 22.875 4.70312 30.9062 12.292c8.63867 8.16406 14.0947 19.8525 14.0947 32.709
c0 12.2197 -5.13086 24.0996 -13.5361 32.1738l-119.719 119.719c-8.54199 8.54004 -20.2725 13.1787 -32.124 13.1787zM485 770c-223.615 0 -405 -181.385 -405 -405s181.385 -405 405 -405s405 181.385 405 405s-181.385 405 -405 405zM485 680
c174.039 0 315 -140.961 315 -315s-140.961 -315 -315 -315s-315 140.961 -315 315s140.961 315 315 315z" />
    <glyph glyph-name="Otilde" unicode="&#xd5;" horiz-adv-x="970" 
d="M434.136 995.028c-26.9854 -0.424805 -51.5156 -13.1416 -72.7891 -33.3604c-11.5225 -10.9502 -22.5977 -24.4482 -33.3271 -40.0557c-5.1709 -7.40723 -8.04102 -16.4678 -8.04102 -25.6719c0 -24.8457 20.1475 -45.001 45 -45.001
c14.9268 0 28.9492 7.48145 37.168 19.6318c8.24316 11.9902 15.5469 20.4854 20.9932 25.6973c7.33301 7.01758 11.5176 8.5 12.0439 8.66602c3.46875 -1.15137 12.7539 -6.25684 25.1416 -16.3506c14.2549 -11.6152 38.4883 -35.7979 75.2002 -40.1172
c4.86328 -0.571289 9.85547 -0.735352 14.9043 -0.442383c15.2852 0.882812 30.2441 5.92969 43.8398 14.3926c17.5732 10.9395 32.9619 27.2568 47.1475 47.1152c5.45215 7.3623 8.63281 16.8711 8.63281 26.5068c0 24.8496 -20.1514 45.001 -45.001 45.001
c-14.7881 0 -28.7471 -7.41406 -36.8613 -19.1865c-9.69922 -13.5781 -18.5566 -21.2119 -21.4795 -23.0312c-5.5918 2.67383 -16.0547 8.55273 -29.5322 19.5332c-15.8076 12.8809 -43.1631 37.3008 -83.04 36.6729zM485 770c-223.615 0 -405 -181.385 -405 -405
s181.385 -405 405 -405s405 181.385 405 405s-181.385 405 -405 405zM485 680c174.039 0 315 -140.961 315 -315s-140.961 -315 -315 -315s-315 140.961 -315 315s140.961 315 315 315z" />
    <glyph glyph-name="Odieresis" unicode="&#xd6;" horiz-adv-x="970" 
d="M393 959c-27.6094 0 -50 -22.3906 -50 -50s22.3906 -50 50 -50s50 22.3906 50 50s-22.3906 50 -50 50zM573 959c-27.6094 0 -50 -22.3906 -50 -50s22.3906 -50 50 -50s50 22.3906 50 50s-22.3906 50 -50 50zM485 770c-223.615 0 -405 -181.385 -405 -405
s181.385 -405 405 -405s405 181.385 405 405s-181.385 405 -405 405zM485 680c174.039 0 315 -140.961 315 -315s-140.961 -315 -315 -315s-315 140.961 -315 315s140.961 315 315 315z" />
    <glyph glyph-name="Oslash" unicode="&#xd8;" horiz-adv-x="970" 
d="M844.447 770.051c-12.5566 -0.37207 -23.6123 -5.42188 -31.3975 -13.4346l-75.2324 -75.2314c-70.5957 56.3857 -157.251 88.6152 -252.745 88.6152c-223.615 0 -405 -181.385 -405 -405c0 -96.0752 34.417 -184.369 88.6309 -252.729l-75.1602 -75.1611
c-8.41699 -8.07812 -13.543 -19.9707 -13.543 -32.1816c0 -11.9277 4.70312 -22.875 12.292 -30.9062c8.16406 -8.63867 19.8516 -14.0938 32.708 -14.0938c12.2109 0 24.1035 5.12598 32.1816 13.543l75.1455 75.1445c70.5957 -56.3857 157.251 -88.6152 252.745 -88.6152
c223.615 0 405 181.385 405 405c0 96.0752 -34.416 184.369 -88.6309 252.729l75.2471 75.248c8.41699 8.17773 13.4336 19.9629 13.4336 32.0732c0 25.458 -21.1807 45 -45.6748 45zM485.072 680c71.1826 0 136.301 -23.9551 188.609 -62.752l-440.888 -440.889
c-40.8438 54.5547 -62.7217 117.35 -62.7217 188.641c0 174.039 140.961 315 315 315zM737.351 553.641c40.8438 -54.5547 62.7217 -117.35 62.7217 -188.641c0 -174.039 -140.961 -315 -315 -315c-71.1826 0 -136.301 23.9551 -188.609 62.752z" />
    <glyph glyph-name="Ugrave" unicode="&#xd9;" horiz-adv-x="730" 
d="M284.867 999.975c-24.8643 0 -44.9932 -20.1709 -44.9932 -45c0 -12.1113 5.0166 -23.8936 13.4336 -32.0723l119.513 -119.514c8.07422 -8.40527 19.9541 -13.5361 32.1738 -13.5361c24.8496 0 45.001 20.1514 45.001 45.001
c0 12.2197 -5.13086 24.0996 -13.5361 32.1738l-119.507 119.507c-8.18359 8.42871 -19.9805 13.4404 -32.085 13.4404zM124.687 770.571c-25.083 -0.378906 -44.6865 -20.4561 -44.6865 -45.0713v-482c0 -46.7529 9.22656 -88.8701 25.7979 -125.34
c15.6963 -34.5439 37.8975 -63.8438 64.4102 -87.2627c54.3262 -47.9863 125.096 -70.8975 194.792 -70.8975c69.6992 0 140.465 22.9092 194.792 70.8975c26.5127 23.4189 48.7139 52.7188 64.4102 87.2627c16.5693 36.4688 25.7979 78.5869 25.7979 125.34
l0.000976562 482.07c0 24.8496 -20.1514 45.001 -45.001 45.001c-24.8457 0 -45 -20.1621 -45 -45.0713v-482c0 -33.7637 -6.15234 -61.8994 -16.4189 -85.5088c-10.4795 -24.0977 -25.3184 -43.6895 -43.373 -59.6387
c-35.627 -31.4707 -84.9648 -48.3525 -135.208 -48.3525s-99.5811 16.8818 -135.208 48.3525c-17.8711 15.7861 -32.5947 35.1523 -43.0537 58.9092c-10.4609 23.7607 -16.7383 52.126 -16.7383 86.2383l0.000976562 482.07c0 25.0977 -20.5967 45.001 -45.3145 45.001z" />
    <glyph glyph-name="Uacute" unicode="&#xda;" horiz-adv-x="730" 
d="M445.134 999.975c24.8643 0 44.9932 -20.1709 44.9932 -45c0 -12.1113 -5.0166 -23.8936 -13.4336 -32.0723l-119.513 -119.514c-8.07422 -8.40527 -19.9541 -13.5361 -32.1738 -13.5361c-24.8496 0 -45.001 20.1514 -45.001 45.001
c0 12.2197 5.13086 24.0996 13.5361 32.1738l119.507 119.507c8.18359 8.42871 19.9805 13.4404 32.085 13.4404zM605.314 770.571c25.083 -0.378906 44.6865 -20.4561 44.6865 -45.0713v-482c0 -46.7529 -9.22656 -88.8701 -25.7979 -125.34
c-15.6963 -34.5439 -37.8975 -63.8438 -64.4102 -87.2627c-54.3262 -47.9863 -125.096 -70.8975 -194.792 -70.8975c-69.6992 0 -140.465 22.9092 -194.792 70.8975c-26.5127 23.4189 -48.7139 52.7188 -64.4102 87.2627c-16.5693 36.4688 -25.7979 78.5869 -25.7979 125.34
l-0.000976562 482.07c0 24.8496 20.1514 45.001 45.001 45.001c24.8457 0 45 -20.1621 45 -45.0713v-482c0 -33.7637 6.15234 -61.8994 16.4189 -85.5088c10.4795 -24.0977 25.3184 -43.6895 43.373 -59.6387c35.627 -31.4707 84.9648 -48.3525 135.208 -48.3525
s99.5811 16.8818 135.208 48.3525c17.8711 15.7861 32.5947 35.1523 43.0537 58.9092c10.4609 23.7607 16.7383 52.126 16.7383 86.2383l-0.000976562 482.07c0 25.0977 20.5967 45.001 45.3145 45.001z" />
    <glyph glyph-name="Ucircumflex" unicode="&#xdb;" horiz-adv-x="730" 
d="M364.616 999.071c-12.125 -0.180664 -23.3174 -4.97949 -31.5117 -13.1816l-119.716 -119.716c-8.40527 -8.07422 -13.5361 -19.9541 -13.5361 -32.1738c0 -11.9277 4.70312 -22.875 12.292 -30.9062c8.16406 -8.63867 19.8525 -14.0947 32.709 -14.0947
c12.2197 0 24.0996 5.13086 32.1738 13.5361l87.8965 87.8965l87.8965 -87.8965c8.07422 -8.40527 19.9541 -13.5361 32.1738 -13.5361c11.9277 0 22.875 4.70312 30.9062 12.292c8.63867 8.16406 14.0947 19.8525 14.0947 32.709
c0 12.2197 -5.13086 24.0996 -13.5361 32.1738l-119.719 119.719c-8.54199 8.54004 -20.2725 13.1787 -32.124 13.1787zM124.687 770.571c-25.083 -0.378906 -44.6865 -20.4561 -44.6865 -45.0713v-482c0 -46.7529 9.22656 -88.8701 25.7979 -125.34
c15.6963 -34.5439 37.8975 -63.8438 64.4102 -87.2627c54.3262 -47.9863 125.096 -70.8975 194.792 -70.8975c69.6992 0 140.465 22.9092 194.792 70.8975c26.5127 23.4189 48.7139 52.7188 64.4102 87.2627c16.5693 36.4688 25.7979 78.5869 25.7979 125.34
l0.000976562 482.07c0 24.8496 -20.1514 45.001 -45.001 45.001c-24.8457 0 -45 -20.1621 -45 -45.0713v-482c0 -33.7637 -6.15234 -61.8994 -16.4189 -85.5088c-10.4795 -24.0977 -25.3184 -43.6895 -43.373 -59.6387
c-35.627 -31.4707 -84.9648 -48.3525 -135.208 -48.3525s-99.5811 16.8818 -135.208 48.3525c-17.8711 15.7861 -32.5947 35.1523 -43.0537 58.9092c-10.4609 23.7607 -16.7383 52.126 -16.7383 86.2383l0.000976562 482.07c0 25.0977 -20.5967 45.001 -45.3145 45.001z" />
    <glyph glyph-name="Udieresis" unicode="&#xdc;" horiz-adv-x="730" 
d="M273.408 952.07c-27.6094 0 -50 -22.3906 -50 -50s22.3906 -50 50 -50s50 22.3906 50 50s-22.3906 50 -50 50zM453.408 952.07c-27.6094 0 -50 -22.3906 -50 -50s22.3906 -50 50 -50s50 22.3906 50 50s-22.3906 50 -50 50zM124.687 770.571
c-25.083 -0.378906 -44.6865 -20.4561 -44.6865 -45.0713v-482c0 -46.7529 9.22656 -88.8701 25.7979 -125.34c15.6963 -34.5439 37.8975 -63.8438 64.4102 -87.2627c54.3262 -47.9863 125.096 -70.8975 194.792 -70.8975c69.6992 0 140.465 22.9092 194.792 70.8975
c26.5127 23.4189 48.7139 52.7188 64.4102 87.2627c16.5693 36.4688 25.7979 78.5869 25.7979 125.34l0.000976562 482.07c0 24.8496 -20.1514 45.001 -45.001 45.001c-24.8457 0 -45 -20.1621 -45 -45.0713v-482c0 -33.7637 -6.15234 -61.8994 -16.4189 -85.5088
c-10.4795 -24.0977 -25.3184 -43.6895 -43.373 -59.6387c-35.627 -31.4707 -84.9648 -48.3525 -135.208 -48.3525s-99.5811 16.8818 -135.208 48.3525c-17.8711 15.7861 -32.5947 35.1523 -43.0537 58.9092c-10.4609 23.7607 -16.7383 52.126 -16.7383 86.2383
l0.000976562 482.07c0 25.0977 -20.5967 45.001 -45.3145 45.001z" />
    <glyph glyph-name="Yacute" unicode="&#xdd;" 
d="M484.423 996.044c-12.5566 -0.37207 -23.6123 -5.42188 -31.3975 -13.4346l-119.513 -119.513c-8.40527 -8.07422 -13.5361 -19.9541 -13.5361 -32.1738c0 -24.8496 20.1514 -45.001 45.001 -45.001c12.2197 0 24.0996 5.13086 32.1738 13.5361l119.513 119.514
c8.41699 8.17871 13.4336 19.9609 13.4336 32.0723c0 25.458 -21.1807 45 -45.6748 45zM124.136 770.153c-25.3945 -0.981445 -44.1357 -20.8984 -44.1357 -45.001c0 -8.3125 2.33594 -16.4541 6.36719 -23.0771l273.681 -469.17l-0.000976562 -227.904
c0 -24.8496 20.1514 -45.001 45.001 -45.001c24.8457 0 45 20.1621 45 45.0713v227.834l273.732 469.256c4.03027 6.69727 6.30273 14.7383 6.30273 22.9707c0 24.5908 -19.6582 44.6689 -44.668 45c-16.6328 0 -31.6025 -8.8623 -39.377 -22.627l-240.99 -413.126
l-240.942 413.045c-8.03125 14.374 -23.958 22.7295 -39.9697 22.7295z" />
    <glyph glyph-name="agrave" unicode="&#xe0;" 
d="M325.629 1001.16c-24.8594 0 -44.9932 -20.166 -44.9932 -45c0 -12.1113 5.0166 -23.8936 13.4336 -32.0723l119.523 -119.525c8.07617 -8.39258 19.9365 -13.5244 32.1641 -13.5244c24.8525 0 45 20.1553 45 45.001c0 12.2021 -5.12012 24.0977 -13.5439 32.1816
l-119.497 119.496c-8.18164 8.43164 -19.9844 13.4434 -32.0869 13.4434zM405.015 770.05c-18.5625 0 -35.207 -11.3984 -41.9365 -28.6904l-279.908 -719.767c-2.09668 -5.23633 -3.16992 -10.6846 -3.16992 -16.5918c0 -24.8496 20.1514 -45.001 45.001 -45.001
c18.7363 0 35.541 11.6846 42.0381 28.9404l82.0713 211.047h311.817l82.0762 -211.055c6.50293 -17.249 23.2959 -28.9326 42.0352 -28.9326c24.8496 0 45.001 20.1514 45.001 45.001c0 5.89941 -1.0791 11.3916 -3.16504 16.5762l-279.915 719.783
c-6.73047 17.3057 -23.3965 28.6895 -41.9453 28.6895zM405.02 600.895l120.86 -310.782h-241.721z" />
    <glyph glyph-name="aacute" unicode="&#xe1;" 
d="M484.411 1001.16c24.8594 0 44.9932 -20.166 44.9932 -45c0 -12.1113 -5.0166 -23.8936 -13.4336 -32.0723l-119.523 -119.525c-8.07617 -8.39258 -19.9365 -13.5244 -32.1641 -13.5244c-24.8525 0 -45 20.1553 -45 45.001c0 12.2021 5.12012 24.0977 13.5439 32.1816
l119.497 119.496c8.18164 8.43164 19.9844 13.4434 32.0869 13.4434zM405.025 770.05c18.5625 0 35.207 -11.3984 41.9365 -28.6904l279.908 -719.767c2.09668 -5.23633 3.16992 -10.6846 3.16992 -16.5918c0 -24.8496 -20.1514 -45.001 -45.001 -45.001
c-18.7363 0 -35.541 11.6846 -42.0381 28.9404l-82.0713 211.047h-311.817l-82.0762 -211.055c-6.50293 -17.249 -23.2959 -28.9326 -42.0352 -28.9326c-24.8496 0 -45.001 20.1514 -45.001 45.001c0 5.89941 1.0791 11.3916 3.16504 16.5762l279.915 719.783
c6.73047 17.3057 23.3965 28.6895 41.9453 28.6895zM405.021 600.895l-120.86 -310.782h241.721z" />
    <glyph glyph-name="acircumflex" unicode="&#xe2;" 
d="M404.712 998.256c-12.125 -0.180664 -23.3174 -4.97949 -31.5117 -13.1816l-119.716 -119.716c-8.40527 -8.07422 -13.5361 -19.9541 -13.5361 -32.1738c0 -11.9277 4.70312 -22.875 12.292 -30.9062c8.16406 -8.63867 19.8525 -14.0947 32.709 -14.0947
c12.2197 0 24.0996 5.13086 32.1738 13.5361l87.8965 87.8965l87.8965 -87.8965c8.07422 -8.40527 19.9541 -13.5361 32.1738 -13.5361c11.9277 0 22.875 4.70312 30.9062 12.292c8.63867 8.16406 14.0947 19.8525 14.0947 32.709
c0 12.2197 -5.13086 24.0996 -13.5361 32.1738l-119.719 119.719c-8.54199 8.54004 -20.2725 13.1787 -32.124 13.1787zM405.015 770.05c-18.5625 0 -35.207 -11.3984 -41.9365 -28.6904l-279.908 -719.767c-2.09668 -5.23633 -3.16992 -10.6846 -3.16992 -16.5918
c0 -24.8457 20.1475 -45.001 45 -45.001c18.7344 0 35.5391 11.6816 42.0381 28.9404l82.0723 211.047h311.817l82.0771 -211.055c6.49902 -17.2402 23.2852 -28.9326 42.0332 -28.9326c24.8496 0 45.001 20.1514 45.001 45.001c0 5.89648 -1.0752 11.3672 -3.15625 16.5557
l-279.924 719.805c-6.73145 17.3066 -23.3994 28.6885 -41.9443 28.6885zM405.02 600.895l120.86 -310.782h-241.721z" />
    <glyph glyph-name="atilde" unicode="&#xe3;" 
d="M354.156 980.084c-26.9854 -0.426758 -51.5176 -13.1436 -72.7891 -33.3604c-11.5176 -10.9453 -22.6035 -24.4561 -33.3164 -40.0391c-5.18359 -7.41309 -8.05273 -16.4941 -8.05273 -25.6895c0 -24.8525 20.1553 -45 45.001 -45
c14.9268 0 28.9492 7.48145 37.168 19.6318c8.24316 11.9902 15.5469 20.4854 20.9932 25.6973c7.33301 7.01758 11.5176 8.5 12.043 8.66504c3.46777 -1.14941 12.7559 -6.25781 25.1406 -16.3477c14.2578 -11.6182 38.4902 -35.7998 75.2012 -40.1191
c4.8623 -0.571289 9.86133 -0.735352 14.9023 -0.442383c15.2891 0.881836 30.249 5.93066 43.8418 14.3916c17.5781 10.9414 32.9551 27.2471 47.1562 47.1289c5.44434 7.36133 8.62402 16.8564 8.62402 26.4941c0 24.8457 -20.1475 45.001 -45 45.001
c-14.7861 0 -28.7539 -7.41504 -36.8643 -19.1914c-9.69141 -13.5664 -18.5557 -21.208 -21.4795 -23.0283c-5.58984 2.67285 -16.0488 8.55176 -29.5312 19.5381c-15.8047 12.876 -43.1611 37.2979 -83.0381 36.6699zM405.016 770.05
c-18.5566 0 -35.2148 -11.4004 -41.9365 -28.6904l-215.061 -553.015l-64.8535 -166.766c-2.08887 -5.18945 -3.16504 -10.6855 -3.16504 -16.5791c0 -24.8525 20.1553 -45 45.001 -45c18.7393 0 35.5322 11.6836 42.0352 28.9326l64.4922 165.84l17.583 45.2148h311.817
l82.0723 -211.047c6.49707 -17.2559 23.3018 -28.9404 42.0381 -28.9404c24.8496 0 45.001 20.1514 45.001 45.001c0 5.9043 -1.08008 11.3711 -3.13281 16.498l-279.951 719.875c-6.73047 17.2861 -23.3848 28.6758 -41.9404 28.6758zM405.021 600.895l120.86 -310.782
h-241.721z" />
    <glyph glyph-name="adieresis" unicode="&#xe4;" 
d="M315.02 924.005c-27.6064 0 -50 -22.3867 -50 -50c0 -27.6094 22.3906 -50 50 -50s50 22.3906 50 50c0 27.6133 -22.3936 50 -50 50zM495.02 924.005c-27.6064 0 -50 -22.3867 -50 -50c0 -27.6094 22.3906 -50 50 -50s50 22.3906 50 50c0 27.6133 -22.3936 50 -50 50z
M405.015 770.05c-18.5625 0 -35.207 -11.3984 -41.9365 -28.6904l-279.908 -719.767c-2.09668 -5.23633 -3.16992 -10.6846 -3.16992 -16.5918c0 -24.8457 20.1475 -45.001 45 -45.001c18.7441 0 35.5342 11.6885 42.0342 28.9326l82.0762 211.055h311.817l82.0771 -211.055
c6.49902 -17.2402 23.2852 -28.9326 42.0332 -28.9326c24.8496 0 45.001 20.1514 45.001 45.001c0 5.89648 -1.0752 11.3672 -3.15625 16.5557l-279.924 719.805c-6.73145 17.3066 -23.3994 28.6885 -41.9443 28.6885zM405.02 600.895l120.86 -310.782h-241.721z" />
    <glyph glyph-name="aring" unicode="&#xe5;" 
d="M405.021 999.005c-57.9453 0 -105 -47.0527 -105 -105c0 -57.9443 47.0518 -105 105 -105c57.9424 0 105 47.0518 105 105c0 57.9443 -47.0527 105 -105 105zM405.021 909.005c8.40234 0 15 -6.59766 15 -15c0 -8.40332 -6.59668 -15 -15 -15
c-8.40527 0 -15 6.5957 -15 15s6.5957 15 15 15zM405.015 770.05c-18.5625 0 -35.207 -11.3984 -41.9365 -28.6904l-279.908 -719.769c-2.09668 -5.23828 -3.16992 -10.6846 -3.16992 -16.5908c0 -24.8525 20.1553 -45 45.001 -45c18.7363 0 35.541 11.6846 42.0381 28.9404
l82.0713 211.047h311.818l82.0723 -211.047c6.49707 -17.2559 23.3018 -28.9404 42.0381 -28.9404c24.8496 0 45.001 20.1514 45.001 45.001c0 5.9043 -1.08008 11.3711 -3.13281 16.498l-279.951 719.875c-6.73145 17.2891 -23.3877 28.6758 -41.9414 28.6758z
M405.021 600.895l120.86 -310.782h-241.721z" />
    <glyph glyph-name="ae" unicode="&#xe6;" horiz-adv-x="930" 
d="M484.634 770c-24.2773 -0.545898 -35.501 -17.3086 -38.2578 -21.8486c-0.53125 -0.876953 -0.814453 -1.40527 -1.18359 -2.14648l-360.452 -720.901c-3.13574 -6.28223 -4.74023 -13.0098 -4.74023 -20.1035c0 -24.8496 20.1514 -45.001 45.001 -45.001
c17.042 0 32.6377 9.64941 40.249 24.877l87.4766 174.95h187.274v-154.826c0 -11.9277 4.70312 -22.875 12.292 -30.9062c8.16406 -8.63867 19.8516 -14.0938 32.708 -14.0938l320.07 -0.000976562c24.8496 0 45.001 20.1514 45.001 45.001
c0 24.8457 -20.1621 45 -45.0713 45h-275v150.298c0.178711 2.10645 0.258789 2.72461 0.258789 4.70801c0 44.5586 -0.200195 79.0225 -0.249023 114.994l235.061 -0.000976562c24.8496 0 45.001 20.1514 45.001 45.001c0 24.8457 -20.1621 45 -45.0713 45h-235v270
l275.07 -0.000976562c24.8496 0 45.001 20.1514 45.001 45.001c0 24.8457 -20.1621 45 -45.0713 45h-320.367zM440.001 534.376v-170.179v-114.023h-142.101z" />
    <glyph glyph-name="ccedilla" unicode="&#xe7;" horiz-adv-x="850" 
d="M487.551 769.785c-2.7334 0 -5.68066 0.00585938 -8.75293 -0.0419922c-106.881 -1.65723 -212.968 -45.5039 -290.985 -129.756c-8.55176 -9.23438 -16.5967 -18.7715 -24.1367 -28.5762c-4.95898 -6.4502 -9.69922 -13.0176 -14.2168 -19.6846
c-2.35059 -3.46777 -4.6416 -6.96582 -6.87207 -10.4883c-42.9141 -67.7715 -63.6953 -145.325 -62.541 -222.479c1.15332 -77.1533 24.2441 -154.048 69.167 -220.512c2.33496 -3.45312 4.72559 -6.87598 7.18066 -10.2754
c4.7168 -6.53125 9.65039 -12.9512 14.8008 -19.251c7.82715 -9.57324 16.1553 -18.8672 24.9795 -27.8428c21.208 -21.5703 44.5947 -40.5293 69.6592 -56.6553c3.49609 -2.24902 7.02441 -4.44336 10.5859 -6.58203c3.85742 -2.31738 7.74707 -4.56738 11.6816 -6.75586
c3.62793 -2.01758 7.28027 -3.97559 10.9668 -5.88086c3.68457 -1.90332 7.40137 -3.75195 11.1367 -5.53906c4.05176 -1.93848 8.1416 -3.81152 12.249 -5.61035c3.79883 -1.66504 7.62109 -3.26953 11.4688 -4.81738c43.5967 -17.5244 90.3047 -27.4893 138.12 -29.0166
c14.2676 -0.456055 30.3115 -0.00683594 43.1797 0.953125c-1.29688 -5.38184 -2.28223 -8.13574 -3.53223 -10.9736c-2.07031 -4.70215 -3.37305 -6.17773 -4.38477 -7.15625c-1.08008 -1.04395 -2.19141 -1.9668 -6.59277 -3.65723
c-14.4453 -5.5459 -64.5986 -4.50781 -136.288 -4.50781c-24.8496 0 -45.001 -20.1514 -45.001 -45.001c0 -24.8457 20.1621 -45 45.0713 -45c66.0557 0 119.889 -8.1709 168.481 10.4912c12.9189 4.95996 24.9912 12.2441 35.3887 21.9482
c10.7275 10.0117 19.4346 22.3975 25.6934 36.6104c3.88281 8.81641 6.79688 18.1465 9.01758 27.875c2.62402 11.4902 4.48633 26.2559 5.35352 37.4961l0.15625 0.0498047c53.8691 17.2588 103.831 45.71 146.311 83.7275
c9.50293 8.31738 15.1963 20.7764 15.1963 33.7148c0 24.8525 -20.1553 45 -45.001 45c-11.2197 0 -22.1797 -4.2998 -30.2148 -11.6504c-32.96 -29.4971 -72.0938 -51.7373 -113.794 -65.0986c-22.2842 -7.14062 -45.3877 -11.8066 -68.8877 -13.8477
c-12.3359 -1.07031 -24.7832 -1.41699 -37.2803 -1.01855c-36.9043 1.17969 -72.9492 8.81641 -106.633 22.251c-3.25879 1.2998 -6.5 2.65625 -9.71289 4.0625c-5.89453 2.58203 -11.6992 5.34082 -17.4326 8.28418c-3.12305 1.60156 -6.21484 3.25488 -9.28906 4.96484
c-5.62695 3.12891 -11.1621 6.43457 -16.5977 9.91113c-19.7646 12.6406 -38.1963 27.5391 -54.8975 44.5283c-6.69922 6.81348 -13.0195 13.8477 -18.9688 21.085c-4.19824 5.10742 -8.21289 10.3174 -12.0391 15.6152c-38.5771 53.4092 -58.418 116.233 -59.3623 179.427
c-0.945312 63.1934 17.0078 126.583 53.9707 181.121c3.51562 5.1875 7.20117 10.293 11.0635 15.3145c5.87402 7.64062 12.1514 15.083 18.833 22.2988c59.9727 64.7646 140.897 98.7578 223.033 100.89c74.4531 1.93262 149.96 -22.5469 210.787 -73.792
c7.81543 -6.81445 18.4688 -10.8594 29.3193 -10.8594c12.8564 0 24.5439 5.45508 32.707 14.0938c7.58984 8.03125 12.293 18.9785 12.293 30.9062c0 13.5146 -6.22949 26.4756 -16.3408 34.6963c-74.5127 62.7754 -166.76 94.4434 -258.097 95.0117z" />
    <glyph glyph-name="egrave" unicode="&#xe8;" horiz-adv-x="610" 
d="M226.892 1047.06c-26.1738 0 -45.9346 -20.2305 -45.9346 -45c0 -9.95801 3.38965 -19.7402 9.20996 -27.2803l119.664 -159.55c8.22754 -11.2998 21.8594 -18.2832 36.2119 -18.2832c24.8496 0 45 20.1504 45 45c0 9.93262 -3.37695 19.7373 -9.21973 27.293
l-119.653 159.537c-8.26172 11.3477 -21.8555 17.7314 -35.2783 18.2832zM125 770c-24.8496 0 -45 -20.1504 -45 -45v-360.803v-359.197c0 -11.9277 4.70312 -22.875 12.292 -30.9062c8.16406 -8.63867 19.8516 -14.0938 32.708 -14.0938l360.07 -0.000976562
c24.8496 0 45.001 20.1514 45.001 45.001c0 24.8457 -20.1621 45 -45.0713 45h-315v270l275.07 -0.000976562c24.8496 0 45.001 20.1514 45.001 45.001c0 24.8457 -20.1621 45 -45.0713 45h-275v270l315.07 -0.000976562c24.8496 0 45.001 20.1514 45.001 45.001
c0 24.8457 -20.1621 45 -45.0713 45h-360z" />
    <glyph glyph-name="eacute" unicode="&#xe9;" horiz-adv-x="610" 
d="M386.693 1045.06c-15.1973 0 -28.6523 -7.00586 -36.8633 -18.2832l-119.653 -159.537c-5.84277 -7.55566 -9.21973 -17.3604 -9.21973 -27.293c0 -24.8525 20.1553 -45 45.001 -45c14.3584 0 27.9844 6.98828 36.21 18.2812l119.665 159.552
c5.82031 7.54004 9.20996 17.3223 9.20996 27.2803c0 24.9209 -20.3408 44.3086 -44.3496 45zM125 770c-24.8496 0 -45 -20.1504 -45 -45v-360.803v-359.197c0 -11.9277 4.70312 -22.875 12.292 -30.9062c8.16406 -8.63867 19.8516 -14.0938 32.708 -14.0938
l360.07 -0.000976562c24.8496 0 45.001 20.1514 45.001 45.001c0 24.8457 -20.1621 45 -45.0713 45h-315v270l275.07 -0.000976562c24.8496 0 45.001 20.1514 45.001 45.001c0 24.8457 -20.1621 45 -45.0713 45h-275v270l315.07 -0.000976562
c24.8496 0 45.001 20.1514 45.001 45.001c0 24.8457 -20.1621 45 -45.0713 45h-360z" />
    <glyph glyph-name="ecircumflex" unicode="&#xea;" horiz-adv-x="610" 
d="M305.692 1009c-12.125 -0.180664 -23.3174 -4.97949 -31.5117 -13.1816l-119.716 -119.716c-8.40527 -8.07422 -13.5361 -19.9541 -13.5361 -32.1738c0 -11.9277 4.70312 -22.875 12.292 -30.9062c8.16406 -8.63867 19.8525 -14.0947 32.709 -14.0947
c12.2197 0 24.0996 5.13086 32.1738 13.5361l87.8965 87.8965l87.8965 -87.8965c8.07715 -8.4082 19.958 -13.5361 32.1748 -13.5361c11.9297 0 22.876 4.7041 30.9082 12.2939c8.6377 8.16504 14.0918 19.8525 14.0918 32.707c0 12.2197 -5.13086 24.0996 -13.5361 32.1738
l-119.719 119.719c-8.54199 8.54004 -20.2725 13.1787 -32.124 13.1787zM125 770c-24.8496 0 -45 -20.1504 -45 -45v-360.803v-359.197c0 -11.9277 4.70312 -22.875 12.292 -30.9062c8.16406 -8.63867 19.8516 -14.0938 32.708 -14.0938l360.07 -0.000976562
c24.8496 0 45.001 20.1514 45.001 45.001c0 24.8457 -20.1621 45 -45.0713 45h-315v270l275.07 -0.000976562c24.8496 0 45.001 20.1514 45.001 45.001c0 24.8457 -20.1621 45 -45.0713 45h-275v270l315.07 -0.000976562c24.8496 0 45.001 20.1514 45.001 45.001
c0 24.8457 -20.1621 45 -45.0713 45h-360z" />
    <glyph glyph-name="edieresis" unicode="&#xeb;" horiz-adv-x="610" 
d="M216 959c-27.6094 0 -50 -22.3906 -50 -50s22.3906 -50 50 -50s50 22.3906 50 50s-22.3906 50 -50 50zM396 959c-27.6094 0 -50 -22.3906 -50 -50s22.3906 -50 50 -50s50 22.3906 50 50s-22.3906 50 -50 50zM125 770c-24.8496 0 -45 -20.1504 -45 -45v-360.803v-359.197
c0 -11.9277 4.70312 -22.875 12.292 -30.9062c8.16406 -8.63867 19.8516 -14.0938 32.708 -14.0938l360.07 -0.000976562c24.8496 0 45.001 20.1514 45.001 45.001c0 24.8457 -20.1621 45 -45.0713 45h-315v270l275.07 -0.000976562c24.8496 0 45.001 20.1514 45.001 45.001
c0 24.8457 -20.1621 45 -45.0713 45h-275v270l315.07 -0.000976562c24.8496 0 45.001 20.1514 45.001 45.001c0 24.8457 -20.1621 45 -45.0713 45h-360z" />
    <glyph glyph-name="igrave" unicode="&#xec;" horiz-adv-x="490" 
d="M166.005 1003.05c-12.4414 0 -23.6846 -5.06055 -31.6523 -12.9883c-16.123 -16.043 -19.4092 -45.1279 0.0898438 -64.082l119.517 -119.516c18.9766 -19.7529 47.0713 -15.6357 62.2158 -2.04102c15.7607 14.1543 23.2842 44.6738 1.42383 65.6787l-119.516 119.516
c-8.20605 8.44238 -19.9111 13.4326 -32.0781 13.4326zM85.0615 730v-10c0 -25.6787 21.6592 -40 40 -40h75v-630h-74.7168c-27.4199 0.387695 -44.2012 -22.3037 -45.2891 -42.5518c-1.13281 -21.1055 14.9814 -47.876 45.2764 -47.4482
c79.2812 -0.0488281 160.213 0 239.45 0c24.6709 -0.345703 45.3506 19.874 45.3506 45s-20.6787 45.3457 -45.3506 45h-74.7207v630h74.7207c24.6709 -0.345703 45.3506 19.874 45.3506 45s-20.6787 45.3457 -45.3506 45h-239.721c-25.6777 0 -40 -21.6592 -40 -40z" />
    <glyph glyph-name="iacute" unicode="&#xed;" horiz-adv-x="490" 
d="M323.75 1044.06c-15.1963 0 -28.6523 -7.00586 -36.8623 -18.2832l-119.654 -159.537c-5.84277 -7.55566 -9.21973 -17.3604 -9.21973 -27.293c0 -24.8525 20.1553 -45 45.001 -45c14.3604 0 27.9854 6.98828 36.2109 18.2812l119.664 159.552
c5.82031 7.54004 9.20996 17.3223 9.20996 27.2803c0 24.9209 -20.3408 44.3086 -44.3496 45zM85.0615 730v-10c0 -25.6787 21.6592 -40 40 -40h75v-630h-74.7168c-27.4199 0.387695 -44.2012 -22.3037 -45.2891 -42.5518
c-1.13281 -21.1055 14.9814 -47.876 45.2764 -47.4482c79.2812 -0.0488281 160.213 0 239.45 0c24.6709 -0.345703 45.3506 19.874 45.3506 45s-20.6787 45.3457 -45.3506 45h-74.7207v630h74.7207c24.6709 -0.345703 45.3506 19.874 45.3506 45
s-20.6787 45.3457 -45.3506 45h-239.721c-25.6777 0 -40 -21.6592 -40 -40z" />
    <glyph glyph-name="icircumflex" unicode="&#xee;" horiz-adv-x="491" 
d="M244.41 999.995c-11.6953 -0.175781 -22.8906 -4.90039 -31.1562 -13.1758l-119.718 -119.718c-19.749 -18.9756 -15.6348 -47.0752 -2.04004 -62.2129c14.1543 -15.7646 44.6777 -23.2861 65.6797 -1.42383l87.8975 87.8965l87.8975 -87.8965
c18.9766 -19.7529 47.0713 -15.6367 62.2168 -2.04004c15.7588 14.1533 23.2842 44.6729 1.42188 65.6777l-119.715 119.716c-8.60547 8.60645 -20.3271 13.3525 -32.4844 13.1768zM86.0732 730v-10c0 -25.6787 21.6602 -40 40 -40h75v-630h-74.7168
c-27.4189 0.387695 -44.2012 -22.3037 -45.2881 -42.5518c-1.13379 -21.1055 14.9756 -47.876 45.2871 -47.4482h239.438c24.6699 -0.345703 45.3506 19.874 45.3506 45s-20.6797 45.3457 -45.3506 45h-74.7207v630h74.7207c24.6699 -0.345703 45.3506 19.874 45.3506 45
s-20.6797 45.3457 -45.3506 45h-239.721c-25.6797 0 -40 -21.6611 -40 -40z" />
    <glyph glyph-name="idieresis" unicode="&#xef;" horiz-adv-x="490" 
d="M153.062 956c-27.6104 0 -50 -22.3896 -50 -50s22.3896 -50 50 -50s50 22.3896 50 50s-22.3896 50 -50 50zM333.062 956c-27.6104 0 -50 -22.3896 -50 -50s22.3896 -50 50 -50s50 22.3896 50 50s-22.3896 50 -50 50zM85.0615 730v-10c0 -25.6787 21.6602 -40 40 -40h75
v-630h-74.7168c-27.4199 0.387695 -44.2012 -22.3037 -45.2891 -42.5518c-1.13281 -21.1055 14.9766 -47.876 45.2891 -47.4482h239.438c24.6709 -0.345703 45.3506 19.874 45.3506 45s-20.6787 45.3457 -45.3506 45h-74.7207v630h74.7207
c24.6709 -0.345703 45.3506 19.874 45.3506 45s-20.6787 45.3457 -45.3506 45h-239.721c-25.6777 0 -40 -21.6592 -40 -40z" />
    <glyph glyph-name="eth" unicode="&#xf0;" horiz-adv-x="915" 
d="M246.071 770c-24.8496 0 -45 -20.1504 -45 -45v-314l-76.0703 0.000976562c-24.8496 0 -45.001 -20.1514 -45.001 -45.001c0 -24.8457 20.1621 -45 45.0713 -45h76v-316c0 -11.9277 4.70312 -22.875 12.292 -30.9062c8.16406 -8.63867 19.8516 -14.0938 32.708 -14.0938
h177c133.896 0 239.003 50.1768 308.95 127.261c69.6602 76.7676 103.55 177.738 103.55 277.739s-33.8896 200.972 -103.55 277.739c-69.9463 77.083 -175.054 127.261 -308.95 127.261h-177zM291.071 680h132c111.231 0 189.654 -39.7217 242.3 -97.7393
c52.8193 -58.209 80.2002 -137.289 80.2002 -217.261s-27.3809 -159.052 -80.2002 -217.261c-52.6465 -58.0186 -131.069 -97.7393 -242.3 -97.7393h-132v271l188.07 -0.000976562c24.8496 0 45.001 20.1514 45.001 45.001c0 24.8457 -20.1621 45 -45.0713 45h-188v269z" />
    <glyph glyph-name="ntilde" unicode="&#xf1;" horiz-adv-x="730" 
d="M314.196 995.005c-26.9854 -0.424805 -51.5166 -13.1416 -72.7881 -33.3604c-8.30664 -7.89355 -16.292 -17.0078 -24.1562 -27.3555c-3.05469 -4.01855 -6.24023 -8.43652 -9.1709 -12.6982c-5.17383 -7.40918 -8.04199 -16.4717 -8.04199 -25.6738
c0 -24.8496 20.1514 -45.001 45.001 -45.001c14.9258 0 28.958 7.4834 37.1709 19.6377c8.23438 11.9756 15.5479 20.4844 20.9893 25.6914c7.33496 7.01953 11.5176 8.50098 12.043 8.66602c3.47266 -1.15137 12.751 -6.25391 25.1436 -16.3516
c14.2559 -11.6143 38.4844 -35.7959 75.2051 -40.1162c4.85449 -0.570312 9.84277 -0.735352 14.8984 -0.442383c15.2871 0.882812 30.248 5.93164 43.8379 14.3916c17.5791 10.9424 32.958 27.25 47.1553 47.127c5.44434 7.35742 8.62695 16.8545 8.62695 26.4971
c0 24.8496 -20.1504 45 -45 45c-14.7812 0 -28.7412 -7.40625 -36.8623 -19.1855c-9.69727 -13.5781 -18.5596 -21.2148 -21.4785 -23.0322c-5.59277 2.67383 -16.0576 8.55469 -29.5322 19.5332c-15.8066 12.8799 -43.1631 37.3018 -83.041 36.6729zM604.687 770.069
c-25.0889 -0.380859 -44.6865 -20.4619 -44.6865 -45.0713v-571.375l-397.562 596.342c-8.33008 12.4902 -22.4229 20.0322 -37.4375 20.0322c-24.8447 0 -44.9834 -20.1289 -45.001 -44.999v-720.07c0 -24.8457 20.1475 -45.001 45 -45.001
c24.8457 0 45 20.1621 45 45.0713v571.375l397.584 -596.377c8.32422 -12.4531 22.3965 -19.9961 37.416 -19.9961c24.8408 0 44.9912 20.1338 45 44.998l0.000976562 720.07c0 25.0977 -20.5977 45.001 -45.3145 45.001z" />
    <glyph glyph-name="ograve" unicode="&#xf2;" horiz-adv-x="970" 
d="M404.943 996.051c-24.8643 0 -44.9932 -20.1709 -44.9932 -45c0 -12.1113 5.0166 -23.8936 13.4336 -32.0723l119.513 -119.514c8.07422 -8.40527 19.9541 -13.5361 32.1738 -13.5361c24.8496 0 45.001 20.1514 45.001 45.001
c0 12.2197 -5.13086 24.0996 -13.5361 32.1738l-119.507 119.507c-8.18359 8.42871 -19.9805 13.4404 -32.085 13.4404zM485 770c-223.615 0 -405 -181.385 -405 -405s181.385 -405 405 -405s405 181.385 405 405s-181.385 405 -405 405zM485 680
c174.039 0 315 -140.961 315 -315s-140.961 -315 -315 -315s-315 140.961 -315 315s140.961 315 315 315z" />
    <glyph glyph-name="oacute" unicode="&#xf3;" horiz-adv-x="970" 
d="M565.057 996.051c24.8643 0 44.9932 -20.1709 44.9932 -45c0 -12.1113 -5.0166 -23.8936 -13.4336 -32.0723l-119.513 -119.514c-8.07422 -8.40527 -19.9541 -13.5361 -32.1738 -13.5361c-24.8496 0 -45.001 20.1514 -45.001 45.001
c0 12.2197 5.13086 24.0996 13.5361 32.1738l119.507 119.507c8.18359 8.42871 19.9805 13.4404 32.085 13.4404zM485 770c223.615 0 405 -181.385 405 -405s-181.385 -405 -405 -405s-405 181.385 -405 405s181.385 405 405 405zM485 680
c-174.039 0 -315 -140.961 -315 -315s140.961 -315 315 -315s315 140.961 315 315s-140.961 315 -315 315z" />
    <glyph glyph-name="ocircumflex" unicode="&#xf4;" horiz-adv-x="970" 
d="M484.692 1003c-12.125 -0.180664 -23.3174 -4.97949 -31.5117 -13.1816l-119.716 -119.716c-8.40527 -8.07422 -13.5361 -19.9541 -13.5361 -32.1738c0 -11.9277 4.70312 -22.875 12.292 -30.9062c8.16406 -8.63867 19.8525 -14.0947 32.709 -14.0947
c12.2197 0 24.0996 5.13086 32.1738 13.5361l87.8965 87.8965l87.8965 -87.8965c8.07422 -8.40527 19.9541 -13.5361 32.1738 -13.5361c11.9277 0 22.875 4.70312 30.9062 12.292c8.63867 8.16406 14.0947 19.8525 14.0947 32.709
c0 12.2197 -5.13086 24.0996 -13.5361 32.1738l-119.719 119.719c-8.54199 8.54004 -20.2725 13.1787 -32.124 13.1787zM485 770c-223.615 0 -405 -181.385 -405 -405s181.385 -405 405 -405s405 181.385 405 405s-181.385 405 -405 405zM485 680
c174.039 0 315 -140.961 315 -315s-140.961 -315 -315 -315s-315 140.961 -315 315s140.961 315 315 315z" />
    <glyph glyph-name="otilde" unicode="&#xf5;" horiz-adv-x="970" 
d="M434.136 995.028c-26.9854 -0.424805 -51.5156 -13.1416 -72.7891 -33.3604c-11.5225 -10.9502 -22.5977 -24.4482 -33.3271 -40.0557c-5.1709 -7.40723 -8.04102 -16.4678 -8.04102 -25.6719c0 -24.8457 20.1475 -45.001 45 -45.001
c14.9268 0 28.9492 7.48145 37.168 19.6318c8.24316 11.9902 15.5469 20.4854 20.9932 25.6973c7.33301 7.01758 11.5176 8.5 12.0439 8.66602c3.46875 -1.15137 12.7539 -6.25684 25.1416 -16.3506c14.2549 -11.6152 38.4883 -35.7979 75.2002 -40.1172
c4.86328 -0.571289 9.85547 -0.735352 14.9043 -0.442383c15.2852 0.882812 30.2441 5.92969 43.8398 14.3926c17.5732 10.9395 32.9619 27.2568 47.1475 47.1152c5.45215 7.3623 8.63281 16.8711 8.63281 26.5068c0 24.8496 -20.1514 45.001 -45.001 45.001
c-14.7881 0 -28.7471 -7.41406 -36.8613 -19.1865c-9.69922 -13.5781 -18.5566 -21.2119 -21.4795 -23.0312c-5.5918 2.67383 -16.0547 8.55273 -29.5322 19.5332c-15.8076 12.8809 -43.1631 37.3008 -83.04 36.6729zM485 770c-223.615 0 -405 -181.385 -405 -405
s181.385 -405 405 -405s405 181.385 405 405s-181.385 405 -405 405zM485 680c174.039 0 315 -140.961 315 -315s-140.961 -315 -315 -315s-315 140.961 -315 315s140.961 315 315 315z" />
    <glyph glyph-name="odieresis" unicode="&#xf6;" horiz-adv-x="970" 
d="M393 959c-27.6094 0 -50 -22.3906 -50 -50s22.3906 -50 50 -50s50 22.3906 50 50s-22.3906 50 -50 50zM573 959c-27.6094 0 -50 -22.3906 -50 -50s22.3906 -50 50 -50s50 22.3906 50 50s-22.3906 50 -50 50zM485 770c-223.615 0 -405 -181.385 -405 -405
s181.385 -405 405 -405s405 181.385 405 405s-181.385 405 -405 405zM485 680c174.039 0 315 -140.961 315 -315s-140.961 -315 -315 -315s-315 140.961 -315 315s140.961 315 315 315z" />
    <glyph glyph-name="oslash" unicode="&#xf8;" horiz-adv-x="970" 
d="M844.447 770.051c-12.5566 -0.37207 -23.6123 -5.42188 -31.3975 -13.4346l-75.2324 -75.2314c-70.5957 56.3857 -157.251 88.6152 -252.745 88.6152c-223.615 0 -405 -181.385 -405 -405c0 -96.0752 34.417 -184.369 88.6309 -252.729l-75.1602 -75.1611
c-8.41699 -8.07812 -13.543 -19.9707 -13.543 -32.1816c0 -11.9277 4.70312 -22.875 12.292 -30.9062c8.16406 -8.63867 19.8516 -14.0938 32.708 -14.0938c12.2109 0 24.1035 5.12598 32.1816 13.543l75.1455 75.1445c70.5957 -56.3857 157.251 -88.6152 252.745 -88.6152
c223.615 0 405 181.385 405 405c0 96.0752 -34.416 184.369 -88.6309 252.729l75.2471 75.248c8.41699 8.17773 13.4336 19.9629 13.4336 32.0732c0 25.458 -21.1807 45 -45.6748 45zM485.072 680c71.1826 0 136.301 -23.9551 188.609 -62.752l-440.888 -440.889
c-40.8438 54.5547 -62.7217 117.35 -62.7217 188.641c0 174.039 140.961 315 315 315zM737.351 553.641c40.8438 -54.5547 62.7217 -117.35 62.7217 -188.641c0 -174.039 -140.961 -315 -315 -315c-71.1826 0 -136.301 23.9551 -188.609 62.752z" />
    <glyph glyph-name="ugrave" unicode="&#xf9;" horiz-adv-x="730" 
d="M284.867 999.975c-24.8643 0 -44.9932 -20.1709 -44.9932 -45c0 -12.1113 5.0166 -23.8936 13.4336 -32.0723l119.513 -119.514c8.07422 -8.40527 19.9541 -13.5361 32.1738 -13.5361c24.8496 0 45.001 20.1514 45.001 45.001
c0 12.2197 -5.13086 24.0996 -13.5361 32.1738l-119.507 119.507c-8.18359 8.42871 -19.9805 13.4404 -32.085 13.4404zM124.687 770.571c-25.083 -0.378906 -44.6865 -20.4561 -44.6865 -45.0713v-482c0 -46.7529 9.22656 -88.8701 25.7979 -125.34
c15.6963 -34.5439 37.8975 -63.8438 64.4102 -87.2627c54.3262 -47.9863 125.096 -70.8975 194.792 -70.8975c69.6992 0 140.465 22.9092 194.792 70.8975c26.5127 23.4189 48.7139 52.7188 64.4102 87.2627c16.5693 36.4688 25.7979 78.5869 25.7979 125.34
l0.000976562 482.07c0 24.8496 -20.1514 45.001 -45.001 45.001c-24.8457 0 -45 -20.1621 -45 -45.0713v-482c0 -33.7637 -6.15234 -61.8994 -16.4189 -85.5088c-10.4795 -24.0977 -25.3184 -43.6895 -43.373 -59.6387
c-35.627 -31.4707 -84.9648 -48.3525 -135.208 -48.3525s-99.5811 16.8818 -135.208 48.3525c-17.8711 15.7861 -32.5947 35.1523 -43.0537 58.9092c-10.4609 23.7607 -16.7383 52.126 -16.7383 86.2383l0.000976562 482.07c0 25.0977 -20.5967 45.001 -45.3145 45.001z" />
    <glyph glyph-name="uacute" unicode="&#xfa;" horiz-adv-x="730" 
d="M445.134 999.975c24.8643 0 44.9932 -20.1709 44.9932 -45c0 -12.1113 -5.0166 -23.8936 -13.4336 -32.0723l-119.513 -119.514c-8.07422 -8.40527 -19.9541 -13.5361 -32.1738 -13.5361c-24.8496 0 -45.001 20.1514 -45.001 45.001
c0 12.2197 5.13086 24.0996 13.5361 32.1738l119.507 119.507c8.18359 8.42871 19.9805 13.4404 32.085 13.4404zM605.314 770.571c25.083 -0.378906 44.6865 -20.4561 44.6865 -45.0713v-482c0 -46.7529 -9.22656 -88.8701 -25.7979 -125.34
c-15.6963 -34.5439 -37.8975 -63.8438 -64.4102 -87.2627c-54.3262 -47.9863 -125.096 -70.8975 -194.792 -70.8975c-69.6992 0 -140.465 22.9092 -194.792 70.8975c-26.5127 23.4189 -48.7139 52.7188 -64.4102 87.2627c-16.5693 36.4688 -25.7979 78.5869 -25.7979 125.34
l-0.000976562 482.07c0 24.8496 20.1514 45.001 45.001 45.001c24.8457 0 45 -20.1621 45 -45.0713v-482c0 -33.7637 6.15234 -61.8994 16.4189 -85.5088c10.4795 -24.0977 25.3184 -43.6895 43.373 -59.6387c35.627 -31.4707 84.9648 -48.3525 135.208 -48.3525
s99.5811 16.8818 135.208 48.3525c17.8711 15.7861 32.5947 35.1523 43.0537 58.9092c10.4609 23.7607 16.7383 52.126 16.7383 86.2383l-0.000976562 482.07c0 25.0977 20.5967 45.001 45.3145 45.001z" />
    <glyph glyph-name="ucircumflex" unicode="&#xfb;" horiz-adv-x="730" 
d="M364.616 999.071c-12.125 -0.180664 -23.3174 -4.97949 -31.5117 -13.1816l-119.716 -119.716c-8.40527 -8.07422 -13.5361 -19.9541 -13.5361 -32.1738c0 -11.9277 4.70312 -22.875 12.292 -30.9062c8.16406 -8.63867 19.8525 -14.0947 32.709 -14.0947
c12.2197 0 24.0996 5.13086 32.1738 13.5361l87.8965 87.8965l87.8965 -87.8965c8.07422 -8.40527 19.9541 -13.5361 32.1738 -13.5361c11.9277 0 22.875 4.70312 30.9062 12.292c8.63867 8.16406 14.0947 19.8525 14.0947 32.709
c0 12.2197 -5.13086 24.0996 -13.5361 32.1738l-119.719 119.719c-8.54199 8.54004 -20.2725 13.1787 -32.124 13.1787zM124.687 770.571c-25.083 -0.378906 -44.6865 -20.4561 -44.6865 -45.0713v-482c0 -46.7529 9.22656 -88.8701 25.7979 -125.34
c15.6963 -34.5439 37.8975 -63.8438 64.4102 -87.2627c54.3262 -47.9863 125.096 -70.8975 194.792 -70.8975c69.6992 0 140.465 22.9092 194.792 70.8975c26.5127 23.4189 48.7139 52.7188 64.4102 87.2627c16.5693 36.4688 25.7979 78.5869 25.7979 125.34
l0.000976562 482.07c0 24.8496 -20.1514 45.001 -45.001 45.001c-24.8457 0 -45 -20.1621 -45 -45.0713v-482c0 -33.7637 -6.15234 -61.8994 -16.4189 -85.5088c-10.4795 -24.0977 -25.3184 -43.6895 -43.373 -59.6387
c-35.627 -31.4707 -84.9648 -48.3525 -135.208 -48.3525s-99.5811 16.8818 -135.208 48.3525c-17.8711 15.7861 -32.5947 35.1523 -43.0537 58.9092c-10.4609 23.7607 -16.7383 52.126 -16.7383 86.2383l0.000976562 482.07c0 25.0977 -20.5967 45.001 -45.3145 45.001z" />
    <glyph glyph-name="udieresis" unicode="&#xfc;" horiz-adv-x="730" 
d="M273.408 952.07c-27.6094 0 -50 -22.3906 -50 -50s22.3906 -50 50 -50s50 22.3906 50 50s-22.3906 50 -50 50zM453.408 952.07c-27.6094 0 -50 -22.3906 -50 -50s22.3906 -50 50 -50s50 22.3906 50 50s-22.3906 50 -50 50zM124.687 770.571
c-25.083 -0.378906 -44.6865 -20.4561 -44.6865 -45.0713v-482c0 -46.7529 9.22656 -88.8701 25.7979 -125.34c15.6963 -34.5439 37.8975 -63.8438 64.4102 -87.2627c54.3262 -47.9863 125.096 -70.8975 194.792 -70.8975c69.6992 0 140.465 22.9092 194.792 70.8975
c26.5127 23.4189 48.7139 52.7188 64.4102 87.2627c16.5693 36.4688 25.7979 78.5869 25.7979 125.34l0.000976562 482.07c0 24.8496 -20.1514 45.001 -45.001 45.001c-24.8457 0 -45 -20.1621 -45 -45.0713v-482c0 -33.7637 -6.15234 -61.8994 -16.4189 -85.5088
c-10.4795 -24.0977 -25.3184 -43.6895 -43.373 -59.6387c-35.627 -31.4707 -84.9648 -48.3525 -135.208 -48.3525s-99.5811 16.8818 -135.208 48.3525c-17.8711 15.7861 -32.5947 35.1523 -43.0537 58.9092c-10.4609 23.7607 -16.7383 52.126 -16.7383 86.2383
l0.000976562 482.07c0 25.0977 -20.5967 45.001 -45.3145 45.001z" />
    <glyph glyph-name="yacute" unicode="&#xfd;" 
d="M484.423 996.044c-12.5566 -0.37207 -23.6123 -5.42188 -31.3975 -13.4346l-119.513 -119.513c-8.40527 -8.07422 -13.5361 -19.9541 -13.5361 -32.1738c0 -24.8496 20.1514 -45.001 45.001 -45.001c12.2197 0 24.0996 5.13086 32.1738 13.5361l119.513 119.514
c8.41699 8.17871 13.4336 19.9609 13.4336 32.0723c0 25.458 -21.1807 45 -45.6748 45zM124.136 770.153c-25.3945 -0.981445 -44.1357 -20.8984 -44.1357 -45.001c0 -8.3125 2.33594 -16.4541 6.36719 -23.0771l273.681 -469.17l-0.000976562 -227.904
c0 -24.8496 20.1514 -45.001 45.001 -45.001c24.8457 0 45 20.1621 45 45.0713v227.834l273.732 469.256c4.03027 6.69727 6.30273 14.7383 6.30273 22.9707c0 24.5908 -19.6582 44.6689 -44.668 45c-16.6328 0 -31.6025 -8.8623 -39.377 -22.627l-240.99 -413.126
l-240.942 413.045c-8.03125 14.374 -23.958 22.7295 -39.9697 22.7295z" />
    <glyph glyph-name="ydieresis" unicode="&#xff;" 
d="M313.123 951.969c-27.6104 0 -50 -22.3906 -50 -50s22.3887 -50 50 -50c27.6094 0 50 22.3906 50 50s-22.3906 50 -50 50zM493.123 951.969c-27.6104 0 -50 -22.3906 -50 -50s22.3887 -50 50 -50c27.6094 0 50 22.3906 50 50s-22.3906 50 -50 50zM686.905 770.119
c-16.916 0.651367 -32.8408 -8.36328 -40.8438 -22.7021l-240.938 -413.039l-240.991 413.126c-7.8916 13.9717 -23.1807 22.8438 -39.6475 22.624c-8.21484 -0.110352 -15.9014 -2.41016 -22.375 -6.2666c-20.1943 -12.0293 -29.166 -39.374 -15.7158 -61.707
l273.729 -469.25v-227.554c-0.345703 -24.6797 19.8828 -45.3506 45 -45.3506c25.1162 0 45.3438 20.6689 45 45.3496v227.555l273.678 469.165c3.86328 6.34375 6.05078 13.8076 6.37988 20.873c1.09473 23.4727 -16.7734 46.1514 -43.2754 47.1768z" />
    <glyph glyph-name="NameMe.256" unicode="&#x2026;" horiz-adv-x="582" 
d="M130 60c-27.6094 0 -50 -22.3906 -50 -50s22.3906 -50 50 -50s50 22.3906 50 50s-22.3906 50 -50 50zM290 60c-27.6094 0 -50 -22.3906 -50 -50s22.3906 -50 50 -50s50 22.3906 50 50s-22.3906 50 -50 50zM452 60c-27.6094 0 -50 -22.3906 -50 -50s22.3906 -50 50 -50
s50 22.3906 50 50s-22.3906 50 -50 50z" />
    <glyph glyph-name="NameMe.257" unicode="&#x201d;" horiz-adv-x="399" 
d="M124.688 770.001c-25.083 -0.378906 -44.6865 -20.457 -44.6865 -45.0713l-0.000976562 -120.07c0 -24.8496 20.1514 -45.001 45.001 -45.001c24.8457 0 45 20.1631 45 45.0713l0.000976562 120.07c0 25.0977 -20.5967 45.001 -45.3145 45.001zM273.688 770.001
c-25.083 -0.378906 -44.6865 -20.457 -44.6865 -45.0713l-0.000976562 -120.07c0 -24.8496 20.1514 -45.001 45.001 -45.001c24.8457 0 45 20.1631 45 45.0713l0.000976562 120.07c0 25.0977 -20.5967 45.001 -45.3145 45.001z" />
    <glyph glyph-name="NameMe.258" unicode="&#x2019;" horiz-adv-x="250" 
d="M124.687 770.001c-25.0889 -0.380859 -44.6865 -20.4619 -44.6865 -45.0713v-120.07c0 -24.8457 20.1475 -45.001 45 -45.001c24.8457 0 45 20.1631 45 45.0713l0.000976562 120.07c0 25.0977 -20.5977 45.001 -45.3145 45.001z" />
    <glyph glyph-name="NameMe.259" unicode="&#x201c;" horiz-adv-x="399" 
d="M124.688 770.001c-25.083 -0.378906 -44.6865 -20.457 -44.6865 -45.0713l-0.000976562 -120.07c0 -24.8496 20.1514 -45.001 45.001 -45.001c24.8457 0 45 20.1631 45 45.0713l0.000976562 120.07c0 25.0977 -20.5967 45.001 -45.3145 45.001zM273.688 770.001
c-25.083 -0.378906 -44.6865 -20.457 -44.6865 -45.0713l-0.000976562 -120.07c0 -24.8496 20.1514 -45.001 45.001 -45.001c24.8457 0 45 20.1631 45 45.0713l0.000976562 120.07c0 25.0977 -20.5967 45.001 -45.3145 45.001z" />
    <glyph glyph-name="NameMe.260" unicode="&#x2018;" horiz-adv-x="250" 
d="M124.687 770.001c-25.0889 -0.380859 -44.6865 -20.4619 -44.6865 -45.0713v-120.07c0 -24.8457 20.1475 -45.001 45 -45.001c24.8457 0 45 20.1631 45 45.0713l0.000976562 120.07c0 25.0977 -20.5977 45.001 -45.3145 45.001z" />
    </font>
</defs>
</svg>
