<?xml version="1.0" standalone="no"?>
<!DOCTYPE svg PUBLIC "-//W3C//DTD SVG 1.1//EN" "http://www.w3.org/Graphics/SVG/1.1/DTD/svg11.dtd" >
<svg xmlns="http://www.w3.org/2000/svg" xmlns:xlink="http://www.w3.org/1999/xlink" version="1.1">
<metadata>
Created by FontForge 20170910 at Thu Apr 12 06:51:01 2018
 By Jimmy Wärting
Copyright (c) 2017, Ceo Haekal (Graphicfresh - Sameeh Media)
</metadata>
<defs>
<font id="Luna-Light" horiz-adv-x="750" >
  <font-face 
    font-family="Luna"
    font-weight="200"
    font-stretch="normal"
    units-per-em="1000"
    panose-1="2 0 3 3 0 0 0 0 0 0"
    ascent="800"
    descent="-200"
    x-height="740"
    cap-height="740"
    bbox="-40 -126.613 970 985.057"
    underline-thickness="50"
    underline-position="-100"
    stemh="30"
    stemv="30"
    unicode-range="U+0020-20AC"
  />
<missing-glyph horiz-adv-x="500" 
d="M50 0v533h400v-533h-400zM100 50h300v433h-300v-433z" />
    <glyph glyph-name=".notdef" horiz-adv-x="500" 
d="M50 0v533h400v-533h-400zM100 50h300v433h-300v-433z" />
    <glyph glyph-name="space" unicode=" " horiz-adv-x="500" 
 />
    <glyph glyph-name="exclam" unicode="!" horiz-adv-x="200" 
d="M99.9131 735.071c-8.45215 -0.12793 -14.9131 -6.74316 -14.9131 -15.0713l-0.000976562 -560.07c0 -8.28418 6.7168 -15.001 15.001 -15.001c8.28516 0 15 6.66113 15 15.0713l0.000976562 560.07c0 8.28418 -6.78027 15.001 -15.0879 15.001zM100 30
c-11.043 0 -20 -8.95703 -20 -20s8.95703 -20 20 -20s20 8.95703 20 20s-8.95703 20 -20 20z" />
    <glyph glyph-name="quotedbl" unicode="&#x22;" horiz-adv-x="270" 
d="M94.9141 740.001c-8.45215 -0.12793 -14.9131 -6.74316 -14.9131 -15.0713l-0.000976562 -120.07c0 -8.28418 6.7168 -15.001 15.001 -15.001c8.28516 0 15 6.66113 15 15.0713l0.000976562 120.07c0 8.28418 -6.78027 15.001 -15.0879 15.001zM174.914 740.001
c-8.45215 -0.12793 -14.9131 -6.74316 -14.9131 -15.0713l-0.000976562 -120.07c0 -8.28418 6.7168 -15.001 15.001 -15.001c8.28516 0 15 6.66113 15 15.0713l0.000976562 120.07c0 8.28418 -6.78027 15.001 -15.0879 15.001z" />
    <glyph glyph-name="numbersign" unicode="#" 
d="M294.196 740.132c-6.95801 -0.34668 -12.8682 -5.64844 -13.9326 -12.6494l-31.2324 -187.396l-114.03 0.000976562c-8.28418 0 -15.001 -6.7168 -15.001 -15.001s6.66211 -15 15.0713 -15h108.961l-48.335 -290l-100.696 0.000976562
c-8.28418 0 -15.001 -6.7168 -15.001 -15.001s6.66211 -15 15.0713 -15h95.627l-12.2598 -73.5566l-18.1631 -108.978c-0.256836 -1.54102 -0.21875 -3.0498 -0.21875 -3.0498c0 -7.38965 6.7168 -14.5029 15 -14.5029c7.48633 0 13.7471 5.4502 14.8252 12.708
l31.2295 187.379h249.587l-30.4229 -182.534c-0.256836 -1.54102 -0.21875 -3.0498 -0.21875 -3.0498c0 -7.38965 6.7168 -14.5029 15 -14.5029c7.48633 0 13.7471 5.4502 14.8252 12.708l20.7539 124.526l10.4756 62.8525h114.031c8.2832 0 15 6.7168 15 15
c0 8.28418 -6.6582 15 -15.0713 15h-108.959l48.333 290h100.697c8.2832 0 15 6.7168 15 15c0 8.28418 -6.6582 15 -15.0713 15h-95.627l14.0762 84.4541l16.3467 98.0801c0.250977 1.50488 0.21582 2.99121 0.21582 2.99121c0 7.46484 -6.71582 14.5459 -15 14.5459
c-0.448242 0 -0.886719 -0.0263672 -0.886719 -0.0263672c-6.95801 -0.34668 -12.8682 -5.64844 -13.9326 -12.6494l-31.2324 -187.396h-249.587l30.4229 182.534c0.250977 1.50488 0.21582 2.99121 0.21582 2.99121c0 7.46484 -6.71582 14.5459 -15 14.5459
c-0.448242 0 -0.886719 -0.0263672 -0.886719 -0.0263672zM274.445 510.087h249.587l-48.335 -290h-249.585z" />
    <glyph glyph-name="dollar" unicode="$" horiz-adv-x="670" 
d="M334.913 825.021c-8.45215 -0.12793 -14.9131 -6.74316 -14.9131 -15.0713v-70.5469c-49.7119 -3.74121 -95.5615 -23.6934 -131.87 -52.7402c-39.8359 -31.8691 -68.1299 -75.4209 -68.1299 -121.713c0 -74.2754 30.4785 -122.433 75.2363 -153.288
c35.9336 -24.7715 80.8408 -39.0869 124.764 -50.7441v-340.524c-52.2988 3.13184 -102.381 21.5234 -140.79 51.3975c-42.1348 32.7715 -69.209 78.2939 -69.209 133.229c0 8.28418 -6.7168 15.001 -15.001 15.001c-8.28516 0 -15 -6.66113 -15 -15.0713
c0 -35.7461 9.90723 -68.4043 26.8115 -96.6631c13.8613 -23.1709 32.3877 -43.3848 53.9785 -60.1777c44.1865 -34.3682 101.913 -54.6816 159.21 -57.7627l-0.000976562 -60.4668c0 -8.28418 6.7168 -15.001 15.001 -15.001c8.28516 0 15 6.66113 15 15.0713v60.4102
c50.4551 2.80762 104.78 18.0264 150.51 46.9082c50.3252 31.7852 89.4902 81.4102 89.4902 147.682c0 69.7021 -31.0254 114.254 -75.7646 142.386c-44.334 27.876 -100.761 40.958 -155.597 54.667c-2.75586 0.689453 -6.63574 1.66895 -8.63867 2.17676v325.125
c42.5879 -3.82422 81.8818 -21.0693 113.13 -46.0674c35.1631 -28.1299 56.8691 -64.5508 56.8691 -98.3574c0 -8.28418 6.7168 -15.001 15.001 -15.001c8.28516 0 15 6.66113 15 15.0713c0 46.292 -28.2939 89.8438 -68.1299 121.713
c-36.376 29.1006 -83.8457 49.126 -131.87 52.7402l0.000976562 70.6172c0 8.28418 -6.78027 15.001 -15.0879 15.001zM320 709.304v-317.292c-41.9258 11.4951 -78.5645 24.2393 -107.736 44.3506c-37.8066 26.0635 -62.2637 62.79 -62.2637 128.587
c0 33.6699 21.7207 70.168 56.8701 98.2871c31.3027 25.042 72.0918 42.3828 113.13 46.0674zM350 353.237c0.969727 -0.243164 0.391602 -0.0986328 1.36133 -0.34082c55.1338 -13.7832 108.763 -26.9746 146.903 -50.958
c37.8369 -23.791 61.7354 -56.6328 61.7354 -116.989c0 -53.7432 -30.7949 -94.0781 -75.5098 -122.318c-40.0342 -25.2852 -91.4678 -39.5566 -134.49 -42.2168v332.823z" />
    <glyph glyph-name="percent" unicode="%" horiz-adv-x="751" 
d="M656.719 731.97c-4.92773 0.227539 -9.72461 -2.05762 -12.5986 -5.86035l-560.976 -711.97c-5.25977 -6.76172 -3.2998 -15.4062 1.31934 -19.9082c5.2207 -5.08789 15.9688 -6.72949 22.3232 1.43945l560.95 711.938c7.66016 9.56543 1.22168 23.7998 -11.0186 24.3613
zM215.984 691.93c-74.501 0 -135 -60.499 -135 -135s60.499 -135 135 -135c74.502 0 135 60.499 135 135s-60.498 135 -135 135zM215.984 661.93c58.0547 0 105 -46.9453 105 -105s-46.9453 -105 -105 -105c-58.0537 0 -105 46.9453 -105 105s46.9463 105 105 105z
M535.984 291.93c-74.501 0 -135 -60.499 -135 -135s60.499 -135 135 -135c74.502 0 135 60.499 135 135s-60.498 135 -135 135zM535.984 261.93c58.0547 0 105 -46.9453 105 -105s-46.9453 -105 -105 -105c-58.0537 0 -105 46.9453 -105 105s46.9463 105 105 105z" />
    <glyph glyph-name="ampersand" unicode="&#x26;" 
d="M375 740c-51.8115 0 -96.0898 -10.2656 -127.59 -38.9014c-31.6045 -28.7305 -47.4102 -73.7334 -47.4102 -136.099c0 -40.0166 19.7861 -85.083 49.9297 -133.407c6.13184 -9.83203 14.0361 -21.6641 20.2842 -30.6436
c-41.7705 -14.3555 -81.9102 -30.6748 -115.165 -54.3564c-44.0703 -31.3828 -75.0488 -76.5508 -75.0488 -141.593c0 -65.165 32.6572 -119.133 75.1221 -156.289c42.417 -37.1152 95.1016 -58.7109 139.878 -58.7109c118.818 0 202.19 39.1367 255.085 97.9531
c34.4395 -34.2188 67.0088 -66.2588 94.2363 -93.4863c2.9541 -3.0791 6.32422 -4.53906 10.75 -4.53906c8.28418 0 15.001 6.7168 15.001 15.001c0 4.42578 -1.45996 7.7959 -4.53906 10.75c-27.6953 27.6953 -62.9707 62.4131 -96.6348 95.8799
c12.0664 16.9199 21.5781 33.9502 29.7344 52.3994c22.1064 49.9971 31.3682 105.622 31.3682 161.112c0 8.28418 -6.7168 15.001 -15.001 15.001c-8.28516 0 -15 -6.66113 -15 -15.0713c0 -69.5771 -16.124 -138.375 -52.6572 -191.961
c-53.6992 53.7314 -107.326 108.765 -157.33 165.618c-25.7559 29.2842 -50.7432 59.5029 -71.4062 86.75l0.941406 0.299805c54.792 17.4346 110.636 33.6836 154.332 59.5039c43.79 25.876 76.1201 63.5449 76.1201 119.789c0 68.5703 -24.4502 113.923 -59.6738 140.692
c-34.957 26.5664 -78.334 34.3076 -115.326 34.3076zM375 710c32.9766 0 69.6562 -7.2793 97.1738 -28.1924c27.3223 -20.7646 47.8262 -55.3213 47.8262 -116.808c0 -43.8223 -22.5645 -71.0244 -61.3799 -93.9609c-38.7822 -22.917 -92.9844 -39.1885 -148.168 -56.7461
c-3.48828 -1.11035 -7.52441 -2.45312 -10.5068 -3.44531c-9.93262 13.9971 -16.9678 24.4473 -24.5625 36.6221c-28.8887 46.3145 -45.3828 87.6084 -45.3828 117.53c0 57.666 14.1895 92.6279 37.5898 113.901c23.4863 21.3516 59.2188 31.0986 107.41 31.0986z
M288.565 375.474c23.8965 -32.1152 50.2119 -63.9883 78.9219 -96.6309c51.2949 -58.3213 108.543 -116.949 161.309 -169.689c-47.8369 -53.8066 -121.076 -89.1533 -233.796 -89.1533c-35.1758 0 -82.5742 18.4355 -120.122 51.2891
c-37.5459 32.8535 -64.8779 78.875 -64.8779 133.711c0 55.0127 23.9629 89.749 62.4512 117.157c31.0166 22.0869 74.1191 39.1953 116.114 53.3164z" />
    <glyph glyph-name="quotesingle" unicode="'" horiz-adv-x="190" 
d="M94.9131 740.001c-8.45312 -0.12793 -14.9131 -6.74609 -14.9131 -15.0713v-120.07c0 -8.2832 6.71582 -15.001 15 -15.001c8.28516 0 15 6.66113 15 15.0713l0.000976562 120.07c0 8.28418 -6.78027 15.001 -15.0879 15.001z" />
    <glyph glyph-name="parenleft" unicode="(" horiz-adv-x="310" 
d="M214.736 830.055c-5.25586 -0.211914 -8.625 -2.0498 -11.4932 -5.73926c-83.4062 -104.258 -123.243 -277.204 -123.243 -449.315c0 -172.108 39.8477 -345.07 123.231 -449.3c2.93359 -3.80566 6.875 -5.77051 11.8242 -5.77051c8.2832 0 15.001 6.71582 15.001 15
c0 3.9043 -1.00391 6.62207 -3.39844 9.50879c-76.3799 95.4746 -116.658 262.75 -116.658 430.562c0 167.819 40.2646 335.069 116.671 430.577c2.39355 2.91113 3.37305 5.58691 3.37305 9.47754c0 8.28418 -6.93945 15 -15.3076 15z" />
    <glyph glyph-name="parenright" unicode=")" horiz-adv-x="310" 
d="M95.3203 830.055c5.25586 -0.211914 8.625 -2.0498 11.4932 -5.73926c83.4062 -104.258 123.243 -277.204 123.243 -449.315c0 -172.108 -39.8477 -345.07 -123.231 -449.3c-2.93359 -3.80566 -6.875 -5.77051 -11.8242 -5.77051c-8.2832 0 -15.001 6.71582 -15.001 15
c0 3.9043 1.00391 6.62207 3.39844 9.50879c76.3799 95.4746 116.658 262.75 116.658 430.562c0 167.819 -40.2646 335.069 -116.671 430.577c-2.39355 2.91113 -3.37305 5.58691 -3.37305 9.47754c0 8.28418 6.93945 15 15.3076 15z" />
    <glyph glyph-name="asterisk" unicode="*" horiz-adv-x="370" 
d="M184.979 740.001c-8.45215 -0.12793 -14.9131 -6.74316 -14.9131 -15.0713v-76.9189l-68.835 30.5938c-2.17383 1.00684 -3.0625 1.25879 -5.99023 1.35547c-8.7168 0 -15.2402 -6.71777 -15.2402 -15.001c0 -6.18848 3.4541 -11.3779 9.03809 -13.7646l69.9785 -31.1006
l-64.4844 -64.4854c-3.0791 -2.9541 -4.53906 -6.32422 -4.53906 -10.75c0 -8.28418 6.7168 -15.001 15.001 -15.001c4.42578 0 7.7959 1.45996 10.75 4.53906l69.3213 69.3203l69.3213 -69.3203c2.9541 -3.0791 6.32422 -4.53906 10.75 -4.53906
c8.28418 0 15.001 6.7168 15.001 15.001c0 4.42578 -1.45996 7.7959 -4.53906 10.75l-64.4844 64.4854l69.9814 31.1016c5.58301 2.3916 9.0332 7.57422 9.0332 13.7627c0 8.08008 -6.13184 14.6758 -14.7256 15.001c-3.16211 0 -4.15527 -0.273438 -6.49316 -1.35059
l-68.8447 -30.5977l0.000976562 76.9893c0 8.28418 -6.78027 15.001 -15.0879 15.001z" />
    <glyph glyph-name="plus" unicode="+" horiz-adv-x="580" 
d="M275 566v-185h-185c-6.05273 0 -10 -5.70801 -10 -10v-10c0 -6.05273 5.70801 -10 10 -10h185v-185c0 -6.05273 5.70801 -10 10 -10h10c6.05273 0 10 5.70801 10 10v185h185c6.05273 0 10 5.70801 10 10v10c0 6.05273 -5.70801 10 -10 10h-185v185
c0 6.05273 -5.70801 10 -10 10h-10c-6.05273 0 -10 -5.70801 -10 -10z" />
    <glyph glyph-name="comma" unicode="," horiz-adv-x="190" 
d="M94.9131 24.001c-8.45312 -0.12793 -14.9131 -6.74609 -14.9131 -15.0713v-120.07c0 -8.2832 6.71582 -15.001 15 -15.001c8.28516 0 15 6.66113 15 15.0713l0.000976562 120.07c0 8.28418 -6.78027 15.001 -15.0879 15.001z" />
    <glyph glyph-name="hyphen" unicode="-" horiz-adv-x="510" 
d="M95.0361 375c-8.29395 0 -15.0361 -6.71582 -15.0361 -15c0 -8.28516 6.66113 -15 15.0713 -15l320.07 -0.000976562c8.28418 0 15.001 6.7168 15.001 15.001c0 8.28516 -6.66113 15 -15.0713 15h-320.035z" />
    <glyph glyph-name="period" unicode="." horiz-adv-x="200" 
d="M100 30c-11.043 0 -20 -8.95703 -20 -20s8.95703 -20 20 -20s20 8.95703 20 20s-8.95703 20 -20 20z" />
    <glyph glyph-name="slash" unicode="/" horiz-adv-x="470" 
d="M374.714 740.117c-6.79102 -0.300781 -11.5645 -3.96289 -13.7002 -9.69824l-279.952 -719.878c-0.824219 -2.04883 -1.06152 -3.24121 -1.06152 -5.54004c0 -8.28418 6.7168 -15.001 15.001 -15.001c6.40723 0 11.7891 3.74805 14.0186 9.66113l279.956 719.887
c0.823242 2.03418 1.07129 3.25684 1.07129 5.56836c0 8.2832 -6.95605 15.001 -15.333 15.001z" />
    <glyph glyph-name="zero" unicode="0" 
d="M375 740c-82.6963 0 -156.927 -43.2119 -209.831 -111.231c-52.9238 -68.0459 -85.1689 -161.227 -85.1689 -263.769s32.2451 -195.723 85.1689 -263.769c52.9043 -68.0195 127.135 -111.231 209.831 -111.231s156.927 43.2119 209.831 111.231
c52.9238 68.0459 85.1689 161.227 85.1689 263.769s-32.2451 195.723 -85.1689 263.769c-52.9043 68.0195 -127.135 111.231 -209.831 111.231zM375 710c71.9463 0 137.707 -37.3682 186.149 -99.6514c48.4141 -62.2461 78.8506 -149.072 78.8506 -245.349
s-30.4365 -183.103 -78.8506 -245.349c-48.4414 -62.2822 -114.207 -99.6514 -186.149 -99.6514c-71.9463 0 -137.707 37.3682 -186.149 99.6514c-48.4141 62.2461 -78.8506 149.072 -78.8506 245.349s30.4365 183.103 78.8506 245.349
c48.4414 62.2822 114.207 99.6514 186.149 99.6514z" />
    <glyph glyph-name="one" unicode="1" horiz-adv-x="590" 
d="M294.626 739.994c-1.0752 -0.0322266 -2.12109 -0.173828 -3.19727 -0.441406l-159.998 -39.999c-8.31055 -2.07617 -12.1035 -10.0898 -11.2441 -16.4834c0.970703 -7.22461 8.36719 -15.1592 18.5186 -12.623l141.362 35.3408v-685.788h-184.93
c-9.03809 0.12793 -14.7598 -7.46875 -15.1191 -14.1611c-0.380859 -7.08789 5.1543 -15.9795 15.1191 -15.8389h399.859c8.2373 -0.115234 15.1416 6.63281 15.1416 15s-6.9043 15.1152 -15.1416 15h-184.93v705c0 8.45605 -6.99121 15.2393 -15.4414 14.9941z" />
    <glyph glyph-name="two" unicode="2" horiz-adv-x="630" 
d="M335 740c-62.4307 0 -115.877 -15.54 -154.269 -45.7051c-38.5273 -30.2725 -60.7324 -75.085 -60.7324 -129.365c0 -8.28418 6.7168 -15.001 15.001 -15.001c8.28516 0 15 6.66113 15 15.0713c0 45.8926 17.7549 80.9453 49.2676 105.705
c31.6035 24.8301 78.166 39.2949 135.732 39.2949c66.3652 0 111.589 -23.1992 141.164 -57.3242c29.6475 -34.209 43.8359 -80.6055 43.8359 -127.676c0 -60.5752 -25.2139 -109.185 -64.8418 -152.716c-39.6123 -43.5127 -93.6084 -81.1396 -148.413 -117.261
c-54.8037 -36.1201 -110.354 -70.6914 -153.131 -109.903c-42.6689 -39.1123 -73.6143 -84.2822 -73.6143 -140.12c0 -8.2832 6.7168 -15 15 -15l440.07 -0.000976562c8.28418 0 15.001 6.7168 15.001 15.001c0 8.28516 -6.66113 15 -15.0713 15h-423.98
c5.16211 38.7334 27.6621 70.7354 62.8662 103.006c39.7139 36.4043 94.1826 70.5977 149.369 106.971s111.206 75.0098 154.087 122.114c42.8906 47.1133 72.6582 103.467 72.6582 172.909c0 52.9268 -15.8154 106.539 -51.1641 147.325
c-35.4424 40.8945 -90.1738 67.6748 -163.836 67.6748z" />
    <glyph glyph-name="three" unicode="3" horiz-adv-x="633" 
d="M342.735 735.517c-32.8379 -0.760742 -69.5361 -10.2441 -102.906 -28.2715c-38.083 -20.5723 -72.3262 -52.8506 -88.8516 -96.917c-0.774414 -1.98633 -1.00098 -3.14551 -1.00098 -5.38867c0 -8.28418 6.7168 -15.001 15.001 -15.001
c6.48047 0 11.9316 3.86426 14.0898 9.85547c13.3809 35.6816 41.7109 63.0615 75.0215 81.0566c33.2842 17.9795 71.208 26.1611 100.807 24.4971c78.8691 -4.43262 145.104 -64.6025 145.104 -140.348c0 -45.6562 -18.9766 -85.9717 -56.2451 -115.787
c-37.3135 -29.8516 -93.7871 -49.2129 -168.755 -49.2129c-6.05273 0 -10 -5.70801 -10 -10v-10c0 -6.05273 5.70801 -10 10 -10c89.9844 0 152.532 -23.0801 192.145 -55.9229c39.584 -32.8184 57.1748 -75.7002 56.6064 -118.879
c-1.13477 -86.2334 -75.8154 -175.198 -208.751 -175.198c-66.374 0 -117.774 23.5889 -152.676 53.8359c-35.0479 30.375 -52.3232 67.4922 -52.3232 91.2344c0 8.28418 -6.7168 15.001 -15.001 15.001c-8.28516 0 -15 -6.66113 -15 -15.0713
c0 -36.3145 22.7695 -79.251 62.6748 -113.836c40.1055 -34.7588 98.6953 -61.1641 172.325 -61.1641c147.076 0 237.384 101.013 238.749 204.802c0.681641 51.8408 -21.0898 103.929 -67.4561 142.371c-25.7383 21.3398 -59.4395 38.4434 -99.2607 49.2393
c30.8779 10.0293 54.4561 22.5693 75.4629 39.375c44.002 35.2012 67.5049 84.8379 67.5049 139.213c0 93.9434 -80.9551 165.104 -173.42 170.301c-4.5293 0.254883 -9.15039 0.324219 -13.8447 0.21582z" />
    <glyph glyph-name="four" unicode="4" horiz-adv-x="670" 
d="M454.77 740.069c-5.25391 -0.154297 -8.81543 -2.0625 -11.7705 -5.99805l-360.003 -480.003c-2.21191 -2.95312 -2.99609 -5.31152 -2.99609 -8.99707c0 -8.28125 6.71387 -15 14.999 -15h345l-0.000976562 -225.07c0 -8.28418 6.7168 -15.001 15.001 -15.001
c8.28516 0 15 6.66113 15 15.0713v125.534v99.4658l105.07 -0.000976562c8.28418 0 15.001 6.7168 15.001 15.001s-6.66211 15 -15.0713 15h-105v465.004c-0.00292969 8.28223 -6.88477 14.9941 -15.2295 14.9941zM439.999 680.071v-420h-315z" />
    <glyph glyph-name="five" unicode="5" horiz-adv-x="664" 
d="M135 740c-8.2832 0 -15 -6.7168 -15 -15v-280c0 -8.2832 6.7168 -15 15 -15h152c97.293 0 164.564 -26.6562 207.166 -64.9111c42.5898 -38.2441 61.498 -88.7285 60.3389 -139.748c-2.32031 -102.084 -85.3564 -205.341 -227.505 -205.341
c-56.6982 0 -111.469 19.0234 -151.531 51.6328c-40.0654 32.6123 -65.4678 78.127 -65.4678 133.438c0 8.28418 -6.7168 15.001 -15.001 15.001c-8.28516 0 -15 -6.66113 -15 -15.0713c0 -64.8398 30.5654 -119.22 76.5312 -156.633
c45.9307 -37.3848 107.175 -58.3672 170.469 -58.3672c157.854 0 254.814 116.715 257.495 234.659c1.3418 58.9961 -20.9941 118.489 -70.2861 162.752c-49.2744 44.2461 -124.498 72.5889 -227.209 72.5889h-137v250l345.07 -0.000976562
c8.28418 0 15.001 6.7168 15.001 15.001c0 8.28516 -6.66113 15 -15.0713 15h-360z" />
    <glyph glyph-name="six" unicode="6" horiz-adv-x="670" 
d="M495.035 740c-162.325 0 -268.349 -41.084 -332.035 -126c-63.3838 -84.5117 -83 -208.02 -83 -369c0 -140.774 114.226 -255 255 -255s255 114.226 255 255s-114.226 255 -255 255c-93.5674 0 -175.034 -50.7832 -219.246 -124.79
c9.68555 95.8271 31.3369 167.577 71.2461 220.79c56.3281 75.1045 150.219 113.999 308.07 113.999c8.28418 0 15.001 6.7168 15.001 15.001s-6.74219 15 -15.0361 15zM335 470c124.326 0 225 -100.674 225 -225s-100.674 -225 -225 -225s-225 100.674 -225 225
s100.674 225 225 225z" />
    <glyph glyph-name="seven" unicode="7" horiz-adv-x="630" 
d="M95.0361 740.071c-8.29297 0 -15.0361 -6.71582 -15.0361 -15c0 -8.28516 6.66113 -15 15.0713 -15h424.294c-6.83203 -90.9531 -70.7188 -193.387 -137.25 -307.441c-70.1113 -120.191 -142.045 -252.473 -142.045 -397.629c0 -8.28418 6.7168 -15.001 15.001 -15.001
c8.28516 0 15 6.66113 15 15.0713c0 134.977 68.0586 262.618 137.956 382.441c69.6357 119.375 142.044 230.847 142.044 337.559c0 8.2832 -6.7168 15 -15 15h-440.035z" />
    <glyph glyph-name="eight" unicode="8" horiz-adv-x="670" 
d="M335 740c-42.3857 0 -90.332 -10.376 -128.719 -37.7939c-38.6025 -27.5732 -66.2812 -72.7773 -66.2812 -137.206c0 -51.4463 30.8311 -88.5488 72.1689 -116.764c22.5635 -15.4004 49.0586 -28.8057 76.3105 -41.2715
c-50.2832 -20.668 -98.4746 -42.6426 -137.458 -75.1279c-41.8398 -34.8682 -71.0215 -82.1143 -71.0215 -146.837c0 -54.0967 22.0566 -103.81 65.542 -139.142c43.3965 -35.2607 107.021 -55.8584 189.458 -55.8584c82.4395 0 146.059 20.5957 189.458 55.8584
c43.4824 35.3291 65.542 85.0439 65.542 139.142c0 60.1758 -29.542 104.821 -71.1865 138.534c-41.5723 33.6543 -95.2432 57.6836 -147.905 80.2529c-1.47949 0.633789 -4.58789 1.96582 -4.88965 2.09473c33.8105 13.8994 64.5791 27.6533 91.4668 44.9385
c41.4453 26.6436 72.5146 62.6553 72.5146 114.18c0 65.4033 -33.5391 110.388 -74.1797 137.48c-40.5098 27.0068 -87.7324 37.5195 -120.82 37.5195zM335 710c26.8701 0 69.7246 -9.50977 104.18 -32.4805c34.4111 -22.9414 60.8203 -57.8916 60.8203 -112.52
c0 -38.5176 -21.3428 -64.9072 -58.7354 -88.9453c-30.3535 -19.5127 -72.9463 -37.0303 -114.117 -53.5098c-37.0674 16.1016 -71.1748 32.1133 -98.0664 50.4688c-37.4844 25.584 -59.0811 53.4033 -59.0811 91.9863c0 55.6299 22.2725 90.333 53.7188 112.794
c31.5928 22.5674 73.6885 32.2061 111.281 32.2061zM326.704 390.044c12.3867 -5.30664 21.3164 -9.08594 32.3877 -13.8311c52.3193 -22.4229 103.682 -45.9131 140.845 -75.9971c37.1543 -30.0771 60.0635 -65.3584 60.0635 -115.216
c0 -45.9346 -17.9209 -86.1709 -54.458 -115.858c-36.5996 -29.7363 -92.9795 -49.1416 -170.542 -49.1416c-77.5605 0 -133.943 19.4062 -170.542 49.1416c-36.5381 29.6875 -54.458 69.9238 -54.458 115.858c0 55.3184 23.2773 92.9971 60.2275 123.788
c37.0195 30.8496 88.1689 53.667 140.399 74.8076c5.35254 2.16699 10.79 4.33789 16.0771 6.44824z" />
    <glyph glyph-name="nine" unicode="9" horiz-adv-x="670" 
d="M174.965 -10c162.325 0 268.349 41.084 332.035 126c63.3838 84.5117 83 208.02 83 369c0 140.774 -114.226 255 -255 255s-255 -114.226 -255 -255s114.226 -255 255 -255c93.5674 0 175.033 50.7822 219.246 124.791
c-9.68555 -95.8291 -31.3369 -167.578 -71.2461 -220.791c-56.3281 -75.1045 -150.219 -113.999 -308.07 -113.999c-8.28418 0 -15.001 -6.7168 -15.001 -15.001s6.74219 -15 15.0361 -15zM335 260c-124.327 0 -225 100.674 -225 225s100.673 225 225 225
c124.326 0 225 -100.674 225 -225s-100.674 -225 -225 -225z" />
    <glyph glyph-name="colon" unicode=":" horiz-adv-x="200" 
d="M100 543c-11.043 0 -20 -8.95703 -20 -20s8.95703 -20 20 -20s20 8.95703 20 20s-8.95703 20 -20 20zM100 233c-11.043 0 -20 -8.95703 -20 -20s8.95703 -20 20 -20s20 8.95703 20 20s-8.95703 20 -20 20z" />
    <glyph glyph-name="semicolon" unicode=";" horiz-adv-x="200" 
d="M100 543.07c-11.043 0 -20 -8.95703 -20 -20s8.95703 -20 20 -20s20 8.95703 20 20s-8.95703 20 -20 20zM99.9893 233.071c-8.45215 -0.12793 -14.9131 -6.74316 -14.9131 -15.0713l-0.000976562 -120.07c0 -8.28418 6.7168 -15.001 15.001 -15.001
c8.28516 0 15 6.66113 15 15.0713l0.000976562 120.07c0 8.28418 -6.78027 15.001 -15.0879 15.001z" />
    <glyph glyph-name="less" unicode="&#x3c;" horiz-adv-x="430" 
d="M334.818 631.516c-4.7041 -0.139648 -7.53516 -1.46875 -10.4756 -4.49512l-239.954 -239.954c-3.06836 -3.07227 -4.38867 -6.25195 -4.38867 -10.6016c0 -4.35059 1.31641 -7.52637 4.39258 -10.6064l239.928 -239.927c2.9541 -3.0791 6.32422 -4.53906 10.75 -4.53906
c8.28418 0 15.001 6.7168 15.001 15.001c0 4.42578 -1.45996 7.7959 -4.53906 10.75l-229.32 229.321l229.343 229.344c3.07812 2.99121 4.49414 6.30469 4.49414 10.707c0 8.2832 -6.88281 15 -15.2305 15z" />
    <glyph glyph-name="equal" unicode="=" horiz-adv-x="510" 
d="M95.0361 533c-8.29395 0 -15.0361 -6.71582 -15.0361 -15c0 -8.28516 6.66113 -15 15.0713 -15l320.07 -0.000976562c8.28418 0 15.001 6.7168 15.001 15.001c0 8.28516 -6.66113 15 -15.0713 15h-320.035zM95.0361 213c-8.29395 0 -15.0361 -6.71582 -15.0361 -15
c0 -8.28516 6.66113 -15 15.0713 -15l320.07 -0.000976562c8.28418 0 15.001 6.7168 15.001 15.001c0 8.28516 -6.66113 15 -15.0713 15h-320.035z" />
    <glyph glyph-name="greater" unicode="&#x3e;" horiz-adv-x="430" 
d="M95.2529 631.516c4.7041 -0.139648 7.53516 -1.46875 10.4756 -4.49512l239.954 -239.954c3.06836 -3.07227 4.38867 -6.25195 4.38867 -10.6016c0 -4.35059 -1.31641 -7.52637 -4.39258 -10.6064l-239.928 -239.927c-2.9541 -3.0791 -6.32422 -4.53906 -10.75 -4.53906
c-8.28418 0 -15.001 6.7168 -15.001 15.001c0 4.42578 1.45996 7.7959 4.53906 10.75l229.32 229.321l-229.343 229.344c-3.07812 2.99121 -4.49414 6.30469 -4.49414 10.707c0 8.2832 6.88281 15 15.2305 15z" />
    <glyph glyph-name="question" unicode="?" horiz-adv-x="630" 
d="M315.001 740c-83.1484 0 -142.479 -26.2676 -180.606 -64.3936c-38.0752 -38.0762 -54.3945 -86.8623 -54.3945 -130.677c0 -8.28418 6.7168 -15.001 15.001 -15.001c8.28516 0 15 6.66113 15 15.0713c0 36.3232 13.6738 77.4609 45.6064 109.394
c31.8848 31.8857 82.5244 55.6064 159.394 55.6064s127.509 -23.7217 159.394 -55.6064c31.9326 -31.9326 45.6064 -73.0703 45.6064 -109.394c0 -57.7402 -12.9385 -92.7324 -31.4707 -118.005c-18.585 -25.3447 -44.0215 -41.8008 -71.582 -59.3398
c-27.4268 -17.4531 -57.0156 -36.0225 -79.667 -66.9092c-22.7461 -31.0156 -37.2812 -73.3877 -37.2812 -135.816c0 -8.28418 6.7168 -15.001 15.001 -15.001c8.28516 0 15 6.66113 15 15.0713c0 57.7402 12.9385 92.7324 31.4707 118.005
c18.585 25.3447 44.0215 41.8008 71.582 59.3398c27.4268 17.4531 57.0156 36.0225 79.667 66.9092c22.7324 30.9971 37.2803 73.457 37.2803 135.746c0 43.6768 -16.3311 92.5439 -54.3936 130.606c-38.125 38.124 -97.459 64.3936 -180.606 64.3936zM315.001 30
c-11.043 0 -20 -8.95703 -20 -20s8.95703 -20 20 -20s20 8.95703 20 20s-8.95703 20 -20 20z" />
    <glyph glyph-name="at" unicode="@" horiz-adv-x="1050" 
d="M635 814.064c-306.276 0 -555 -205.061 -555 -475c0 -142.415 35.6006 -256.29 103.664 -334.824c68.1465 -78.6318 167.978 -120.176 291.336 -120.176c79.6543 0 222.854 -1.6084 308.943 62.958c7.30762 5.32031 7.32617 14.8311 3.59863 20.4004
c-3.94824 5.89844 -13.7119 9.69141 -21.5986 3.59863c-73.623 -55.2168 -210.729 -56.957 -290.943 -56.957c-116.657 0 -206.804 38.4473 -268.664 109.824c-61.9346 71.4639 -96.3359 177.59 -96.3359 315.176c0 250.054 231.263 445 525 445
c106.182 0 179.819 -37.1865 229.638 -120.217c50.1016 -83.5029 75.3623 -215.973 75.3623 -404.783c0 -72.2695 -47.4473 -105 -95 -105s-95 32.7314 -95 105v299.936c0.137695 10.7031 -9.69238 15.0713 -15.8428 15.0586
c-263.247 -0.228516 -395.992 -107.499 -430.987 -220.559c-17.4336 -56.3223 -10.2803 -113.374 16.9336 -156.779c27.2783 -43.5059 74.9209 -72.6562 134.896 -72.6562c102.376 0 178.831 26.4033 227.333 96.4619c15.2891 22.085 28.3076 49.9766 37.667 79.1299
v-40.5918c0 -87.7676 62.4414 -135 125 -135s125 47.2314 125 135c0 191.177 -24.7471 328.732 -79.6377 420.217c-55.2021 92.0039 -141.494 134.783 -255.362 134.783zM719.903 543.893c-1.3418 -151.518 -21.6113 -247.609 -62.2363 -306.29
c-41.5117 -59.9609 -104.989 -83.5381 -202.667 -83.5381c-50.0596 0 -87.3613 23.3174 -109.479 58.5938c-22.1592 35.3428 -28.7578 83.2939 -13.6914 131.971c29.4609 95.1807 142.583 194.966 388.073 199.264z" />
    <glyph glyph-name="A" unicode="A" 
d="M375.015 740.05c-6.35742 0 -11.668 -3.63379 -13.9756 -9.56348l-279.963 -719.907c-0.862305 -2.15332 -1.07617 -3.25 -1.07617 -5.57812c0 -8.2832 6.71582 -15.001 15 -15.001c6.4082 0 11.79 3.75 14.0186 9.66113l89.5703 230.326h352.86l89.5713 -230.326
c2.22852 -5.91113 7.6084 -9.66113 14.0176 -9.66113c8.28418 0 15.001 6.7168 15.001 15.001c0 2.30078 -0.235352 3.48242 -1.05859 5.53516l-279.981 719.951c-2.30566 5.92871 -7.62402 9.5625 -13.9844 9.5625zM375.02 683.665l164.716 -423.553h-329.432z" />
    <glyph glyph-name="B" unicode="B" horiz-adv-x="625" 
d="M95 740c-8.2832 0 -15 -6.7168 -15 -15v-720c0 -8.2832 6.7168 -15 15 -15h180c175.078 0 270 94.6064 270 195c0 78.167 -58.4111 152.943 -165.215 181.99c89.0098 31.9834 135.215 104.486 135.215 178.01c0 99.0107 -83.6533 195 -240 195h-180zM110 710h165
c143.689 0 210 -83.9736 210 -165c0 -81.0273 -66.3105 -165 -210 -165h-165v330zM110 350h165c164.965 0 240 -85.3877 240 -165c0 -79.6133 -75.0352 -165 -240 -165h-165v330z" />
    <glyph glyph-name="C" unicode="C" horiz-adv-x="790" 
d="M449.263 739.747c-99.0312 -1.53613 -197.178 -42.1084 -269.438 -120.143c-136.038 -146.908 -132.628 -374.918 7.74219 -517.693c67.5918 -68.749 159.07 -108.827 255.433 -111.906c96.3457 -3.07812 190.252 31.1123 262.014 95.3359
c3.43848 3.00977 5.07812 6.59766 5.07812 11.25c0 8.2832 -6.7168 15 -15 15c-4.15039 0 -7.09375 -1.15918 -10.0859 -3.89648c-66.0166 -59.0801 -152.409 -90.5361 -241.049 -87.7031c-88.6562 2.83301 -172.812 39.7012 -234.997 102.953
c-129.211 131.425 -132.346 341.047 -7.12207 476.277c125.223 135.229 334.524 148.141 475.355 29.4941c2.9248 -2.55078 5.77246 -3.63867 9.79492 -3.63867c8.2832 0 15.001 6.71582 15.001 15c0 4.8252 -1.83398 8.62793 -5.46973 11.584
c-71.627 60.3428 -159.899 89.4404 -247.256 88.0859z" />
    <glyph glyph-name="D" unicode="D" horiz-adv-x="734" 
d="M95 740c-8.2832 0 -15 -6.7168 -15 -15v-720c0 -8.2832 6.7168 -15 15 -15h177c126.259 0 222.619 46.7646 286.733 117.421c64.0508 70.5859 95.7666 164.227 95.7666 257.579s-31.7158 186.993 -95.7666 257.579c-64.1143 70.6562 -160.475 117.421 -286.733 117.421
h-177zM110 710h162c118.753 0 206.123 -43.2275 264.517 -107.579c58.4473 -64.4121 87.9834 -150.775 87.9834 -237.421s-29.5361 -173.009 -87.9834 -237.421c-58.3945 -64.3525 -145.765 -107.579 -264.517 -107.579h-162v690z" />
    <glyph glyph-name="E" unicode="E" horiz-adv-x="550" 
d="M95 740c-8.2832 0 -15 -6.7168 -15 -15v-360.803v-359.197c0 -8.2832 6.7168 -15 15 -15l360.07 -0.000976562c8.28418 0 15.001 6.7168 15.001 15.001c0 8.28516 -6.66113 15 -15.0713 15h-345v330l305.07 -0.000976562c8.28418 0 15.001 6.7168 15.001 15.001
c0 8.28516 -6.66113 15 -15.0713 15h-305v330l345.07 -0.000976562c8.28418 0 15.001 6.7168 15.001 15.001c0 8.28516 -6.66113 15 -15.0713 15h-360z" />
    <glyph glyph-name="F" unicode="F" horiz-adv-x="550" 
d="M95.001 740.071c-8.2832 0 -15 -6.7168 -15 -15v-360.803l-0.000976562 -359.268c0 -8.28418 6.7168 -15.001 15.001 -15.001c8.28516 0 15 6.66113 15 15.0713v345h305.07c8.2832 0 15.001 6.71582 15.001 15c0 8.28516 -6.66113 15 -15.0713 15h-305v330h345.07
c8.2832 0 15.001 6.71582 15.001 15c0 8.28516 -6.66113 15 -15.0713 15h-360z" />
    <glyph glyph-name="G" unicode="G" horiz-adv-x="910" 
d="M456.887 740.781c-2.75195 0 -5.5127 -0.000976562 -8.26953 -0.0478516c-77.8105 -1.31738 -155.449 -26.791 -220.916 -76.6885c-139.695 -106.474 -186.759 -296.689 -113.258 -456.191c73.502 -159.504 247.941 -246.647 419.621 -209.629
c171.708 37.0244 294.708 189.433 295.946 364.8l0.0859375 2.66699c-0.0371094 8.41797 -6.68359 15.2256 -15.1455 15.1074h-339.859c-9.03809 0.12793 -14.7598 -7.46875 -15.1191 -14.1611c-0.380859 -7.08789 5.1543 -15.9795 15.1191 -15.8389h324.587
c-7.11914 -157.262 -118.233 -289.105 -271.938 -322.248c-157.999 -34.0684 -318.406 46.0645 -386.052 192.859s-24.3506 320.798 104.198 418.775c128.545 97.9736 307.864 93.5498 431.345 -10.4785c6.7998 -5.94824 16.1221 -3.83789 20.7188 1.05762
c4.86719 5.18457 6.35059 15.6045 -1.38965 21.8838c-68.9746 58.1084 -154.277 87.7021 -239.675 88.1328z" />
    <glyph glyph-name="H" unicode="H" horiz-adv-x="630" 
d="M94.9141 740.143c-8.45215 -0.12793 -14.9131 -6.74316 -14.9131 -15.0713v-360.803l-0.000976562 -359.268c0 -8.28418 6.7168 -15.001 15.001 -15.001c8.28516 0 15 6.66113 15 15.0713v345h410l-0.000976562 -345.07c0 -8.28418 6.7168 -15.001 15.001 -15.001
c8.28516 0 15 6.66113 15 15.0713v360.803l0.000976562 359.268c0 8.28418 -6.64746 15.001 -15.0879 15.001c-8.45215 -0.12793 -14.9131 -6.74316 -14.9131 -15.0713v-345h-410l0.000976562 345.07c0 8.28418 -6.78027 15.001 -15.0879 15.001z" />
    <glyph glyph-name="I" unicode="I" horiz-adv-x="430" 
d="M85.0674 730v-10c0 -6.05273 5.70801 -10 10 -10h105v-690h-104.93c-9.03809 0.12793 -14.7598 -7.46875 -15.1191 -14.1611c-0.380859 -7.08789 5.1543 -15.9795 15.1191 -15.8389h239.859c8.2373 -0.115234 15.1416 6.63281 15.1416 15s-6.9043 15.1152 -15.1416 15
h-104.93v690h104.93c8.2373 -0.115234 15.1416 6.63281 15.1416 15s-6.9043 15.1152 -15.1416 15h-239.93c-6.05273 0 -10 -5.70801 -10 -10z" />
    <glyph glyph-name="J" unicode="J" horiz-adv-x="550" 
d="M454.599 737.534l-199.669 -0.0351562c-8.28418 0 -15.001 -6.7168 -15.001 -15.001c0 -8.28516 6.66113 -15 15.0713 -15h185v-545c0 -45.3096 -19.833 -79.3682 -50.5264 -103.524c-30.7334 -24.1885 -72.751 -37.8115 -114.89 -38.9814
c-42.1562 -1.1709 -83.8057 10.1084 -114.193 33.4619c-30.3047 23.29 -50.3896 58.2129 -50.3896 109.114c0 8.28418 -6.7168 15.001 -15.001 15.001c-8.28516 0 -15 -6.66113 -15 -15.0713c0 -59.2754 24.8643 -104.207 62.1094 -132.831
c37.1006 -28.5127 85.4746 -40.9922 133.307 -39.6631c47.8467 1.3291 95.8564 16.4668 132.61 45.3936c36.8398 28.9951 61.9736 72.3789 61.9736 127.101c0 186.902 0.0664062 371.748 0.0664062 559.997c0 4.43848 -1.1084 7.34961 -4.73047 10.9414
c-2.85352 2.77637 -6.33496 4.09766 -10.7373 4.09766z" />
    <glyph glyph-name="K" unicode="K" horiz-adv-x="630" 
d="M94.9141 740.143c-8.45215 -0.12793 -14.9131 -6.74316 -14.9131 -15.0713l-0.000976562 -720.07c0 -8.28418 6.7168 -15.001 15.001 -15.001c8.28516 0 15 6.66113 15 15.0713v328.347l415.421 -339.889c2.88086 -2.45996 5.69043 -3.52539 9.66016 -3.52539
c8.28418 0 15.001 6.7168 15.001 15.001c0 4.91016 -1.93457 8.81738 -5.66406 11.7412l-427.092 349.438l348.229 348.23c3.07812 2.99121 4.49414 6.30469 4.49414 10.707c0 8.2832 -6.53223 15 -15.2305 15c-4.7041 -0.139648 -7.53516 -1.46875 -10.4756 -4.49512
l-334.344 -334.343l0.000976562 323.857c0 8.28418 -6.78027 15.001 -15.0879 15.001z" />
    <glyph glyph-name="L" unicode="L" horiz-adv-x="550" 
d="M94.9131 740.071c-8.45215 -0.12793 -14.9131 -6.74316 -14.9131 -15.0713v-720c0 -8.2832 6.7168 -15 15 -15l360.07 -0.000976562c8.28418 0 15.001 6.7168 15.001 15.001c0 8.28516 -6.66113 15 -15.0713 15h-345l0.000976562 705.07
c0 8.28418 -6.78027 15.001 -15.0879 15.001z" />
    <glyph glyph-name="M" unicode="M" horiz-adv-x="830" 
d="M94.8799 740.07c-8.44141 -0.149414 -14.876 -6.80859 -14.8789 -14.999l-0.000976562 -720.07c0 -8.28418 6.7168 -15.001 15.001 -15.001c8.28516 0 15 6.66113 15 15.0713v670.459l292.521 -438.781c2.94434 -4.41406 7.17578 -6.67676 12.4795 -6.67676
s9.53418 2.26074 12.4805 6.67871l292.52 438.779l-0.000976562 -670.529c0 -8.28418 6.7168 -15.001 15.001 -15.001c8.28516 0 15 6.66113 15 15.0713v720.004c-0.00292969 8.28027 -6.71777 14.9951 -15.001 14.9951c-5.30469 0 -9.53516 -2.26367 -12.4795 -6.67871
l-307.52 -461.279l-307.521 461.281c-2.94336 4.41309 -7.25586 6.67676 -12.6006 6.67676z" />
    <glyph glyph-name="N" unicode="N" horiz-adv-x="670" 
d="M574.848 740.069c-8.33691 -0.128906 -14.8467 -6.74316 -14.8467 -15.0703v-670.459l-452.525 678.789c-2.94336 4.40332 -7.16895 6.66797 -12.4746 6.66797c-8.28125 0 -14.9971 -6.70996 -15 -14.998l-0.000976562 -720.071c0 -8.28418 6.71777 -15 15.001 -15
s15 6.65918 15 15.0713v670.459l452.521 -678.781c2.94238 -4.41211 7.17383 -6.67676 12.4785 -6.67676c8.28223 0 14.9951 6.70801 15.001 14.999v720.07c0 8.2832 -6.82715 15 -15.1533 15z" />
    <glyph glyph-name="O" unicode="O" horiz-adv-x="910" 
d="M455 740c-207.047 0 -375 -167.953 -375 -375s167.953 -375 375 -375s375 167.953 375 375s-167.953 375 -375 375zM455 710c190.6 0 345 -154.4 345 -345s-154.4 -345 -345 -345s-345 154.4 -345 345s154.4 345 345 345z" />
    <glyph glyph-name="P" unicode="P" horiz-adv-x="580" 
d="M95.001 740.071c-8.28223 0 -15 -6.7168 -15 -15v-441.804v-278.126c-0.115234 -8.23828 6.63281 -15.1416 15 -15.1416s15.1162 6.90332 15 15.1416v264.93h165c74.0625 0 131.195 29.5635 168.938 74.0459c37.6621 44.3877 56.0615 102.835 56.0615 160.954
s-18.3994 116.566 -56.0615 160.954c-37.7432 44.4824 -94.876 74.0459 -168.938 74.0459h-180zM110.001 710.071h165c65.9609 0 113.788 -25.416 146.062 -63.4541c32.332 -38.1055 48.9375 -89.6719 48.9375 -141.546s-16.6055 -103.44 -48.9375 -141.546
c-32.2744 -38.0381 -80.1016 -63.4541 -146.062 -63.4541h-165v410z" />
    <glyph glyph-name="Q" unicode="Q" horiz-adv-x="910" 
d="M455 740c-207.047 0 -375 -167.953 -375 -375s167.953 -375 375 -375c82.5244 0 159.24 27.1719 220.481 71.6699l128.229 -146.547c3.07227 -3.5127 6.62598 -5.12402 11.29 -5.12402c8.2832 0 15.001 6.71582 15.001 15c0 4.0498 -1.04004 6.83008 -3.71191 9.87891
l-127.255 145.436c80.291 68.9727 130.85 170.46 130.961 284.501c0 207.387 -167.942 375.186 -374.995 375.186zM455 710c190.6 0 345 -154.4 345 -345c0 -105.197 -47.4121 -199.267 -120.679 -262.16l-132.987 151.987
c-3.01172 3.53809 -6.46484 5.22656 -11.6318 5.22656c-8.55469 -0.288086 -14.75 -6.90234 -14.75 -15.001c0 -4.10254 1.1377 -7.02344 3.80566 -9.98535l131.919 -150.764c-57.1514 -40.8262 -125.771 -64.3037 -200.677 -64.3037c-190.6 0 -345 154.4 -345 345
s154.4 345 345 345z" />
    <glyph glyph-name="R" unicode="R" horiz-adv-x="625" 
d="M95.001 740.07c-8.28223 0 -15 -6.7168 -15 -15v-441.804v-278.126c-0.115234 -8.23926 6.63574 -15.1406 15 -15.1406c8.36523 0 15.1162 6.90137 15 15.1406v264.93h161.403c75.0459 -5.99121 127.878 -40.8789 166.988 -88.6797
c42.7588 -52.2607 67.1729 -120.134 76.7988 -177.88c1.20703 -8.13965 9.01758 -13.8848 17.291 -12.5049c8.27051 1.37891 13.7949 9.34277 12.2998 17.4355c-10.3125 61.8721 -35.9883 134.276 -83.1719 191.945c-28.3135 34.6045 -65.5703 64.168 -109.542 81.7002
c39.3828 13.3877 68.4336 34.4082 91.8711 62.0293c37.6621 44.3877 56.0615 102.835 56.0615 160.954s-18.3994 116.566 -56.0615 160.954c-37.7432 44.4824 -94.876 74.0459 -168.938 74.0459h-180zM110.001 710.07h165c65.9609 0 113.788 -25.416 146.062 -63.4541
c32.332 -38.1055 48.9375 -89.6719 48.9375 -141.546s-16.6055 -103.44 -48.9375 -141.546c-32.2744 -38.0381 -80.1016 -63.4541 -146.062 -63.4541h-165v410z" />
    <glyph glyph-name="S" unicode="S" horiz-adv-x="670" 
d="M335 740c-53.9609 0 -106.904 -21.3154 -146.87 -53.2871c-39.8379 -31.8691 -68.1299 -75.4209 -68.1299 -121.713c0 -74.2754 30.4785 -122.433 75.2363 -153.288c44.3789 -30.5938 101.098 -45.0078 156.125 -58.7646
c55.1328 -13.7832 108.763 -26.9746 146.903 -50.958c37.8369 -23.791 61.7354 -56.6328 61.7354 -116.989c0 -53.7432 -30.7949 -94.0781 -75.5098 -122.318c-44.6299 -28.1875 -102.396 -42.6816 -149.49 -42.6816c-56.707 0 -113.679 19.0869 -155.79 51.8408
c-42.1348 32.7715 -69.209 78.2939 -69.209 133.229c0 8.28418 -6.7168 15.001 -15.001 15.001c-8.28516 0 -15 -6.66113 -15 -15.0713c0 -65.2119 32.8926 -119.587 80.79 -156.841c47.8799 -37.2393 110.928 -58.1592 174.21 -58.1592
c52.8828 0 115.16 15.5186 165.51 47.3184c50.3252 31.7852 89.4902 81.4102 89.4902 147.682c0 69.7021 -31.0254 114.254 -75.7646 142.386c-44.334 27.876 -100.76 40.958 -155.597 54.667c-54.9404 13.7354 -108.281 28.0986 -146.375 54.3604
c-37.8066 26.0635 -62.2637 62.79 -62.2637 128.587c0 33.6699 21.7217 70.168 56.8701 98.2871c35.0195 28.0166 82.1094 46.7129 128.13 46.7129s93.1094 -18.6963 128.13 -46.7129c35.1621 -28.1299 56.8691 -64.5508 56.8691 -98.3574
c0 -8.28418 6.7168 -15.001 15.001 -15.001c8.28516 0 15 6.66113 15 15.0713c0 46.292 -28.292 89.8438 -68.1299 121.713c-39.9678 31.9736 -92.9092 53.2871 -146.87 53.2871z" />
    <glyph glyph-name="T" unicode="T" horiz-adv-x="745" 
d="M80 730.071v-10c0 -6.05273 5.70801 -10 10 -10h265v-704.93c-0.115234 -8.23828 6.63281 -15.1416 15 -15.1416s15.1152 6.90332 15 15.1416v704.93h264.93c8.23828 -0.115234 15.1416 6.63281 15.1416 15s-6.90332 15.1152 -15.1416 15h-559.93
c-6.05273 0 -10 -5.70801 -10 -10z" />
    <glyph glyph-name="U" unicode="U" horiz-adv-x="670" 
d="M94.9131 740.571c-8.45215 -0.12793 -14.9131 -6.74316 -14.9131 -15.0713v-482c0 -83.3789 31.8779 -147.55 80.0693 -190.118c48.1094 -42.4951 111.674 -63.3818 174.931 -63.3818c63.2578 0 126.821 20.8857 174.931 63.3818
c48.1914 42.5684 80.0693 106.739 80.0693 190.118l0.000976562 482.07c0 8.28418 -6.7168 15.001 -15.001 15.001c-8.28516 0 -15 -6.66113 -15 -15.0713v-482c0 -75.6406 -28.1064 -130.687 -69.9307 -167.632c-41.8867 -37 -98.3311 -55.8682 -155.069 -55.8682
s-113.183 18.8682 -155.069 55.8682c-41.8242 36.9453 -69.9307 91.9912 -69.9307 167.632l0.000976562 482.07c0 8.28418 -6.78027 15.001 -15.0879 15.001z" />
    <glyph glyph-name="V" unicode="V" 
d="M95.1436 740.066c-8.54199 0 -15.1436 -6.7168 -15.1436 -15c0 -2.31152 0.248047 -3.53418 1.07129 -5.56836l279.976 -719.936c2.30566 -5.92871 7.62012 -9.5625 13.9795 -9.5625s11.6738 3.63379 13.9805 9.56348l279.98 719.95
c0.823242 2.05273 1.05859 3.23438 1.05859 5.53516c0 8.28418 -6.71777 15 -15.001 15c-6.40918 0 -11.7871 -3.74805 -14.0176 -9.65918l-266.001 -684.005l-265.994 683.985c-2.17676 5.84473 -7.51855 9.60449 -13.8887 9.69629z" />
    <glyph glyph-name="W" unicode="W" horiz-adv-x="910" 
d="M814.977 740.068c-7.74219 -0.0332031 -14.1445 -5.90527 -14.8799 -13.4824l-74.6816 -672.127l-257.198 477.655c-2.72949 5.06348 -7.44824 7.88379 -13.2051 7.88379c-5.75488 0 -10.4775 -2.81738 -13.207 -7.8877l-257.196 -477.651l-74.6777 672.093
c-0.683594 7.5791 -7.13379 13.5518 -14.9307 13.5518c-8.28613 0 -15 -6.71973 -15 -15.001c0 -1.49121 0.21875 -2.79199 0.21875 -2.79199l79.8857 -718.973c0.851562 -7.64062 7.22656 -13.3379 14.9082 -13.3379c5.75488 0 10.4688 2.81152 13.2061 7.88574
l266.793 495.473l266.796 -495.479c2.73145 -5.06348 7.44922 -7.87988 13.2031 -7.87988c7.68457 0 14.0537 5.69434 14.9082 13.3408l80 720c0.121094 1.08887 0.100586 2.1084 0.100586 2.1084c0 7.59961 -6.74805 14.6191 -15.043 14.6191z" />
    <glyph glyph-name="X" unicode="X" 
d="M95.2012 740.057c-8.64355 0 -15.2012 -6.71582 -15.2012 -15c0 -3.82422 0.93457 -6.43359 3.24805 -9.32227l272.792 -350.733l-272.835 -350.789c-2.32129 -2.98242 -3.16113 -5.43848 -3.16113 -9.21191c0 -8.28418 6.71777 -15 15.001 -15
c4.93848 0 8.80762 1.88965 11.8408 5.79102l268.159 344.777l268.161 -344.779c3.03223 -3.89746 6.89551 -5.78906 11.8389 -5.78906c8.28418 0 15.001 6.7168 15.001 15.001c0 3.7832 -0.842773 6.22559 -3.16016 9.20996l-272.836 350.79l272.792 350.733
c2.31348 2.88867 3.24805 5.49805 3.24805 9.32227c0 8.03418 -6.28809 14.6152 -14.3125 14.9844c-0.418945 0.0195312 -0.826172 0.015625 -0.826172 0.015625c-4.7627 0 -8.85449 -2.0166 -11.7891 -5.90039l-268.117 -344.723l-268.116 344.723
c-2.87988 3.80957 -6.79492 5.78125 -11.7275 5.90039z" />
    <glyph glyph-name="Y" unicode="Y" 
d="M94.7158 740.153c-8.59375 -0.332031 -14.7158 -6.92578 -14.7158 -15.001c0 -3.1709 0.574219 -5.14941 2.13867 -7.71973l277.909 -476.416l-0.000976562 -236.016c0 -8.28418 6.7168 -15.001 15.001 -15.001c8.28516 0 15 6.66113 15 15.0713v235.945l277.922 476.438
c1.56641 2.60254 2.11328 4.52344 2.11328 7.67773c0 8.20996 -6.47852 14.8887 -14.9404 15.001c-5.75391 0 -10.3623 -2.73633 -13.0869 -7.56445l-267.008 -457.729l-266.997 457.709c-2.69043 4.81543 -7.56934 7.60449 -13.335 7.60449z" />
    <glyph glyph-name="Z" unicode="Z" horiz-adv-x="670" 
d="M95.0361 740c-8.29395 0 -15.0361 -6.71582 -15.0361 -15c0 -8.28516 6.66113 -15 15.0713 -15h451.973l-464.457 -696.685c-1.88867 -2.83789 -2.51465 -4.90137 -2.51465 -8.31445c0 -8.28125 6.70996 -14.998 14.999 -15.001l480.07 -0.000976562
c8.28418 0 15.001 6.7168 15.001 15.001c0 8.28516 -6.66113 15 -15.0713 15h-451.973l464.457 696.685c1.88867 2.83789 2.51465 4.90137 2.51465 8.31445c0 8.28125 -6.70996 14.998 -14.999 15.001h-480.035z" />
    <glyph glyph-name="bracketleft" unicode="[" horiz-adv-x="310" 
d="M95 821c-8.2832 0 -15 -6.7168 -15 -15v-880c0 -8.2832 6.7168 -15 15 -15l120.07 -0.000976562c8.28418 0 15.001 6.7168 15.001 15.001c0 8.28516 -6.66113 15 -15.0713 15h-105v850l105.07 -0.000976562c8.28418 0 15.001 6.7168 15.001 15.001
c0 8.28516 -6.66113 15 -15.0713 15h-120z" />
    <glyph glyph-name="backslash" unicode="\" horiz-adv-x="470" 
d="M95.1445 740.116c-8.54102 0 -15.1445 -6.71582 -15.1445 -15c0 -2.30469 0.25 -3.55176 1.07715 -5.58008l279.95 -719.873c2.22656 -5.91406 7.6123 -9.66309 14.0186 -9.66309c8.28418 0 15.001 6.7168 15.001 15.001c0 2.2793 -0.256836 3.53125 -1.03906 5.48535
l-279.976 719.937c-2.17969 5.8418 -7.51562 9.60059 -13.8877 9.69336z" />
    <glyph glyph-name="bracketright" unicode="]" horiz-adv-x="310" 
d="M215.071 821c8.2832 0 15 -6.7168 15 -15v-880c0 -8.2832 -6.7168 -15 -15 -15l-120.07 -0.000976562c-8.28418 0 -15.001 6.7168 -15.001 15.001c0 8.28516 6.66113 15 15.0713 15h105v850l-105.07 -0.000976562c-8.28418 0 -15.001 6.7168 -15.001 15.001
c0 8.28516 6.66113 15 15.0713 15h120z" />
    <glyph glyph-name="asciicircum" unicode="^" horiz-adv-x="510" 
d="M255.019 740.004c-4.87012 0 -8.64355 -1.84082 -11.6748 -5.62988l-159.945 -199.932c-2.39453 -2.88672 -3.39844 -5.60449 -3.39844 -9.50879c0 -8.28418 6.71777 -15 15.001 -15c4.94922 0 8.89062 1.96484 11.8242 5.77051l148.231 185.288l148.231 -185.288
c2.93359 -3.80566 6.875 -5.77051 11.8242 -5.77051c8.2832 0 15.001 6.71582 15.001 15c0 3.9043 -1.00391 6.62207 -3.39844 9.50879l-159.946 199.933c-3.04492 3.80566 -6.86035 5.62891 -11.75 5.62891z" />
    <glyph glyph-name="underscore" unicode="_" horiz-adv-x="630" 
d="M95.0352 20c-8.29395 0 -15.0352 -6.7168 -15.0352 -15s6.65918 -15 15.0713 -15h440.07c8.2832 0 15 6.7168 15 15c0 8.28418 -6.65918 15 -15.0703 15h-440.036z" />
    <glyph glyph-name="grave" unicode="`" horiz-adv-x="190" 
d="M94.9141 740.001c-8.45215 -0.12793 -14.9131 -6.74316 -14.9131 -15.0713l-0.000976562 -120.07c0 -8.28418 6.7168 -15.001 15.001 -15.001c8.28516 0 15 6.66113 15 15.0713l0.000976562 120.07c0 8.28418 -6.78027 15.001 -15.0879 15.001z" />
    <glyph glyph-name="a" unicode="a" 
d="M375.015 740.05c-6.35742 0 -11.668 -3.63379 -13.9756 -9.56348l-279.963 -719.907c-0.862305 -2.15332 -1.07617 -3.25 -1.07617 -5.57812c0 -8.2832 6.71582 -15.001 15 -15.001c6.4082 0 11.79 3.75 14.0186 9.66113l89.5703 230.326h352.86l89.5713 -230.326
c2.22852 -5.91113 7.6084 -9.66113 14.0176 -9.66113c8.28418 0 15.001 6.7168 15.001 15.001c0 2.30078 -0.235352 3.48242 -1.05859 5.53516l-279.981 719.951c-2.30566 5.92871 -7.62402 9.5625 -13.9844 9.5625zM375.02 683.665l164.716 -423.553h-329.432z" />
    <glyph glyph-name="b" unicode="b" horiz-adv-x="625" 
d="M95 740c-8.2832 0 -15 -6.7168 -15 -15v-720c0 -8.2832 6.7168 -15 15 -15h180c175.078 0 270 94.6064 270 195c0 78.167 -58.4111 152.943 -165.215 181.99c89.0098 31.9834 135.215 104.486 135.215 178.01c0 99.0107 -83.6533 195 -240 195h-180zM110 710h165
c143.689 0 210 -83.9736 210 -165c0 -81.0273 -66.3105 -165 -210 -165h-165v330zM110 350h165c164.965 0 240 -85.3877 240 -165c0 -79.6133 -75.0352 -165 -240 -165h-165v330z" />
    <glyph glyph-name="c" unicode="c" horiz-adv-x="790" 
d="M449.263 739.747c-99.0312 -1.53613 -197.178 -42.1084 -269.438 -120.143c-136.038 -146.908 -132.628 -374.918 7.74219 -517.693c67.5918 -68.749 159.07 -108.827 255.433 -111.906c96.3457 -3.07812 190.252 31.1123 262.014 95.3359
c3.43848 3.00977 5.07812 6.59766 5.07812 11.25c0 8.2832 -6.7168 15 -15 15c-4.15039 0 -7.09375 -1.15918 -10.0859 -3.89648c-66.0166 -59.0801 -152.409 -90.5361 -241.049 -87.7031c-88.6562 2.83301 -172.812 39.7012 -234.997 102.953
c-129.211 131.425 -132.346 341.047 -7.12207 476.277c125.223 135.229 334.524 148.141 475.355 29.4941c2.9248 -2.55078 5.77246 -3.63867 9.79492 -3.63867c8.2832 0 15.001 6.71582 15.001 15c0 4.8252 -1.83398 8.62793 -5.46973 11.584
c-71.627 60.3428 -159.899 89.4404 -247.256 88.0859z" />
    <glyph glyph-name="d" unicode="d" horiz-adv-x="734" 
d="M95 740c-8.2832 0 -15 -6.7168 -15 -15v-720c0 -8.2832 6.7168 -15 15 -15h177c126.259 0 222.619 46.7646 286.733 117.421c64.0508 70.5859 95.7666 164.227 95.7666 257.579s-31.7158 186.993 -95.7666 257.579c-64.1143 70.6562 -160.475 117.421 -286.733 117.421
h-177zM110 710h162c118.753 0 206.123 -43.2275 264.517 -107.579c58.4473 -64.4121 87.9834 -150.775 87.9834 -237.421s-29.5361 -173.009 -87.9834 -237.421c-58.3945 -64.3525 -145.765 -107.579 -264.517 -107.579h-162v690z" />
    <glyph glyph-name="e" unicode="e" horiz-adv-x="550" 
d="M95 740c-8.2832 0 -15 -6.7168 -15 -15v-360.803v-359.197c0 -8.2832 6.7168 -15 15 -15l360.07 -0.000976562c8.28418 0 15.001 6.7168 15.001 15.001c0 8.28516 -6.66113 15 -15.0713 15h-345v330l305.07 -0.000976562c8.28418 0 15.001 6.7168 15.001 15.001
c0 8.28516 -6.66113 15 -15.0713 15h-305v330l345.07 -0.000976562c8.28418 0 15.001 6.7168 15.001 15.001c0 8.28516 -6.66113 15 -15.0713 15h-360z" />
    <glyph glyph-name="f" unicode="f" horiz-adv-x="550" 
d="M95.001 740.071c-8.2832 0 -15 -6.7168 -15 -15v-360.803l-0.000976562 -359.268c0 -8.28418 6.7168 -15.001 15.001 -15.001c8.28516 0 15 6.66113 15 15.0713v345h305.07c8.2832 0 15.001 6.71582 15.001 15c0 8.28516 -6.66113 15 -15.0713 15h-305v330h345.07
c8.2832 0 15.001 6.71582 15.001 15c0 8.28516 -6.66113 15 -15.0713 15h-360z" />
    <glyph glyph-name="g" unicode="g" horiz-adv-x="910" 
d="M456.887 740.781c-2.75195 0 -5.5127 -0.000976562 -8.26953 -0.0478516c-77.8105 -1.31738 -155.449 -26.791 -220.916 -76.6885c-139.695 -106.474 -186.759 -296.689 -113.258 -456.191c73.502 -159.504 247.941 -246.647 419.621 -209.629
c171.708 37.0244 294.708 189.433 295.946 364.8l0.0859375 2.66699c-0.0371094 8.41797 -6.68359 15.2256 -15.1455 15.1074h-339.859c-9.03809 0.12793 -14.7598 -7.46875 -15.1191 -14.1611c-0.380859 -7.08789 5.1543 -15.9795 15.1191 -15.8389h324.587
c-7.11914 -157.262 -118.233 -289.105 -271.938 -322.248c-157.999 -34.0684 -318.406 46.0645 -386.052 192.859s-24.3506 320.798 104.198 418.775c128.545 97.9736 307.864 93.5498 431.345 -10.4785c6.7998 -5.94824 16.1221 -3.83789 20.7188 1.05762
c4.86719 5.18457 6.35059 15.6045 -1.38965 21.8838c-68.9746 58.1084 -154.277 87.7021 -239.675 88.1328z" />
    <glyph glyph-name="h" unicode="h" horiz-adv-x="630" 
d="M94.9141 740.143c-8.45215 -0.12793 -14.9131 -6.74316 -14.9131 -15.0713v-360.803l-0.000976562 -359.268c0 -8.28418 6.7168 -15.001 15.001 -15.001c8.28516 0 15 6.66113 15 15.0713v345h410l-0.000976562 -345.07c0 -8.28418 6.7168 -15.001 15.001 -15.001
c8.28516 0 15 6.66113 15 15.0713v360.803l0.000976562 359.268c0 8.28418 -6.64746 15.001 -15.0879 15.001c-8.45215 -0.12793 -14.9131 -6.74316 -14.9131 -15.0713v-345h-410l0.000976562 345.07c0 8.28418 -6.78027 15.001 -15.0879 15.001z" />
    <glyph glyph-name="i" unicode="i" horiz-adv-x="430" 
d="M85.0674 730v-10c0 -6.05273 5.70801 -10 10 -10h105v-690h-104.93c-9.03809 0.12793 -14.7598 -7.46875 -15.1191 -14.1611c-0.380859 -7.08789 5.1543 -15.9795 15.1191 -15.8389h239.859c8.2373 -0.115234 15.1416 6.63281 15.1416 15s-6.9043 15.1152 -15.1416 15
h-104.93v690h104.93c8.2373 -0.115234 15.1416 6.63281 15.1416 15s-6.9043 15.1152 -15.1416 15h-239.93c-6.05273 0 -10 -5.70801 -10 -10z" />
    <glyph glyph-name="j" unicode="j" horiz-adv-x="550" 
d="M454.599 737.534l-199.669 -0.0351562c-8.28418 0 -15.001 -6.7168 -15.001 -15.001c0 -8.28516 6.66113 -15 15.0713 -15h185v-545c0 -45.3096 -19.833 -79.3682 -50.5264 -103.524c-30.7334 -24.1885 -72.751 -37.8115 -114.89 -38.9814
c-42.1562 -1.1709 -83.8057 10.1084 -114.193 33.4619c-30.3047 23.29 -50.3896 58.2129 -50.3896 109.114c0 8.28418 -6.7168 15.001 -15.001 15.001c-8.28516 0 -15 -6.66113 -15 -15.0713c0 -59.2754 24.8643 -104.207 62.1094 -132.831
c37.1006 -28.5127 85.4746 -40.9922 133.307 -39.6631c47.8467 1.3291 95.8564 16.4668 132.61 45.3936c36.8398 28.9951 61.9736 72.3789 61.9736 127.101c0 186.902 0.0664062 371.748 0.0664062 559.997c0 4.43848 -1.1084 7.34961 -4.73047 10.9414
c-2.85352 2.77637 -6.33496 4.09766 -10.7373 4.09766z" />
    <glyph glyph-name="k" unicode="k" horiz-adv-x="630" 
d="M94.9141 740.143c-8.45215 -0.12793 -14.9131 -6.74316 -14.9131 -15.0713l-0.000976562 -720.07c0 -8.28418 6.7168 -15.001 15.001 -15.001c8.28516 0 15 6.66113 15 15.0713v328.347l415.421 -339.889c2.88086 -2.45996 5.69043 -3.52539 9.66016 -3.52539
c8.28418 0 15.001 6.7168 15.001 15.001c0 4.91016 -1.93457 8.81738 -5.66406 11.7412l-427.092 349.438l348.229 348.23c3.07812 2.99121 4.49414 6.30469 4.49414 10.707c0 8.2832 -6.53223 15 -15.2305 15c-4.7041 -0.139648 -7.53516 -1.46875 -10.4756 -4.49512
l-334.344 -334.343l0.000976562 323.857c0 8.28418 -6.78027 15.001 -15.0879 15.001z" />
    <glyph glyph-name="l" unicode="l" horiz-adv-x="550" 
d="M94.9131 740.071c-8.45215 -0.12793 -14.9131 -6.74316 -14.9131 -15.0713v-720c0 -8.2832 6.7168 -15 15 -15l360.07 -0.000976562c8.28418 0 15.001 6.7168 15.001 15.001c0 8.28516 -6.66113 15 -15.0713 15h-345l0.000976562 705.07
c0 8.28418 -6.78027 15.001 -15.0879 15.001z" />
    <glyph glyph-name="m" unicode="m" horiz-adv-x="830" 
d="M94.8799 740.07c-8.44141 -0.149414 -14.876 -6.80859 -14.8789 -14.999l-0.000976562 -720.07c0 -8.28418 6.7168 -15.001 15.001 -15.001c8.28516 0 15 6.66113 15 15.0713v670.459l292.521 -438.781c2.94434 -4.41406 7.17578 -6.67676 12.4795 -6.67676
s9.53418 2.26074 12.4805 6.67871l292.52 438.779l-0.000976562 -670.529c0 -8.28418 6.7168 -15.001 15.001 -15.001c8.28516 0 15 6.66113 15 15.0713v720.004c-0.00292969 8.28027 -6.71777 14.9951 -15.001 14.9951c-5.30469 0 -9.53516 -2.26367 -12.4795 -6.67871
l-307.52 -461.279l-307.521 461.281c-2.94336 4.41309 -7.25586 6.67676 -12.6006 6.67676z" />
    <glyph glyph-name="n" unicode="n" horiz-adv-x="670" 
d="M574.848 740.069c-8.33691 -0.128906 -14.8467 -6.74316 -14.8467 -15.0703v-670.459l-452.525 678.789c-2.94336 4.40332 -7.16895 6.66797 -12.4746 6.66797c-8.28125 0 -14.9971 -6.70996 -15 -14.998l-0.000976562 -720.071c0 -8.28418 6.71777 -15 15.001 -15
s15 6.65918 15 15.0713v670.459l452.521 -678.781c2.94238 -4.41211 7.17383 -6.67676 12.4785 -6.67676c8.28223 0 14.9951 6.70801 15.001 14.999v720.07c0 8.2832 -6.82715 15 -15.1533 15z" />
    <glyph glyph-name="o" unicode="o" horiz-adv-x="910" 
d="M455 740c-207.047 0 -375 -167.953 -375 -375s167.953 -375 375 -375s375 167.953 375 375s-167.953 375 -375 375zM455 710c190.6 0 345 -154.4 345 -345s-154.4 -345 -345 -345s-345 154.4 -345 345s154.4 345 345 345z" />
    <glyph glyph-name="p" unicode="p" horiz-adv-x="580" 
d="M95.001 740.071c-8.28223 0 -15 -6.7168 -15 -15v-441.804v-278.126c-0.115234 -8.23828 6.63281 -15.1416 15 -15.1416s15.1162 6.90332 15 15.1416v264.93h165c74.0625 0 131.195 29.5635 168.938 74.0459c37.6621 44.3877 56.0615 102.835 56.0615 160.954
s-18.3994 116.566 -56.0615 160.954c-37.7432 44.4824 -94.876 74.0459 -168.938 74.0459h-180zM110.001 710.071h165c65.9609 0 113.788 -25.416 146.062 -63.4541c32.332 -38.1055 48.9375 -89.6719 48.9375 -141.546s-16.6055 -103.44 -48.9375 -141.546
c-32.2744 -38.0381 -80.1016 -63.4541 -146.062 -63.4541h-165v410z" />
    <glyph glyph-name="q" unicode="q" horiz-adv-x="910" 
d="M455 740c-207.047 0 -375 -167.953 -375 -375s167.953 -375 375 -375c82.5244 0 159.24 27.1719 220.481 71.6699l128.229 -146.547c3.07227 -3.5127 6.62598 -5.12402 11.29 -5.12402c8.2832 0 15.001 6.71582 15.001 15c0 4.0498 -1.04004 6.83008 -3.71191 9.87891
l-127.255 145.436c80.291 68.9727 130.85 170.46 130.961 284.501c0 207.387 -167.942 375.186 -374.995 375.186zM455 710c190.6 0 345 -154.4 345 -345c0 -105.197 -47.4121 -199.267 -120.679 -262.16l-132.987 151.987
c-3.01172 3.53809 -6.46484 5.22656 -11.6318 5.22656c-8.55469 -0.288086 -14.75 -6.90234 -14.75 -15.001c0 -4.10254 1.1377 -7.02344 3.80566 -9.98535l131.919 -150.764c-57.1514 -40.8262 -125.771 -64.3037 -200.677 -64.3037c-190.6 0 -345 154.4 -345 345
s154.4 345 345 345z" />
    <glyph glyph-name="r" unicode="r" horiz-adv-x="625" 
d="M95.001 740.07c-8.28223 0 -15 -6.7168 -15 -15v-441.804v-278.126c-0.115234 -8.23926 6.63574 -15.1406 15 -15.1406c8.36523 0 15.1162 6.90137 15 15.1406v264.93h161.403c75.0459 -5.99121 127.878 -40.8789 166.988 -88.6797
c42.7588 -52.2607 67.1729 -120.134 76.7988 -177.88c1.20703 -8.13965 9.01758 -13.8848 17.291 -12.5049c8.27051 1.37891 13.7949 9.34277 12.2998 17.4355c-10.3125 61.8721 -35.9883 134.276 -83.1719 191.945c-28.3135 34.6045 -65.5703 64.168 -109.542 81.7002
c39.3828 13.3877 68.4336 34.4082 91.8711 62.0293c37.6621 44.3877 56.0615 102.835 56.0615 160.954s-18.3994 116.566 -56.0615 160.954c-37.7432 44.4824 -94.876 74.0459 -168.938 74.0459h-180zM110.001 710.07h165c65.9609 0 113.788 -25.416 146.062 -63.4541
c32.332 -38.1055 48.9375 -89.6719 48.9375 -141.546s-16.6055 -103.44 -48.9375 -141.546c-32.2744 -38.0381 -80.1016 -63.4541 -146.062 -63.4541h-165v410z" />
    <glyph glyph-name="s" unicode="s" horiz-adv-x="670" 
d="M335 740c-53.9609 0 -106.904 -21.3154 -146.87 -53.2871c-39.8379 -31.8691 -68.1299 -75.4209 -68.1299 -121.713c0 -74.2754 30.4785 -122.433 75.2363 -153.288c44.3789 -30.5938 101.098 -45.0078 156.125 -58.7646
c55.1328 -13.7832 108.763 -26.9746 146.903 -50.958c37.8369 -23.791 61.7354 -56.6328 61.7354 -116.989c0 -53.7432 -30.7949 -94.0781 -75.5098 -122.318c-44.6299 -28.1875 -102.396 -42.6816 -149.49 -42.6816c-56.707 0 -113.679 19.0869 -155.79 51.8408
c-42.1348 32.7715 -69.209 78.2939 -69.209 133.229c0 8.28418 -6.7168 15.001 -15.001 15.001c-8.28516 0 -15 -6.66113 -15 -15.0713c0 -65.2119 32.8926 -119.587 80.79 -156.841c47.8799 -37.2393 110.928 -58.1592 174.21 -58.1592
c52.8828 0 115.16 15.5186 165.51 47.3184c50.3252 31.7852 89.4902 81.4102 89.4902 147.682c0 69.7021 -31.0254 114.254 -75.7646 142.386c-44.334 27.876 -100.76 40.958 -155.597 54.667c-54.9404 13.7354 -108.281 28.0986 -146.375 54.3604
c-37.8066 26.0635 -62.2637 62.79 -62.2637 128.587c0 33.6699 21.7217 70.168 56.8701 98.2871c35.0195 28.0166 82.1094 46.7129 128.13 46.7129s93.1094 -18.6963 128.13 -46.7129c35.1621 -28.1299 56.8691 -64.5508 56.8691 -98.3574
c0 -8.28418 6.7168 -15.001 15.001 -15.001c8.28516 0 15 6.66113 15 15.0713c0 46.292 -28.292 89.8438 -68.1299 121.713c-39.9678 31.9736 -92.9092 53.2871 -146.87 53.2871z" />
    <glyph glyph-name="t" unicode="t" horiz-adv-x="745" 
d="M80 730.071v-10c0 -6.05273 5.70801 -10 10 -10h265v-704.93c-0.115234 -8.23828 6.63281 -15.1416 15 -15.1416s15.1152 6.90332 15 15.1416v704.93h264.93c8.23828 -0.115234 15.1416 6.63281 15.1416 15s-6.90332 15.1152 -15.1416 15h-559.93
c-6.05273 0 -10 -5.70801 -10 -10z" />
    <glyph glyph-name="u" unicode="u" horiz-adv-x="670" 
d="M94.9131 740.571c-8.45215 -0.12793 -14.9131 -6.74316 -14.9131 -15.0713v-482c0 -83.3789 31.8779 -147.55 80.0693 -190.118c48.1094 -42.4951 111.674 -63.3818 174.931 -63.3818c63.2578 0 126.821 20.8857 174.931 63.3818
c48.1914 42.5684 80.0693 106.739 80.0693 190.118l0.000976562 482.07c0 8.28418 -6.7168 15.001 -15.001 15.001c-8.28516 0 -15 -6.66113 -15 -15.0713v-482c0 -75.6406 -28.1064 -130.687 -69.9307 -167.632c-41.8867 -37 -98.3311 -55.8682 -155.069 -55.8682
s-113.183 18.8682 -155.069 55.8682c-41.8242 36.9453 -69.9307 91.9912 -69.9307 167.632l0.000976562 482.07c0 8.28418 -6.78027 15.001 -15.0879 15.001z" />
    <glyph glyph-name="v" unicode="v" 
d="M95.1436 740.066c-8.54199 0 -15.1436 -6.7168 -15.1436 -15c0 -2.31152 0.248047 -3.53418 1.07129 -5.56836l279.976 -719.936c2.30566 -5.92871 7.62012 -9.5625 13.9795 -9.5625s11.6738 3.63379 13.9805 9.56348l279.98 719.95
c0.823242 2.05273 1.05859 3.23438 1.05859 5.53516c0 8.28418 -6.71777 15 -15.001 15c-6.40918 0 -11.7871 -3.74805 -14.0176 -9.65918l-266.001 -684.005l-265.994 683.985c-2.17676 5.84473 -7.51855 9.60449 -13.8887 9.69629z" />
    <glyph glyph-name="w" unicode="w" horiz-adv-x="910" 
d="M814.977 740.068c-7.74219 -0.0332031 -14.1445 -5.90527 -14.8799 -13.4824l-74.6816 -672.127l-257.198 477.655c-2.72949 5.06348 -7.44824 7.88379 -13.2051 7.88379c-5.75488 0 -10.4775 -2.81738 -13.207 -7.8877l-257.196 -477.651l-74.6777 672.093
c-0.683594 7.5791 -7.13379 13.5518 -14.9307 13.5518c-8.28613 0 -15 -6.71973 -15 -15.001c0 -1.49121 0.21875 -2.79199 0.21875 -2.79199l79.8857 -718.973c0.851562 -7.64062 7.22656 -13.3379 14.9082 -13.3379c5.75488 0 10.4688 2.81152 13.2061 7.88574
l266.793 495.473l266.796 -495.479c2.73145 -5.06348 7.44922 -7.87988 13.2031 -7.87988c7.68457 0 14.0537 5.69434 14.9082 13.3408l80 720c0.121094 1.08887 0.100586 2.1084 0.100586 2.1084c0 7.59961 -6.74805 14.6191 -15.043 14.6191z" />
    <glyph glyph-name="x" unicode="x" 
d="M95.2012 740.057c-8.64355 0 -15.2012 -6.71582 -15.2012 -15c0 -3.82422 0.93457 -6.43359 3.24805 -9.32227l272.792 -350.733l-272.835 -350.789c-2.32129 -2.98242 -3.16113 -5.43848 -3.16113 -9.21191c0 -8.28418 6.71777 -15 15.001 -15
c4.93848 0 8.80762 1.88965 11.8408 5.79102l268.159 344.777l268.161 -344.779c3.03223 -3.89746 6.89551 -5.78906 11.8389 -5.78906c8.28418 0 15.001 6.7168 15.001 15.001c0 3.7832 -0.842773 6.22559 -3.16016 9.20996l-272.836 350.79l272.792 350.733
c2.31348 2.88867 3.24805 5.49805 3.24805 9.32227c0 8.03418 -6.28809 14.6152 -14.3125 14.9844c-0.418945 0.0195312 -0.826172 0.015625 -0.826172 0.015625c-4.7627 0 -8.85449 -2.0166 -11.7891 -5.90039l-268.117 -344.723l-268.116 344.723
c-2.87988 3.80957 -6.79492 5.78125 -11.7275 5.90039z" />
    <glyph glyph-name="y" unicode="y" 
d="M94.7158 740.153c-8.59375 -0.332031 -14.7158 -6.92578 -14.7158 -15.001c0 -3.1709 0.574219 -5.14941 2.13867 -7.71973l277.909 -476.416l-0.000976562 -236.016c0 -8.28418 6.7168 -15.001 15.001 -15.001c8.28516 0 15 6.66113 15 15.0713v235.945l277.922 476.438
c1.56641 2.60254 2.11328 4.52344 2.11328 7.67773c0 8.20996 -6.47852 14.8887 -14.9404 15.001c-5.75391 0 -10.3623 -2.73633 -13.0869 -7.56445l-267.008 -457.729l-266.997 457.709c-2.69043 4.81543 -7.56934 7.60449 -13.335 7.60449z" />
    <glyph glyph-name="z" unicode="z" horiz-adv-x="670" 
d="M95.0361 740c-8.29395 0 -15.0361 -6.71582 -15.0361 -15c0 -8.28516 6.66113 -15 15.0713 -15h451.973l-464.457 -696.685c-1.88867 -2.83789 -2.51465 -4.90137 -2.51465 -8.31445c0 -8.28125 6.70996 -14.998 14.999 -15.001l480.07 -0.000976562
c8.28418 0 15.001 6.7168 15.001 15.001c0 8.28516 -6.66113 15 -15.0713 15h-451.973l464.457 696.685c1.88867 2.83789 2.51465 4.90137 2.51465 8.31445c0 8.28125 -6.70996 14.998 -14.999 15.001h-480.035z" />
    <glyph glyph-name="braceleft" unicode="{" horiz-adv-x="390" 
d="M292.059 823.606c-54.9443 -10.9883 -89.1924 -45.251 -109.391 -88.3408c-20.1123 -42.9082 -27.5479 -94.4258 -32.5928 -144.874c-5.0459 -50.458 -7.64941 -100.209 -15.9785 -138.288c-4.16309 -19.0244 -9.76855 -34.9775 -16.9727 -46.5049
c-7.22852 -11.5645 -15.5205 -18.6865 -26.8682 -22.4688c-6.26758 -2.08984 -10.2559 -7.62988 -10.2559 -14.2305c0 -5.30273 2.26367 -9.53906 6.67969 -12.4814c24.998 -16.666 38.9385 -47.0273 47.3867 -87.4629c8.39551 -40.1787 10.9609 -88.6064 16.0156 -136.627
c5.05176 -47.9854 12.5039 -95.9434 32.7969 -135.853c20.4043 -40.1279 54.8838 -71.4258 109.077 -82.2646c1.125 -0.25 1.83496 -0.333008 3.14551 -0.333008c8.2832 0 15.001 6.71582 15.001 15c0 7.33691 -5.21875 13.4912 -12.2627 14.749
c-45.4824 9.09668 -71.1074 32.791 -88.2188 66.4443c-17.1943 33.8164 -24.7578 78.4092 -29.7031 125.397c-4.94336 46.9648 -7.38281 96.0654 -16.4844 139.623c-7.37305 35.2871 -19.8779 68.0156 -42.002 91.0879c9.14844 7.0127 15.3906 14.332 21.1328 23.5186
c9.96777 15.9492 16.2568 35.0459 20.8389 55.9951c9.16699 41.9043 11.5693 92.1885 16.5215 141.712c4.95215 49.5264 12.5303 98.0557 29.9072 135.126c17.332 36.9736 43.0547 62.6484 88.0469 71.6465c7.06348 1.31934 12.1846 7.4375 12.1846 14.7344
c0 8.2832 -6.7168 15 -15 15c-1.38379 0 0.589844 0.263672 -3.00488 -0.305664z" />
    <glyph glyph-name="bar" unicode="|" horiz-adv-x="190" 
d="M94.9141 820.071c-8.45215 -0.12793 -14.9131 -6.74316 -14.9131 -15.0713l-0.000976562 -880.07c0 -8.28418 6.7168 -15.001 15.001 -15.001c8.28516 0 15 6.66113 15 15.0713l0.000976562 880.07c0 8.28418 -6.78027 15.001 -15.0879 15.001z" />
    <glyph glyph-name="braceright" unicode="}" horiz-adv-x="390" 
d="M98.0439 823.606c54.9443 -10.9883 89.1924 -45.251 109.391 -88.3408c20.1123 -42.9082 27.5479 -94.4258 32.5928 -144.874c5.0459 -50.458 7.64941 -100.209 15.9785 -138.288c4.16309 -19.0244 9.76855 -34.9775 16.9727 -46.5049
c7.22852 -11.5645 15.5205 -18.6865 26.8682 -22.4688c6.26758 -2.08984 10.2559 -7.62988 10.2559 -14.2305c0 -5.30273 -2.26367 -9.53906 -6.67969 -12.4814c-24.998 -16.666 -38.9385 -47.0273 -47.3867 -87.4629
c-8.39551 -40.1787 -10.9609 -88.6064 -16.0156 -136.627c-5.05176 -47.9854 -12.5039 -95.9434 -32.7969 -135.853c-20.4043 -40.1279 -54.8838 -71.4258 -109.077 -82.2646c-1.125 -0.25 -1.83496 -0.333008 -3.14551 -0.333008c-8.2832 0 -15.001 6.71582 -15.001 15
c0 7.33691 5.21875 13.4912 12.2627 14.749c45.4824 9.09668 71.1074 32.791 88.2188 66.4443c17.1943 33.8164 24.7578 78.4092 29.7031 125.397c4.94336 46.9648 7.38281 96.0654 16.4844 139.623c7.37305 35.2871 19.8779 68.0156 42.002 91.0879
c-9.14844 7.0127 -15.3906 14.332 -21.1328 23.5186c-9.96777 15.9492 -16.2568 35.0459 -20.8389 55.9951c-9.16699 41.9043 -11.5693 92.1885 -16.5215 141.712c-4.95215 49.5264 -12.5303 98.0557 -29.9072 135.126c-17.332 36.9736 -43.0547 62.6484 -88.0469 71.6465
c-7.06348 1.31934 -12.1846 7.4375 -12.1846 14.7344c0 8.2832 6.7168 15 15 15c1.38379 0 -0.589844 0.263672 3.00488 -0.305664z" />
    <glyph glyph-name="asciitilde" unicode="~" horiz-adv-x="710" 
d="M614.887 424.262c-5.60156 -0.150391 -9.56543 -2.47266 -12.3623 -6.7959c-59.0889 -88.6338 -102.876 -113.263 -136.23 -113.263c-33.8242 0 -66.1113 26.0664 -101.488 56.3896c-34.5732 29.6338 -72.4424 63.6104 -121.012 63.6104
c-49.0771 0 -100.421 -35.4658 -161.186 -126.611c-1.89551 -2.74512 -2.6084 -4.99609 -2.6084 -8.4541c0 -8.28418 6.71777 -15 15.001 -15c5.36816 0 9.72852 2.4043 12.5674 6.81055c59.0791 88.6191 102.872 113.255 136.226 113.255
c33.8242 0 66.1113 -26.0664 101.488 -56.3896c34.5732 -29.6338 72.4424 -63.6104 121.012 -63.6104c49.0791 0 100.416 35.458 161.191 126.62c1.89258 2.75488 2.59766 4.98145 2.59766 8.4375c0 8.28418 -6.8584 15.001 -15.1963 15.001z" />
    <glyph glyph-name="exclamdown" unicode="&#xa1;" horiz-adv-x="200" 
d="M99.9131 -15.0713c-8.45215 0.12793 -14.9131 6.74316 -14.9131 15.0713l-0.000976562 560.07c0 8.28418 6.7168 15.001 15.001 15.001c8.28516 0 15 -6.66113 15 -15.0713l0.000976562 -560.07c0 -8.28418 -6.78027 -15.001 -15.0879 -15.001zM100 690
c-11.043 0 -20 8.95703 -20 20s8.95703 20 20 20s20 -8.95703 20 -20s-8.95703 -20 -20 -20z" />
    <glyph glyph-name="cent" unicode="&#xa2;" horiz-adv-x="790" 
d="M409.331 824.819c-8.45215 -0.12793 -14.9131 -6.74316 -14.9131 -15.0713v-74.8721c-79.8057 -13.0283 -155.74 -51.7148 -214.594 -115.271c-136.038 -146.908 -132.628 -374.918 7.74219 -517.693c56.2295 -57.1934 129.658 -94.4707 206.852 -107.174
l-0.000976562 -65.0596c0 -8.28418 6.7168 -15.001 15.001 -15.001c8.28516 0 15 6.66113 15 15.0713v61.3164c7.16699 -0.578125 12.2051 -0.855469 18.5811 -1.05957c66.918 -2.1377 132.625 13.6807 190.591 45.0791c25.4766 13.7998 49.5635 30.6934 71.4229 50.2568
c3.4375 3.00879 5.0791 6.59375 5.0791 11.25c0 8.28418 -6.71777 15 -15.001 15c-4.15039 0 -7.09375 -1.15918 -10.0859 -3.89648c-66.0156 -59.0801 -152.41 -90.5361 -241.049 -87.7031c-6.5127 0.208008 -13.2227 0.634766 -19.5381 1.17969v687.296
c88.9014 7.83008 179.894 -18.3506 252.774 -79.751c2.92578 -2.55078 5.77441 -3.63867 9.7959 -3.63867c8.2832 0 15 6.7168 15 15c0 4.8252 -1.83398 8.62793 -5.46973 11.584c-71.627 60.3428 -159.899 89.4404 -247.256 88.0859
c-8.01953 -0.125 -18.2891 -0.676758 -24.8447 -1.20996l0.000976562 71.2812c0 8.28418 -6.78027 15.001 -15.0879 15.001zM394.418 704.472v-679.298c-71.3672 12.8906 -134.971 46.417 -185.459 97.7705c-129.211 131.425 -132.346 341.047 -7.12207 476.277
c53.1191 57.3633 121.691 92.5537 192.581 105.25z" />
    <glyph glyph-name="sterling" unicode="&#xa3;" horiz-adv-x="630" 
d="M375.071 740c-74.4346 0 -133.729 -32.2197 -173.748 -77.5752c-39.9609 -45.2891 -61.252 -103.51 -61.252 -157.425v-125l-45.0703 0.000976562c-8.28418 0 -15.001 -6.7168 -15.001 -15.001c0 -8.28516 6.66113 -15 15.0713 -15h45v-145
c0 -40.6299 2.25879 -77.4287 -3.49902 -108.519c-5.74219 -31.0098 -18.3467 -56.5098 -50.2246 -79.2793c-4.17383 -2.98438 -6.27539 -7.06543 -6.27539 -12.2012c0 -8.2832 6.71191 -14.998 14.999 -15.001l440.07 -0.000976562c8.28418 0 15.001 6.7168 15.001 15.001
c0 8.28516 -6.66113 15 -15.0713 15h-401.536c19.2246 23.0635 27.8271 45.5947 32.5352 71.0186c6.73535 36.374 4.00098 74.6484 4.00098 113.981v145l245.07 -0.000976562c8.28418 0 15.001 6.7168 15.001 15.001c0 8.28516 -6.66113 15 -15.0713 15h-245v125
c0 46.0684 18.7197 97.877 53.748 137.575c34.9951 39.6602 85.6729 67.4248 151.252 67.4248c56.6465 0 91.5596 -18.3037 113.476 -44.6035c22.0332 -26.4385 31.5234 -62.7305 31.5234 -100.467c0 -8.28418 6.7168 -15.001 15.001 -15.001
c8.28516 0 15 6.66113 15 15.0713c0 42.3916 -10.5059 86.0381 -38.4756 119.603c-28.1064 33.7285 -73.1279 55.3975 -136.524 55.3975z" />
    <glyph glyph-name="Euro" unicode="&#x20ac;" horiz-adv-x="780" 
d="M447.403 739.785c-2.7334 0 -5.46289 0.00390625 -8.19434 -0.0380859c-99.0312 -1.53613 -197.177 -42.1084 -269.438 -120.143c-38.8945 -42.002 -66.6309 -91.6094 -82.5527 -142.056l-109.632 0.000976562c-8.28418 0 -15.001 -6.7168 -15.001 -15.001
c0 -8.28516 6.66113 -15 15.0713 -15h101.482c-11.6855 -52.1211 -12.0254 -105.104 -1.94922 -156.219l-102.189 0.000976562c-8.28418 0 -15.001 -6.7168 -15.001 -15.001c0 -8.28516 6.66113 -15 15.0713 -15h109.377c16.792 -58.585 47.7334 -113.31 93.0645 -159.419
c67.5918 -68.749 159.071 -108.827 255.433 -111.906c96.3457 -3.07812 190.252 31.1123 262.015 95.3359c3.4375 3.00977 5.07715 6.59766 5.07715 11.25c0 8.2832 -6.7168 15 -15 15c-4.15039 0 -7.09375 -1.15918 -10.0859 -3.89648
c-66.0156 -59.0801 -152.409 -90.5361 -241.049 -87.7031c-88.6562 2.83301 -172.812 39.7012 -234.997 102.953c-39.6484 40.3281 -67.2109 87.9629 -83.1631 138.386l299.399 -0.000976562c8.28418 0 15.001 6.7168 15.001 15.001c0 8.28516 -6.66113 15 -15.0713 15
h-307.269c-11.3604 52.8916 -10.1523 106.329 2.11719 156.219l307.808 -0.000976562c8.28418 0 15.001 6.7168 15.001 15.001c0 8.28516 -6.66113 15 -15.0713 15h-298.875c15.5449 44.8174 39.4072 85.3936 73.001 121.673
c125.223 135.229 334.525 148.141 475.355 29.4941c2.92578 -2.55078 5.77441 -3.63867 9.7959 -3.63867c8.2832 0 15 6.7168 15 15c0 4.8252 -1.83301 8.62793 -5.46973 11.584c-69.3818 58.4531 -154.407 87.5967 -239.062 88.124z" />
    <glyph glyph-name="yen" unicode="&#xa5;" 
d="M94.7158 740.153c-8.59375 -0.332031 -14.7158 -6.92578 -14.7158 -15.001c0 -3.1709 0.574219 -5.14941 2.13867 -7.71973l266.839 -457.439l-174 0.000976562c-8.28418 0 -15.001 -6.7168 -15.001 -15.001c0 -8.28516 6.66113 -15 15.0713 -15h185v-90
l-185.07 0.000976562c-8.28418 0 -15.001 -6.7168 -15.001 -15.001c0 -8.28516 6.66113 -15 15.0713 -15h185l-0.000976562 -104.992c0 -8.28418 6.7168 -15.001 15.001 -15.001c8.28516 0 15 6.66113 15 15.0713v104.922l185.07 -0.000976562
c8.28418 0 15.001 6.7168 15.001 15.001c0 8.28516 -6.66113 15 -15.0713 15h-185v90l185.07 -0.000976562c8.28418 0 15.001 6.7168 15.001 15.001c0 8.28516 -6.66113 15 -15.0713 15h-173.93l266.852 457.461c1.56445 2.59961 2.11328 4.52344 2.11328 7.67773
c0 8.20996 -6.53711 14.8896 -14.8672 15c-5.87988 0 -10.4287 -2.72461 -13.1602 -7.56348l-267.008 -457.729l-266.997 457.709c-2.69043 4.81543 -7.56934 7.60449 -13.335 7.60449z" />
    <glyph glyph-name="ordfeminine" unicode="&#xaa;" horiz-adv-x="409" 
d="M204.736 730c-6.26855 0 -10.8721 -3.02246 -13.3691 -8.35059l-110 -235c-1.09082 -2.33008 -1.36719 -3.5752 -1.36719 -6.14844c0 -8.00781 6.49219 -14.5 14.5 -14.5c5.85352 0 10.6514 3.05078 13.1338 8.35254l33.3262 71.2002h127.08l33.3271 -71.2002
c2.48145 -5.30176 7.2793 -8.35254 13.1328 -8.35254c8.00879 0 14.501 6.49219 14.501 14.5c0 2.57324 -0.277344 3.81836 -1.36719 6.14844l-110.003 235.005c-2.41797 5.15918 -7.12207 8.15723 -12.8945 8.3457zM204.5 681.296l49.5459 -105.848h-99.0908z" />
    <glyph glyph-name="uni00B9" unicode="&#xb9;" horiz-adv-x="349" 
d="M174.35 730c-3.00586 -0.0888672 -3.89355 -0.342773 -6.26953 -1.53027l-79.9424 -39.9717c-5.1123 -2.47363 -8.125 -7.2373 -8.125 -13.0234c0 -8.00781 6.49219 -14.501 14.5 -14.501c2.74414 0 4.24512 0.375 6.59082 1.58496l58.96 29.4795v-202.038h-65.5635
c-8.00781 0 -14.5 -6.49219 -14.5 -14.5c0 -8.00879 6.44238 -14.5 14.5635 -14.5h80.7285h79.3359c8.00781 0 14.5 6.49219 14.5 14.5c0 8.00879 -6.44238 14.5 -14.5645 14.5h-65.5v225.501c0 8.00781 -6.64746 14.499 -14.7139 14.499z" />
    <glyph glyph-name="ordmasculine" unicode="&#xba;" horiz-adv-x="401" 
d="M200.5 730c-68.1318 0 -120.5 -63.21 -120.5 -137.5s52.3682 -137.5 120.5 -137.5s120.5 63.21 120.5 137.5s-52.3682 137.5 -120.5 137.5zM200.5 701c48.9199 0 91.5 -46.8867 91.5 -108.5c0 -61.6045 -42.5889 -108.5 -91.5 -108.5
c-48.9199 0 -91.5 46.8867 -91.5 108.5c0 61.6045 42.5889 108.5 91.5 108.5z" />
    <glyph glyph-name="questiondown" unicode="&#xbf;" horiz-adv-x="630" 
d="M315 -10c83.1484 0 142.479 26.2676 180.606 64.3936c38.0752 38.0762 54.3945 86.8623 54.3945 130.677c0 8.28418 -6.7168 15.001 -15.001 15.001c-8.28516 0 -15 -6.66113 -15 -15.0713c0 -36.3232 -13.6738 -77.4609 -45.6064 -109.394
c-31.8848 -31.8857 -82.5244 -55.6064 -159.394 -55.6064s-127.509 23.7217 -159.394 55.6064c-31.9326 31.9326 -45.6064 73.0703 -45.6064 109.394c0 57.7402 12.9375 92.7324 31.4707 118.004c18.5859 25.3457 44.0215 41.8018 71.582 59.3408
c27.4258 17.4531 57.0166 36.0215 79.668 66.9092c22.7441 31.0156 37.2803 73.3877 37.2803 135.816c0 8.28418 -6.7168 15.001 -15.001 15.001c-8.28516 0 -15 -6.66113 -15 -15.0713c0 -57.7402 -12.9375 -92.7324 -31.4707 -118.004
c-18.5859 -25.3457 -44.0215 -41.8018 -71.582 -59.3408c-27.4258 -17.4531 -57.0166 -36.0215 -79.668 -66.9092c-22.7305 -30.9971 -37.2793 -73.457 -37.2793 -135.746c0 -43.6768 16.3311 -92.5439 54.3936 -130.606c38.125 -38.124 97.459 -64.3936 180.606 -64.3936z
M315 700c11.043 0 20 8.95703 20 20s-8.95703 20 -20 20s-20 -8.95703 -20 -20s8.95703 -20 20 -20z" />
    <glyph glyph-name="Agrave" unicode="&#xc0;" 
d="M295.629 940.163c-8.2793 0 -14.9932 -6.71875 -14.9932 -15c0 -4.40234 1.41602 -7.71582 4.49414 -10.707l119.881 -119.882c2.95703 -3.07324 6.31641 -4.5332 10.7461 -4.5332c8.28418 0 15 6.71777 15 15.001c0 4.42188 -1.45801 7.79395 -4.53809 10.749
l-119.875 119.875c-2.98828 3.0791 -6.31152 4.49707 -10.7148 4.49707zM375.015 740.05c-6.35742 0 -11.668 -3.63379 -13.9756 -9.56348l-279.963 -719.907c-0.862305 -2.15332 -1.07617 -3.25 -1.07617 -5.57812c0 -8.28418 6.7168 -15.001 15.001 -15.001
c6.40625 0 11.792 3.74902 14.0186 9.66309l89.5693 230.324h352.86l89.5713 -230.326c2.22949 -5.91309 7.61133 -9.66113 14.0186 -9.66113c8.28418 0 15.001 6.7168 15.001 15.001c0 2.29883 -0.237305 3.49121 -1.06152 5.54004l-279.979 719.946
c-2.30469 5.92676 -7.62305 9.5625 -13.9844 9.5625zM375.02 683.665l164.716 -423.553h-329.432z" />
    <glyph glyph-name="Aacute" unicode="&#xc1;" 
d="M454.411 940.163c8.2793 0 14.9932 -6.71875 14.9932 -15c0 -4.40234 -1.41602 -7.71582 -4.49414 -10.707l-119.881 -119.882c-2.95703 -3.07324 -6.31641 -4.5332 -10.7461 -4.5332c-8.28418 0 -15 6.71777 -15 15.001c0 4.42188 1.45801 7.79395 4.53809 10.749
l119.875 119.875c2.98828 3.0791 6.31152 4.49707 10.7148 4.49707zM375.025 740.05c6.35742 0 11.668 -3.63379 13.9756 -9.56348l279.963 -719.907c0.862305 -2.15332 1.07617 -3.25 1.07617 -5.57812c0 -8.28418 -6.7168 -15.001 -15.001 -15.001
c-6.40625 0 -11.792 3.74902 -14.0186 9.66309l-89.5693 230.324h-352.86l-89.5713 -230.326c-2.22949 -5.91309 -7.61133 -9.66113 -14.0186 -9.66113c-8.28418 0 -15.001 6.7168 -15.001 15.001c0 2.29883 0.237305 3.49121 1.06152 5.54004l279.979 719.946
c2.30469 5.92676 7.62305 9.5625 13.9844 9.5625zM375.021 683.665l-164.716 -423.553h329.432z" />
    <glyph glyph-name="Acircumflex" unicode="&#xc2;" 
d="M374.937 940.256c-4.5791 -0.0683594 -7.45898 -1.32715 -10.5234 -4.39453l-119.929 -119.93c-3.07617 -2.95508 -4.53613 -6.31934 -4.53613 -10.7471c0 -8.28418 6.7168 -15.001 15.001 -15.001c4.42773 0 7.79199 1.45996 10.7471 4.53613l109.323 109.322
l109.323 -109.322c2.95508 -3.07617 6.31934 -4.53613 10.7471 -4.53613c8.28418 0 15.001 6.7168 15.001 15.001c0 4.42773 -1.45996 7.79199 -4.53613 10.7471l-119.929 119.93c-3.07129 3.07031 -6.30664 4.39453 -10.6895 4.39453zM375.015 740.05
c-6.35742 0 -11.668 -3.63379 -13.9756 -9.56348l-279.963 -719.907c-0.862305 -2.15332 -1.07617 -3.25 -1.07617 -5.57812c0 -8.2832 6.71582 -15.001 15 -15.001c6.40625 0 11.792 3.74805 14.0195 9.66309l89.5693 230.324h352.86l89.5713 -230.326
c2.22852 -5.91113 7.6084 -9.66113 14.0176 -9.66113c8.28418 0 15.001 6.7168 15.001 15.001c0 2.30078 -0.235352 3.48242 -1.05859 5.53516l-279.981 719.951c-2.30566 5.92871 -7.62402 9.5625 -13.9844 9.5625zM375.02 683.665l164.716 -423.553h-329.432z" />
    <glyph glyph-name="Atilde" unicode="&#xc3;" 
d="M324.629 923.088c-27.0928 -0.427734 -53.5049 -19.1602 -81.9238 -60.4971c-2.02344 -2.89355 -2.70703 -5.07617 -2.70703 -8.5957c0 -8.28418 6.71777 -15 15.001 -15c5.26367 0 9.50391 2.27832 12.3828 6.53418c26.5244 38.582 45.1885 47.3633 57.7178 47.5605
c12.8857 0.203125 27.252 -9.3877 44.1953 -23.1924c16.2861 -13.2705 34.8184 -30.6465 59.7539 -33.5801c3.16211 -0.37207 6.39746 -0.477539 9.66895 -0.288086c9.83984 0.568359 19.9219 3.81348 29.7178 9.91113c12.9531 8.0625 25.6289 20.9404 38.7422 39.2998
c2.0752 2.80566 2.8916 5.22559 2.8916 8.85449c0 8.2832 -6.71582 15.001 -15 15.001c-5.22168 0 -9.42188 -2.23633 -12.3037 -6.41992c-11.6592 -16.3232 -22.0244 -26.1875 -30.1846 -31.2676c-8.23242 -5.125 -14.0479 -6.00195 -20.0273 -5.29785
c-12.0137 1.41309 -26.999 12.9404 -44.3086 27.0459c-16.7412 13.6396 -36.9766 30.3506 -63.6162 29.9316zM375.016 740.05c-6.35547 0 -11.6719 -3.63672 -13.9756 -9.56348l-279.979 -719.945c-0.824219 -2.04785 -1.06152 -3.24316 -1.06152 -5.54102
c0 -8.28418 6.71777 -15 15.001 -15c6.40723 0 11.7891 3.74805 14.0186 9.66113l89.5703 230.326h352.86l89.5703 -230.324c2.22656 -5.91406 7.6123 -9.66309 14.0186 -9.66309c8.28418 0 15.001 6.7168 15.001 15.001c0 2.2793 -0.256836 3.53125 -1.03906 5.48535
l-280.001 720.003c-2.30664 5.9248 -7.62109 9.56055 -13.9844 9.56055zM375.021 683.665l164.716 -423.553h-329.432z" />
    <glyph glyph-name="Adieresis" unicode="&#xc4;" 
d="M285.02 865.005c-11.042 0 -20 -8.95508 -20 -20c0 -11.043 8.95703 -20 20 -20s20 8.95703 20 20c0 11.0449 -8.95801 20 -20 20zM465.02 865.005c-11.042 0 -20 -8.95508 -20 -20c0 -11.043 8.95703 -20 20 -20s20 8.95703 20 20c0 11.0449 -8.95801 20 -20 20z
M375.015 740.05c-6.35742 0 -11.668 -3.63379 -13.9756 -9.56348l-279.963 -719.907c-0.862305 -2.15332 -1.07617 -3.25 -1.07617 -5.57812c0 -8.2832 6.71582 -15.001 15 -15.001c6.4082 0 11.79 3.75 14.0186 9.66113l89.5703 230.326h352.86l89.5713 -230.326
c2.22852 -5.91113 7.6084 -9.66113 14.0176 -9.66113c8.28418 0 15.001 6.7168 15.001 15.001c0 2.30078 -0.235352 3.48242 -1.05859 5.53516l-279.981 719.951c-2.30566 5.92871 -7.62402 9.5625 -13.9844 9.5625zM375.02 683.665l164.716 -423.553h-329.432z" />
    <glyph glyph-name="Aring" unicode="&#xc5;" 
d="M375.021 940.005c-41.3682 0 -75 -33.6309 -75 -75c0 -41.3682 33.6299 -75 75 -75c41.3662 0 75 33.6299 75 75c0 41.3672 -33.6309 75 -75 75zM375.021 910.005c24.9209 0 45 -20.0801 45 -45c0 -24.9219 -20.0801 -45 -45 -45c-24.9219 0 -45 20.0791 -45 45
s20.0791 45 45 45zM375.015 740.05c-6.35742 0 -11.668 -3.63379 -13.9756 -9.56348l-279.963 -719.907c-0.862305 -2.15332 -1.07617 -3.25195 -1.07617 -5.5791c0 -8.28418 6.71777 -15 15.001 -15c6.40625 0 11.792 3.74902 14.0186 9.66309l89.5693 230.324h352.861
l89.5703 -230.324c2.22656 -5.91406 7.6123 -9.66309 14.0186 -9.66309c8.28418 0 15.001 6.7168 15.001 15.001c0 2.2793 -0.256836 3.53125 -1.03906 5.48535l-280.001 720.003c-2.30664 5.9248 -7.62207 9.56055 -13.9854 9.56055zM375.021 683.665l164.716 -423.553
h-329.432z" />
    <glyph glyph-name="AE" unicode="&#xc6;" horiz-adv-x="870" 
d="M454.971 740c-7.48242 -0.167969 -12.5088 -6.69043 -12.9463 -7.41113l-360.443 -720.887c-1.2334 -2.46973 -1.58105 -3.92285 -1.58105 -6.70215c0 -8.28418 6.7168 -15.001 15.001 -15.001c5.90625 0 10.7773 3.01367 13.417 8.29297l95.7676 191.534h235.815
v-184.826c0 -8.2832 6.7168 -15 15 -15l320.07 -0.000976562c8.28418 0 15.001 6.7168 15.001 15.001c0 8.28516 -6.66113 15 -15.0713 15h-305v182.253c0.158203 0.987305 0.258789 1.75293 0.258789 2.75293c0 2.72363 -0.258789 2.75293 -0.258789 2.75293v142.241
l265.07 -0.000976562c8.28418 0 15.001 6.7168 15.001 15.001c0 8.28516 -6.66113 15 -15.0713 15h-265v330l305.07 -0.000976562c8.28418 0 15.001 6.7168 15.001 15.001c0 8.28516 -6.66113 15 -15.0713 15h-320.03zM440.001 661.458v-297.261v-144.023h-220.642z" />
    <glyph glyph-name="Ccedilla" unicode="&#xc7;" horiz-adv-x="790" 
d="M457.457 739.785c-2.7334 0 -5.46289 0.00390625 -8.19434 -0.0380859c-99.0312 -1.53613 -197.178 -42.1084 -269.438 -120.143c-136.038 -146.908 -132.628 -374.918 7.74219 -517.693c67.5918 -68.749 159.07 -108.827 255.433 -111.906
c25.7432 -0.822266 51.4443 1.10156 76.2422 5.35645c-0.978516 -26.9189 -4.5332 -44.8213 -10.0947 -57.4502c-6.43066 -14.6045 -14.5146 -21.6738 -27.6807 -26.7305c-26.7568 -10.2744 -76.2754 -6.50195 -147.042 -6.50195
c-8.28418 0 -15.001 -6.7168 -15.001 -15.001c0 -8.28516 6.66113 -15 15.0713 -15c68.8242 0 119.514 -6.17871 157.728 8.49707c19.5303 7.49902 35.0635 21.4854 44.3809 42.6445c8.5498 19.4141 12.332 45.4717 12.8301 76.0908
c57.6963 15.0605 110.771 43.3281 155.58 83.4307c3.4375 3.00879 5.0791 6.59375 5.0791 11.25c0 8.28418 -6.71777 15 -15.001 15c-4.15039 0 -7.09375 -1.15918 -10.0859 -3.89648c-66.0166 -59.0801 -152.409 -90.5361 -241.049 -87.7031
c-88.6562 2.83301 -172.812 39.7012 -234.997 102.953c-129.211 131.425 -132.346 341.047 -7.12207 476.277c125.223 135.229 334.524 148.141 475.355 29.4941c2.92578 -2.55078 5.77441 -3.63867 9.7959 -3.63867c8.2832 0 15 6.7168 15 15
c0 4.8252 -1.83398 8.62793 -5.46973 11.584c-69.3818 58.4531 -154.407 87.5967 -239.062 88.124z" />
    <glyph glyph-name="Egrave" unicode="&#xc8;" horiz-adv-x="550" 
d="M196.274 985.057c-8.85156 0 -15.3174 -6.71582 -15.3174 -15c0 -3.73926 0.875977 -6.25098 3.08496 -9.1123l119.916 -159.888c2.92676 -4.01953 7.00391 -6.11328 12.085 -6.11328c8.2832 0 15 6.7168 15 15c0 3.73145 -0.874023 6.25391 -3.08691 9.11523
l-119.914 159.885c-2.80859 3.85742 -6.78125 5.9082 -11.7676 6.11328zM95 740c-8.2832 0 -15 -6.7168 -15 -15v-360.803v-359.197c0 -8.2832 6.7168 -15 15 -15l360.07 -0.000976562c8.28418 0 15.001 6.7168 15.001 15.001c0 8.28516 -6.66113 15 -15.0713 15h-345v330
l305.07 -0.000976562c8.28418 0 15.001 6.7168 15.001 15.001c0 8.28516 -6.66113 15 -15.0713 15h-305v330l345.07 -0.000976562c8.28418 0 15.001 6.7168 15.001 15.001c0 8.28516 -6.66113 15 -15.0713 15h-360z" />
    <glyph glyph-name="Eacute" unicode="&#xc9;" horiz-adv-x="550" 
d="M356.262 985.057c-5.46191 0 -9.36035 -2.07031 -12.3037 -6.11328l-119.914 -159.885c-2.21289 -2.86133 -3.08691 -5.38379 -3.08691 -9.11523c0 -8.28418 6.71777 -15 15.001 -15c5.08105 0 9.15723 2.09473 12.084 6.11328l119.916 159.888
c2.20898 2.86133 3.08496 5.37305 3.08496 9.1123c0 8.12891 -6.60156 14.7646 -14.7812 15zM95 740c-8.2832 0 -15 -6.7168 -15 -15v-360.803v-359.197c0 -8.2832 6.7168 -15 15 -15l360.07 -0.000976562c8.28418 0 15.001 6.7168 15.001 15.001
c0 8.28516 -6.66113 15 -15.0713 15h-345v330l305.07 -0.000976562c8.28418 0 15.001 6.7168 15.001 15.001c0 8.28516 -6.66113 15 -15.0713 15h-305v330l345.07 -0.000976562c8.28418 0 15.001 6.7168 15.001 15.001c0 8.28516 -6.66113 15 -15.0713 15h-360z" />
    <glyph glyph-name="Ecircumflex" unicode="&#xca;" horiz-adv-x="550" 
d="M275.917 945.001c-4.5791 -0.0683594 -7.45898 -1.32715 -10.5234 -4.39453l-119.929 -119.93c-3.07617 -2.95508 -4.53613 -6.31934 -4.53613 -10.7471c0 -8.28418 6.7168 -15.001 15.001 -15.001c4.42773 0 7.79199 1.45996 10.7471 4.53613l109.323 109.322
l109.323 -109.322c2.95508 -3.07617 6.32129 -4.53613 10.748 -4.53613c8.28418 0 15 6.71777 15 15.001c0 4.42773 -1.45996 7.79199 -4.53613 10.7471l-119.929 119.93c-3.07129 3.07031 -6.30664 4.39453 -10.6895 4.39453zM95 740c-8.2832 0 -15 -6.7168 -15 -15
v-360.803v-359.197c0 -8.2832 6.7168 -15 15 -15l360.07 -0.000976562c8.28418 0 15.001 6.7168 15.001 15.001c0 8.28516 -6.66113 15 -15.0713 15h-345v330l305.07 -0.000976562c8.28418 0 15.001 6.7168 15.001 15.001c0 8.28516 -6.66113 15 -15.0713 15h-305v330
l345.07 -0.000976562c8.28418 0 15.001 6.7168 15.001 15.001c0 8.28516 -6.66113 15 -15.0713 15h-360z" />
    <glyph glyph-name="Edieresis" unicode="&#xcb;" horiz-adv-x="550" 
d="M186 902c-11.043 0 -20 -8.95703 -20 -20s8.95703 -20 20 -20s20 8.95703 20 20s-8.95703 20 -20 20zM366 902c-11.043 0 -20 -8.95703 -20 -20s8.95703 -20 20 -20s20 8.95703 20 20s-8.95703 20 -20 20zM95 740c-8.2832 0 -15 -6.7168 -15 -15v-360.803v-359.197
c0 -8.2832 6.7168 -15 15 -15l360.07 -0.000976562c8.28418 0 15.001 6.7168 15.001 15.001c0 8.28516 -6.66113 15 -15.0713 15h-345v330l305.07 -0.000976562c8.28418 0 15.001 6.7168 15.001 15.001c0 8.28516 -6.66113 15 -15.0713 15h-305v330l345.07 -0.000976562
c8.28418 0 15.001 6.7168 15.001 15.001c0 8.28516 -6.66113 15 -15.0713 15h-360z" />
    <glyph glyph-name="Igrave" unicode="&#xcc;" horiz-adv-x="430" 
d="M136.011 943.051c-13.4785 0 -20.0391 -16.4346 -10.5 -25.707l119.88 -119.879c6.25781 -6.51367 15.7432 -5.21094 20.7441 -0.72168c5.29395 4.75488 7.65527 15.0283 0.467773 21.9336l-119.879 119.879c-2.73633 2.81543 -6.66602 4.49512 -10.7129 4.49512z
M85.0674 730v-10c0 -6.05273 5.70801 -10 10 -10h105v-690h-104.93c-9.03809 0.12793 -14.7598 -7.46875 -15.1191 -14.1611c-0.380859 -7.08789 5.15625 -15.9795 15.1162 -15.8389c79.8896 -0.0488281 160.008 0 239.862 0c8.2373 -0.115234 15.1416 6.63281 15.1416 15
s-6.9043 15.1152 -15.1416 15h-104.93v690h104.93c8.2373 -0.115234 15.1416 6.63281 15.1416 15s-6.9043 15.1152 -15.1416 15h-239.93c-6.05273 0 -10 -5.70801 -10 -10z" />
    <glyph glyph-name="Iacute" unicode="&#xcd;" horiz-adv-x="430" 
d="M293.324 985.057c-5.46191 0 -9.36035 -2.07031 -12.3037 -6.11328l-119.914 -159.885c-2.21289 -2.86133 -3.08691 -5.38379 -3.08691 -9.11523c0 -8.28418 6.71777 -15 15.001 -15c5.08105 0 9.15723 2.09473 12.084 6.11328l119.916 159.888
c2.20898 2.86133 3.08496 5.37305 3.08496 9.1123c0 8.12891 -6.60156 14.7646 -14.7812 15zM85.0674 730v-10c0 -6.05273 5.70801 -10 10 -10h105v-690h-104.93c-9.03809 0.12793 -14.7598 -7.46875 -15.1191 -14.1611
c-0.380859 -7.08789 5.15625 -15.9795 15.1162 -15.8389c79.8896 -0.0488281 160.008 0 239.862 0c8.2373 -0.115234 15.1416 6.63281 15.1416 15s-6.9043 15.1152 -15.1416 15h-104.93v690h104.93c8.2373 -0.115234 15.1416 6.63281 15.1416 15
s-6.9043 15.1152 -15.1416 15h-239.93c-6.05273 0 -10 -5.70801 -10 -10z" />
    <glyph glyph-name="Icircumflex" unicode="&#xce;" horiz-adv-x="431" 
d="M214.804 939.999c-3.90039 -0.0585938 -7.63184 -1.63672 -10.3848 -4.39258l-119.93 -119.93c-6.5127 -6.25781 -5.21094 -15.7441 -0.720703 -20.7441c4.75391 -5.29395 15.0283 -7.65527 21.9336 -0.467773l109.323 109.322l109.323 -109.322
c6.25781 -6.51367 15.7432 -5.21094 20.7441 -0.72168c5.29395 4.75488 7.65527 15.0283 0.467773 21.9336l-119.929 119.93c-2.86621 2.86621 -6.77344 4.45117 -10.8281 4.39258zM86.0254 730v-10c0 -6.05273 5.70801 -10 10 -10h105v-690h-104.93
c-9.03809 0.12793 -14.7598 -7.46875 -15.1191 -14.1611c-0.380859 -7.08789 5.1543 -15.9795 15.1191 -15.8389h239.859c8.2373 -0.115234 15.1416 6.63281 15.1416 15s-6.9043 15.1152 -15.1416 15h-104.93v690h104.93c8.2373 -0.115234 15.1416 6.63281 15.1416 15
s-6.9043 15.1152 -15.1416 15h-239.93c-6.05371 0 -10 -5.70801 -10 -10z" />
    <glyph glyph-name="Idieresis" unicode="&#xcf;" horiz-adv-x="430" 
d="M123.067 895c-11.0439 0 -20 -8.95605 -20 -20s8.95605 -20 20 -20s20 8.95605 20 20s-8.95605 20 -20 20zM303.067 895c-11.0439 0 -20 -8.95605 -20 -20s8.95605 -20 20 -20s20 8.95605 20 20s-8.95605 20 -20 20zM85.0674 730v-10c0 -6.05273 5.70801 -10 10 -10h105
v-690h-104.93c-9.03809 0.12793 -14.7598 -7.46875 -15.1191 -14.1611c-0.380859 -7.08789 5.1543 -15.9795 15.1191 -15.8389h239.859c8.2373 -0.115234 15.1416 6.63281 15.1416 15s-6.9043 15.1152 -15.1416 15h-104.93v690h104.93
c8.2373 -0.115234 15.1416 6.63281 15.1416 15s-6.9043 15.1152 -15.1416 15h-239.93c-6.05273 0 -10 -5.70801 -10 -10z" />
    <glyph glyph-name="Eth" unicode="&#xd0;" horiz-adv-x="855" 
d="M216.071 740c-8.2832 0 -15 -6.7168 -15 -15v-344l-106.07 0.000976562c-8.28418 0 -15.001 -6.7168 -15.001 -15.001c0 -8.28516 6.66113 -15 15.0713 -15h106v-346c0 -8.2832 6.7168 -15 15 -15h177c126.259 0 222.619 46.7646 286.733 117.421
c64.0508 70.5859 95.7666 164.227 95.7666 257.579s-31.7158 186.993 -95.7666 257.579c-64.1143 70.6562 -160.475 117.421 -286.733 117.421h-177zM231.071 710h162c118.753 0 206.123 -43.2275 264.517 -107.579c58.4473 -64.4121 87.9834 -150.775 87.9834 -237.421
s-29.5361 -173.009 -87.9834 -237.421c-58.3945 -64.3525 -145.765 -107.579 -264.517 -107.579h-162v331l218.07 -0.000976562c8.28418 0 15.001 6.7168 15.001 15.001c0 8.28516 -6.66113 15 -15.0713 15h-218v329z" />
    <glyph glyph-name="Ntilde" unicode="&#xd1;" horiz-adv-x="670" 
d="M284.669 935.009c-27.0938 -0.426758 -53.499 -19.1533 -81.9287 -60.5049c-2.01562 -2.88672 -2.70117 -5.06641 -2.70117 -8.58691c0 -8.28418 6.7168 -15.001 15.001 -15.001c5.2627 0 9.50781 2.28125 12.3818 6.53418
c26.5254 38.582 45.1885 47.3643 57.7178 47.5605c12.8867 0.203125 27.252 -9.38574 44.1963 -23.1934c16.2871 -13.2695 34.8135 -30.6445 59.7568 -33.5791c3.15918 -0.371094 6.39062 -0.477539 9.66602 -0.288086c9.83984 0.569336 19.9209 3.81445 29.7168 9.91211
c12.9541 8.0625 25.6299 20.9414 38.7422 39.2979c2.07422 2.80371 2.89258 5.22754 2.89258 8.85645c0 8.2832 -6.7168 15 -15 15c-5.21875 0 -9.41992 -2.23438 -12.3047 -6.41895c-11.6592 -16.3242 -22.0234 -26.1875 -30.1836 -31.2686
c-8.23145 -5.12305 -14.0508 -6.00098 -20.0273 -5.29785c-12.0127 1.41406 -27 12.9424 -44.3086 27.0449c-16.7412 13.6416 -36.9766 30.3525 -63.6172 29.9326zM574.913 740.069c-8.45312 -0.12793 -14.9131 -6.74609 -14.9131 -15.0713v-670.459l-452.521 678.781
c-2.94238 4.41211 -7.17383 6.67676 -12.4785 6.67676c-8.28223 0 -14.9951 -6.70801 -15.001 -14.999v-720.07c0 -8.2832 6.71582 -15.001 15 -15.001c8.28516 0 15 6.66113 15 15.0713v670.459l452.525 -678.789c2.94336 -4.40332 7.16895 -6.66797 12.4746 -6.66797
c8.28125 0 14.9971 6.70996 15 14.998l0.000976562 720.07c0 8.28418 -6.78027 15.001 -15.0879 15.001z" />
    <glyph glyph-name="Ograve" unicode="&#xd2;" horiz-adv-x="910" 
d="M374.943 940.051c-8.28027 0 -14.9932 -6.7207 -14.9932 -15c0 -4.40234 1.41602 -7.71582 4.49414 -10.707l119.879 -119.879c2.95508 -3.07617 6.31934 -4.53613 10.7471 -4.53613c8.28418 0 15.001 6.7168 15.001 15.001c0 4.42773 -1.45996 7.79199 -4.53613 10.7471
l-119.877 119.877c-2.99023 3.08008 -6.31152 4.49707 -10.7148 4.49707zM455 740c-207.047 0 -375 -167.953 -375 -375s167.953 -375 375 -375s375 167.953 375 375s-167.953 375 -375 375zM455 710c190.6 0 345 -154.4 345 -345s-154.4 -345 -345 -345
s-345 154.4 -345 345s154.4 345 345 345z" />
    <glyph glyph-name="Oacute" unicode="&#xd3;" horiz-adv-x="910" 
d="M535.057 940.051c8.28027 0 14.9932 -6.7207 14.9932 -15c0 -4.40234 -1.41602 -7.71582 -4.49414 -10.707l-119.879 -119.879c-2.95508 -3.07617 -6.31934 -4.53613 -10.7471 -4.53613c-8.28418 0 -15.001 6.7168 -15.001 15.001
c0 4.42773 1.45996 7.79199 4.53613 10.7471l119.877 119.877c2.99023 3.08008 6.31152 4.49707 10.7148 4.49707zM455 740c207.047 0 375 -167.953 375 -375s-167.953 -375 -375 -375s-375 167.953 -375 375s167.953 375 375 375zM455 710c-190.6 0 -345 -154.4 -345 -345
s154.4 -345 345 -345s345 154.4 345 345s-154.4 345 -345 345z" />
    <glyph glyph-name="Ocircumflex" unicode="&#xd4;" horiz-adv-x="910" 
d="M454.917 945.001c-4.5791 -0.0683594 -7.45898 -1.32715 -10.5234 -4.39453l-119.929 -119.93c-3.07617 -2.95508 -4.53613 -6.31934 -4.53613 -10.7471c0 -8.28418 6.7168 -15.001 15.001 -15.001c4.42773 0 7.79199 1.45996 10.7471 4.53613l109.323 109.322
l109.323 -109.322c2.95508 -3.07617 6.31934 -4.53613 10.7471 -4.53613c8.28418 0 15.001 6.7168 15.001 15.001c0 4.42773 -1.45996 7.79199 -4.53613 10.7471l-119.929 119.93c-3.07129 3.07031 -6.30664 4.39453 -10.6895 4.39453zM455 740
c-207.047 0 -375 -167.953 -375 -375s167.953 -375 375 -375s375 167.953 375 375s-167.953 375 -375 375zM455 710c190.6 0 345 -154.4 345 -345s-154.4 -345 -345 -345s-345 154.4 -345 345s154.4 345 345 345z" />
    <glyph glyph-name="Otilde" unicode="&#xd5;" horiz-adv-x="910" 
d="M404.608 935.032c-27.0938 -0.426758 -53.5 -19.1533 -81.9287 -60.5049c-2.01562 -2.88672 -2.70117 -5.06641 -2.70117 -8.58691c0 -8.2832 6.71582 -15.001 15 -15.001c5.26367 0 9.50391 2.27832 12.3828 6.53418c26.5254 38.582 45.1885 47.3633 57.7178 47.5605
c12.8867 0.203125 27.252 -9.38672 44.1963 -23.1924c16.2852 -13.2695 34.8164 -30.6465 59.7529 -33.5801c3.16309 -0.37207 6.39648 -0.477539 9.66992 -0.288086c9.83887 0.569336 19.9199 3.81348 29.7178 9.91211c12.9502 8.06152 25.6309 20.9443 38.7393 39.2949
c2.07617 2.80273 2.89453 5.23145 2.89453 8.8584c0 8.28418 -6.7168 15.001 -15.001 15.001c-5.21973 0 -9.41992 -2.23633 -12.3027 -6.41895c-11.6611 -16.3252 -22.0244 -26.1885 -30.1846 -31.2676c-8.2334 -5.125 -14.0488 -6.00293 -20.0283 -5.29883
c-12.0127 1.41309 -26.998 12.9404 -44.3086 27.0449c-16.7412 13.6426 -36.9766 30.3516 -63.6162 29.9326zM455 740c-207.047 0 -375 -167.953 -375 -375s167.953 -375 375 -375s375 167.953 375 375s-167.953 375 -375 375zM455 710c190.6 0 345 -154.4 345 -345
s-154.4 -345 -345 -345s-345 154.4 -345 345s154.4 345 345 345z" />
    <glyph glyph-name="Odieresis" unicode="&#xd6;" horiz-adv-x="910" 
d="M363 900c-11.043 0 -20 -8.95703 -20 -20s8.95703 -20 20 -20s20 8.95703 20 20s-8.95703 20 -20 20zM543 900c-11.043 0 -20 -8.95703 -20 -20s8.95703 -20 20 -20s20 8.95703 20 20s-8.95703 20 -20 20zM455 740c-207.047 0 -375 -167.953 -375 -375
s167.953 -375 375 -375s375 167.953 375 375s-167.953 375 -375 375zM455 710c190.6 0 345 -154.4 345 -345s-154.4 -345 -345 -345s-345 154.4 -345 345s154.4 345 345 345z" />
    <glyph glyph-name="Oslash" unicode="&#xd8;" horiz-adv-x="910" 
d="M814.892 740.051c-4.7041 -0.139648 -7.53516 -1.46875 -10.4756 -4.49512l-95.0205 -95.0195c-67.9238 62.4678 -156.256 99.4639 -254.323 99.4639c-207.047 0 -375 -167.953 -375 -375c0 -98.2852 38.0303 -187.522 99.4639 -254.323l-94.9971 -94.998
c-3.0791 -2.95508 -4.53906 -6.32617 -4.53906 -10.751c0 -8.2832 6.7168 -15 15 -15c4.4248 0 7.7959 1.45996 10.751 4.53906l94.998 94.9971c67.9238 -62.4678 156.256 -99.4639 254.323 -99.4639c207.047 0 375 167.953 375 375
c0 98.2852 -38.0303 187.522 -99.4639 254.323l95.0195 95.0205c3.07812 2.99121 4.49414 6.30469 4.49414 10.707c0 8.2832 -6.88281 15 -15.2305 15zM455.072 710c90.0928 0 171.614 -34.5059 233.137 -90.6514l-487.485 -487.485
c-57.1162 62.5869 -90.6514 143.25 -90.6514 233.137c0 190.6 154.4 345 345 345zM709.421 598.137c57.1162 -62.5869 90.6514 -143.25 90.6514 -233.137c0 -190.6 -154.4 -345 -345 -345c-90.0928 0 -171.614 34.5059 -233.137 90.6514z" />
    <glyph glyph-name="Ugrave" unicode="&#xd9;" horiz-adv-x="670" 
d="M254.867 939.975c-8.28027 0 -14.9932 -6.7207 -14.9932 -15c0 -4.40234 1.41602 -7.71582 4.49414 -10.707l119.879 -119.879c2.95508 -3.07617 6.31934 -4.53613 10.7471 -4.53613c8.28418 0 15.001 6.7168 15.001 15.001c0 4.42773 -1.45996 7.79199 -4.53613 10.7471
l-119.877 119.877c-2.99023 3.08008 -6.31152 4.49707 -10.7148 4.49707zM94.9131 740.571c-8.45215 -0.12793 -14.9131 -6.74316 -14.9131 -15.0713v-482c0 -83.3789 31.8779 -147.55 80.0693 -190.118c48.1094 -42.4951 111.675 -63.3818 174.931 -63.3818
c63.2568 0 126.821 20.8857 174.931 63.3818c48.1914 42.5684 80.0693 106.739 80.0693 190.118l0.000976562 482.07c0 8.28418 -6.7168 15.001 -15.001 15.001c-8.28516 0 -15 -6.66113 -15 -15.0713v-482c0 -75.6406 -28.1064 -130.687 -69.9307 -167.632
c-41.8867 -37 -98.3301 -55.8682 -155.069 -55.8682s-113.183 18.8682 -155.069 55.8682c-41.8242 36.9453 -69.9307 91.9912 -69.9307 167.632l0.000976562 482.07c0 8.28418 -6.78027 15.001 -15.0879 15.001z" />
    <glyph glyph-name="Uacute" unicode="&#xda;" horiz-adv-x="670" 
d="M415.134 939.975c8.28027 0 14.9932 -6.7207 14.9932 -15c0 -4.40234 -1.41602 -7.71582 -4.49414 -10.707l-119.879 -119.879c-2.95508 -3.07617 -6.31934 -4.53613 -10.7471 -4.53613c-8.28418 0 -15.001 6.7168 -15.001 15.001
c0 4.42773 1.45996 7.79199 4.53613 10.7471l119.877 119.877c2.99023 3.08008 6.31152 4.49707 10.7148 4.49707zM575.088 740.571c8.45215 -0.12793 14.9131 -6.74316 14.9131 -15.0713v-482c0 -83.3789 -31.8779 -147.55 -80.0693 -190.118
c-48.1094 -42.4951 -111.675 -63.3818 -174.931 -63.3818c-63.2568 0 -126.821 20.8857 -174.931 63.3818c-48.1914 42.5684 -80.0693 106.739 -80.0693 190.118l-0.000976562 482.07c0 8.28418 6.7168 15.001 15.001 15.001c8.28516 0 15 -6.66113 15 -15.0713v-482
c0 -75.6406 28.1064 -130.687 69.9307 -167.632c41.8867 -37 98.3301 -55.8682 155.069 -55.8682s113.183 18.8682 155.069 55.8682c41.8242 36.9453 69.9307 91.9912 69.9307 167.632l-0.000976562 482.07c0 8.28418 6.78027 15.001 15.0879 15.001z" />
    <glyph glyph-name="Ucircumflex" unicode="&#xdb;" horiz-adv-x="670" 
d="M334.841 940.071c-4.5791 -0.0683594 -7.45898 -1.32715 -10.5234 -4.39453l-119.929 -119.93c-3.07617 -2.95508 -4.53613 -6.31934 -4.53613 -10.7471c0 -8.28418 6.7168 -15.001 15.001 -15.001c4.42773 0 7.79199 1.45996 10.7471 4.53613l109.323 109.322
l109.323 -109.322c2.95508 -3.07617 6.31934 -4.53613 10.7471 -4.53613c8.28418 0 15.001 6.7168 15.001 15.001c0 4.42773 -1.45996 7.79199 -4.53613 10.7471l-119.929 119.93c-3.07129 3.07031 -6.30664 4.39453 -10.6895 4.39453zM94.9131 740.571
c-8.45215 -0.12793 -14.9131 -6.74316 -14.9131 -15.0713v-482c0 -83.3789 31.8779 -147.55 80.0693 -190.118c48.1094 -42.4951 111.675 -63.3818 174.931 -63.3818c63.2568 0 126.821 20.8857 174.931 63.3818c48.1914 42.5684 80.0693 106.739 80.0693 190.118
l0.000976562 482.07c0 8.28418 -6.7168 15.001 -15.001 15.001c-8.28516 0 -15 -6.66113 -15 -15.0713v-482c0 -75.6406 -28.1064 -130.687 -69.9307 -167.632c-41.8867 -37 -98.3301 -55.8682 -155.069 -55.8682s-113.183 18.8682 -155.069 55.8682
c-41.8242 36.9453 -69.9307 91.9912 -69.9307 167.632l0.000976562 482.07c0 8.28418 -6.78027 15.001 -15.0879 15.001z" />
    <glyph glyph-name="Udieresis" unicode="&#xdc;" horiz-adv-x="670" 
d="M243.408 895.07c-11.043 0 -20 -8.95703 -20 -20s8.95703 -20 20 -20s20 8.95703 20 20s-8.95703 20 -20 20zM423.408 895.07c-11.043 0 -20 -8.95703 -20 -20s8.95703 -20 20 -20s20 8.95703 20 20s-8.95703 20 -20 20zM94.9131 740.571
c-8.45215 -0.12793 -14.9131 -6.74316 -14.9131 -15.0713v-482c0 -83.3789 31.8779 -147.55 80.0693 -190.118c48.1094 -42.4951 111.675 -63.3818 174.931 -63.3818c63.2568 0 126.821 20.8857 174.931 63.3818c48.1914 42.5684 80.0693 106.739 80.0693 190.118
l0.000976562 482.07c0 8.28418 -6.7168 15.001 -15.001 15.001c-8.28516 0 -15 -6.66113 -15 -15.0713v-482c0 -75.6406 -28.1064 -130.687 -69.9307 -167.632c-41.8867 -37 -98.3301 -55.8682 -155.069 -55.8682s-113.183 18.8682 -155.069 55.8682
c-41.8242 36.9453 -69.9307 91.9912 -69.9307 167.632l0.000976562 482.07c0 8.28418 -6.78027 15.001 -15.0879 15.001z" />
    <glyph glyph-name="Yacute" unicode="&#xdd;" 
d="M454.867 940.044c-4.7041 -0.139648 -7.53516 -1.46875 -10.4756 -4.49512l-119.879 -119.879c-3.07617 -2.95508 -4.53613 -6.31934 -4.53613 -10.7471c0 -8.28418 6.7168 -15.001 15.001 -15.001c4.42773 0 7.79199 1.45996 10.7471 4.53613l119.879 119.879
c3.07812 2.99121 4.49414 6.30469 4.49414 10.707c0 8.2832 -6.88281 15 -15.2305 15zM94.7158 740.153c-8.59375 -0.332031 -14.7158 -6.92578 -14.7158 -15.001c0 -3.1709 0.574219 -5.14941 2.13867 -7.71973l277.909 -476.416l-0.000976562 -236.016
c0 -8.28418 6.7168 -15.001 15.001 -15.001c8.28516 0 15 6.66113 15 15.0713v235.945l277.922 476.438c1.56445 2.59961 2.11328 4.52344 2.11328 7.67773c0 8.20996 -6.53711 14.8896 -14.8672 15c-5.88379 0 -10.4277 -2.72656 -13.1592 -7.5625l-267.009 -457.729
l-266.997 457.709c-2.69043 4.81543 -7.56934 7.60449 -13.335 7.60449z" />
    <glyph glyph-name="agrave" unicode="&#xe0;" 
d="M295.629 940.163c-8.2793 0 -14.9932 -6.71875 -14.9932 -15c0 -4.40234 1.41602 -7.71582 4.49414 -10.707l119.881 -119.882c2.95703 -3.07324 6.31641 -4.5332 10.7461 -4.5332c8.28418 0 15 6.71777 15 15.001c0 4.42188 -1.45801 7.79395 -4.53809 10.749
l-119.875 119.875c-2.98828 3.0791 -6.31152 4.49707 -10.7148 4.49707zM375.015 740.05c-6.35742 0 -11.668 -3.63379 -13.9756 -9.56348l-279.963 -719.907c-0.862305 -2.15332 -1.07617 -3.25 -1.07617 -5.57812c0 -8.28418 6.7168 -15.001 15.001 -15.001
c6.40625 0 11.792 3.74902 14.0186 9.66309l89.5693 230.324h352.86l89.5713 -230.326c2.22949 -5.91309 7.61133 -9.66113 14.0186 -9.66113c8.28418 0 15.001 6.7168 15.001 15.001c0 2.29883 -0.237305 3.49121 -1.06152 5.54004l-279.979 719.946
c-2.30469 5.92676 -7.62305 9.5625 -13.9844 9.5625zM375.02 683.665l164.716 -423.553h-329.432z" />
    <glyph glyph-name="aacute" unicode="&#xe1;" 
d="M454.411 940.163c8.2793 0 14.9932 -6.71875 14.9932 -15c0 -4.40234 -1.41602 -7.71582 -4.49414 -10.707l-119.881 -119.882c-2.95703 -3.07324 -6.31641 -4.5332 -10.7461 -4.5332c-8.28418 0 -15 6.71777 -15 15.001c0 4.42188 1.45801 7.79395 4.53809 10.749
l119.875 119.875c2.98828 3.0791 6.31152 4.49707 10.7148 4.49707zM375.025 740.05c6.35742 0 11.668 -3.63379 13.9756 -9.56348l279.963 -719.907c0.862305 -2.15332 1.07617 -3.25 1.07617 -5.57812c0 -8.28418 -6.7168 -15.001 -15.001 -15.001
c-6.40625 0 -11.792 3.74902 -14.0186 9.66309l-89.5693 230.324h-352.86l-89.5713 -230.326c-2.22949 -5.91309 -7.61133 -9.66113 -14.0186 -9.66113c-8.28418 0 -15.001 6.7168 -15.001 15.001c0 2.29883 0.237305 3.49121 1.06152 5.54004l279.979 719.946
c2.30469 5.92676 7.62305 9.5625 13.9844 9.5625zM375.021 683.665l-164.716 -423.553h329.432z" />
    <glyph glyph-name="acircumflex" unicode="&#xe2;" 
d="M374.937 940.256c-4.5791 -0.0683594 -7.45898 -1.32715 -10.5234 -4.39453l-119.929 -119.93c-3.07617 -2.95508 -4.53613 -6.31934 -4.53613 -10.7471c0 -8.28418 6.7168 -15.001 15.001 -15.001c4.42773 0 7.79199 1.45996 10.7471 4.53613l109.323 109.322
l109.323 -109.322c2.95508 -3.07617 6.31934 -4.53613 10.7471 -4.53613c8.28418 0 15.001 6.7168 15.001 15.001c0 4.42773 -1.45996 7.79199 -4.53613 10.7471l-119.929 119.93c-3.07129 3.07031 -6.30664 4.39453 -10.6895 4.39453zM375.015 740.05
c-6.35742 0 -11.668 -3.63379 -13.9756 -9.56348l-279.963 -719.907c-0.862305 -2.15332 -1.07617 -3.25 -1.07617 -5.57812c0 -8.2832 6.71582 -15.001 15 -15.001c6.40625 0 11.792 3.74805 14.0195 9.66309l89.5693 230.324h352.86l89.5713 -230.326
c2.22852 -5.91113 7.6084 -9.66113 14.0176 -9.66113c8.28418 0 15.001 6.7168 15.001 15.001c0 2.30078 -0.235352 3.48242 -1.05859 5.53516l-279.981 719.951c-2.30566 5.92871 -7.62402 9.5625 -13.9844 9.5625zM375.02 683.665l164.716 -423.553h-329.432z" />
    <glyph glyph-name="atilde" unicode="&#xe3;" 
d="M324.629 923.088c-27.0928 -0.427734 -53.5049 -19.1602 -81.9238 -60.4971c-2.02344 -2.89355 -2.70703 -5.07617 -2.70703 -8.5957c0 -8.28418 6.71777 -15 15.001 -15c5.26367 0 9.50391 2.27832 12.3828 6.53418c26.5244 38.582 45.1885 47.3633 57.7178 47.5605
c12.8857 0.203125 27.252 -9.3877 44.1953 -23.1924c16.2861 -13.2705 34.8184 -30.6465 59.7539 -33.5801c3.16211 -0.37207 6.39746 -0.477539 9.66895 -0.288086c9.83984 0.568359 19.9219 3.81348 29.7178 9.91113c12.9531 8.0625 25.6289 20.9404 38.7422 39.2998
c2.0752 2.80566 2.8916 5.22559 2.8916 8.85449c0 8.2832 -6.71582 15.001 -15 15.001c-5.22168 0 -9.42188 -2.23633 -12.3037 -6.41992c-11.6592 -16.3232 -22.0244 -26.1875 -30.1846 -31.2676c-8.23242 -5.125 -14.0479 -6.00195 -20.0273 -5.29785
c-12.0137 1.41309 -26.999 12.9404 -44.3086 27.0459c-16.7412 13.6396 -36.9766 30.3506 -63.6162 29.9316zM375.016 740.05c-6.35547 0 -11.6719 -3.63672 -13.9756 -9.56348l-279.979 -719.945c-0.824219 -2.04785 -1.06152 -3.24316 -1.06152 -5.54102
c0 -8.28418 6.71777 -15 15.001 -15c6.40723 0 11.7891 3.74805 14.0186 9.66113l89.5703 230.326h352.86l89.5703 -230.324c2.22656 -5.91406 7.6123 -9.66309 14.0186 -9.66309c8.28418 0 15.001 6.7168 15.001 15.001c0 2.2793 -0.256836 3.53125 -1.03906 5.48535
l-280.001 720.003c-2.30664 5.9248 -7.62109 9.56055 -13.9844 9.56055zM375.021 683.665l164.716 -423.553h-329.432z" />
    <glyph glyph-name="adieresis" unicode="&#xe4;" 
d="M285.02 865.005c-11.042 0 -20 -8.95508 -20 -20c0 -11.043 8.95703 -20 20 -20s20 8.95703 20 20c0 11.0449 -8.95801 20 -20 20zM465.02 865.005c-11.042 0 -20 -8.95508 -20 -20c0 -11.043 8.95703 -20 20 -20s20 8.95703 20 20c0 11.0449 -8.95801 20 -20 20z
M375.015 740.05c-6.35742 0 -11.668 -3.63379 -13.9756 -9.56348l-279.963 -719.907c-0.862305 -2.15332 -1.07617 -3.25 -1.07617 -5.57812c0 -8.2832 6.71582 -15.001 15 -15.001c6.4082 0 11.79 3.75 14.0186 9.66113l89.5703 230.326h352.86l89.5713 -230.326
c2.22852 -5.91113 7.6084 -9.66113 14.0176 -9.66113c8.28418 0 15.001 6.7168 15.001 15.001c0 2.30078 -0.235352 3.48242 -1.05859 5.53516l-279.981 719.951c-2.30566 5.92871 -7.62402 9.5625 -13.9844 9.5625zM375.02 683.665l164.716 -423.553h-329.432z" />
    <glyph glyph-name="aring" unicode="&#xe5;" 
d="M375.021 940.005c-41.3682 0 -75 -33.6309 -75 -75c0 -41.3682 33.6299 -75 75 -75c41.3662 0 75 33.6299 75 75c0 41.3672 -33.6309 75 -75 75zM375.021 910.005c24.9209 0 45 -20.0801 45 -45c0 -24.9219 -20.0801 -45 -45 -45c-24.9219 0 -45 20.0791 -45 45
s20.0791 45 45 45zM375.015 740.05c-6.35742 0 -11.668 -3.63379 -13.9756 -9.56348l-279.963 -719.907c-0.862305 -2.15332 -1.07617 -3.25195 -1.07617 -5.5791c0 -8.28418 6.71777 -15 15.001 -15c6.40625 0 11.792 3.74902 14.0186 9.66309l89.5693 230.324h352.861
l89.5703 -230.324c2.22656 -5.91406 7.6123 -9.66309 14.0186 -9.66309c8.28418 0 15.001 6.7168 15.001 15.001c0 2.2793 -0.256836 3.53125 -1.03906 5.48535l-280.001 720.003c-2.30664 5.9248 -7.62207 9.56055 -13.9854 9.56055zM375.021 683.665l164.716 -423.553
h-329.432z" />
    <glyph glyph-name="ae" unicode="&#xe6;" horiz-adv-x="870" 
d="M454.971 740c-7.48242 -0.167969 -12.5088 -6.69043 -12.9463 -7.41113l-360.443 -720.887c-1.2334 -2.46973 -1.58105 -3.92285 -1.58105 -6.70215c0 -8.28418 6.7168 -15.001 15.001 -15.001c5.90625 0 10.7773 3.01367 13.417 8.29297l95.7676 191.534h235.815
v-184.826c0 -8.2832 6.7168 -15 15 -15l320.07 -0.000976562c8.28418 0 15.001 6.7168 15.001 15.001c0 8.28516 -6.66113 15 -15.0713 15h-305v182.253c0.158203 0.987305 0.258789 1.75293 0.258789 2.75293c0 2.72363 -0.258789 2.75293 -0.258789 2.75293v142.241
l265.07 -0.000976562c8.28418 0 15.001 6.7168 15.001 15.001c0 8.28516 -6.66113 15 -15.0713 15h-265v330l305.07 -0.000976562c8.28418 0 15.001 6.7168 15.001 15.001c0 8.28516 -6.66113 15 -15.0713 15h-320.03zM440.001 661.458v-297.261v-144.023h-220.642z" />
    <glyph glyph-name="ccedilla" unicode="&#xe7;" horiz-adv-x="790" 
d="M457.457 739.785c-2.7334 0 -5.46289 0.00390625 -8.19434 -0.0380859c-99.0312 -1.53613 -197.178 -42.1084 -269.438 -120.143c-136.038 -146.908 -132.628 -374.918 7.74219 -517.693c67.5918 -68.749 159.07 -108.827 255.433 -111.906
c25.7432 -0.822266 51.4443 1.10156 76.2422 5.35645c-0.978516 -26.9189 -4.5332 -44.8213 -10.0947 -57.4502c-6.43066 -14.6045 -14.5146 -21.6738 -27.6807 -26.7305c-26.7568 -10.2744 -76.2754 -6.50195 -147.042 -6.50195
c-8.28418 0 -15.001 -6.7168 -15.001 -15.001c0 -8.28516 6.66113 -15 15.0713 -15c68.8242 0 119.514 -6.17871 157.728 8.49707c19.5303 7.49902 35.0635 21.4854 44.3809 42.6445c8.5498 19.4141 12.332 45.4717 12.8301 76.0908
c57.6963 15.0605 110.771 43.3281 155.58 83.4307c3.4375 3.00879 5.0791 6.59375 5.0791 11.25c0 8.28418 -6.71777 15 -15.001 15c-4.15039 0 -7.09375 -1.15918 -10.0859 -3.89648c-66.0166 -59.0801 -152.409 -90.5361 -241.049 -87.7031
c-88.6562 2.83301 -172.812 39.7012 -234.997 102.953c-129.211 131.425 -132.346 341.047 -7.12207 476.277c125.223 135.229 334.524 148.141 475.355 29.4941c2.92578 -2.55078 5.77441 -3.63867 9.7959 -3.63867c8.2832 0 15 6.7168 15 15
c0 4.8252 -1.83398 8.62793 -5.46973 11.584c-69.3818 58.4531 -154.407 87.5967 -239.062 88.124z" />
    <glyph glyph-name="egrave" unicode="&#xe8;" horiz-adv-x="550" 
d="M196.274 985.057c-8.85156 0 -15.3174 -6.71582 -15.3174 -15c0 -3.73926 0.875977 -6.25098 3.08496 -9.1123l119.916 -159.888c2.92676 -4.01953 7.00391 -6.11328 12.085 -6.11328c8.2832 0 15 6.7168 15 15c0 3.73145 -0.874023 6.25391 -3.08691 9.11523
l-119.914 159.885c-2.80859 3.85742 -6.78125 5.9082 -11.7676 6.11328zM95 740c-8.2832 0 -15 -6.7168 -15 -15v-360.803v-359.197c0 -8.2832 6.7168 -15 15 -15l360.07 -0.000976562c8.28418 0 15.001 6.7168 15.001 15.001c0 8.28516 -6.66113 15 -15.0713 15h-345v330
l305.07 -0.000976562c8.28418 0 15.001 6.7168 15.001 15.001c0 8.28516 -6.66113 15 -15.0713 15h-305v330l345.07 -0.000976562c8.28418 0 15.001 6.7168 15.001 15.001c0 8.28516 -6.66113 15 -15.0713 15h-360z" />
    <glyph glyph-name="eacute" unicode="&#xe9;" horiz-adv-x="550" 
d="M356.262 985.057c-5.46191 0 -9.36035 -2.07031 -12.3037 -6.11328l-119.914 -159.885c-2.21289 -2.86133 -3.08691 -5.38379 -3.08691 -9.11523c0 -8.28418 6.71777 -15 15.001 -15c5.08105 0 9.15723 2.09473 12.084 6.11328l119.916 159.888
c2.20898 2.86133 3.08496 5.37305 3.08496 9.1123c0 8.12891 -6.60156 14.7646 -14.7812 15zM95 740c-8.2832 0 -15 -6.7168 -15 -15v-360.803v-359.197c0 -8.2832 6.7168 -15 15 -15l360.07 -0.000976562c8.28418 0 15.001 6.7168 15.001 15.001
c0 8.28516 -6.66113 15 -15.0713 15h-345v330l305.07 -0.000976562c8.28418 0 15.001 6.7168 15.001 15.001c0 8.28516 -6.66113 15 -15.0713 15h-305v330l345.07 -0.000976562c8.28418 0 15.001 6.7168 15.001 15.001c0 8.28516 -6.66113 15 -15.0713 15h-360z" />
    <glyph glyph-name="ecircumflex" unicode="&#xea;" horiz-adv-x="550" 
d="M275.917 945.001c-4.5791 -0.0683594 -7.45898 -1.32715 -10.5234 -4.39453l-119.929 -119.93c-3.07617 -2.95508 -4.53613 -6.31934 -4.53613 -10.7471c0 -8.28418 6.7168 -15.001 15.001 -15.001c4.42773 0 7.79199 1.45996 10.7471 4.53613l109.323 109.322
l109.323 -109.322c2.95508 -3.07617 6.32129 -4.53613 10.748 -4.53613c8.28418 0 15 6.71777 15 15.001c0 4.42773 -1.45996 7.79199 -4.53613 10.7471l-119.929 119.93c-3.07129 3.07031 -6.30664 4.39453 -10.6895 4.39453zM95 740c-8.2832 0 -15 -6.7168 -15 -15
v-360.803v-359.197c0 -8.2832 6.7168 -15 15 -15l360.07 -0.000976562c8.28418 0 15.001 6.7168 15.001 15.001c0 8.28516 -6.66113 15 -15.0713 15h-345v330l305.07 -0.000976562c8.28418 0 15.001 6.7168 15.001 15.001c0 8.28516 -6.66113 15 -15.0713 15h-305v330
l345.07 -0.000976562c8.28418 0 15.001 6.7168 15.001 15.001c0 8.28516 -6.66113 15 -15.0713 15h-360z" />
    <glyph glyph-name="edieresis" unicode="&#xeb;" horiz-adv-x="550" 
d="M186 902c-11.043 0 -20 -8.95703 -20 -20s8.95703 -20 20 -20s20 8.95703 20 20s-8.95703 20 -20 20zM366 902c-11.043 0 -20 -8.95703 -20 -20s8.95703 -20 20 -20s20 8.95703 20 20s-8.95703 20 -20 20zM95 740c-8.2832 0 -15 -6.7168 -15 -15v-360.803v-359.197
c0 -8.2832 6.7168 -15 15 -15l360.07 -0.000976562c8.28418 0 15.001 6.7168 15.001 15.001c0 8.28516 -6.66113 15 -15.0713 15h-345v330l305.07 -0.000976562c8.28418 0 15.001 6.7168 15.001 15.001c0 8.28516 -6.66113 15 -15.0713 15h-305v330l345.07 -0.000976562
c8.28418 0 15.001 6.7168 15.001 15.001c0 8.28516 -6.66113 15 -15.0713 15h-360z" />
    <glyph glyph-name="igrave" unicode="&#xec;" horiz-adv-x="430" 
d="M136.011 943.051c-13.4785 0 -20.0391 -16.4346 -10.5 -25.707l119.88 -119.879c6.25781 -6.51367 15.7432 -5.21094 20.7441 -0.72168c5.29395 4.75488 7.65527 15.0283 0.467773 21.9336l-119.879 119.879c-2.73633 2.81543 -6.66602 4.49512 -10.7129 4.49512z
M85.0674 730v-10c0 -6.05273 5.70801 -10 10 -10h105v-690h-104.93c-9.03809 0.12793 -14.7598 -7.46875 -15.1191 -14.1611c-0.380859 -7.08789 5.15625 -15.9795 15.1162 -15.8389c79.8896 -0.0488281 160.008 0 239.862 0c8.2373 -0.115234 15.1416 6.63281 15.1416 15
s-6.9043 15.1152 -15.1416 15h-104.93v690h104.93c8.2373 -0.115234 15.1416 6.63281 15.1416 15s-6.9043 15.1152 -15.1416 15h-239.93c-6.05273 0 -10 -5.70801 -10 -10z" />
    <glyph glyph-name="iacute" unicode="&#xed;" horiz-adv-x="430" 
d="M293.324 985.057c-5.46191 0 -9.36035 -2.07031 -12.3037 -6.11328l-119.914 -159.885c-2.21289 -2.86133 -3.08691 -5.38379 -3.08691 -9.11523c0 -8.28418 6.71777 -15 15.001 -15c5.08105 0 9.15723 2.09473 12.084 6.11328l119.916 159.888
c2.20898 2.86133 3.08496 5.37305 3.08496 9.1123c0 8.12891 -6.60156 14.7646 -14.7812 15zM85.0674 730v-10c0 -6.05273 5.70801 -10 10 -10h105v-690h-104.93c-9.03809 0.12793 -14.7598 -7.46875 -15.1191 -14.1611
c-0.380859 -7.08789 5.15625 -15.9795 15.1162 -15.8389c79.8896 -0.0488281 160.008 0 239.862 0c8.2373 -0.115234 15.1416 6.63281 15.1416 15s-6.9043 15.1152 -15.1416 15h-104.93v690h104.93c8.2373 -0.115234 15.1416 6.63281 15.1416 15
s-6.9043 15.1152 -15.1416 15h-239.93c-6.05273 0 -10 -5.70801 -10 -10z" />
    <glyph glyph-name="icircumflex" unicode="&#xee;" horiz-adv-x="431" 
d="M214.804 939.999c-3.90039 -0.0585938 -7.63184 -1.63672 -10.3848 -4.39258l-119.93 -119.93c-6.5127 -6.25781 -5.21094 -15.7441 -0.720703 -20.7441c4.75391 -5.29395 15.0283 -7.65527 21.9336 -0.467773l109.323 109.322l109.323 -109.322
c6.25781 -6.51367 15.7432 -5.21094 20.7441 -0.72168c5.29395 4.75488 7.65527 15.0283 0.467773 21.9336l-119.929 119.93c-2.86621 2.86621 -6.77344 4.45117 -10.8281 4.39258zM86.0254 730v-10c0 -6.05273 5.70801 -10 10 -10h105v-690h-104.93
c-9.03809 0.12793 -14.7598 -7.46875 -15.1191 -14.1611c-0.380859 -7.08789 5.1543 -15.9795 15.1191 -15.8389h239.859c8.2373 -0.115234 15.1416 6.63281 15.1416 15s-6.9043 15.1152 -15.1416 15h-104.93v690h104.93c8.2373 -0.115234 15.1416 6.63281 15.1416 15
s-6.9043 15.1152 -15.1416 15h-239.93c-6.05371 0 -10 -5.70801 -10 -10z" />
    <glyph glyph-name="idieresis" unicode="&#xef;" horiz-adv-x="430" 
d="M123.067 895c-11.0439 0 -20 -8.95605 -20 -20s8.95605 -20 20 -20s20 8.95605 20 20s-8.95605 20 -20 20zM303.067 895c-11.0439 0 -20 -8.95605 -20 -20s8.95605 -20 20 -20s20 8.95605 20 20s-8.95605 20 -20 20zM85.0674 730v-10c0 -6.05273 5.70801 -10 10 -10h105
v-690h-104.93c-9.03809 0.12793 -14.7598 -7.46875 -15.1191 -14.1611c-0.380859 -7.08789 5.1543 -15.9795 15.1191 -15.8389h239.859c8.2373 -0.115234 15.1416 6.63281 15.1416 15s-6.9043 15.1152 -15.1416 15h-104.93v690h104.93
c8.2373 -0.115234 15.1416 6.63281 15.1416 15s-6.9043 15.1152 -15.1416 15h-239.93c-6.05273 0 -10 -5.70801 -10 -10z" />
    <glyph glyph-name="eth" unicode="&#xf0;" horiz-adv-x="855" 
d="M216.071 740c-8.2832 0 -15 -6.7168 -15 -15v-344l-106.07 0.000976562c-8.28418 0 -15.001 -6.7168 -15.001 -15.001c0 -8.28516 6.66113 -15 15.0713 -15h106v-346c0 -8.2832 6.7168 -15 15 -15h177c126.259 0 222.619 46.7646 286.733 117.421
c64.0508 70.5859 95.7666 164.227 95.7666 257.579s-31.7158 186.993 -95.7666 257.579c-64.1143 70.6562 -160.475 117.421 -286.733 117.421h-177zM231.071 710h162c118.753 0 206.123 -43.2275 264.517 -107.579c58.4473 -64.4121 87.9834 -150.775 87.9834 -237.421
s-29.5361 -173.009 -87.9834 -237.421c-58.3945 -64.3525 -145.765 -107.579 -264.517 -107.579h-162v331l218.07 -0.000976562c8.28418 0 15.001 6.7168 15.001 15.001c0 8.28516 -6.66113 15 -15.0713 15h-218v329z" />
    <glyph glyph-name="ntilde" unicode="&#xf1;" horiz-adv-x="670" 
d="M284.669 935.009c-27.0938 -0.426758 -53.499 -19.1533 -81.9287 -60.5049c-2.01562 -2.88672 -2.70117 -5.06641 -2.70117 -8.58691c0 -8.28418 6.7168 -15.001 15.001 -15.001c5.2627 0 9.50781 2.28125 12.3818 6.53418
c26.5254 38.582 45.1885 47.3643 57.7178 47.5605c12.8867 0.203125 27.252 -9.38574 44.1963 -23.1934c16.2871 -13.2695 34.8135 -30.6445 59.7568 -33.5791c3.15918 -0.371094 6.39062 -0.477539 9.66602 -0.288086c9.83984 0.569336 19.9209 3.81445 29.7168 9.91211
c12.9541 8.0625 25.6299 20.9414 38.7422 39.2979c2.07422 2.80371 2.89258 5.22754 2.89258 8.85645c0 8.2832 -6.7168 15 -15 15c-5.21875 0 -9.41992 -2.23438 -12.3047 -6.41895c-11.6592 -16.3242 -22.0234 -26.1875 -30.1836 -31.2686
c-8.23145 -5.12305 -14.0508 -6.00098 -20.0273 -5.29785c-12.0127 1.41406 -27 12.9424 -44.3086 27.0449c-16.7412 13.6416 -36.9766 30.3525 -63.6172 29.9326zM574.913 740.069c-8.45312 -0.12793 -14.9131 -6.74609 -14.9131 -15.0713v-670.459l-452.521 678.781
c-2.94238 4.41211 -7.17383 6.67676 -12.4785 6.67676c-8.28223 0 -14.9951 -6.70801 -15.001 -14.999v-720.07c0 -8.2832 6.71582 -15.001 15 -15.001c8.28516 0 15 6.66113 15 15.0713v670.459l452.525 -678.789c2.94336 -4.40332 7.16895 -6.66797 12.4746 -6.66797
c8.28125 0 14.9971 6.70996 15 14.998l0.000976562 720.07c0 8.28418 -6.78027 15.001 -15.0879 15.001z" />
    <glyph glyph-name="ograve" unicode="&#xf2;" horiz-adv-x="910" 
d="M374.943 940.051c-8.28027 0 -14.9932 -6.7207 -14.9932 -15c0 -4.40234 1.41602 -7.71582 4.49414 -10.707l119.879 -119.879c2.95508 -3.07617 6.31934 -4.53613 10.7471 -4.53613c8.28418 0 15.001 6.7168 15.001 15.001c0 4.42773 -1.45996 7.79199 -4.53613 10.7471
l-119.877 119.877c-2.99023 3.08008 -6.31152 4.49707 -10.7148 4.49707zM455 740c-207.047 0 -375 -167.953 -375 -375s167.953 -375 375 -375s375 167.953 375 375s-167.953 375 -375 375zM455 710c190.6 0 345 -154.4 345 -345s-154.4 -345 -345 -345
s-345 154.4 -345 345s154.4 345 345 345z" />
    <glyph glyph-name="oacute" unicode="&#xf3;" horiz-adv-x="910" 
d="M535.057 940.051c8.28027 0 14.9932 -6.7207 14.9932 -15c0 -4.40234 -1.41602 -7.71582 -4.49414 -10.707l-119.879 -119.879c-2.95508 -3.07617 -6.31934 -4.53613 -10.7471 -4.53613c-8.28418 0 -15.001 6.7168 -15.001 15.001
c0 4.42773 1.45996 7.79199 4.53613 10.7471l119.877 119.877c2.99023 3.08008 6.31152 4.49707 10.7148 4.49707zM455 740c207.047 0 375 -167.953 375 -375s-167.953 -375 -375 -375s-375 167.953 -375 375s167.953 375 375 375zM455 710c-190.6 0 -345 -154.4 -345 -345
s154.4 -345 345 -345s345 154.4 345 345s-154.4 345 -345 345z" />
    <glyph glyph-name="ocircumflex" unicode="&#xf4;" horiz-adv-x="910" 
d="M454.917 945.001c-4.5791 -0.0683594 -7.45898 -1.32715 -10.5234 -4.39453l-119.929 -119.93c-3.07617 -2.95508 -4.53613 -6.31934 -4.53613 -10.7471c0 -8.28418 6.7168 -15.001 15.001 -15.001c4.42773 0 7.79199 1.45996 10.7471 4.53613l109.323 109.322
l109.323 -109.322c2.95508 -3.07617 6.31934 -4.53613 10.7471 -4.53613c8.28418 0 15.001 6.7168 15.001 15.001c0 4.42773 -1.45996 7.79199 -4.53613 10.7471l-119.929 119.93c-3.07129 3.07031 -6.30664 4.39453 -10.6895 4.39453zM455 740
c-207.047 0 -375 -167.953 -375 -375s167.953 -375 375 -375s375 167.953 375 375s-167.953 375 -375 375zM455 710c190.6 0 345 -154.4 345 -345s-154.4 -345 -345 -345s-345 154.4 -345 345s154.4 345 345 345z" />
    <glyph glyph-name="otilde" unicode="&#xf5;" horiz-adv-x="910" 
d="M404.608 935.032c-27.0938 -0.426758 -53.5 -19.1533 -81.9287 -60.5049c-2.01562 -2.88672 -2.70117 -5.06641 -2.70117 -8.58691c0 -8.2832 6.71582 -15.001 15 -15.001c5.26367 0 9.50391 2.27832 12.3828 6.53418c26.5254 38.582 45.1885 47.3633 57.7178 47.5605
c12.8867 0.203125 27.252 -9.38672 44.1963 -23.1924c16.2852 -13.2695 34.8164 -30.6465 59.7529 -33.5801c3.16309 -0.37207 6.39648 -0.477539 9.66992 -0.288086c9.83887 0.569336 19.9199 3.81348 29.7178 9.91211c12.9502 8.06152 25.6309 20.9443 38.7393 39.2949
c2.07617 2.80273 2.89453 5.23145 2.89453 8.8584c0 8.28418 -6.7168 15.001 -15.001 15.001c-5.21973 0 -9.41992 -2.23633 -12.3027 -6.41895c-11.6611 -16.3252 -22.0244 -26.1885 -30.1846 -31.2676c-8.2334 -5.125 -14.0488 -6.00293 -20.0283 -5.29883
c-12.0127 1.41309 -26.998 12.9404 -44.3086 27.0449c-16.7412 13.6426 -36.9766 30.3516 -63.6162 29.9326zM455 740c-207.047 0 -375 -167.953 -375 -375s167.953 -375 375 -375s375 167.953 375 375s-167.953 375 -375 375zM455 710c190.6 0 345 -154.4 345 -345
s-154.4 -345 -345 -345s-345 154.4 -345 345s154.4 345 345 345z" />
    <glyph glyph-name="odieresis" unicode="&#xf6;" horiz-adv-x="910" 
d="M363 900c-11.043 0 -20 -8.95703 -20 -20s8.95703 -20 20 -20s20 8.95703 20 20s-8.95703 20 -20 20zM543 900c-11.043 0 -20 -8.95703 -20 -20s8.95703 -20 20 -20s20 8.95703 20 20s-8.95703 20 -20 20zM455 740c-207.047 0 -375 -167.953 -375 -375
s167.953 -375 375 -375s375 167.953 375 375s-167.953 375 -375 375zM455 710c190.6 0 345 -154.4 345 -345s-154.4 -345 -345 -345s-345 154.4 -345 345s154.4 345 345 345z" />
    <glyph glyph-name="oslash" unicode="&#xf8;" horiz-adv-x="910" 
d="M814.892 740.051c-4.7041 -0.139648 -7.53516 -1.46875 -10.4756 -4.49512l-95.0205 -95.0195c-67.9238 62.4678 -156.256 99.4639 -254.323 99.4639c-207.047 0 -375 -167.953 -375 -375c0 -98.2852 38.0303 -187.522 99.4639 -254.323l-94.9971 -94.998
c-3.0791 -2.95508 -4.53906 -6.32617 -4.53906 -10.751c0 -8.2832 6.7168 -15 15 -15c4.4248 0 7.7959 1.45996 10.751 4.53906l94.998 94.9971c67.9238 -62.4678 156.256 -99.4639 254.323 -99.4639c207.047 0 375 167.953 375 375
c0 98.2852 -38.0303 187.522 -99.4639 254.323l95.0195 95.0205c3.07812 2.99121 4.49414 6.30469 4.49414 10.707c0 8.2832 -6.88281 15 -15.2305 15zM455.072 710c90.0928 0 171.614 -34.5059 233.137 -90.6514l-487.485 -487.485
c-57.1162 62.5869 -90.6514 143.25 -90.6514 233.137c0 190.6 154.4 345 345 345zM709.421 598.137c57.1162 -62.5869 90.6514 -143.25 90.6514 -233.137c0 -190.6 -154.4 -345 -345 -345c-90.0928 0 -171.614 34.5059 -233.137 90.6514z" />
    <glyph glyph-name="ugrave" unicode="&#xf9;" horiz-adv-x="670" 
d="M254.867 939.975c-8.28027 0 -14.9932 -6.7207 -14.9932 -15c0 -4.40234 1.41602 -7.71582 4.49414 -10.707l119.879 -119.879c2.95508 -3.07617 6.31934 -4.53613 10.7471 -4.53613c8.28418 0 15.001 6.7168 15.001 15.001c0 4.42773 -1.45996 7.79199 -4.53613 10.7471
l-119.877 119.877c-2.99023 3.08008 -6.31152 4.49707 -10.7148 4.49707zM94.9131 740.571c-8.45215 -0.12793 -14.9131 -6.74316 -14.9131 -15.0713v-482c0 -83.3789 31.8779 -147.55 80.0693 -190.118c48.1094 -42.4951 111.675 -63.3818 174.931 -63.3818
c63.2568 0 126.821 20.8857 174.931 63.3818c48.1914 42.5684 80.0693 106.739 80.0693 190.118l0.000976562 482.07c0 8.28418 -6.7168 15.001 -15.001 15.001c-8.28516 0 -15 -6.66113 -15 -15.0713v-482c0 -75.6406 -28.1064 -130.687 -69.9307 -167.632
c-41.8867 -37 -98.3301 -55.8682 -155.069 -55.8682s-113.183 18.8682 -155.069 55.8682c-41.8242 36.9453 -69.9307 91.9912 -69.9307 167.632l0.000976562 482.07c0 8.28418 -6.78027 15.001 -15.0879 15.001z" />
    <glyph glyph-name="uacute" unicode="&#xfa;" horiz-adv-x="670" 
d="M415.134 939.975c8.28027 0 14.9932 -6.7207 14.9932 -15c0 -4.40234 -1.41602 -7.71582 -4.49414 -10.707l-119.879 -119.879c-2.95508 -3.07617 -6.31934 -4.53613 -10.7471 -4.53613c-8.28418 0 -15.001 6.7168 -15.001 15.001
c0 4.42773 1.45996 7.79199 4.53613 10.7471l119.877 119.877c2.99023 3.08008 6.31152 4.49707 10.7148 4.49707zM575.088 740.571c8.45215 -0.12793 14.9131 -6.74316 14.9131 -15.0713v-482c0 -83.3789 -31.8779 -147.55 -80.0693 -190.118
c-48.1094 -42.4951 -111.675 -63.3818 -174.931 -63.3818c-63.2568 0 -126.821 20.8857 -174.931 63.3818c-48.1914 42.5684 -80.0693 106.739 -80.0693 190.118l-0.000976562 482.07c0 8.28418 6.7168 15.001 15.001 15.001c8.28516 0 15 -6.66113 15 -15.0713v-482
c0 -75.6406 28.1064 -130.687 69.9307 -167.632c41.8867 -37 98.3301 -55.8682 155.069 -55.8682s113.183 18.8682 155.069 55.8682c41.8242 36.9453 69.9307 91.9912 69.9307 167.632l-0.000976562 482.07c0 8.28418 6.78027 15.001 15.0879 15.001z" />
    <glyph glyph-name="ucircumflex" unicode="&#xfb;" horiz-adv-x="670" 
d="M334.841 940.071c-4.5791 -0.0683594 -7.45898 -1.32715 -10.5234 -4.39453l-119.929 -119.93c-3.07617 -2.95508 -4.53613 -6.31934 -4.53613 -10.7471c0 -8.28418 6.7168 -15.001 15.001 -15.001c4.42773 0 7.79199 1.45996 10.7471 4.53613l109.323 109.322
l109.323 -109.322c2.95508 -3.07617 6.31934 -4.53613 10.7471 -4.53613c8.28418 0 15.001 6.7168 15.001 15.001c0 4.42773 -1.45996 7.79199 -4.53613 10.7471l-119.929 119.93c-3.07129 3.07031 -6.30664 4.39453 -10.6895 4.39453zM94.9131 740.571
c-8.45215 -0.12793 -14.9131 -6.74316 -14.9131 -15.0713v-482c0 -83.3789 31.8779 -147.55 80.0693 -190.118c48.1094 -42.4951 111.675 -63.3818 174.931 -63.3818c63.2568 0 126.821 20.8857 174.931 63.3818c48.1914 42.5684 80.0693 106.739 80.0693 190.118
l0.000976562 482.07c0 8.28418 -6.7168 15.001 -15.001 15.001c-8.28516 0 -15 -6.66113 -15 -15.0713v-482c0 -75.6406 -28.1064 -130.687 -69.9307 -167.632c-41.8867 -37 -98.3301 -55.8682 -155.069 -55.8682s-113.183 18.8682 -155.069 55.8682
c-41.8242 36.9453 -69.9307 91.9912 -69.9307 167.632l0.000976562 482.07c0 8.28418 -6.78027 15.001 -15.0879 15.001z" />
    <glyph glyph-name="udieresis" unicode="&#xfc;" horiz-adv-x="670" 
d="M243.408 895.07c-11.043 0 -20 -8.95703 -20 -20s8.95703 -20 20 -20s20 8.95703 20 20s-8.95703 20 -20 20zM423.408 895.07c-11.043 0 -20 -8.95703 -20 -20s8.95703 -20 20 -20s20 8.95703 20 20s-8.95703 20 -20 20zM94.9131 740.571
c-8.45215 -0.12793 -14.9131 -6.74316 -14.9131 -15.0713v-482c0 -83.3789 31.8779 -147.55 80.0693 -190.118c48.1094 -42.4951 111.675 -63.3818 174.931 -63.3818c63.2568 0 126.821 20.8857 174.931 63.3818c48.1914 42.5684 80.0693 106.739 80.0693 190.118
l0.000976562 482.07c0 8.28418 -6.7168 15.001 -15.001 15.001c-8.28516 0 -15 -6.66113 -15 -15.0713v-482c0 -75.6406 -28.1064 -130.687 -69.9307 -167.632c-41.8867 -37 -98.3301 -55.8682 -155.069 -55.8682s-113.183 18.8682 -155.069 55.8682
c-41.8242 36.9453 -69.9307 91.9912 -69.9307 167.632l0.000976562 482.07c0 8.28418 -6.78027 15.001 -15.0879 15.001z" />
    <glyph glyph-name="yacute" unicode="&#xfd;" 
d="M454.867 940.044c-4.7041 -0.139648 -7.53516 -1.46875 -10.4756 -4.49512l-119.879 -119.879c-3.07617 -2.95508 -4.53613 -6.31934 -4.53613 -10.7471c0 -8.28418 6.7168 -15.001 15.001 -15.001c4.42773 0 7.79199 1.45996 10.7471 4.53613l119.879 119.879
c3.07812 2.99121 4.49414 6.30469 4.49414 10.707c0 8.2832 -6.88281 15 -15.2305 15zM94.7158 740.153c-8.59375 -0.332031 -14.7158 -6.92578 -14.7158 -15.001c0 -3.1709 0.574219 -5.14941 2.13867 -7.71973l277.909 -476.416l-0.000976562 -236.016
c0 -8.28418 6.7168 -15.001 15.001 -15.001c8.28516 0 15 6.66113 15 15.0713v235.945l277.922 476.438c1.56445 2.59961 2.11328 4.52344 2.11328 7.67773c0 8.20996 -6.53711 14.8896 -14.8672 15c-5.88379 0 -10.4277 -2.72656 -13.1592 -7.5625l-267.009 -457.729
l-266.997 457.709c-2.69043 4.81543 -7.56934 7.60449 -13.335 7.60449z" />
    <glyph glyph-name="ydieresis" unicode="&#xff;" 
d="M283.059 894.969c-11.043 0 -20 -8.95703 -20 -20s8.95703 -20 20 -20s20 8.95703 20 20s-8.95703 20 -20 20zM463.059 894.969c-11.043 0 -20 -8.95703 -20 -20s8.95703 -20 20 -20s20 8.95703 20 20s-8.95703 20 -20 20zM655.685 740.141
c-5.62695 0.216797 -10.959 -2.80859 -13.6299 -7.59375l-266.996 -457.708l-267.009 457.729c-2.63379 4.66309 -7.75098 7.63477 -13.2266 7.56152c-11.583 -0.155273 -18.5898 -12.875 -12.6855 -22.6787l277.921 -476.436v-235.875
c-0.115234 -8.23926 6.63574 -15.1406 15 -15.1406s15.1152 6.90137 15 15.1406v235.875l277.908 476.415c5.8584 9.61914 -0.837891 22.2676 -12.2822 22.71z" />
    <glyph glyph-name="NameMe.256" unicode="&#x2026;" horiz-adv-x="461" 
d="M100 30c-11.043 0 -20 -8.95703 -20 -20s8.95703 -20 20 -20s20 8.95703 20 20s-8.95703 20 -20 20zM231 30c-11.043 0 -20 -8.95703 -20 -20s8.95703 -20 20 -20s20 8.95703 20 20s-8.95703 20 -20 20zM361 30c-11.043 0 -20 -8.95703 -20 -20s8.95703 -20 20 -20
s20 8.95703 20 20s-8.95703 20 -20 20z" />
    <glyph glyph-name="NameMe.257" unicode="&#x201d;" horiz-adv-x="270" 
d="M94.9141 740.001c-8.45215 -0.12793 -14.9131 -6.74316 -14.9131 -15.0713l-0.000976562 -120.07c0 -8.28418 6.7168 -15.001 15.001 -15.001c8.28516 0 15 6.66113 15 15.0713l0.000976562 120.07c0 8.28418 -6.78027 15.001 -15.0879 15.001zM174.914 740.001
c-8.45215 -0.12793 -14.9131 -6.74316 -14.9131 -15.0713l-0.000976562 -120.07c0 -8.28418 6.7168 -15.001 15.001 -15.001c8.28516 0 15 6.66113 15 15.0713l0.000976562 120.07c0 8.28418 -6.78027 15.001 -15.0879 15.001z" />
    <glyph glyph-name="NameMe.258" unicode="&#x2019;" horiz-adv-x="190" 
d="M94.9131 740.001c-8.45312 -0.12793 -14.9131 -6.74609 -14.9131 -15.0713v-120.07c0 -8.2832 6.71582 -15.001 15 -15.001c8.28516 0 15 6.66113 15 15.0713l0.000976562 120.07c0 8.28418 -6.78027 15.001 -15.0879 15.001z" />
    <glyph glyph-name="NameMe.259" unicode="&#x201c;" horiz-adv-x="270" 
d="M94.9141 740.001c-8.45215 -0.12793 -14.9131 -6.74316 -14.9131 -15.0713l-0.000976562 -120.07c0 -8.28418 6.7168 -15.001 15.001 -15.001c8.28516 0 15 6.66113 15 15.0713l0.000976562 120.07c0 8.28418 -6.78027 15.001 -15.0879 15.001zM174.914 740.001
c-8.45215 -0.12793 -14.9131 -6.74316 -14.9131 -15.0713l-0.000976562 -120.07c0 -8.28418 6.7168 -15.001 15.001 -15.001c8.28516 0 15 6.66113 15 15.0713l0.000976562 120.07c0 8.28418 -6.78027 15.001 -15.0879 15.001z" />
    <glyph glyph-name="NameMe.260" unicode="&#x2018;" horiz-adv-x="190" 
d="M94.9131 740.001c-8.45312 -0.12793 -14.9131 -6.74609 -14.9131 -15.0713v-120.07c0 -8.2832 6.71582 -15.001 15 -15.001c8.28516 0 15 6.66113 15 15.0713l0.000976562 120.07c0 8.28418 -6.78027 15.001 -15.0879 15.001z" />
    </font>
</defs>
</svg>
